P2
# Created by GIMP version 2.10.22 PNM plug-in
256 64
255
0
0
0
0
0
0
0
0
0
0
0
0
0
0
0
0
0
0
0
0
0
0
0
0
0
0
0
0
0
0
0
0
0
0
0
0
0
0
0
0
0
0
0
0
0
0
0
0
0
0
0
0
0
0
0
0
0
0
0
0
0
0
0
0
0
0
0
0
0
0
0
0
0
0
0
0
0
0
0
0
0
0
0
0
0
0
0
0
0
0
0
0
0
0
0
0
0
0
0
0
0
0
0
0
0
0
0
0
0
0
0
0
0
0
0
0
0
0
0
0
0
0
0
0
0
0
0
0
0
0
0
0
0
0
0
0
0
0
0
0
0
0
0
0
0
0
0
0
0
0
0
0
0
0
0
0
0
0
0
0
0
0
0
0
0
0
0
0
0
0
0
0
0
0
0
0
0
0
0
0
0
0
0
0
0
0
0
0
0
0
0
0
0
0
0
0
0
0
0
0
0
0
0
0
0
0
0
0
0
0
0
0
0
0
0
0
0
0
0
0
0
0
0
0
0
0
0
0
0
0
0
0
0
0
0
0
0
0
0
0
0
0
0
0
0
0
0
0
0
0
0
0
0
0
0
0
0
0
0
0
0
0
0
0
0
0
0
0
0
0
0
0
0
0
0
0
0
0
0
0
0
0
0
0
0
0
0
0
0
0
0
0
0
0
0
0
0
0
0
0
0
0
0
0
0
0
0
0
0
0
0
0
0
0
0
0
0
0
0
0
0
0
0
0
0
0
0
0
0
0
0
0
0
0
0
0
0
0
0
0
0
0
0
0
0
0
0
0
0
0
0
0
0
0
0
0
0
0
0
0
0
0
0
0
0
0
0
0
0
0
0
0
0
0
0
0
0
0
0
0
0
0
0
0
0
0
0
0
0
0
0
0
0
0
0
0
0
0
0
0
0
0
0
0
0
0
0
0
0
0
0
0
0
0
0
0
0
0
0
0
0
0
0
0
0
0
0
0
0
0
0
0
0
0
0
0
0
0
0
0
0
0
0
0
0
0
0
0
0
0
0
0
0
0
0
0
0
0
0
0
0
0
0
0
0
0
0
0
0
0
0
0
0
0
0
0
0
0
0
0
0
0
0
0
0
0
0
0
0
0
0
0
0
0
0
0
0
0
0
0
0
0
0
0
0
0
0
0
0
0
0
0
0
0
0
0
0
0
0
0
0
0
0
0
0
0
0
0
0
0
0
0
0
0
0
0
0
0
0
0
0
0
0
0
0
0
0
0
0
0
0
0
0
0
0
0
0
0
0
0
0
0
0
0
0
0
0
0
0
0
0
0
0
0
0
0
0
0
0
0
0
0
0
0
0
0
0
0
0
0
0
0
0
0
0
0
0
0
0
0
0
0
0
0
0
0
0
0
0
0
0
0
0
0
0
0
0
0
0
0
0
0
0
0
0
0
0
0
0
0
0
0
0
0
0
0
0
0
0
0
0
0
0
0
0
0
0
0
0
0
0
0
0
0
0
0
0
0
0
0
0
0
0
0
0
0
0
0
0
0
0
0
0
0
0
0
0
0
0
0
0
0
0
0
0
0
0
0
0
0
0
0
0
0
0
0
0
0
0
0
0
0
0
0
0
0
0
0
0
0
0
0
0
0
0
0
0
0
0
0
0
0
0
0
0
0
0
0
0
0
0
0
0
0
0
0
0
0
0
0
0
0
0
0
0
0
0
0
0
0
0
0
0
0
0
0
0
0
0
0
0
0
0
0
0
0
0
0
0
0
0
0
0
0
0
0
0
0
0
0
0
0
0
0
0
0
0
0
0
0
0
0
0
0
0
0
0
0
0
0
0
0
90
135
165
195
210
210
225
225
225
210
210
195
165
135
90
0
0
0
0
0
0
0
0
0
0
0
0
0
0
0
0
0
0
0
0
0
0
0
0
0
0
0
0
0
0
0
0
0
0
0
0
0
0
0
0
0
0
0
0
0
0
0
0
0
0
0
0
0
0
0
0
0
0
0
0
0
0
0
0
0
0
0
0
0
0
0
0
0
0
0
0
0
0
0
0
0
0
0
0
0
0
0
0
0
0
0
0
0
0
0
0
0
0
0
0
0
0
0
0
0
0
0
0
0
0
0
0
0
0
0
0
0
0
0
0
0
0
0
0
0
0
0
0
0
0
0
0
0
0
0
0
0
0
0
0
0
0
0
0
0
0
0
0
0
0
0
0
0
0
0
0
0
0
0
0
0
0
0
0
0
0
0
0
0
0
0
0
0
0
0
0
0
0
0
0
0
0
0
0
0
0
0
0
0
0
0
0
0
0
0
0
0
0
0
0
0
0
0
0
0
0
0
0
0
0
0
0
0
0
0
0
0
0
0
0
0
0
0
0
0
0
0
0
0
0
0
0
0
0
0
0
0
0
105
165
210
225
225
225
225
225
225
225
225
225
225
225
225
225
225
225
210
165
105
0
0
0
0
0
0
0
0
0
0
0
0
0
0
0
0
0
0
0
0
0
0
0
0
0
0
0
0
0
0
0
0
0
0
0
0
0
0
0
0
0
0
0
0
0
0
0
0
0
0
0
0
0
0
0
0
0
0
0
0
0
0
0
0
0
0
0
0
0
0
0
0
0
0
0
0
0
0
0
0
0
0
0
0
0
0
0
0
0
0
0
0
0
0
0
0
0
0
0
0
0
0
0
0
0
0
0
0
0
0
0
0
0
0
0
0
0
0
0
0
0
0
0
0
0
0
0
0
0
0
0
0
0
0
0
0
0
0
0
0
0
0
0
0
0
0
0
0
0
0
0
0
0
0
0
0
0
0
0
0
0
0
0
0
0
0
0
0
0
0
0
0
0
0
0
0
0
0
0
0
0
0
0
0
0
0
0
0
0
0
0
0
0
0
0
0
0
0
0
0
0
0
0
0
0
0
0
0
0
0
0
0
0
0
0
0
0
0
0
0
0
0
0
0
0
0
0
0
0
0
0
0
0
135
195
225
225
225
225
225
225
225
225
225
225
225
225
225
225
225
225
225
225
225
225
225
195
135
0
0
0
0
0
0
0
0
0
0
0
0
0
0
0
0
0
0
0
0
0
0
0
0
0
0
0
0
0
0
0
0
0
0
0
0
0
0
0
0
0
0
0
0
0
0
0
0
0
0
0
0
0
0
0
0
0
0
0
0
0
0
0
0
0
0
0
0
0
0
0
0
0
0
0
0
0
0
0
0
0
0
0
0
0
0
0
0
0
0
0
0
0
0
0
0
0
0
0
0
0
0
0
0
0
0
0
0
0
0
0
0
0
0
0
0
0
0
0
0
0
0
0
0
0
0
0
0
0
0
0
0
0
0
0
0
0
0
0
0
0
0
0
0
0
0
0
0
0
0
0
0
0
0
0
0
0
0
0
0
0
0
0
0
0
0
0
0
0
0
0
0
0
0
0
0
0
0
0
0
0
0
0
0
0
0
0
0
0
0
0
0
0
0
0
0
0
0
0
0
0
0
0
0
0
0
0
0
0
0
0
0
0
0
0
0
0
0
0
0
0
0
0
0
0
0
0
0
0
135
195
225
225
225
225
225
225
225
225
225
225
225
225
225
225
225
225
225
225
225
225
225
225
225
225
225
195
135
0
0
0
0
0
0
0
0
0
0
0
0
0
0
0
0
0
0
0
0
0
0
0
0
0
0
0
0
0
0
0
0
0
0
0
0
0
0
0
0
0
0
0
0
0
0
0
0
0
0
0
0
0
0
0
0
0
0
0
0
0
0
0
0
0
0
0
0
0
0
0
0
0
0
0
0
0
0
0
0
0
0
0
0
0
0
0
0
0
0
0
0
0
0
0
0
0
0
0
0
0
0
0
0
0
0
0
0
0
0
0
0
0
0
0
0
0
0
0
0
0
0
0
0
0
0
0
0
0
0
0
0
0
0
0
0
0
0
0
0
0
0
0
0
0
0
0
0
0
0
0
0
0
0
0
0
0
0
0
0
0
0
0
0
0
0
0
0
0
0
0
0
0
0
0
0
0
0
0
0
0
0
0
0
0
0
0
0
0
0
0
0
0
0
0
0
0
0
0
0
0
0
0
0
0
0
0
0
0
0
0
0
0
0
0
0
0
0
0
0
0
0
0
0
0
90
180
225
225
225
225
225
225
225
225
210
180
150
120
90
60
15
15
60
90
120
150
180
210
225
225
225
225
225
225
225
180
90
0
0
0
0
0
0
0
0
0
0
0
0
0
0
0
0
0
0
0
0
0
0
0
0
0
0
0
0
0
0
0
0
0
0
0
0
0
0
0
0
0
0
0
0
0
0
0
0
0
0
0
0
0
0
0
0
0
0
0
0
0
0
0
0
0
0
0
0
0
0
0
0
0
0
0
0
0
0
0
0
0
0
0
0
0
0
0
0
0
0
0
0
0
0
0
0
0
0
0
0
0
0
0
0
0
0
0
0
0
0
0
0
0
0
0
0
0
0
0
0
0
0
0
0
0
0
0
0
0
0
0
0
0
0
0
0
0
0
0
0
0
0
0
0
0
0
0
0
0
0
0
0
0
0
0
0
0
0
0
0
0
0
0
0
0
0
0
0
0
0
0
0
0
0
0
0
0
0
0
0
0
0
0
0
0
0
0
0
0
0
0
0
0
0
0
0
0
0
0
0
0
0
0
0
0
0
0
0
0
0
0
0
0
0
0
0
0
0
0
0
0
0
135
210
225
225
225
225
225
225
210
165
105
0
0
0
0
0
0
0
0
0
0
0
0
0
0
105
165
210
225
225
225
225
225
210
135
0
0
0
0
0
0
0
0
0
0
0
0
0
0
0
0
0
0
0
0
0
0
0
0
0
0
0
0
0
0
0
0
0
0
0
0
0
0
0
0
0
0
0
0
0
0
0
0
0
0
0
0
0
0
0
0
0
0
0
0
0
0
0
0
0
0
0
0
0
0
0
0
0
0
0
0
0
0
0
0
0
0
0
0
0
0
0
0
0
0
0
0
0
0
0
0
0
0
0
0
0
0
0
0
0
0
0
0
0
0
0
0
0
0
0
0
0
0
0
0
0
0
0
0
0
0
0
0
0
0
0
0
0
0
0
0
0
0
0
0
0
0
0
0
0
0
0
0
0
0
0
0
0
0
0
0
0
0
0
0
0
0
0
0
0
0
0
0
0
0
0
0
0
0
0
0
0
0
0
0
0
0
0
0
0
0
0
0
0
0
0
0
0
0
0
0
0
0
0
0
0
0
0
0
0
0
0
0
0
0
0
0
0
0
0
0
0
0
0
0
165
225
225
225
225
225
225
195
135
0
0
0
0
0
0
0
0
0
0
0
0
0
0
0
0
0
0
0
0
135
195
225
225
225
225
225
165
0
0
0
0
0
0
0
0
0
0
0
0
0
0
0
0
0
0
0
0
0
0
0
0
0
0
0
0
0
0
0
0
0
0
0
0
0
0
0
0
0
0
0
0
0
0
0
0
0
0
0
0
0
0
0
0
0
0
0
0
0
0
0
0
0
0
0
0
0
0
0
0
0
0
0
0
0
0
0
0
0
0
0
0
0
0
0
0
0
0
0
0
0
0
0
0
0
0
0
0
0
0
0
0
0
0
0
0
0
0
0
0
0
0
0
0
0
0
0
0
0
0
0
0
0
0
0
0
0
0
0
0
0
0
0
0
0
0
0
0
0
0
0
0
0
0
0
0
0
0
0
0
0
0
0
0
0
0
0
0
0
0
0
0
0
0
0
0
0
0
0
0
0
0
0
0
0
0
0
0
0
0
0
0
0
0
0
0
0
0
0
0
0
0
0
0
0
0
0
0
0
0
0
0
0
0
0
0
0
0
0
0
0
0
0
0
0
60
180
225
225
225
225
225
210
150
0
0
0
0
0
0
0
0
0
0
0
0
0
0
0
0
0
0
0
0
0
0
0
0
150
210
225
225
225
225
180
60
0
0
0
0
0
0
0
0
0
0
0
0
0
0
0
0
0
0
0
0
0
0
0
0
0
0
0
0
0
0
0
0
0
0
0
0
0
0
0
0
0
0
0
0
0
0
0
0
0
0
0
0
0
0
0
0
0
0
0
0
0
0
0
0
0
0
0
0
0
0
0
0
0
0
0
0
0
0
0
0
0
0
0
0
0
0
0
0
0
0
0
0
0
0
0
0
0
0
0
0
0
0
0
0
0
0
0
0
0
0
0
0
0
0
0
0
0
0
0
0
0
0
0
0
0
0
0
0
0
0
0
0
0
0
0
0
0
0
0
0
0
0
0
0
0
0
0
0
0
0
0
0
0
0
0
0
0
0
0
0
0
0
0
0
0
0
0
0
0
0
0
0
0
0
0
0
0
0
0
0
0
0
0
0
0
0
0
0
0
0
0
0
0
0
0
0
0
0
0
0
0
0
0
0
0
0
0
0
0
0
0
0
0
0
60
180
225
225
225
225
225
180
90
0
0
0
0
0
0
0
0
0
0
0
0
0
0
0
0
0
0
0
0
0
0
0
0
0
0
90
180
225
225
225
225
180
60
0
0
0
0
0
0
0
0
0
0
0
0
0
0
0
0
0
0
0
0
0
0
0
0
0
0
0
0
0
0
0
0
0
0
0
0
0
0
0
0
0
0
0
0
0
0
0
0
0
0
0
0
0
0
0
0
0
0
0
0
0
0
0
0
0
0
0
0
0
0
0
0
0
0
0
0
0
0
0
0
0
0
0
0
0
0
0
0
0
0
0
0
0
0
0
0
0
0
0
0
0
0
0
0
0
0
0
0
0
0
0
0
0
0
0
0
0
0
0
0
0
0
0
0
0
0
0
0
0
0
0
0
0
0
0
0
0
0
0
0
0
0
0
0
0
0
0
0
0
0
0
0
0
0
0
0
0
0
0
0
0
0
0
0
0
0
0
0
0
0
0
0
0
0
0
0
0
0
0
0
0
0
0
0
0
0
0
0
0
0
0
0
0
0
0
0
0
0
0
0
0
0
0
0
0
0
0
0
0
0
0
0
0
180
225
225
225
225
210
150
0
0
0
0
0
0
0
0
0
0
0
0
0
0
0
0
0
0
0
0
0
0
0
0
0
0
0
0
0
0
150
210
225
225
225
180
0
0
0
0
0
0
0
0
0
0
0
0
0
0
0
0
0
0
0
0
0
0
0
0
0
0
0
0
0
0
0
0
0
0
0
0
0
0
0
0
0
0
0
0
0
0
0
0
0
0
0
0
0
0
0
0
0
0
0
0
0
0
0
0
0
0
0
0
0
0
0
0
0
0
0
0
0
0
0
0
0
0
0
0
0
0
0
0
0
0
0
0
0
0
0
0
0
0
0
0
0
0
0
0
0
0
0
0
0
0
0
0
0
0
0
0
0
0
0
0
0
0
0
0
0
0
0
0
0
0
0
0
0
0
0
0
0
0
0
0
0
0
0
0
0
0
0
0
0
0
0
0
0
0
0
0
0
0
0
0
0
0
0
0
0
0
0
0
0
0
0
0
0
0
0
0
0
0
0
0
0
0
0
0
0
0
0
0
0
0
0
0
0
0
0
0
0
0
0
0
0
0
0
0
0
0
0
0
0
0
0
0
165
225
225
225
225
210
135
0
0
0
0
0
0
0
0
0
0
0
0
0
0
0
0
0
0
0
0
0
0
0
0
0
0
0
0
0
0
0
0
135
210
225
225
225
165
0
0
0
0
0
0
0
0
0
0
0
0
0
0
0
0
0
0
0
0
0
0
0
0
0
0
0
0
0
0
0
0
0
0
0
0
0
0
0
0
0
0
0
0
0
0
0
0
0
0
0
0
0
0
0
0
0
0
0
0
0
0
0
0
0
0
0
0
0
0
0
0
0
0
0
0
0
0
0
0
0
0
0
0
0
0
0
0
0
0
0
0
0
0
0
0
0
0
0
0
0
0
0
0
0
0
0
0
0
0
0
0
0
0
0
0
0
0
0
0
0
0
0
0
0
0
0
0
0
0
0
0
0
0
0
0
0
0
0
0
0
0
0
0
0
0
0
0
0
0
0
0
0
0
0
0
0
0
0
0
0
0
0
0
0
0
0
0
0
0
0
0
0
0
0
0
0
0
0
0
0
0
0
0
0
0
0
0
0
0
0
0
0
0
0
0
0
0
0
0
0
0
0
0
0
0
0
0
0
0
135
225
225
225
225
210
135
0
0
0
0
0
0
0
0
0
0
0
0
0
0
0
0
0
0
0
0
0
0
0
0
0
0
0
0
0
0
0
0
0
0
135
210
225
225
225
135
0
0
0
0
0
0
0
0
0
0
0
0
0
0
0
0
0
0
0
0
0
0
0
0
0
0
0
0
0
0
0
0
0
0
0
0
0
0
0
0
0
0
0
0
0
0
0
0
0
0
0
0
0
0
0
0
0
0
0
0
0
0
0
0
0
0
0
0
0
0
0
0
0
0
0
0
0
0
0
0
0
0
0
0
0
0
0
0
0
0
0
0
0
0
0
0
0
0
0
0
0
0
0
0
0
0
0
0
0
0
0
0
0
0
0
0
0
0
0
0
0
0
0
0
0
0
0
0
0
0
0
0
0
0
0
0
0
0
0
0
0
0
0
0
0
0
0
0
0
0
0
0
0
0
0
0
0
0
0
0
0
0
0
0
0
0
0
0
0
0
0
0
0
0
0
0
0
0
0
0
0
0
0
0
0
0
0
0
0
0
0
0
0
0
0
0
0
0
0
0
0
0
0
0
0
0
0
0
75
210
225
225
225
210
135
0
0
0
0
0
0
0
0
0
0
0
0
0
0
0
0
0
0
0
0
0
0
0
0
0
0
0
0
0
0
0
0
0
0
0
0
135
210
225
225
210
75
0
0
0
0
0
0
0
0
0
0
0
0
0
0
0
0
0
0
0
0
0
0
0
0
0
0
0
0
0
0
0
0
0
0
0
0
0
0
0
0
0
0
0
0
0
0
0
0
0
0
0
0
0
0
0
0
0
0
0
0
0
0
0
0
0
0
0
0
0
0
0
0
0
0
0
0
0
0
0
0
0
0
0
0
0
0
0
0
0
0
0
0
0
0
0
0
0
0
0
0
0
0
0
0
0
0
0
0
0
0
0
0
0
0
0
0
0
0
0
0
0
0
0
0
0
0
0
0
0
0
0
0
0
0
0
0
0
0
0
0
0
0
0
0
0
0
0
0
0
0
0
0
0
0
0
0
0
0
0
0
0
0
0
0
0
0
0
0
0
0
0
0
0
0
0
0
0
0
0
0
0
0
0
0
0
0
0
0
0
0
0
0
0
0
0
0
0
0
0
0
0
0
0
0
0
0
0
180
225
225
225
225
150
0
0
0
0
0
0
0
0
0
0
0
0
0
0
0
0
0
0
0
0
0
0
0
0
0
0
0
0
0
0
0
0
0
0
0
0
0
0
150
225
225
225
180
0
0
0
0
0
0
0
0
0
0
0
0
0
0
0
0
0
0
0
0
0
0
0
0
0
0
0
0
0
0
0
0
0
0
0
0
0
0
0
0
0
0
0
0
0
0
0
0
0
0
0
0
0
0
0
0
0
0
0
0
0
0
0
0
0
0
0
0
0
0
0
0
0
0
0
0
0
0
0
0
0
0
0
0
0
0
0
0
0
0
0
0
0
0
0
0
0
0
0
0
0
0
0
0
0
0
0
0
0
0
0
0
0
0
0
0
0
0
0
0
0
0
0
0
0
0
0
0
0
0
0
0
0
0
0
0
0
0
0
0
0
0
0
0
0
0
0
0
0
0
0
0
0
0
0
0
0
0
0
0
0
0
0
0
0
0
0
0
0
0
0
0
0
0
0
0
0
0
0
0
0
0
0
0
0
0
0
0
0
0
0
0
0
0
0
0
0
0
0
0
0
0
0
0
0
0
120
225
225
225
225
180
0
0
0
0
0
0
0
0
0
0
0
0
0
0
0
0
0
0
0
0
0
0
0
0
0
0
0
0
0
0
0
0
0
0
0
0
0
0
0
0
0
0
0
0
0
0
0
0
0
0
0
0
0
0
0
0
0
0
0
0
0
0
0
0
0
0
0
0
0
0
0
0
0
0
0
0
0
0
0
0
0
0
0
0
0
0
0
0
0
0
0
0
0
0
0
0
0
0
0
0
0
0
0
0
0
0
0
0
0
0
0
0
0
0
0
0
0
0
0
0
0
0
0
0
0
0
0
0
0
0
0
0
0
0
0
0
0
0
0
0
0
0
0
0
0
0
0
0
0
0
0
0
0
0
0
0
0
0
0
0
0
0
0
0
0
0
0
0
0
0
0
0
0
0
0
0
0
0
0
0
0
0
0
0
0
0
0
0
0
0
0
0
0
0
0
0
0
0
0
0
0
0
0
0
0
0
0
0
0
0
0
0
0
0
0
0
0
0
0
0
0
0
0
0
0
0
0
0
0
0
0
0
0
0
0
0
0
0
0
0
0
0
0
0
0
0
0
0
0
0
195
225
225
225
210
90
0
0
0
0
0
0
0
0
0
0
0
0
0
0
0
0
0
0
0
0
0
0
0
0
0
0
0
0
0
0
0
0
0
0
0
0
0
0
0
0
0
0
0
0
0
0
0
0
0
0
0
0
0
0
0
0
0
0
0
0
0
0
0
0
0
0
0
0
0
0
0
0
0
0
0
0
0
0
0
0
0
0
0
0
0
0
0
0
0
0
0
0
0
0
0
0
0
0
0
0
0
0
0
0
0
0
0
0
0
0
0
0
0
0
0
0
0
0
0
0
0
0
0
0
0
0
0
0
0
0
0
0
0
0
0
0
0
0
0
0
0
0
0
0
0
0
0
0
0
0
0
0
0
0
0
0
0
0
0
0
0
0
0
0
45
195
225
210
90
0
0
0
0
0
0
0
0
0
0
0
0
0
0
0
0
0
0
0
0
0
0
0
0
0
0
0
0
0
0
0
0
0
0
0
0
0
0
0
0
0
0
0
0
0
0
0
0
0
75
180
195
150
0
0
0
0
0
0
0
0
0
0
0
0
0
0
0
0
0
0
0
0
0
0
0
0
0
0
0
120
225
225
225
225
150
0
0
0
0
0
0
0
0
0
0
0
0
0
0
0
0
0
0
0
0
0
0
0
0
0
0
0
0
0
0
0
0
135
210
210
210
210
210
210
210
210
210
210
210
210
210
210
210
210
210
210
210
210
210
210
210
210
210
210
210
210
210
210
210
210
210
210
210
150
0
0
0
0
0
0
0
0
0
0
0
0
0
0
0
0
0
0
0
0
0
0
0
0
0
0
0
0
75
180
210
225
225
225
225
225
225
225
225
225
225
225
225
225
210
180
90
0
0
0
0
0
0
0
0
0
0
0
0
0
0
0
0
0
0
0
0
0
0
0
0
0
0
0
0
0
0
0
0
0
0
0
0
0
0
0
0
0
0
0
0
0
0
0
0
0
150
225
225
225
180
0
0
0
0
0
0
0
0
0
0
0
0
0
0
0
0
0
0
0
0
0
0
0
0
0
0
0
0
0
0
0
0
0
0
0
0
0
0
0
0
0
0
0
0
0
0
0
0
0
195
225
225
225
120
0
0
0
0
0
0
0
0
0
0
0
0
0
0
0
0
0
0
0
0
0
0
0
0
0
0
180
225
225
225
195
0
0
0
0
0
0
0
0
0
0
0
0
0
0
0
0
0
0
0
0
0
0
0
0
0
0
0
0
0
0
0
0
30
210
225
225
225
225
225
225
225
225
225
225
225
225
225
225
225
225
225
225
225
225
225
225
225
225
225
225
225
225
225
225
225
225
225
225
225
75
0
0
0
0
0
0
0
0
0
0
0
0
0
0
0
0
0
0
0
0
0
0
0
0
0
0
0
60
210
225
225
225
225
225
225
225
225
225
225
225
225
225
225
225
225
225
225
105
0
0
0
0
0
0
0
0
0
0
0
0
0
0
0
0
0
0
0
0
0
0
0
0
0
0
0
0
0
0
0
0
0
0
0
0
0
0
0
0
0
0
0
0
0
0
0
0
180
225
225
225
210
0
0
0
0
0
0
0
0
0
0
0
0
0
0
0
0
0
0
0
0
0
0
0
0
0
0
0
0
0
0
0
0
0
0
0
0
0
0
0
0
0
0
0
0
0
0
0
0
0
210
225
225
225
165
0
0
0
0
0
0
0
0
0
0
0
0
0
0
0
0
0
0
0
0
0
0
0
0
0
90
225
225
225
225
135
0
0
0
0
0
0
0
0
0
0
0
0
0
0
0
0
0
0
0
0
0
0
0
0
0
0
0
0
0
0
0
0
165
225
225
225
225
225
225
225
225
225
225
225
225
225
225
225
225
225
225
225
225
225
225
225
225
225
225
225
225
225
225
225
225
225
225
225
165
0
0
0
0
0
0
0
0
0
0
0
0
0
0
0
0
0
0
0
0
0
0
0
0
0
0
0
0
165
225
225
225
225
225
225
225
225
225
225
225
225
225
225
225
225
225
225
225
195
0
0
0
0
0
0
0
0
0
0
0
0
0
0
0
0
0
0
0
0
0
0
0
0
0
0
0
0
0
0
0
0
0
0
0
0
0
0
0
0
0
0
0
0
0
0
0
0
195
225
225
225
210
0
0
0
0
0
0
0
0
0
0
0
0
0
0
0
0
0
0
0
0
0
0
0
0
0
0
0
0
0
0
0
0
0
0
0
0
0
0
0
0
0
0
0
0
0
0
0
0
0
225
225
225
225
180
0
0
0
0
0
0
0
0
0
0
0
0
0
0
0
0
0
0
0
0
0
0
0
0
0
150
225
225
225
210
0
0
0
0
0
0
0
0
0
0
0
0
0
0
0
0
0
0
0
0
0
0
0
0
0
0
0
0
0
0
0
0
60
225
225
225
225
225
225
225
225
225
225
225
225
225
225
225
225
225
225
225
225
225
225
225
225
225
225
225
225
225
225
225
225
225
225
225
225
60
0
0
0
0
0
0
0
0
0
0
0
0
0
0
0
0
0
0
0
0
0
0
0
0
0
0
0
0
195
225
225
225
225
225
150
75
15
0
0
0
0
75
120
195
225
225
225
225
225
60
0
0
0
0
0
0
0
0
0
0
0
0
0
0
0
0
0
0
0
0
0
0
0
0
0
0
0
0
0
0
0
0
0
0
0
0
0
0
0
0
0
0
0
0
0
0
0
195
225
225
225
210
0
0
0
0
0
0
0
0
0
0
0
0
0
0
0
0
0
0
0
0
0
0
0
0
0
0
0
0
0
0
0
0
0
0
0
0
0
0
0
0
0
0
0
0
0
0
0
0
0
225
225
225
225
180
0
0
0
0
0
0
0
0
0
0
0
0
0
0
0
0
0
0
0
0
0
0
0
0
0
195
225
225
225
165
0
0
0
0
0
0
0
0
0
0
0
0
0
0
0
0
0
0
0
0
0
0
0
0
0
0
0
0
0
0
0
0
180
225
225
225
225
180
150
135
135
135
135
135
135
135
135
135
135
135
120
120
120
120
120
120
120
120
120
120
120
120
120
120
120
120
120
120
90
0
0
0
0
0
0
0
0
0
0
0
0
0
0
0
0
0
0
0
0
0
0
0
0
0
0
0
0
0
210
225
225
225
225
135
0
0
0
0
0
0
0
0
0
30
210
225
225
225
225
105
0
0
0
0
0
0
0
0
0
0
0
0
0
0
0
0
0
0
0
0
0
0
0
0
0
0
0
0
0
0
0
0
0
0
0
0
0
0
0
0
0
0
0
0
0
0
0
195
225
225
225
210
0
0
0
0
0
0
0
0
0
0
0
0
0
0
0
0
0
0
0
0
0
0
0
0
0
0
0
0
0
0
0
0
0
0
0
0
0
0
0
0
0
0
0
0
0
0
0
0
0
225
225
225
225
180
0
0
0
0
0
0
0
0
0
0
0
0
0
0
0
0
0
0
0
0
0
0
0
0
60
225
225
225
225
105
0
0
0
0
0
0
0
0
0
0
0
0
0
0
0
0
0
0
0
0
0
0
0
0
0
0
0
0
0
0
0
90
225
225
225
225
210
30
0
0
0
0
0
0
0
0
0
0
0
0
0
0
0
0
0
0
0
0
0
0
0
0
0
0
0
0
0
0
0
0
0
0
0
0
0
0
0
0
0
0
0
0
0
0
0
0
0
0
0
0
0
0
0
0
0
0
0
0
210
225
225
225
210
0
0
0
0
0
0
0
0
0
0
0
150
225
225
225
225
105
0
0
0
0
0
0
0
0
0
0
0
0
0
0
0
0
0
0
0
0
0
0
0
0
0
0
0
0
0
0
0
0
0
0
0
0
0
0
0
0
0
0
0
0
0
0
0
195
225
225
225
210
0
0
0
0
0
0
0
0
0
0
0
0
0
0
0
0
0
0
0
0
0
0
0
0
0
0
0
0
0
0
0
0
0
0
0
0
0
0
0
0
0
0
0
0
0
0
0
0
0
225
225
225
225
195
0
0
0
0
0
0
0
0
0
0
0
0
0
0
0
0
0
0
0
0
0
0
0
0
135
225
225
225
210
0
0
0
0
0
0
0
0
0
0
0
0
0
0
0
0
0
0
0
0
0
0
0
0
0
0
0
0
0
0
0
0
195
225
225
225
225
120
0
0
0
0
0
0
0
0
0
0
0
0
0
0
0
0
0
0
0
0
0
0
0
0
0
0
0
0
0
0
0
0
0
0
0
0
0
0
0
0
0
0
0
0
0
0
0
0
0
0
0
0
0
0
0
0
0
0
0
0
0
210
225
225
225
180
0
0
0
0
0
0
0
0
0
0
0
135
225
225
225
225
105
0
0
0
0
0
0
0
0
0
0
0
0
0
0
0
0
0
0
0
0
0
0
0
0
0
0
0
0
0
0
0
0
0
0
0
0
0
0
0
0
0
0
0
0
0
0
0
195
225
225
225
210
0
0
0
0
0
0
0
0
0
0
0
0
0
0
0
0
0
0
0
0
0
0
0
0
0
0
0
0
0
0
0
0
0
0
0
0
0
0
0
0
0
0
0
0
0
0
0
0
0
225
225
225
225
225
90
0
0
0
0
0
0
0
0
0
0
0
0
0
0
0
0
0
0
0
0
0
0
0
165
225
225
225
180
0
0
0
0
0
0
0
0
0
0
0
0
0
0
0
0
0
0
0
0
0
0
0
0
0
0
0
0
0
0
0
120
225
225
225
225
180
0
0
0
0
0
0
0
0
0
0
0
180
225
225
165
0
0
0
0
0
0
0
0
0
0
0
0
0
0
0
0
0
0
0
0
0
0
0
0
0
0
0
0
0
0
0
0
0
0
0
0
0
0
0
0
0
0
0
0
0
0
0
210
225
225
225
180
0
0
0
0
0
0
0
0
0
0
0
120
225
225
225
225
105
0
0
0
0
0
0
0
0
0
0
0
0
0
0
0
0
0
0
0
0
0
0
0
0
0
0
0
0
0
0
0
0
0
0
0
0
0
0
0
0
0
0
0
0
0
0
0
195
225
225
225
210
0
0
0
0
0
0
0
0
0
15
0
0
0
0
0
0
0
0
0
0
15
0
0
0
0
0
0
0
0
0
0
0
0
0
0
0
0
0
0
0
0
0
0
0
0
0
0
0
0
225
225
225
225
225
210
135
75
15
0
0
0
0
0
0
0
0
0
0
0
0
0
0
0
0
0
0
0
0
180
225
225
225
150
0
0
0
0
0
0
0
0
0
0
0
0
0
0
0
0
0
0
0
0
0
0
0
0
0
0
0
0
0
0
15
210
225
225
225
225
75
0
0
0
0
0
0
0
0
0
0
0
150
225
225
180
0
0
0
0
0
0
0
0
0
0
0
0
0
0
0
0
0
0
0
0
0
0
0
0
0
0
0
0
0
0
0
0
0
0
0
0
0
0
0
0
0
0
0
0
0
0
0
210
225
225
225
180
0
0
0
0
0
0
0
0
0
0
0
120
225
225
225
225
105
0
0
0
0
0
0
105
180
210
225
225
225
225
225
225
225
210
195
135
0
0
0
0
0
0
0
90
210
225
225
225
225
225
225
225
225
225
210
195
120
0
0
0
0
0
0
0
195
225
225
225
210
0
0
0
0
0
0
0
120
210
225
180
45
0
0
0
0
0
0
135
210
225
165
0
0
0
0
0
0
0
75
180
210
225
225
225
225
225
225
225
225
225
210
150
0
0
0
0
0
0
225
225
225
225
225
225
225
225
225
225
225
195
30
0
0
0
0
0
0
0
0
0
0
0
0
0
0
0
0
195
225
225
225
120
0
0
0
0
0
0
0
0
0
0
0
0
0
0
0
0
0
0
0
0
0
0
0
0
0
0
0
0
0
0
135
225
225
225
225
165
0
0
0
0
0
0
0
0
0
0
0
0
120
225
225
195
0
0
0
0
0
0
0
0
0
0
0
0
0
0
0
0
0
0
0
0
0
0
0
0
0
0
0
0
0
0
0
0
0
0
0
0
0
0
0
0
0
0
0
0
0
0
0
210
225
225
225
180
0
0
0
0
0
0
0
0
0
0
0
135
225
225
225
225
105
0
0
0
0
0
120
225
225
225
225
225
225
225
225
225
225
225
225
225
165
0
0
0
0
0
0
90
210
225
225
225
225
225
225
225
225
225
225
225
225
135
0
0
0
0
0
0
195
225
225
225
210
0
0
0
0
0
0
0
195
225
225
225
150
0
0
0
0
0
45
210
225
225
225
90
0
0
0
0
0
90
210
225
225
225
225
225
225
225
225
225
225
225
210
135
0
0
0
0
0
0
225
225
225
225
225
225
225
225
225
225
225
195
30
0
0
0
0
0
150
210
225
225
225
225
225
225
225
225
225
225
225
225
225
225
225
225
225
225
225
225
225
225
225
210
210
210
210
210
210
210
150
0
0
0
0
0
0
0
0
0
0
0
0
45
210
225
225
225
210
30
0
0
0
0
0
0
0
0
0
0
0
0
90
225
225
210
0
0
0
0
0
0
0
0
0
0
0
0
0
0
0
0
0
0
0
0
0
0
0
0
0
0
0
0
0
0
0
0
0
0
0
0
0
0
0
0
0
0
0
0
0
0
0
210
225
225
225
180
0
0
0
0
0
0
0
0
0
0
0
150
225
225
225
225
105
0
0
0
0
0
195
225
225
225
225
195
90
0
75
165
225
225
225
225
225
60
0
0
0
0
0
0
0
0
0
0
0
0
0
30
120
210
225
225
225
210
15
0
0
0
0
0
195
225
225
225
210
0
0
0
0
0
0
0
225
225
225
225
180
0
0
0
0
0
105
225
225
225
225
135
0
0
0
0
0
195
225
225
225
225
120
30
0
0
0
0
0
0
0
0
0
0
0
0
0
0
225
225
225
225
225
225
150
75
15
0
0
0
0
0
0
0
0
0
90
225
225
225
225
225
225
225
225
225
225
225
225
225
225
225
225
225
225
225
225
225
225
225
225
225
225
225
225
225
225
225
225
75
0
0
0
0
0
0
0
0
0
0
0
165
225
225
225
225
120
0
0
0
0
0
0
0
0
0
0
0
0
0
60
225
225
225
0
0
0
0
0
0
0
0
0
0
0
0
0
0
0
0
0
0
0
0
0
0
0
0
0
0
0
0
0
0
0
0
0
0
0
0
0
0
0
0
0
0
0
0
0
0
0
210
225
225
225
210
0
0
0
0
0
0
0
0
0
0
0
180
225
225
225
225
105
0
0
0
0
30
225
225
225
225
225
60
0
0
0
0
195
225
225
225
225
120
0
0
0
0
0
0
0
0
0
0
0
0
0
0
0
150
225
225
225
225
105
0
0
0
0
0
195
225
225
225
210
0
0
0
0
0
0
0
225
225
225
225
195
0
0
0
0
0
120
225
225
225
225
150
0
0
0
0
0
225
225
225
225
180
0
0
0
0
0
0
0
0
0
0
0
0
0
0
0
0
225
225
225
225
225
135
0
0
0
0
0
0
0
0
0
0
0
0
0
180
225
225
225
225
225
225
225
225
225
225
225
225
225
225
225
225
225
225
225
225
225
225
225
225
225
225
225
225
225
225
225
180
0
0
0
0
0
0
0
0
0
0
75
225
225
225
225
195
0
0
0
0
0
0
0
0
0
0
0
0
0
0
15
225
225
225
0
0
0
0
0
0
0
0
0
0
0
0
0
0
0
0
0
0
0
0
0
0
0
0
0
0
0
0
0
0
0
0
0
0
0
0
0
0
0
0
0
0
0
0
0
0
0
210
225
225
225
225
120
0
0
0
0
0
0
0
0
0
90
225
225
225
225
225
105
0
0
0
0
60
225
225
225
225
195
0
0
0
0
0
150
225
225
225
225
135
0
0
0
0
0
0
0
0
0
0
0
0
0
0
0
135
225
225
225
225
120
0
0
0
0
0
195
225
225
225
210
0
0
0
0
0
0
0
225
225
225
225
195
0
0
0
0
0
120
225
225
225
225
150
0
0
0
0
60
225
225
225
225
165
0
0
0
0
0
0
0
0
0
0
0
0
0
0
0
0
225
225
225
225
210
15
0
0
0
0
0
0
0
0
0
0
0
0
0
75
225
225
225
225
225
225
225
225
225
225
225
225
225
225
225
225
225
225
225
225
225
225
225
225
225
225
225
225
225
225
225
225
90
0
0
0
0
0
0
0
0
0
180
225
225
225
225
90
0
0
0
0
0
0
0
0
0
0
0
0
0
0
15
225
225
225
0
0
0
0
0
0
0
0
0
0
0
0
0
0
0
0
0
0
0
0
0
0
0
0
0
0
0
0
0
0
0
0
0
0
0
0
0
0
0
0
0
0
0
0
0
0
0
210
225
225
225
225
210
150
75
15
0
0
0
0
45
135
210
225
225
225
225
225
105
0
0
0
0
60
225
225
225
225
180
0
0
0
0
0
135
225
225
225
225
135
0
0
0
0
0
0
0
0
0
0
0
0
0
0
0
150
225
225
225
225
135
0
0
0
0
0
195
225
225
225
210
0
0
0
0
0
0
0
225
225
225
225
195
0
0
0
0
0
120
225
225
225
225
150
0
0
0
0
60
225
225
225
225
165
0
0
0
0
0
0
0
0
0
0
0
0
0
0
0
0
225
225
225
225
195
0
0
0
0
0
0
0
0
0
0
0
0
0
0
0
150
165
165
165
165
165
165
165
165
225
225
225
225
180
165
165
165
165
165
165
165
165
165
165
165
165
165
165
165
165
165
165
150
0
0
0
0
0
0
0
0
105
225
225
225
225
165
0
0
0
0
0
0
0
0
0
0
0
0
0
0
0
60
225
225
225
0
0
0
0
0
0
0
0
15
165
210
225
225
225
225
225
225
225
225
225
225
210
105
0
0
0
0
165
195
105
0
0
0
0
0
0
0
0
75
195
180
30
0
0
0
0
0
210
225
225
225
225
225
225
225
225
225
225
225
225
225
225
225
225
225
225
225
225
105
0
0
0
0
60
225
225
225
225
180
0
0
0
0
0
135
225
225
225
225
135
0
0
0
0
0
0
0
0
0
0
0
0
0
30
105
210
225
225
225
225
135
0
0
0
0
0
195
225
225
225
210
0
0
0
0
0
0
0
225
225
225
225
195
0
0
0
0
0
120
225
225
225
225
150
0
0
0
0
60
225
225
225
225
165
0
0
0
0
0
0
0
0
0
0
0
0
0
0
0
0
225
225
225
225
180
0
0
0
0
0
0
0
0
0
0
0
0
0
0
0
0
0
0
0
0
0
0
0
0
210
225
225
225
90
0
0
0
0
0
0
0
0
0
0
0
0
0
0
0
0
0
0
0
0
0
0
0
0
0
0
0
195
225
225
225
210
45
0
0
0
0
0
0
0
0
0
0
0
0
0
0
0
90
225
225
210
0
0
0
0
0
0
0
0
150
225
225
225
225
225
225
225
225
225
225
225
225
210
105
0
0
0
60
225
225
195
0
0
0
0
0
0
0
0
165
225
225
135
0
0
0
0
0
210
225
225
225
225
225
225
225
225
225
225
225
225
225
225
225
225
225
225
225
225
105
0
0
0
0
60
225
225
225
225
180
0
0
0
0
0
135
225
225
225
225
135
0
0
0
0
0
0
105
180
210
225
225
225
225
225
225
225
225
225
225
225
135
0
0
0
0
0
195
225
225
225
210
0
0
0
0
0
0
0
225
225
225
225
195
0
0
0
0
0
120
225
225
225
225
150
0
0
0
0
45
225
225
225
225
180
0
0
0
0
0
0
0
0
0
0
0
0
0
0
0
0
225
225
225
225
180
0
0
0
0
0
0
0
0
0
0
0
0
0
0
0
0
0
0
0
0
0
0
0
0
195
225
225
225
120
0
0
0
0
0
0
0
0
0
0
0
0
0
0
0
0
0
0
0
0
0
0
0
0
0
0
120
225
225
225
225
135
0
0
0
0
0
0
0
0
0
0
0
0
0
0
0
0
120
225
225
195
0
0
0
0
0
0
0
0
195
225
225
210
120
60
0
0
0
0
0
0
0
0
0
0
0
0
105
225
225
210
0
0
0
0
0
0
0
0
180
225
225
150
0
0
0
0
0
210
225
225
225
225
210
135
90
30
0
0
0
0
75
120
195
225
225
225
225
225
105
0
0
0
0
60
225
225
225
225
180
0
0
0
0
0
135
225
225
225
225
135
0
0
0
0
0
120
225
225
225
225
225
225
225
225
225
225
225
225
225
225
135
0
0
0
0
0
195
225
225
225
210
0
0
0
0
0
0
0
225
225
225
225
195
0
0
0
0
0
120
225
225
225
225
150
0
0
0
0
0
210
225
225
225
210
105
15
0
0
0
0
0
0
0
0
0
0
0
0
0
0
225
225
225
225
180
0
0
0
0
0
0
0
0
0
0
0
0
0
0
0
0
0
0
0
0
0
0
0
0
180
225
225
225
150
0
0
0
0
0
0
0
0
0
0
0
0
0
0
0
180
225
225
225
225
135
0
0
0
0
15
210
225
225
225
195
0
0
0
0
0
0
0
0
0
0
0
0
0
0
0
0
0
150
225
225
180
0
0
0
0
0
0
0
0
210
225
225
135
0
0
0
0
0
0
0
0
0
0
0
0
0
0
105
225
225
210
0
0
0
0
0
0
0
0
180
225
225
150
0
0
0
0
0
210
225
225
225
225
75
0
0
0
0
0
0
0
0
0
15
195
225
225
225
225
105
0
0
0
0
60
225
225
225
225
180
0
0
0
0
0
135
225
225
225
225
135
0
0
0
0
0
195
225
225
225
225
195
105
45
90
165
225
225
225
225
225
135
0
0
0
0
0
195
225
225
225
210
0
0
0
0
0
0
0
225
225
225
225
195
0
0
0
0
0
120
225
225
225
225
150
0
0
0
0
0
135
225
225
225
225
225
225
225
225
225
225
210
180
105
0
0
0
0
0
0
0
225
225
225
225
180
0
0
0
0
0
0
0
0
0
0
0
0
0
0
0
0
0
0
0
0
0
0
0
0
165
225
225
225
180
0
0
0
0
0
0
0
0
0
0
0
0
0
0
0
75
225
225
225
225
210
45
0
0
0
150
225
225
225
225
90
0
0
0
0
0
0
0
0
0
0
0
0
0
0
0
0
0
180
225
225
165
0
0
0
0
0
0
0
0
210
225
225
105
0
0
0
0
0
0
0
0
0
0
0
0
0
0
105
225
225
210
0
0
0
0
0
0
0
0
180
225
225
150
0
0
0
0
0
210
225
225
225
195
0
0
0
0
0
0
0
0
0
0
0
150
225
225
225
225
105
0
0
0
0
60
225
225
225
225
180
0
0
0
0
0
135
225
225
225
225
135
0
0
0
0
0
225
225
225
225
210
60
0
0
0
0
195
225
225
225
225
135
0
0
0
0
0
195
225
225
225
210
0
0
0
0
0
0
0
225
225
225
225
195
0
0
0
0
0
120
225
225
225
225
150
0
0
0
0
0
0
105
180
210
225
225
225
225
225
225
225
225
225
225
135
0
0
0
0
0
0
225
225
225
225
180
0
0
0
0
0
0
0
0
0
0
0
0
0
0
0
0
0
0
0
0
0
0
0
0
135
225
225
225
210
0
0
0
0
0
0
0
0
0
0
0
0
0
0
0
0
165
225
225
225
225
165
0
0
45
210
225
225
225
165
0
0
0
0
0
0
0
0
0
0
0
0
0
0
0
0
0
0
210
225
225
135
0
0
0
0
0
0
0
0
210
225
225
105
0
0
0
0
0
0
0
0
0
0
0
0
0
0
105
225
225
210
0
0
0
0
0
0
0
0
180
225
225
150
0
0
0
0
0
210
225
225
225
180
0
0
0
0
0
0
0
0
0
0
0
120
225
225
225
225
105
0
0
0
0
60
225
225
225
225
180
0
0
0
0
0
135
225
225
225
225
135
0
0
0
0
0
225
225
225
225
180
0
0
0
0
0
150
225
225
225
225
135
0
0
0
0
0
195
225
225
225
210
0
0
0
0
0
0
0
225
225
225
225
195
0
0
0
0
0
120
225
225
225
225
150
0
0
0
0
0
0
0
0
0
0
0
0
0
0
30
135
225
225
225
210
30
0
0
0
0
0
225
225
225
225
180
0
0
0
0
0
0
0
0
0
0
0
0
0
0
0
0
0
0
0
0
0
0
0
0
60
225
225
225
225
105
0
0
0
0
0
0
0
0
0
0
0
0
0
0
0
60
210
225
225
225
225
60
0
165
225
225
225
210
45
0
0
0
0
0
0
0
0
0
0
0
0
0
0
0
0
0
105
225
225
225
60
0
0
0
0
0
0
0
0
210
225
225
135
0
0
0
0
0
0
0
0
0
0
0
0
0
0
105
225
225
210
0
0
0
0
0
0
0
0
180
225
225
150
0
0
0
0
0
210
225
225
225
180
0
0
0
0
0
0
0
0
0
0
0
120
225
225
225
225
105
0
0
0
0
60
225
225
225
225
180
0
0
0
0
0
135
225
225
225
225
135
0
0
0
0
0
225
225
225
225
180
0
0
0
0
0
135
225
225
225
225
135
0
0
0
0
0
195
225
225
225
210
0
0
0
0
0
0
0
225
225
225
225
195
0
0
0
0
0
120
225
225
225
225
150
0
0
0
0
0
0
0
0
0
0
0
0
0
0
0
0
195
225
225
225
120
0
0
0
0
0
225
225
225
225
180
0
0
0
0
0
0
0
0
0
0
0
0
0
0
0
0
0
0
0
0
0
0
0
0
0
195
225
225
225
165
0
0
0
0
0
0
0
0
0
0
0
0
0
0
0
0
150
225
225
225
225
180
75
225
225
225
225
135
0
0
0
0
0
0
0
0
0
0
0
0
0
0
0
0
0
0
165
225
225
195
0
0
0
0
0
0
0
0
0
210
225
225
210
120
45
0
0
0
0
0
0
0
0
0
0
0
0
105
225
225
210
0
0
0
0
0
0
0
0
180
225
225
150
0
0
0
0
0
210
225
225
225
180
0
0
0
0
0
0
0
0
0
0
0
120
225
225
225
225
105
0
0
0
0
60
225
225
225
225
180
0
0
0
0
0
135
225
225
225
225
135
0
0
0
0
0
225
225
225
225
165
0
0
0
0
0
135
225
225
225
225
135
0
0
0
0
0
195
225
225
225
210
0
0
0
0
0
0
0
225
225
225
225
195
0
0
0
0
0
120
225
225
225
225
150
0
0
0
0
0
0
0
0
0
0
0
0
0
0
0
0
195
225
225
225
135
0
0
0
0
0
225
225
225
225
180
0
0
0
0
0
0
0
0
0
0
0
0
0
0
0
0
0
0
0
0
0
0
0
0
0
150
225
225
225
210
0
0
0
0
0
0
0
0
0
0
0
0
0
0
0
0
30
210
225
225
225
225
195
225
225
225
195
0
0
0
0
0
0
0
0
0
0
0
0
0
0
0
0
0
0
0
210
225
225
150
0
0
0
0
0
0
0
0
0
210
225
225
225
225
225
225
225
225
225
225
225
225
210
105
0
0
0
105
225
225
210
0
0
0
0
0
0
0
0
180
225
225
150
0
0
0
0
0
210
225
225
225
180
0
0
0
0
0
0
0
0
0
0
0
120
225
225
225
225
105
0
0
0
0
60
225
225
225
225
180
0
0
0
0
0
135
225
225
225
225
135
0
0
0
0
0
225
225
225
225
180
0
0
0
0
0
135
225
225
225
225
135
0
0
0
0
0
195
225
225
225
210
0
0
0
0
0
0
0
225
225
225
225
195
0
0
0
0
0
120
225
225
225
225
150
0
0
0
0
0
0
0
0
0
0
0
0
0
0
0
0
195
225
225
225
135
0
0
0
0
0
225
225
225
225
195
0
0
0
0
0
0
0
0
0
0
0
0
0
0
0
0
0
0
0
0
0
0
0
0
0
90
225
225
225
225
135
0
0
0
0
0
0
0
0
0
0
0
0
0
0
0
0
135
225
225
225
225
225
225
225
225
90
0
0
0
0
0
0
0
0
0
0
0
0
0
0
0
0
0
0
135
225
225
225
90
0
0
0
0
0
0
0
0
0
210
225
225
225
225
225
225
225
225
225
225
225
225
210
90
0
0
0
105
225
225
210
0
0
0
0
0
0
0
0
180
225
225
150
0
0
0
0
0
210
225
225
225
180
0
0
0
0
0
0
0
0
0
0
0
120
225
225
225
225
105
0
0
0
0
60
225
225
225
225
180
0
0
0
0
0
135
225
225
225
225
135
0
0
0
0
0
225
225
225
225
195
0
0
0
0
0
150
225
225
225
225
135
0
0
0
0
0
195
225
225
225
210
0
0
0
0
0
0
0
225
225
225
225
210
0
0
0
0
0
135
225
225
225
225
150
0
0
0
0
0
0
0
0
0
0
0
0
0
0
0
0
195
225
225
225
120
0
0
0
0
0
225
225
225
225
210
0
0
0
0
0
0
0
0
0
0
0
0
0
0
0
0
0
0
0
0
0
0
0
0
0
0
180
225
225
225
195
0
0
0
0
0
0
0
0
0
0
0
0
0
0
0
0
0
195
225
225
225
225
225
225
165
0
0
0
0
0
0
0
0
0
0
0
0
0
0
0
0
0
0
0
195
225
225
180
0
0
0
0
0
0
0
0
0
0
210
225
225
210
120
45
0
0
0
0
0
0
0
0
0
0
0
0
90
225
225
210
0
0
0
0
0
0
0
0
180
225
225
135
0
0
0
0
0
210
225
225
225
180
0
0
0
0
0
0
0
0
0
0
0
120
225
225
225
225
105
0
0
0
0
60
225
225
225
225
180
0
0
0
0
0
135
225
225
225
225
135
0
0
0
0
0
225
225
225
225
225
60
0
0
0
0
195
225
225
225
225
105
0
0
0
0
0
195
225
225
225
210
0
0
0
0
0
0
0
225
225
225
225
225
75
0
0
0
0
180
225
225
225
225
150
0
0
0
0
0
0
0
0
0
0
0
0
0
0
0
0
210
225
225
225
105
0
0
0
0
0
210
225
225
225
225
120
0
0
0
0
0
0
0
0
0
0
0
0
0
0
0
0
0
0
0
0
0
0
0
0
0
120
225
225
225
225
150
0
0
0
0
0
0
0
0
0
0
0
0
0
0
0
0
105
225
225
225
225
225
210
60
0
0
0
0
0
0
0
0
0
0
0
0
0
0
0
0
0
0
150
225
225
225
120
0
0
0
0
0
0
0
0
0
0
210
225
225
135
0
0
0
0
0
0
0
0
0
0
0
0
0
0
45
225
225
225
90
0
0
0
0
0
0
30
210
225
225
105
0
0
0
0
0
210
225
225
225
165
0
0
0
0
0
0
0
0
0
0
0
105
225
225
225
225
90
0
0
0
0
30
225
225
225
225
165
0
0
0
0
0
105
225
225
225
225
120
0
0
0
0
0
195
225
225
225
225
195
105
45
90
180
225
225
225
225
225
30
0
0
0
0
0
180
225
225
225
210
0
0
0
0
0
0
0
195
225
225
225
225
195
105
15
60
150
225
225
225
225
225
150
0
0
0
0
0
0
0
0
0
0
0
0
0
0
45
150
225
225
225
210
30
0
0
0
0
0
180
225
225
225
225
210
150
90
15
0
0
0
0
0
0
0
0
0
0
0
0
0
0
0
0
0
0
0
0
0
0
0
195
225
225
225
210
90
0
0
0
0
0
0
0
0
0
0
0
0
0
0
0
0
180
225
225
225
225
135
0
0
0
0
0
0
0
0
0
0
0
0
0
0
0
0
0
0
90
210
225
225
195
0
0
0
0
0
0
0
0
0
0
0
210
225
225
105
0
0
0
0
0
0
0
0
0
0
0
0
0
0
0
195
225
225
195
15
0
0
0
0
0
165
225
225
195
0
0
0
0
0
0
180
225
225
225
135
0
0
0
0
0
0
0
0
0
0
0
45
225
225
225
210
30
0
0
0
0
0
195
225
225
225
120
0
0
0
0
0
45
225
225
225
225
45
0
0
0
0
0
120
225
225
225
225
225
225
225
225
225
225
225
225
225
150
0
0
0
0
0
0
150
225
225
225
180
0
0
0
0
0
0
0
120
225
225
225
225
225
225
225
225
225
225
225
225
225
225
150
0
0
0
0
15
180
225
225
225
225
225
225
225
225
225
225
225
225
225
135
0
0
0
0
0
0
90
225
225
225
225
225
225
225
225
225
225
195
75
0
0
0
0
0
0
0
0
0
0
0
0
0
0
0
0
0
0
0
120
225
225
225
225
180
0
0
0
0
0
0
0
0
0
0
0
0
0
0
0
0
90
225
225
225
195
15
0
0
0
0
0
0
0
0
0
0
0
0
0
0
0
0
0
0
180
225
225
225
120
0
0
0
0
0
0
0
0
0
0
0
210
225
225
105
0
0
0
0
0
0
0
0
0
0
0
0
0
0
0
75
210
225
225
165
0
0
0
0
150
225
225
210
75
0
0
0
0
0
0
90
195
225
180
30
0
0
0
0
0
0
0
0
0
0
0
0
135
210
210
135
0
0
0
0
0
0
90
195
210
165
15
0
0
0
0
0
0
135
210
210
135
0
0
0
0
0
0
0
105
180
210
225
225
225
225
225
225
225
225
195
135
0
0
0
0
0
0
0
45
195
225
195
90
0
0
0
0
0
0
0
0
120
195
225
225
225
225
225
225
225
225
225
225
225
225
150
0
0
0
0
15
180
225
225
225
225
225
225
225
225
225
225
210
195
120
0
0
0
0
0
0
0
0
90
180
210
225
225
225
225
225
225
225
210
75
0
0
0
0
0
0
0
0
0
0
0
0
0
0
0
0
0
0
0
0
180
225
225
225
225
150
0
0
0
0
0
0
0
0
0
0
0
0
0
0
0
0
180
225
225
105
0
0
0
0
0
0
0
0
0
0
0
0
0
0
0
0
0
0
150
225
225
225
180
0
0
0
0
0
0
0
0
0
0
0
0
210
225
225
105
0
0
0
0
0
0
0
0
0
0
0
0
0
0
0
0
105
225
225
225
150
0
0
135
225
225
225
105
0
0
0
0
0
0
0
0
0
0
0
0
0
0
0
0
0
0
0
0
0
0
0
0
0
0
0
0
0
0
0
0
0
0
0
0
0
0
0
0
0
0
0
0
0
0
0
0
0
0
0
0
0
0
0
0
0
0
0
0
0
0
0
0
0
0
0
0
0
0
0
0
0
0
0
0
0
0
0
0
0
0
0
0
0
0
0
0
0
0
0
0
0
0
0
0
0
75
150
225
225
225
225
150
0
0
0
0
0
0
0
0
0
0
0
0
0
0
0
0
0
0
0
0
0
0
0
0
0
0
0
0
0
0
0
0
0
0
0
0
0
0
0
0
0
0
0
0
0
0
0
0
0
0
0
0
0
0
0
0
0
0
0
75
210
225
225
225
210
135
0
0
0
0
0
0
0
0
0
0
0
0
0
0
0
60
225
180
0
0
0
0
0
0
0
0
0
0
0
0
0
0
0
0
0
0
135
210
225
225
210
75
0
0
0
0
0
0
0
0
0
0
0
0
210
225
225
135
0
0
0
0
0
0
0
0
0
0
0
0
0
0
0
0
0
135
225
225
225
135
120
225
225
225
135
0
0
0
0
0
0
0
0
0
0
0
0
0
0
0
0
0
0
0
0
0
0
0
0
0
0
0
0
0
0
0
0
0
0
0
0
0
0
0
0
0
0
0
0
0
0
0
0
0
0
0
0
0
0
0
0
0
0
0
0
0
0
0
0
0
0
0
0
0
0
0
0
0
0
0
0
0
0
0
0
0
0
0
0
0
0
0
0
0
0
0
0
0
0
0
0
0
0
0
0
195
225
225
225
150
0
0
0
0
0
0
0
0
0
0
0
0
0
0
0
0
0
0
0
0
0
0
0
0
0
0
0
0
0
0
0
0
0
0
0
0
0
0
0
0
0
0
0
0
0
0
0
0
0
0
0
0
0
0
0
0
0
0
0
0
135
225
225
225
225
210
135
0
0
0
0
0
0
0
0
0
0
0
0
0
0
0
150
60
0
0
0
0
0
0
0
0
0
0
0
0
0
0
0
0
0
135
210
225
225
225
135
0
0
0
0
0
0
0
0
0
0
0
0
0
195
225
225
210
120
45
0
0
0
0
0
0
0
0
0
0
0
0
0
0
0
0
150
225
225
225
225
225
225
150
0
0
0
0
0
0
0
0
0
0
0
0
0
0
0
0
0
0
0
0
0
0
0
0
0
0
0
0
0
0
0
0
0
0
0
0
0
0
0
0
0
0
0
0
0
0
0
0
0
0
0
0
0
0
0
0
0
0
0
0
0
0
0
0
0
0
0
0
0
0
0
0
0
0
0
0
0
0
0
0
0
0
0
0
0
0
0
0
0
0
0
0
0
0
0
0
0
0
0
0
0
165
225
225
225
150
0
0
0
0
0
0
0
0
0
0
0
0
0
0
0
0
0
0
0
0
0
0
0
0
0
0
0
0
0
0
0
0
0
0
0
0
0
0
0
0
0
0
0
0
0
0
0
0
0
0
0
0
0
0
0
0
0
0
0
0
0
165
225
225
225
225
210
135
0
0
0
0
0
0
0
0
0
0
0
0
0
0
0
0
0
0
0
0
0
0
0
0
0
0
0
0
0
0
0
0
135
210
225
225
225
165
0
0
0
0
0
0
0
0
0
0
0
0
0
0
165
225
225
225
225
225
225
225
225
225
225
225
225
210
105
0
0
0
0
0
0
0
0
180
225
225
225
225
180
0
0
0
0
0
0
0
0
0
0
0
0
0
0
0
0
0
0
0
0
0
0
0
0
0
0
0
0
0
0
0
0
0
0
0
0
0
0
0
0
0
0
0
0
0
0
0
0
0
0
0
0
0
0
0
0
0
0
0
0
0
0
0
0
0
0
0
0
0
0
0
0
0
0
0
0
0
0
0
0
0
0
0
0
0
0
0
0
0
0
0
0
0
0
0
0
0
0
0
0
0
0
180
225
225
225
135
0
0
0
0
0
0
0
0
0
0
0
0
0
0
0
0
0
0
0
0
0
0
0
0
0
0
0
0
0
0
0
0
0
0
0
0
0
0
0
0
0
0
0
0
0
0
0
0
0
0
0
0
0
0
0
0
0
0
0
0
0
0
180
225
225
225
225
210
150
0
0
0
0
0
0
0
0
0
0
0
0
0
0
0
0
0
0
0
0
0
0
0
0
0
0
0
0
0
0
150
210
225
225
225
180
0
0
0
0
0
0
0
0
0
0
0
0
0
0
0
30
165
210
225
225
225
225
225
225
225
225
225
225
210
105
0
0
0
0
0
0
0
0
30
180
225
225
180
15
0
0
0
0
0
0
0
0
0
0
0
0
0
0
0
0
0
0
0
0
0
0
0
0
0
0
0
0
0
0
0
0
0
0
0
0
0
0
0
0
0
0
0
0
0
0
0
0
0
0
0
0
0
0
0
0
0
0
0
0
0
0
0
0
0
0
0
0
0
0
0
0
0
0
0
0
0
0
0
0
0
0
0
0
0
0
0
0
0
0
0
0
0
0
0
0
0
0
0
0
45
135
225
225
225
225
90
0
0
0
0
0
0
0
0
0
0
0
0
0
0
0
0
0
0
0
0
0
0
0
0
0
0
0
0
0
0
0
0
0
0
0
0
0
0
0
0
0
0
0
0
0
0
0
0
0
0
0
0
0
0
0
0
0
0
0
0
0
0
60
180
225
225
225
225
225
180
90
0
0
0
0
0
0
0
0
0
0
0
0
0
0
0
0
0
0
0
0
0
0
0
0
0
0
90
180
225
225
225
225
180
60
0
0
0
0
0
0
0
0
0
0
0
0
0
0
0
0
0
0
0
0
0
0
0
0
0
0
0
0
0
0
0
0
0
0
0
0
0
0
0
0
0
0
0
0
0
0
0
0
0
0
0
0
0
0
0
0
0
0
0
0
0
0
0
0
0
0
0
0
0
0
0
0
0
0
0
0
0
0
0
0
0
0
0
0
0
0
0
0
0
0
0
0
0
0
0
0
0
0
0
0
0
0
0
0
0
0
0
0
0
0
0
0
0
0
0
0
0
0
0
0
0
0
0
0
0
0
0
0
0
0
0
0
0
0
0
120
210
225
225
225
225
225
225
225
225
225
225
225
225
180
0
0
0
0
0
0
0
0
0
0
0
0
0
0
0
0
0
0
0
0
0
0
0
0
0
0
0
0
0
0
0
0
0
0
0
0
0
0
0
0
0
0
0
0
0
0
0
0
0
0
0
0
0
0
0
0
0
0
0
0
0
0
0
0
60
180
225
225
225
225
225
210
150
0
0
0
0
0
0
0
0
0
0
0
0
0
0
0
0
0
0
0
0
0
0
0
0
150
210
225
225
225
225
180
60
0
0
0
0
0
0
0
0
0
0
0
0
0
0
0
0
0
0
0
0
0
0
0
0
0
0
0
0
0
0
0
0
0
0
0
0
0
0
0
0
0
0
0
0
0
0
0
0
0
0
0
0
0
0
0
0
0
0
0
0
0
0
0
0
0
0
0
0
0
0
0
0
0
0
0
0
0
0
0
0
0
0
0
0
0
0
0
0
0
0
0
0
0
0
0
0
0
0
0
0
0
0
0
0
0
0
0
0
0
0
0
0
0
0
0
0
0
0
0
0
0
0
0
0
0
0
0
0
0
0
0
0
0
0
0
0
135
225
225
225
225
225
225
225
225
225
225
225
210
165
30
0
0
0
0
0
0
0
0
0
0
0
0
0
0
0
0
0
0
0
0
0
0
0
0
0
0
0
0
0
0
0
0
0
0
0
0
0
0
0
0
0
0
0
0
0
0
0
0
0
0
0
0
0
0
0
0
0
0
0
0
0
0
0
0
0
0
165
225
225
225
225
225
225
195
135
0
0
0
0
0
0
0
0
0
0
0
0
0
0
0
0
0
0
0
0
135
195
225
225
225
225
225
165
0
0
0
0
0
0
0
0
0
0
0
0
0
0
0
0
0
0
0
0
0
0
0
0
0
0
0
0
0
0
0
0
0
0
0
0
0
0
0
0
0
0
0
0
0
0
0
0
0
0
0
0
0
0
0
0
0
0
0
0
0
0
0
0
0
0
0
0
0
0
0
0
0
0
0
0
0
0
0
0
0
0
0
0
0
0
0
0
0
0
0
0
0
0
0
0
0
0
0
0
0
0
0
0
0
0
0
0
0
0
0
0
0
0
0
0
0
0
0
0
0
0
0
0
0
0
0
0
0
0
0
0
0
0
0
0
0
0
0
0
0
0
0
0
0
0
0
0
0
0
0
0
0
0
0
0
0
0
0
0
0
0
0
0
0
0
0
0
0
0
0
0
0
0
0
0
0
0
0
0
0
0
0
0
0
0
0
0
0
0
0
0
0
0
0
0
0
0
0
0
0
0
0
0
0
0
0
0
0
0
0
0
0
0
0
0
0
0
0
0
135
210
225
225
225
225
225
225
210
165
105
0
0
0
0
0
0
0
0
0
0
0
0
0
0
105
165
210
225
225
225
225
225
210
135
0
0
0
0
0
0
0
0
0
0
0
0
0
0
0
0
0
0
0
0
0
0
0
0
0
0
0
0
0
0
0
0
0
0
0
0
0
0
0
0
0
0
0
0
0
0
0
0
0
0
0
0
0
0
0
0
0
0
0
0
0
0
0
0
0
0
0
0
0
0
0
0
0
0
0
0
0
0
0
0
0
0
0
0
0
0
0
0
0
0
0
0
0
0
0
0
0
0
0
0
0
0
0
0
0
0
0
0
0
0
0
0
0
0
0
0
0
0
0
0
0
0
0
0
0
0
0
0
0
0
0
0
0
0
0
0
0
0
0
0
0
0
0
0
0
0
0
0
0
0
0
0
0
0
0
0
0
0
0
0
0
0
0
0
0
0
0
0
0
0
0
0
0
0
0
0
0
0
0
0
0
0
0
0
0
0
0
0
0
0
0
0
0
0
0
0
0
0
0
0
0
0
0
0
0
0
0
0
0
0
0
0
0
0
0
0
0
0
0
0
0
0
90
180
225
225
225
225
225
225
225
225
210
180
150
120
90
60
15
15
60
90
120
150
180
210
225
225
225
225
225
225
225
180
90
0
0
0
0
0
0
0
0
0
0
0
0
0
0
0
0
0
0
0
0
0
0
0
0
0
0
0
0
0
0
0
0
0
0
0
0
0
0
0
0
0
0
0
0
0
0
0
0
0
0
0
0
0
0
0
0
0
0
0
0
0
0
0
0
0
0
0
0
0
0
0
0
0
0
0
0
0
0
0
0
0
0
0
0
0
0
0
0
0
0
0
0
0
0
0
0
0
0
0
0
0
0
0
0
0
0
0
0
0
0
0
0
0
0
0
0
0
0
0
0
0
0
0
0
0
0
0
0
0
0
0
0
0
0
0
0
0
0
0
0
0
0
0
0
0
0
0
0
0
0
0
0
0
0
0
0
0
0
0
0
0
0
0
0
0
0
0
0
0
0
0
0
0
0
0
0
0
0
0
0
0
0
0
0
0
0
0
0
0
0
0
0
0
0
0
0
0
0
0
0
0
0
0
0
0
0
0
0
0
0
0
0
0
0
0
0
0
0
0
0
0
0
0
0
0
135
195
225
225
225
225
225
225
225
225
225
225
225
225
225
225
225
225
225
225
225
225
225
225
225
225
225
195
135
0
0
0
0
0
0
0
0
0
0
0
0
0
0
0
0
0
0
0
0
0
0
0
0
0
0
0
0
0
0
0
0
0
0
0
0
0
0
0
0
0
0
0
0
0
0
0
0
0
0
0
0
0
0
0
0
0
0
0
0
0
0
0
0
0
0
0
0
0
0
0
0
0
0
0
0
0
0
0
0
0
0
0
0
0
0
0
0
0
0
0
0
0
0
0
0
0
0
0
0
0
0
0
0
0
0
0
0
0
0
0
0
0
0
0
0
0
0
0
0
0
0
0
0
0
0
0
0
0
0
0
0
0
0
0
0
0
0
0
0
0
0
0
0
0
0
0
0
0
0
0
0
0
0
0
0
0
0
0
0
0
0
0
0
0
0
0
0
0
0
0
0
0
0
0
0
0
0
0
0
0
0
0
0
0
0
0
0
0
0
0
0
0
0
0
0
0
0
0
0
0
0
0
0
0
0
0
0
0
0
0
0
0
0
0
0
0
0
0
0
0
0
0
0
0
0
0
0
0
135
195
225
225
225
225
225
225
225
225
225
225
225
225
225
225
225
225
225
225
225
225
225
195
135
0
0
0
0
0
0
0
0
0
0
0
0
0
0
0
0
0
0
0
0
0
0
0
0
0
0
0
0
0
0
0
0
0
0
0
0
0
0
0
0
0
0
0
0
0
0
0
0
0
0
0
0
0
0
0
0
0
0
0
0
0
0
0
0
0
0
0
0
0
0
0
0
0
0
0
0
0
0
0
0
0
0
0
0
0
0
0
0
0
0
0
0
0
0
0
0
0
0
0
0
0
0
0
0
0
0
0
0
0
0
0
0
0
0
0
0
0
0
0
0
0
0
0
0
0
0
0
0
0
0
0
0
0
0
0
0
0
0
0
0
0
0
0
0
0
0
0
0
0
0
0
0
0
0
0
0
0
0
0
0
0
0
0
0
0
0
0
0
0
0
0
0
0
0
0
0
0
0
0
0
0
0
0
0
0
0
0
0
0
0
0
0
0
0
0
0
0
0
0
0
0
0
0
0
0
0
0
0
0
0
0
0
0
0
0
0
0
0
0
0
0
0
0
0
0
0
0
0
0
0
0
0
0
105
165
210
225
225
225
225
225
225
225
225
225
225
225
225
225
225
225
210
165
105
0
0
0
0
0
0
0
0
0
0
0
0
0
0
0
0
0
0
0
0
0
0
0
0
0
0
0
0
0
0
0
0
0
0
0
0
0
0
0
0
0
0
0
0
0
0
0
0
0
0
0
0
0
0
0
0
0
0
0
0
0
0
0
0
0
0
0
0
0
0
0
0
0
0
0
0
0
0
0
0
0
0
0
0
0
0
0
0
0
0
0
0
0
0
0
0
0
0
0
0
0
0
0
0
0
0
0
0
0
0
0
0
0
0
0
0
0
0
0
0
0
0
0
0
0
0
0
0
0
0
0
0
0
0
0
0
0
0
0
0
0
0
0
0
0
0
0
0
0
0
0
0
0
0
0
0
0
0
0
0
0
0
0
0
0
0
0
0
0
0
0
0
0
0
0
0
0
0
0
0
0
0
0
0
0
0
0
0
0
0
0
0
0
0
0
0
0
0
0
0
0
0
0
0
0
0
0
0
0
0
0
0
0
0
0
0
0
0
0
0
0
0
0
0
0
0
0
0
0
0
0
0
0
0
0
0
0
0
90
135
165
195
210
210
225
225
225
210
210
195
165
135
90
0
0
0
0
0
0
0
0
0
0
0
0
0
0
0
0
0
0
0
0
0
0
0
0
0
0
0
0
0
0
0
0
0
0
0
0
0
0
0
0
0
0
0
0
0
0
0
0
0
0
0
0
0
0
0
0
0
0
0
0
0
0
0
0
0
0
0
0
0
0
0
0
0
0
0
0
0
0
0
0
0
0
0
0
0
0
0
0
0
0
0
0
0
0
0
0
0
0
0
0
0
0
0
0
0
0
0
0
0
0
0
0
0
0
0
0
0
0
0
0
0
0
0
0
0
0
0
0
0
0
0
0
0
0
0
0
0
0
0
0
0
0
0
0
0
0
0
0
0
0
0
0
0
0
0
0
0
0
0
0
0
0
0
0
0
0
0
0
0
0
0
0
0
0
0
0
0
0
0
0
0
0
0
0
0
0
0
0
0
0
0
0
0
0
0
0
0
0
0
0
0
0
0
0
0
0
0
0
0
0
0
0
0
0
0
0
0
0
0
0
0
0
0
0
0
0
0
0
0
0
0
0
0
0
0
0
0
0
0
0
0
0
0
0
0
0
0
0
0
0
0
0
0
0
0
0
0
0
0
0
0
0
0
0
0
0
0
0
0
0
0
0
0
0
0
0
0
0
0
0
0
0
0
0
0
0
0
0
0
0
0
0
0
0
0
0
0
0
0
0
0
0
0
0
0
0
0
0
0
0
0
0
0
0
0
0
0
0
0
0
0
0
0
0
0
0
0
0
0
0
0
0
0
0
0
0
0
0
0
0
0
0
0
0
0
0
0
0
0
0
0
0
0
0
0
0
0
0
0
0
0
0
0
0
0
0
0
0
0
0
0
0
0
0
0
0
0
0
0
0
0
0
0
0
0
0
0
0
0
0
0
0
0
0
0
0
0
0
0
0
0
0
0
0
0
0
0
0
0
0
0
0
0
0
0
0
0
0
0
0
0
0
0
0
0
0
0
0
0
0
0
0
0
0
0
0
0
0
0
0
0
0
0
0
0
0
0
0
0
0
0
0
0
0
0
0
0
0
0
0
0
0
0
0
0
0
0
0
0
0
0
0
0
0
0
0
0
0
0
0
0
0
0
0
0
0
0
0
0
0
0
0
0
0
0
0
0
0
0
0
0
0
0
0
0
0
0
0
0
0
0
0
0
0
0
0
0
0
0
0
0
0
0
0
0
0
0
0
0
0
0
0
0
0
0
0
0
0
0
0
0
0
0
0
0
0
0
0
0
0
0
0
0
0
0
0
0
0
0
0
0
0
0
0
0
0
0
0
0
0
0
0
0
0
0
0
0
0
0
0
0
0
0
0
0
0
0
0
0
0
0
0
0
0
0
0
0
0
0
0
0
0
0
0
0
0
0
0
0
0
0
0
0
0
0
0
0
0
0
0
0
0
0
0
0
0
0
0
0
0
0
0
0
0
0
0
0
0
0
0
0
0
0
0
0
0
0
0
0
0
0
0
0
0
0
0
0
0
0
0
0
0
0
0
0
0
0
0
0
0
0
0
0
0
0
0
0
0
0
0
0
0
0
0
0
0
0
0
0
0
0
0
0
0
0
0
0
0
0
0
0
0
0
0
0
0
0
0
0
0
0
0
0
0
0
0
0
0
0
0
0
0
0
0
0
0
0
0
0
0
0
0
0
0
0
0
0
0
0
0
0
0
0
0
0
0
0
0
0
0
0
0
0
0
0
0
0
0
0
0
0
0
0
0
0
0
0
0
0
0
0
0
0
0
0
0
0
0
0
0
0
0
0
0
0
0
0
0
0
0
0
0
0
0
0
0
0
0
0
0
0
0
0
0
0
0
0
0
0
0
0
0
0
0
0
0
0
0
0
0
0
0
0
0
0
0
0
0
0
0
0
0
0
0
0
0
0
0
0
0
0
0
0
0
0
0
0
0
0
0
0
0
0
0
0
0
0
0
0
0
0
0
0
0
0
0
0
0
0
0
0
0
0
0
0
0
0
0
0
0
0
0
0
0
0
0
0
0
0
0
0
0
0
0
0
0
0
0
0
0
0
0
0
0
0
0
0
0
0
0
0
0
0
0
0
0
0
0
0
0
0
0
0
0
0
0
0
0
0
0
0
0
0
0
0
0
0
0
0
0
0
0
0
0
0
0
0
0
0
0
0
0
0
0
0
0
0
0
0
0
0
0
0
0
0
0
0
0
0
0
0
0
0
0
0
