P2
# Created by GIMP version 2.10.22 PNM plug-in
16 1
255
225
210
195
180
165
150
135
120
105
90
75
60
45
30
15
0
