P2
# Created by GIMP version 2.10.22 PNM plug-in
102 64
255
60
60
60
60
60
60
60
60
60
60
60
60
60
60
60
60
60
60
60
60
60
60
60
60
60
60
60
45
60
165
180
195
195
195
195
195
195
195
195
195
195
195
195
195
195
195
195
195
195
195
195
195
195
195
195
195
195
195
195
195
195
180
165
180
180
180
180
195
195
195
195
210
210
210
210
210
210
195
195
195
195
195
195
195
195
195
195
180
180
165
180
180
180
180
180
180
165
165
165
165
165
165
60
60
60
60
60
60
60
60
60
60
60
60
60
60
60
60
60
60
60
60
60
60
60
60
60
60
60
120
180
195
195
195
195
195
195
195
195
195
195
195
195
195
195
195
195
195
195
195
195
195
195
195
195
195
195
195
180
165
150
135
120
75
90
105
90
90
90
90
105
120
120
120
150
180
195
195
180
180
180
180
180
195
195
195
195
120
105
105
60
75
165
180
180
180
180
180
180
180
180
180
180
165
45
60
60
60
60
60
60
60
60
60
60
60
60
60
60
60
60
60
60
60
60
60
60
60
90
120
165
195
195
195
195
195
195
195
195
195
195
195
195
195
195
195
195
195
195
195
195
195
195
195
195
195
180
180
165
135
120
105
90
90
75
75
60
60
60
60
60
60
60
60
90
105
90
75
90
120
105
75
30
30
30
45
90
105
105
60
30
30
60
105
120
135
135
135
180
180
180
180
180
180
180
165
30
60
60
60
60
60
60
60
60
60
60
60
60
60
60
60
60
60
60
90
120
150
165
180
195
195
195
195
195
195
195
195
195
195
195
195
195
195
195
195
195
195
195
195
195
195
210
195
195
195
180
165
135
120
105
105
105
105
105
105
90
60
60
60
60
60
60
60
60
60
60
60
90
120
75
60
75
90
75
45
30
75
45
60
75
60
60
60
30
15
15
15
30
45
135
180
180
180
180
165
180
180
45
45
60
60
60
60
60
60
60
60
60
60
60
60
45
60
135
165
180
195
195
195
195
195
195
195
195
195
195
195
195
195
195
195
195
195
195
210
210
195
195
195
195
195
195
195
195
195
180
165
135
90
60
60
60
60
60
60
60
60
75
90
75
60
60
45
45
45
45
45
45
45
45
60
90
45
45
60
90
45
60
135
105
45
45
60
60
60
60
30
15
15
15
45
75
180
180
165
165
165
165
180
45
30
60
60
60
60
60
60
60
75
105
135
150
60
30
30
165
195
195
195
195
195
195
195
195
195
195
195
195
195
195
210
210
210
210
210
210
210
210
210
210
210
210
210
210
195
180
165
150
105
75
75
75
90
75
75
60
60
60
60
60
60
75
60
60
60
60
45
45
60
45
60
60
60
45
45
45
45
60
75
45
45
30
45
45
30
30
45
60
60
45
15
15
30
45
150
180
180
180
180
180
180
45
45
45
60
45
60
135
150
165
195
195
195
195
90
30
45
90
120
120
180
180
195
195
180
180
195
195
195
210
210
210
210
210
210
210
210
210
210
210
210
210
210
210
195
180
150
135
105
60
60
60
60
60
60
75
90
90
75
60
60
60
60
60
60
60
60
60
45
60
60
60
60
60
45
45
45
45
45
45
60
45
45
30
30
30
30
30
30
30
45
60
30
15
15
30
165
180
180
180
180
180
180
45
45
15
45
150
165
165
165
45
135
165
150
120
90
90
75
75
105
135
150
60
150
165
150
120
165
195
195
195
195
210
210
210
210
210
210
210
210
210
210
210
210
195
165
135
120
90
60
60
60
60
60
60
60
75
75
75
75
60
60
60
60
60
60
60
60
60
60
60
60
60
60
75
60
60
60
60
45
45
45
45
45
30
30
30
15
15
15
30
30
30
45
15
15
45
120
180
180
180
180
180
180
45
45
30
165
120
105
135
120
90
90
105
120
120
135
150
150
75
150
180
165
75
105
180
150
90
180
195
195
195
195
195
195
210
210
210
210
210
210
210
210
210
180
165
150
105
75
60
60
60
60
75
75
75
75
75
75
75
75
75
60
60
60
60
60
60
60
60
60
60
60
60
45
60
60
45
60
45
60
60
60
45
45
45
30
30
15
15
15
15
30
30
30
30
15
30
60
180
180
180
180
180
180
45
60
45
165
105
45
60
105
165
135
150
150
165
165
150
150
90
90
90
60
45
75
75
120
180
195
195
210
210
210
210
210
210
210
210
210
195
210
210
210
165
165
135
75
60
60
60
75
75
75
90
75
75
75
75
75
75
75
75
75
60
60
60
60
60
45
45
45
45
45
45
45
45
45
45
45
45
45
60
60
60
60
45
45
30
30
15
30
15
15
30
30
30
15
15
45
135
180
180
180
180
180
45
45
60
45
105
60
105
120
195
165
150
135
135
105
105
120
45
60
75
90
165
180
195
195
195
210
210
210
210
210
210
210
210
210
195
135
105
150
90
165
165
135
105
75
75
75
75
75
90
90
90
90
90
75
75
75
75
60
60
60
60
60
45
45
30
30
30
30
30
30
45
45
45
45
45
45
45
45
45
60
60
45
60
60
45
30
30
15
30
15
15
30
30
30
15
30
60
180
180
180
180
180
45
45
45
45
30
30
135
135
105
120
120
120
105
105
90
75
45
75
135
195
195
195
195
195
195
195
195
195
180
180
180
180
180
180
105
75
75
75
75
75
90
105
75
75
75
75
90
90
90
90
90
90
90
90
90
75
60
60
60
60
75
90
60
30
30
45
45
45
45
45
45
45
45
45
45
45
45
45
45
45
45
45
60
45
60
60
30
30
15
15
15
15
30
45
15
15
45
150
180
180
180
180
45
45
45
45
45
30
60
120
75
90
75
75
90
75
90
135
165
195
195
195
195
180
180
180
180
180
180
195
195
195
210
210
195
105
75
75
75
75
75
60
45
60
75
75
90
90
105
105
105
105
105
90
90
90
60
60
60
60
45
45
45
30
45
45
45
45
30
30
30
30
30
30
30
30
30
30
45
45
45
45
45
45
45
60
60
60
60
45
30
15
15
15
30
45
15
15
30
75
180
180
180
180
45
45
45
45
45
60
30
60
60
150
165
180
135
90
120
180
165
165
180
195
195
195
195
195
210
210
210
210
210
210
210
195
105
75
75
75
75
75
75
60
15
30
60
75
90
90
105
105
120
120
120
105
90
60
60
60
45
30
30
30
45
45
45
30
30
30
30
30
30
30
30
30
30
30
30
30
30
30
30
45
45
45
45
45
45
60
60
60
30
30
30
45
60
60
30
15
15
45
150
195
180
180
60
45
45
45
45
60
150
60
45
120
180
165
105
135
90
105
105
150
210
210
210
210
210
210
210
210
210
210
210
210
195
90
75
75
75
75
75
75
75
30
15
30
75
105
120
120
120
135
135
105
105
90
60
60
60
45
30
30
45
45
30
30
30
30
30
45
45
45
45
45
45
45
45
45
45
30
30
30
30
30
30
45
45
30
30
45
60
60
60
45
60
60
45
45
45
15
15
30
90
195
195
195
60
60
45
45
45
45
105
105
90
75
165
180
135
180
135
120
135
195
210
195
210
210
210
210
210
210
225
225
225
195
90
75
75
75
75
75
75
75
60
15
15
30
105
120
135
135
135
135
135
120
90
60
60
60
45
45
45
45
30
30
30
30
45
45
45
45
45
45
45
45
45
45
45
45
45
45
45
45
30
30
30
15
30
45
30
30
45
60
60
60
60
60
45
45
45
30
15
15
45
165
195
195
75
60
45
45
45
45
45
90
75
120
120
90
120
180
180
180
150
120
150
165
195
225
210
210
225
225
225
225
195
90
75
75
75
75
75
75
75
75
30
15
15
60
120
120
135
135
135
135
135
90
60
60
60
45
45
45
45
30
30
45
45
45
45
60
60
60
60
60
75
75
60
60
60
60
45
45
45
45
45
30
15
30
30
30
15
45
60
60
60
60
45
30
60
45
45
45
15
15
30
90
195
195
90
60
60
45
45
45
45
60
120
105
75
75
135
195
150
195
225
165
165
180
225
210
210
225
225
225
225
195
90
75
75
75
75
75
75
75
75
60
15
15
30
75
120
135
150
150
150
150
105
60
60
60
45
30
45
45
30
30
45
45
45
60
60
60
60
45
45
45
30
45
45
45
45
60
60
60
45
45
45
45
30
30
30
30
45
60
60
45
45
30
45
30
30
45
60
45
30
15
15
45
165
195
105
90
60
60
45
45
45
45
180
165
105
120
120
90
90
180
210
180
180
210
195
165
150
195
225
225
180
120
120
90
75
75
75
75
75
75
75
30
15
15
30
75
135
150
165
165
135
120
60
60
60
45
45
45
30
30
30
45
45
45
60
45
45
45
45
45
30
30
30
30
30
45
45
30
30
45
60
75
45
45
45
45
45
60
60
60
45
45
45
45
60
60
30
45
45
60
45
15
15
30
105
195
105
105
75
60
45
45
45
45
90
210
195
195
90
105
105
165
195
150
150
165
150
165
105
165
165
105
15
15
30
75
75
75
75
75
75
75
60
15
15
15
30
105
150
165
165
165
150
75
45
60
60
60
45
30
15
30
45
45
60
60
60
45
45
45
90
120
135
90
45
45
45
45
30
30
45
30
30
45
60
60
45
45
45
45
45
30
30
45
45
45
60
60
45
60
45
45
30
15
15
15
105
195
105
105
90
60
60
45
45
45
45
165
225
225
135
135
135
120
135
180
90
165
165
105
135
165
120
45
15
30
60
75
75
75
75
75
90
90
60
60
60
60
60
75
90
90
90
75
75
60
60
60
60
60
60
60
60
60
60
60
60
60
60
105
180
210
225
225
210
210
180
105
60
45
45
45
45
45
45
30
45
60
45
45
45
30
30
30
15
30
45
45
45
60
60
60
45
30
15
15
150
165
180
180
105
105
105
90
60
60
45
45
45
60
210
225
210
180
180
105
195
210
195
180
105
150
180
165
150
15
45
60
60
75
75
75
90
90
75
75
75
75
75
75
75
60
60
60
60
60
60
60
60
60
60
60
60
60
60
60
60
60
60
60
75
150
210
210
210
210
210
210
210
210
135
45
45
45
45
45
45
30
30
45
60
45
45
45
30
30
30
15
45
45
30
45
60
60
45
30
75
90
150
180
180
180
105
105
105
105
75
60
45
45
45
45
135
210
210
210
195
135
150
150
120
75
150
195
180
195
75
60
60
60
60
75
90
90
75
75
90
90
75
75
75
75
75
75
75
75
75
75
75
60
60
60
60
60
60
60
60
60
60
45
45
60
60
180
210
210
210
210
210
210
210
210
210
150
45
45
45
45
45
45
45
30
45
45
45
45
45
30
15
30
15
15
45
60
60
45
45
30
165
195
180
180
180
180
120
105
105
105
90
75
60
45
45
45
45
180
210
210
210
180
165
120
90
150
165
150
165
105
75
60
75
90
90
75
75
75
90
90
90
75
75
75
75
75
75
75
75
75
75
75
75
60
60
60
60
45
45
45
45
45
45
45
75
135
180
210
210
210
210
210
210
210
210
210
210
210
135
45
45
45
45
45
30
30
30
45
60
45
45
30
15
15
15
45
60
60
45
30
45
45
135
180
180
180
180
180
135
120
105
105
105
75
60
30
45
45
45
90
210
210
210
165
60
90
120
120
90
150
90
75
75
90
90
75
75
75
75
90
90
105
90
75
75
75
75
75
75
75
60
60
60
45
45
45
30
30
30
30
30
30
30
45
165
195
210
210
210
210
210
210
210
210
210
210
210
210
210
210
195
75
45
45
45
45
45
30
30
30
60
45
45
45
30
30
45
60
60
45
30
45
60
45
105
195
180
180
180
180
165
120
105
105
105
90
60
30
45
60
60
60
120
120
90
45
45
45
45
45
90
75
75
90
90
75
75
75
90
90
90
105
105
90
75
75
75
60
60
45
45
30
30
30
30
30
30
30
30
30
30
30
45
45
45
135
210
210
210
210
210
210
210
210
210
210
210
210
210
210
210
210
210
150
45
45
45
45
30
45
30
30
30
45
45
45
45
45
60
45
45
45
30
45
60
45
60
195
180
180
180
180
150
180
120
105
105
105
75
45
60
105
135
135
150
150
135
135
120
90
45
45
45
45
60
60
75
75
90
90
90
105
120
120
90
60
45
30
30
30
30
30
15
15
15
15
30
30
30
30
45
30
30
45
45
45
75
195
210
210
210
210
210
210
210
210
210
210
210
210
210
210
210
210
210
180
45
45
45
45
45
45
30
45
30
60
45
45
45
30
30
15
30
45
45
60
60
45
45
180
180
180
180
180
135
120
120
105
105
105
90
150
195
210
195
195
195
195
195
195
195
195
195
180
150
120
75
45
45
45
60
90
120
120
105
75
45
30
30
30
30
15
30
45
30
15
30
30
45
45
45
45
30
30
30
45
45
45
165
210
210
210
210
195
195
210
210
210
210
210
210
210
210
210
210
210
210
210
75
45
45
45
45
45
45
45
30
45
45
45
60
30
30
15
30
45
45
45
60
60
45
165
180
180
180
180
135
120
105
105
105
90
135
150
165
150
150
165
165
165
165
165
150
150
165
180
195
195
195
180
135
90
45
45
45
60
75
45
30
30
30
30
15
15
15
45
60
60
60
60
60
75
75
60
30
30
30
45
45
60
195
210
210
210
210
210
210
210
210
210
210
210
210
210
210
210
210
210
210
210
105
45
45
45
45
45
45
45
45
45
45
45
60
30
30
30
30
45
45
45
60
60
45
150
180
180
180
180
120
105
105
105
105
45
75
135
135
165
180
180
180
180
180
195
195
195
180
165
135
135
150
180
195
195
180
135
90
45
45
30
30
30
30
30
15
15
15
60
75
75
75
75
75
75
75
60
15
30
30
30
30
30
105
135
165
210
210
210
210
210
210
210
210
210
210
210
210
210
210
210
210
210
120
30
45
45
45
45
45
45
45
30
45
45
60
30
30
30
30
45
45
45
60
60
45
150
180
180
180
180
105
105
105
105
75
60
60
135
195
195
195
195
195
195
195
195
195
180
180
195
195
195
150
105
105
150
180
195
195
180
150
105
60
45
30
30
30
30
30
60
75
75
75
75
75
75
60
45
45
45
60
60
60
60
30
30
135
210
210
210
210
210
210
195
210
210
210
210
210
210
210
210
210
210
120
30
30
30
45
45
45
45
45
30
45
45
60
45
30
30
30
45
45
45
60
60
45
150
195
195
180
180
105
105
105
90
45
60
60
75
120
105
90
75
90
105
120
150
180
195
195
195
180
180
195
195
180
150
90
90
135
165
195
195
195
180
150
135
105
90
60
75
75
75
75
75
75
75
60
45
75
90
90
60
60
60
30
30
150
210
210
210
195
195
195
195
195
210
210
210
210
210
210
210
210
210
105
30
30
45
45
60
45
45
60
30
60
45
60
45
45
30
30
45
60
45
60
60
45
165
195
195
195
195
105
105
105
45
60
60
75
75
30
15
15
15
45
60
60
60
60
75
120
165
195
195
195
180
180
195
180
135
135
90
60
120
150
165
195
195
195
195
165
75
75
75
75
75
75
75
120
180
195
195
180
75
60
60
30
30
180
210
195
195
195
210
210
195
195
195
210
210
210
210
210
210
210
210
75
30
45
45
45
60
60
60
60
30
60
75
60
45
45
30
30
45
60
45
60
60
45
165
180
180
180
180
105
105
60
45
60
60
60
60
60
30
15
60
60
30
30
45
30
30
60
45
60
120
165
195
195
165
135
165
165
150
165
150
120
90
30
75
105
120
90
75
75
75
75
75
75
75
105
120
120
120
90
45
45
45
30
30
195
210
195
195
210
210
210
210
210
210
210
210
210
210
210
210
210
195
60
30
45
45
45
75
90
75
90
30
45
45
60
60
45
30
30
45
75
45
60
60
60
165
180
180
180
180
105
90
45
60
60
60
60
60
60
45
15
60
30
60
60
60
45
45
30
60
30
15
30
90
150
165
180
165
150
135
165
180
195
195
195
180
150
135
75
75
75
75
90
60
60
60
75
90
105
105
60
45
45
45
30
30
180
195
195
195
210
210
210
210
210
195
210
210
210
210
210
210
210
165
45
45
45
45
45
90
105
105
105
45
45
45
60
60
60
30
45
60
105
45
60
60
60
165
180
180
180
180
105
45
45
60
60
60
60
60
60
60
45
30
30
90
90
45
45
45
30
60
45
15
30
45
105
75
120
165
165
195
150
120
105
135
150
180
195
180
75
75
75
75
60
60
60
75
165
195
195
195
105
60
60
60
30
30
180
195
195
195
210
210
210
210
210
210
210
210
210
210
210
210
210
105
45
60
45
45
60
105
120
105
75
45
45
60
60
60
60
45
60
90
120
45
60
60
75
180
165
180
180
180
75
45
60
60
60
60
60
60
60
60
30
30
30
45
45
45
45
45
45
75
45
15
30
75
105
90
60
75
105
135
165
195
195
180
135
105
45
60
60
75
75
60
90
75
75
75
90
90
105
90
60
45
45
45
30
30
165
195
195
210
210
210
210
210
210
210
210
210
210
210
210
210
180
60
60
60
45
45
90
135
120
105
60
45
45
60
60
60
75
45
60
135
120
45
60
60
105
180
165
165
165
165
45
45
60
60
60
60
60
60
60
45
30
30
30
30
45
45
45
30
60
90
45
15
30
105
75
90
90
90
60
45
45
105
150
180
195
195
195
180
135
75
75
75
90
60
60
75
75
105
135
135
120
60
60
45
30
30
120
195
210
210
210
210
210
210
210
210
210
210
210
210
210
210
105
45
60
60
45
60
105
135
135
135
60
45
45
60
60
60
90
75
75
165
105
60
60
60
120
180
180
165
165
165
45
60
60
60
105
75
45
45
45
45
15
45
15
30
30
30
30
45
90
75
30
15
60
75
60
90
90
90
60
60
45
30
30
45
75
120
150
165
165
75
75
75
60
60
60
75
75
165
195
195
195
90
60
60
30
30
150
195
210
210
210
210
210
210
210
210
195
210
210
195
210
150
60
60
60
60
60
90
120
120
135
75
60
45
60
60
45
60
120
105
90
195
45
60
60
45
150
165
180
180
165
165
60
75
75
60
45
45
45
60
60
60
45
45
60
30
30
30
45
75
75
30
75
45
45
30
60
90
105
75
75
60
45
60
30
75
45
45
30
30
30
60
75
75
60
60
60
60
60
60
60
60
60
45
30
30
30
165
195
210
210
210
210
210
210
210
210
210
210
210
210
210
165
60
45
60
60
60
60
90
105
105
105
60
60
45
60
60
45
120
105
120
150
165
60
60
60
60
180
180
165
180
180
180
45
45
45
60
60
60
60
45
45
45
30
45
60
60
60
60
45
45
45
60
45
45
30
30
60
90
90
75
90
60
45
30
30
60
45
45
30
30
30
45
60
60
60
60
60
60
60
60
45
45
90
45
45
30
30
75
195
210
210
210
210
210
210
210
210
195
210
210
210
180
75
60
45
45
45
60
75
90
90
105
60
45
60
60
60
45
45
135
120
90
210
105
60
60
45
120
180
180
165
180
180
180
60
60
60
60
45
45
45
45
45
45
30
60
60
60
60
45
30
60
45
60
75
60
60
45
45
75
60
90
90
75
75
45
45
45
45
45
30
30
30
30
30
45
45
45
45
45
45
45
45
30
30
30
30
45
30
30
90
195
210
210
210
210
210
210
210
210
210
195
150
75
60
60
45
45
45
60
75
75
90
60
45
45
45
60
60
45
105
90
105
135
195
45
60
60
60
150
165
180
180
165
165
180
45
45
45
45
45
45
45
45
45
45
45
45
60
60
60
60
60
165
60
75
75
75
60
90
45
45
60
75
75
75
90
75
45
45
45
45
45
30
30
30
45
45
45
45
30
30
30
30
30
30
30
45
30
30
45
30
30
75
180
210
210
210
210
210
210
210
165
105
75
60
60
60
60
45
45
60
60
75
60
45
45
45
60
60
60
75
90
75
75
210
120
60
60
60
90
165
165
165
180
165
165
165
45
45
45
45
45
45
45
45
45
45
45
45
45
60
60
60
60
75
45
75
90
105
90
60
45
45
45
60
60
75
90
90
60
45
45
45
45
45
45
45
45
45
45
45
45
45
45
45
45
45
45
45
45
45
45
45
60
75
45
120
150
165
165
150
135
105
90
90
75
75
60
60
45
45
45
45
60
45
45
45
45
60
60
60
60
90
45
75
150
180
45
60
60
45
135
165
180
165
165
180
165
165
45
45
45
45
45
45
45
45
45
45
45
45
45
90
90
60
60
45
90
105
75
75
75
75
135
60
45
45
45
60
60
60
60
60
60
60
60
60
60
60
60
45
45
45
45
45
45
45
45
45
45
45
45
45
45
60
60
60
45
45
60
60
75
75
90
90
90
90
75
60
45
45
45
45
45
60
45
45
45
45
60
60
75
75
75
45
60
105
180
75
60
60
60
75
135
165
165
165
165
165
180
165
45
45
45
45
45
45
45
45
45
45
45
45
75
165
195
180
165
195
210
210
195
165
150
195
210
195
165
105
60
45
60
60
60
60
60
60
60
60
60
60
60
60
60
60
60
60
60
60
60
60
60
60
60
60
60
60
60
60
60
60
75
45
45
45
45
45
45
45
45
45
45
45
45
45
45
45
60
45
45
60
60
90
90
75
30
45
75
135
105
60
60
60
45
120
135
135
165
165
165
165
165
180
45
45
45
45
45
45
45
45
60
105
135
165
180
195
195
195
195
195
195
195
195
195
195
210
210
195
210
210
195
150
90
60
60
60
60
45
60
60
60
60
60
60
60
60
60
60
60
60
60
60
45
60
45
60
45
45
45
45
45
60
60
45
45
45
45
45
45
45
45
45
45
45
45
45
45
45
60
60
60
60
105
120
105
30
30
60
120
90
60
60
60
45
90
135
135
120
150
165
165
165
165
165
45
45
45
45
45
90
120
150
165
180
180
180
180
180
180
180
180
180
195
180
180
195
195
195
195
210
210
210
210
210
210
180
135
75
60
60
60
60
60
60
60
60
60
60
60
60
60
45
45
45
45
45
45
45
45
45
45
45
45
45
45
45
45
45
45
45
45
45
45
45
45
45
45
45
45
45
60
60
90
120
135
105
30
30
60
90
90
45
60
60
45
60
105
120
120
120
120
150
165
165
165
165
45
75
105
135
165
180
180
180
180
180
180
195
195
180
180
180
195
195
195
180
180
180
195
195
195
195
195
210
210
210
210
210
210
195
135
60
60
60
60
60
45
45
45
45
45
45
45
45
45
45
30
30
30
45
30
30
30
45
45
45
30
30
45
45
45
45
45
45
75
45
45
45
45
45
45
60
60
105
150
150
105
30
30
60
75
75
45
60
60
60
45
120
135
135
135
135
135
135
165
165
165
165
150
165
165
165
180
165
180
180
180
180
180
180
180
180
195
195
195
195
195
195
195
195
195
195
195
210
210
210
210
210
195
210
210
195
195
105
75
45
45
45
45
45
45
45
45
45
45
45
45
45
45
30
30
30
45
30
30
30
45
45
45
45
45
45
45
45
45
30
45
45
45
45
60
60
60
105
135
150
135
75
30
45
60
60
60
45
60
60
60
45
105
135
135
135
135
135
135
135
150
165
165
165
165
165
165
165
165
165
165
165
180
180
180
180
180
180
195
195
195
180
195
195
195
195
195
195
195
195
195
210
210
195
195
210
210
195
195
180
105
60
60
45
45
45
30
45
45
45
45
60
60
75
60
60
30
30
30
45
30
30
30
30
30
45
45
45
45
45
45
45
45
45
60
60
75
90
120
135
135
105
30
30
45
60
45
45
45
60
60
60
45
105
150
135
135
135
135
135
150
135
135
165
165
165
165
165
165
165
165
165
165
165
165
165
180
180
180
180
180
195
195
195
195
195
195
195
195
195
195
195
195
195
195
195
195
195
195
195
195
195
180
90
75
60
45
30
45
45
45
45
60
60
60
60
60
60
60
45
30
30
45
45
30
30
30
30
30
30
45
45
45
60
60
75
90
105
120
120
120
90
30
30
45
60
45
45
45
60
60
75
60
45
105
195
150
135
135
135
135
135
150
150
135
150
165
165
165
165
165
165
165
165
165
165
165
165
165
180
180
195
195
195
195
195
195
195
195
195
195
195
195
195
195
195
195
195
195
195
195
195
195
195
195
165
90
75
60
45
60
45
60
60
60
60
60
60
75
60
60
60
60
30
30
30
45
45
30
30
45
45
45
45
45
60
60
75
75
75
75
45
30
30
45
60
45
45
45
45
60
60
60
60
45
105
195
195
180
135
135
135
135
150
135
150
150
150
150
165
165
165
165
165
165
165
165
165
165
180
165
180
180
195
195
195
180
180
180
165
165
195
180
195
195
195
195
195
195
195
195
195
195
195
195
195
195
195
165
105
75
45
60
60
60
60
60
60
60
60
60
75
75
60
60
60
45
30
30
30
45
45
45
30
30
30
30
30
30
30
30
30
45
45
60
45
45
45
45
45
60
60
60
60
60
60
105
195
195
195
195
165
150
135
135
135
135
150
150
150
135
165
165
165
165
165
165
165
165
165
165
180
180
180
180
180
180
180
180
165
165
165
165
180
180
195
195
195
195
195
195
195
195
195
195
195
195
195
195
195
195
180
105
60
60
60
60
60
60
60
60
60
60
60
75
75
60
60
75
75
60
45
30
30
30
45
45
45
45
45
45
45
45
45
45
45
45
45
45
45
60
60
75
60
60
60
60
120
180
165
180
180
180
180
150
120
135
150
135
135
135
150
135
135
180
165
165
165
165
165
165
165
165
180
180
165
165
180
165
180
180
180
180
180
180
195
180
195
195
195
195
195
195
195
195
195
195
195
195
195
195
195
195
180
180
120
75
75
60
60
60
60
60
60
60
60
60
60
75
75
75
75
75
60
60
45
45
30
30
30
30
30
30
30
30
30
30
45
45
60
60
60
75
60
60
60
60
60
120
150
150
150
150
165
165
165
165
150
135
135
135
135
135
135
135
135
180
180
180
180
180
180
165
165
165
180
180
165
165
165
180
180
180
180
180
180
165
180
180
180
180
195
195
195
195
195
195
195
195
195
195
195
180
180
180
180
180
180
135
105
75
60
60
60
60
60
60
60
60
60
60
60
60
75
75
75
60
60
60
60
60
60
60
45
60
60
60
60
60
60
60
90
75
75
60
60
60
60
75
120
120
120
120
135
135
135
150
150
150
165
150
135
135
135
135
135
150
150
180
195
180
180
180
180
165
180
165
165
165
165
180
165
180
180
180
180
180
180
180
195
180
180
180
180
180
180
180
180
180
180
180
195
195
180
195
195
180
180
180
180
180
165
120
60
60
60
60
60
60
60
45
60
60
60
60
60
60
60
60
60
60
60
60
60
60
60
60
60
60
60
60
60
60
60
60
60
60
60
60
90
120
120
120
120
120
135
135
150
150
150
165
165
165
135
120
135
150
165
165
180
180
195
195
180
180
165
165
165
165
150
150
150
165
165
165
180
180
180
180
180
195
195
195
195
195
180
180
180
180
180
180
165
180
180
195
195
195
195
195
180
195
195
195
180
165
135
105
90
75
60
60
45
60
60
60
60
60
60
60
60
60
60
60
60
60
60
60
60
60
60
60
60
60
60
60
60
60
60
60
90
105
120
120
120
120
120
135
135
150
150
165
165
165
165
180
165
150
165
180
180
180
180
180
180
180
180
165
165
165
165
150
150
135
135
150
165
165
180
180
180
180
180
195
195
195
195
195
195
195
180
180
180
180
180
180
180
195
195
195
195
195
195
195
195
195
180
180
165
150
135
105
90
75
45
60
60
60
60
60
60
60
60
60
60
60
60
60
60
60
60
60
60
60
60
60
60
60
60
60
75
105
105
105
105
120
120
135
135
150
150
165
165
165
180
195
195
210
210
210
180
165
180
180
180
180
180
165
180
180
180
165
150
150
150
150
135
150
165
165
180
180
180
165
180
180
180
180
195
195
195
195
195
195
180
195
195
195
195
195
210
210
210
210
210
210
210
210
195
195
180
180
165
150
135
120
90
60
75
75
75
60
60
60
60
60
60
60
60
60
60
60
60
60
60
60
60
60
60
60
75
90
105
105
105
120
120
135
150
150
165
165
165
180
195
195
210
210
210
210
210
210
195
180
180
180
180
180
165
150
150
165
165
150
150
150
150
150
150
150
150
165
180
180
180
180
180
180
195
195
195
195
210
210
195
210
210
210
210
210
210
210
210
210
225
225
225
225
225
225
225
210
210
210
195
180
165
150
135
90
75
90
90
60
60
75
75
75
75
75
75
75
75
75
60
60
60
60
75
75
90
90
105
105
105
120
120
135
150
165
165
180
180
195
210
210
210
210
210
210
210
210
210
210
210
180
165
180
180
165
165
165
165
165
165
165
150
150
165
150
150
150
150
150
165
180
180
180
180
180
195
195
195
210
210
210
210
210
210
210
210
210
210
225
225
225
225
225
225
225
225
225
225
225
225
210
210
210
195
180
165
150
135
105
75
75
60
60
75
75
75
60
60
60
60
75
75
75
90
90
90
90
105
105
120
135
150
165
165
180
195
210
210
210
210
210
210
210
210
210
210
210
210
210
210
210
210
195
180
180
180
165
180
165
180
180
165
165
165
165
165
165
165
150
150
165
165
180
180
180
195
195
210
210
210
210
225
225
225
225
225
225
225
225
225
225
225
225
225
225
225
225
225
225
225
225
225
225
225
225
225
225
210
210
195
195
180
150
135
120
120
120
105
105
105
120
120
120
120
120
135
135
135
150
165
180
195
195
210
210
225
225
225
225
210
225
210
210
225
210
210
210
210
210
210
210
210
210
210
210
180
180
180
