P2
# Created by GIMP version 2.10.22 PNM plug-in
85 64
255
195
195
195
195
195
195
195
195
195
195
195
195
195
195
195
195
195
195
195
195
195
195
195
225
225
180
90
60
60
60
60
60
60
60
60
60
60
60
60
60
60
60
60
60
60
60
45
45
45
45
45
45
45
45
45
45
45
45
45
45
45
45
45
45
45
45
45
45
45
60
60
60
60
60
60
60
75
75
75
75
75
75
75
75
75
195
195
195
195
195
195
195
195
195
195
195
195
195
195
195
195
195
195
195
195
195
195
195
225
150
75
60
60
60
60
60
60
60
60
60
60
60
60
60
60
60
60
60
60
60
60
60
60
60
60
60
60
60
60
60
45
45
45
45
45
45
45
45
45
45
45
45
60
60
60
60
60
60
60
60
60
75
75
75
75
75
75
75
75
90
195
195
195
195
195
195
195
195
195
195
195
195
195
195
195
195
195
195
195
195
195
195
210
120
60
60
60
60
60
60
60
60
60
60
60
60
60
60
60
60
60
60
60
60
60
60
60
60
75
90
120
150
120
135
135
135
120
105
105
90
60
45
45
45
45
45
60
60
60
60
60
105
120
135
165
75
75
75
75
75
75
75
75
75
75
195
195
195
195
195
195
195
195
195
195
195
195
195
195
195
195
195
195
195
195
195
165
90
60
60
60
60
60
60
60
60
60
60
60
60
45
45
60
60
60
60
60
60
60
75
90
105
135
150
165
165
180
195
195
195
195
195
180
150
150
180
150
105
150
180
195
165
150
120
105
120
225
225
195
135
90
90
90
75
75
75
75
75
75
75
210
195
195
195
195
195
195
195
195
195
195
195
195
195
195
195
195
150
120
90
75
60
60
60
60
60
60
60
60
60
60
45
45
45
45
45
45
45
45
45
45
60
90
105
120
135
150
150
150
165
180
195
195
195
195
195
195
195
195
195
150
165
195
180
165
180
225
225
210
195
195
195
210
225
225
210
195
195
120
75
75
75
75
75
75
225
195
195
195
195
195
195
195
195
195
195
195
210
150
105
90
60
60
60
60
60
60
60
60
60
60
60
45
45
45
45
45
45
45
45
45
45
45
45
60
75
105
135
180
195
195
195
195
195
195
180
180
195
195
210
210
210
210
210
210
210
150
195
210
180
180
195
150
135
225
210
195
195
195
225
225
225
225
165
75
75
75
75
75
75
210
210
195
195
195
195
195
195
180
135
120
210
225
105
60
60
60
60
60
45
60
45
45
45
45
45
45
45
45
45
45
45
45
45
45
45
45
60
75
90
105
165
180
180
195
195
195
195
195
195
195
195
180
195
195
210
210
210
210
210
195
210
210
210
210
180
210
210
195
210
225
225
210
195
195
225
225
225
210
90
75
75
75
75
75
210
225
195
210
195
135
105
75
60
60
60
225
225
195
120
105
60
60
45
60
60
45
45
45
45
45
45
45
45
45
45
45
45
45
45
45
60
90
105
150
195
210
210
195
180
165
180
180
195
195
195
195
195
195
195
210
210
195
195
210
210
210
210
210
210
210
195
210
225
225
225
225
225
225
210
195
225
225
225
90
75
75
75
75
75
210
225
225
135
105
90
135
150
75
105
135
165
180
165
135
90
120
150
90
105
135
60
45
45
45
45
45
45
45
45
45
45
45
45
45
60
105
135
150
195
195
195
195
195
195
180
180
195
195
195
195
195
195
195
195
195
195
195
195
195
180
195
195
195
210
210
210
210
225
225
225
225
225
225
225
225
225
225
210
120
75
75
75
75
75
210
210
165
105
150
120
150
150
135
120
120
105
75
180
105
60
105
210
75
90
150
60
45
45
45
45
45
45
45
45
45
45
45
45
75
90
135
150
195
195
195
195
195
195
180
180
180
180
195
195
195
195
195
195
210
195
195
195
195
210
195
195
210
210
195
195
210
210
210
225
225
225
225
225
225
225
225
225
225
180
75
75
75
75
75
210
195
165
105
210
180
105
90
90
90
75
90
75
165
165
165
195
195
165
120
60
45
45
45
45
45
45
45
45
45
60
45
45
75
90
135
195
195
195
195
180
180
180
180
180
180
180
180
180
195
195
195
195
195
210
210
210
210
225
210
210
210
210
210
210
195
195
195
210
225
225
225
225
225
225
225
225
225
225
210
90
75
75
75
75
210
210
210
165
195
150
105
60
105
120
120
135
120
195
195
180
120
75
60
60
45
45
45
45
45
45
45
45
60
135
135
150
120
105
120
165
180
180
180
180
180
165
165
180
180
180
180
195
195
195
195
195
210
225
225
225
225
210
210
210
210
210
210
210
210
210
195
210
195
195
210
225
225
225
225
225
225
225
225
225
150
75
75
75
75
210
210
210
210
225
105
150
120
120
135
135
150
165
210
150
90
45
45
60
60
60
60
60
75
75
75
60
75
135
180
180
180
180
180
165
180
180
180
180
165
165
165
165
165
165
180
195
195
195
195
180
165
225
225
210
210
210
210
210
210
210
210
210
210
210
210
210
210
195
210
195
210
225
225
225
225
225
210
225
225
210
75
60
75
75
210
210
210
210
225
180
150
180
180
165
165
180
120
75
60
60
60
75
75
75
75
60
60
45
45
45
45
120
180
180
180
180
180
210
210
180
180
165
150
150
150
150
165
165
180
195
195
195
210
210
225
210
210
210
225
225
225
225
225
225
225
225
225
225
210
210
210
210
210
195
195
195
210
225
225
225
225
210
225
225
225
120
60
60
75
210
210
210
210
180
195
210
165
75
75
135
135
105
90
105
60
60
45
45
45
45
45
45
30
30
30
105
180
180
180
180
180
195
225
225
195
180
165
165
150
135
150
150
165
195
195
195
225
225
210
210
210
225
225
225
225
225
225
225
225
225
225
225
225
225
225
210
210
210
210
210
195
195
210
225
210
195
195
225
225
225
180
60
60
60
210
210
210
210
210
105
195
180
90
90
120
105
180
135
90
45
30
30
30
45
45
45
30
30
30
90
195
180
180
180
180
180
210
225
225
165
150
135
135
120
135
150
165
195
195
210
225
225
210
210
225
225
225
210
210
210
210
210
210
210
210
210
210
225
225
225
225
225
210
225
225
210
210
195
195
195
210
210
210
225
225
225
90
60
60
210
210
210
210
210
180
165
165
120
75
105
75
105
105
90
45
75
30
30
30
30
30
30
30
75
195
180
180
180
180
180
180
225
225
210
150
135
120
120
120
135
150
195
195
210
225
210
210
225
225
210
210
210
210
210
195
195
195
195
210
210
210
210
210
210
225
225
225
225
210
225
225
195
195
195
195
195
210
210
225
225
225
150
60
60
195
210
210
210
210
210
165
135
135
180
135
45
60
60
120
90
75
30
30
30
30
30
30
75
195
180
180
180
180
180
180
195
225
225
195
135
120
120
120
120
135
195
195
195
210
210
210
225
225
210
210
210
195
195
195
195
195
180
195
195
195
195
210
210
210
210
225
225
225
225
225
195
195
195
210
225
225
210
210
210
225
225
225
75
60
180
210
210
210
210
210
150
90
165
120
75
105
90
30
60
75
45
45
60
45
30
30
60
180
180
180
180
180
180
180
180
225
225
225
165
120
105
105
105
120
180
195
195
210
210
210
225
225
210
210
195
195
210
210
210
225
225
225
225
225
210
210
195
195
210
210
210
225
210
210
195
195
210
225
210
210
225
210
210
195
225
225
225
120
60
180
195
210
210
210
210
210
60
105
105
165
180
120
45
60
75
60
90
90
90
45
90
165
150
180
180
180
180
180
180
195
225
225
225
180
120
105
90
105
150
210
195
210
210
210
225
225
210
195
195
195
210
210
225
225
225
225
225
225
210
225
225
225
210
195
210
210
210
210
195
195
225
210
210
210
195
210
210
210
195
225
225
225
180
60
180
180
210
210
210
210
210
120
30
30
150
105
75
105
120
150
105
75
135
75
135
225
225
210
195
195
195
195
195
180
210
225
210
210
165
135
135
135
135
195
210
195
195
210
210
210
210
210
195
210
210
195
120
75
60
60
105
180
195
210
210
225
225
225
225
195
210
210
210
225
225
225
225
210
210
210
210
195
210
225
225
180
150
90
60
180
180
195
210
210
210
210
210
60
30
75
90
120
90
45
75
60
135
90
90
120
225
210
195
195
195
195
180
165
180
180
195
195
195
195
195
195
195
195
195
195
195
195
195
195
195
195
195
210
195
195
45
30
30
30
30
30
45
150
210
210
210
210
225
225
225
210
210
210
210
225
225
225
210
210
225
210
195
210
225
225
180
60
60
75
180
180
180
210
210
210
210
210
120
30
30
30
105
75
75
90
165
75
60
60
150
195
195
195
195
180
165
180
180
180
180
180
180
180
195
195
195
195
195
195
195
195
195
195
195
195
195
195
195
180
210
60
45
45
45
45
30
30
45
150
210
210
210
210
225
210
225
210
210
210
225
225
225
225
225
210
195
210
225
210
75
75
60
60
75
165
180
180
195
210
210
210
210
210
60
45
45
60
90
120
195
90
75
90
120
195
195
195
180
165
180
180
180
165
180
180
180
180
180
180
180
180
180
195
195
195
195
195
195
210
210
210
210
210
195
90
45
45
30
45
45
45
45
30
45
180
210
210
225
225
225
225
210
210
210
210
225
225
225
210
195
195
210
210
210
75
60
60
60
75
165
180
180
180
195
210
210
210
210
135
45
45
45
120
135
90
105
120
120
195
180
180
165
180
180
180
165
165
165
180
180
180
180
180
180
180
195
195
210
210
210
225
225
225
225
210
195
90
60
45
45
45
45
45
45
45
45
45
45
45
90
210
210
210
210
225
225
225
195
210
210
225
225
210
195
195
210
210
210
210
105
60
60
60
60
120
165
180
180
195
210
225
210
195
210
105
105
180
210
210
210
195
165
180
165
165
180
180
180
180
165
165
165
180
180
180
180
195
210
210
225
225
225
225
225
225
225
225
225
225
210
90
45
45
45
45
45
45
45
45
45
45
45
45
45
45
180
210
210
210
210
225
225
225
210
210
210
210
195
210
210
210
210
195
210
120
60
60
60
60
135
120
180
180
180
210
210
195
150
135
120
135
135
165
195
210
210
210
195
180
180
180
180
165
165
150
150
180
210
210
225
225
225
225
225
225
225
225
225
225
210
225
225
210
210
150
45
45
45
45
45
45
45
45
45
45
45
45
45
45
45
120
210
210
210
225
225
210
225
195
210
210
225
225
225
210
210
210
195
210
150
60
60
60
60
150
165
165
165
165
165
90
45
45
45
45
45
45
45
45
60
90
120
180
210
210
195
180
135
135
150
180
210
225
225
225
225
225
225
225
225
225
210
210
210
225
225
210
210
210
75
45
45
45
45
45
45
45
45
45
45
45
45
45
45
45
90
210
210
210
210
225
225
225
210
210
195
225
225
225
225
210
210
195
210
165
60
60
60
60
150
165
180
180
180
120
90
90
105
90
90
90
90
90
90
75
60
45
45
75
120
195
210
210
195
195
225
225
225
225
225
225
210
210
195
195
195
195
195
195
225
225
210
210
180
45
45
45
45
45
45
45
45
45
30
30
45
45
45
45
45
75
210
210
210
210
210
210
210
210
210
195
210
225
225
225
210
210
195
195
195
60
60
60
60
165
180
180
180
210
180
120
105
75
60
60
60
60
45
45
60
105
120
105
60
45
60
90
150
210
210
225
225
225
225
225
225
210
180
180
180
180
195
195
210
225
225
225
225
225
135
120
45
45
45
45
45
45
45
45
30
30
45
45
45
45
60
210
210
210
210
210
210
210
225
210
195
210
225
225
225
210
210
195
195
210
60
60
60
60
180
180
180
195
210
195
90
45
45
45
45
45
45
60
60
60
45
45
75
135
150
90
60
45
60
105
150
210
210
225
225
225
210
195
180
180
195
195
195
210
210
210
195
195
195
225
225
45
45
45
45
45
45
45
45
45
30
45
45
45
45
60
210
225
210
210
210
210
210
225
210
195
210
225
225
225
210
210
195
195
195
60
60
60
60
180
180
180
210
195
195
165
150
180
195
180
150
120
90
60
45
60
60
60
45
60
105
165
135
90
60
45
60
75
105
135
150
180
195
180
195
195
195
195
180
150
150
180
195
210
225
210
45
45
45
45
45
45
45
45
45
45
45
45
45
45
75
210
225
210
210
210
210
195
210
195
195
195
210
225
225
210
210
195
195
195
60
60
60
60
180
180
195
210
195
180
210
225
225
225
195
195
210
210
195
150
90
60
60
60
75
60
90
105
150
180
150
105
75
60
45
45
165
180
195
195
195
195
150
60
45
45
135
195
195
225
150
45
45
60
45
45
45
45
45
45
45
30
45
45
45
90
210
210
210
210
195
180
195
225
195
195
195
210
225
225
195
210
195
195
180
60
60
60
60
180
195
210
195
195
195
195
210
225
195
195
225
210
210
225
210
225
180
105
60
60
105
90
90
90
60
90
105
150
225
180
165
180
195
195
165
195
195
180
150
165
165
210
210
210
225
120
45
45
45
45
45
45
45
45
45
45
45
45
30
45
120
225
210
210
210
165
165
180
210
210
195
195
210
225
210
180
195
195
195
150
75
75
75
75
180
210
210
195
195
195
195
195
225
210
225
195
195
210
210
225
195
225
225
195
120
90
75
90
120
105
75
45
45
45
60
135
180
195
195
165
195
195
150
120
105
135
210
210
210
225
150
45
45
45
45
45
45
45
45
45
45
45
45
30
45
165
210
210
210
195
150
165
150
210
210
195
195
195
210
210
165
195
195
195
150
75
75
75
75
195
210
195
195
195
195
195
195
210
225
210
165
210
210
210
210
195
225
225
210
165
195
150
105
60
75
105
135
135
105
90
120
195
195
195
195
195
195
105
60
60
90
195
195
210
225
150
45
45
45
45
45
45
45
45
45
45
45
45
45
60
195
210
210
210
165
150
150
180
210
210
195
195
195
210
195
120
210
195
195
120
75
75
75
75
210
210
195
195
195
195
195
195
210
225
225
210
210
210
225
210
180
225
225
165
165
180
195
180
165
105
60
45
60
90
135
180
180
195
195
165
195
195
195
225
225
225
210
210
210
225
180
45
45
45
45
45
45
45
45
45
45
45
45
45
120
210
195
210
195
165
120
135
195
210
210
195
195
180
210
195
105
210
195
195
105
75
75
75
75
210
195
195
195
195
195
195
210
225
225
225
225
225
225
225
180
195
225
225
165
195
165
165
210
210
210
195
135
90
60
45
45
150
195
195
180
195
195
195
90
60
60
135
195
195
225
225
75
45
45
45
45
45
45
45
45
45
45
45
60
195
195
195
210
180
135
135
120
195
210
195
195
210
165
165
150
105
195
195
195
90
75
75
75
90
210
180
195
180
180
210
210
195
210
210
225
225
225
225
195
165
225
225
195
195
195
165
165
195
195
210
210
210
210
210
165
135
165
195
195
195
195
195
195
135
105
90
135
210
210
195
105
45
45
45
45
45
45
45
45
45
45
45
45
150
195
195
195
195
165
150
135
180
195
210
195
195
210
135
150
105
135
195
195
195
75
75
75
75
75
195
180
210
210
195
195
195
195
210
225
195
210
210
210
195
210
210
180
225
225
195
165
180
180
195
210
210
195
210
210
225
225
225
195
195
195
195
195
195
195
210
210
180
225
225
210
75
45
45
45
45
45
45
45
45
45
45
45
120
195
210
195
195
180
165
165
150
210
180
195
195
210
150
150
165
60
195
195
195
150
75
75
75
75
75
210
195
195
195
210
210
210
210
225
210
195
210
210
210
225
195
195
195
210
225
210
165
180
165
180
195
210
210
210
210
225
225
225
210
210
210
195
195
195
195
210
225
210
225
225
225
165
60
45
45
45
45
45
45
45
45
45
105
195
210
210
210
195
180
180
165
195
210
210
195
195
210
150
150
120
75
195
195
210
105
75
75
75
75
75
195
210
210
210
210
210
210
210
210
210
195
195
195
210
135
210
180
195
195
195
210
210
180
180
180
180
195
210
210
210
225
225
225
225
210
210
225
225
225
225
225
225
210
225
225
225
225
150
60
45
45
45
45
45
45
60
135
180
195
195
210
210
195
195
180
180
210
210
195
195
195
165
180
165
60
150
195
195
195
90
75
75
75
75
75
210
210
210
210
210
210
210
210
210
210
210
195
195
210
150
195
180
165
180
180
210
210
195
195
180
165
180
210
210
210
210
210
210
225
210
210
210
210
210
210
210
210
210
210
225
210
225
195
180
90
60
60
60
75
120
165
180
180
195
195
210
210
210
195
195
210
210
210
195
195
195
165
195
150
75
195
195
195
135
75
75
90
75
75
75
210
210
210
210
210
210
210
210
210
210
225
180
195
195
210
195
195
180
165
195
180
210
210
210
195
195
180
195
195
195
195
210
210
210
210
210
210
210
210
210
210
210
210
210
210
210
210
195
195
210
195
180
165
165
150
165
165
180
195
210
210
210
210
195
210
210
210
195
195
180
180
225
195
75
150
195
195
210
120
75
75
90
75
75
75
210
210
210
210
210
210
210
210
210
210
210
90
90
120
90
60
60
90
135
90
60
90
165
210
210
195
195
195
195
195
195
195
195
195
195
195
195
195
195
195
195
195
195
195
195
195
195
195
210
195
195
210
225
210
210
210
210
210
210
210
210
210
210
210
210
210
195
180
165
180
210
195
150
120
195
195
195
165
120
105
75
75
90
75
75
210
210
210
210
210
210
210
210
150
105
75
60
60
60
60
45
60
45
45
45
45
45
45
75
135
195
195
195
195
210
195
195
195
195
195
195
195
195
195
195
210
210
210
210
210
195
195
195
210
195
195
210
225
210
210
210
210
210
210
210
210
210
210
195
195
195
180
150
150
210
210
180
135
195
195
195
210
135
120
120
90
75
90
75
75
210
210
210
210
195
150
120
90
75
75
75
75
75
60
60
60
60
60
60
60
45
45
45
45
45
60
105
180
195
195
195
195
195
195
210
195
195
195
210
210
210
210
210
210
210
210
210
210
210
210
210
210
210
210
225
210
210
210
210
210
210
210
210
210
195
165
135
135
195
225
195
150
195
195
195
210
165
135
120
135
120
90
75
75
75
210
195
135
105
75
75
75
75
75
60
60
60
75
60
60
60
60
60
60
45
45
45
45
45
45
45
45
60
105
195
195
195
195
210
210
210
210
210
210
210
210
210
225
225
210
225
225
210
210
210
225
225
210
210
210
210
195
210
210
210
210
210
195
195
150
105
120
195
225
210
180
195
195
195
195
195
120
120
120
120
120
90
90
75
90
105
90
90
75
90
75
75
75
75
75
75
60
60
60
60
60
60
60
60
60
45
45
45
45
45
45
45
45
60
135
180
210
210
210
210
210
210
210
210
210
210
225
225
225
225
225
225
225
210
210
210
210
210
210
225
225
210
210
210
210
195
195
180
135
105
120
210
225
210
195
195
195
195
195
210
135
120
120
120
120
120
105
90
75
75
90
75
90
75
75
75
75
75
75
75
75
60
60
60
60
60
60
60
60
60
45
45
45
45
45
60
45
45
45
75
165
210
210
210
210
225
210
210
210
195
195
195
195
210
225
210
210
225
225
225
225
210
210
210
210
210
210
210
195
195
180
150
120
120
165
225
210
195
210
210
195
195
195
210
135
105
120
120
105
105
105
120
90
75
75
75
90
75
75
90
75
75
75
75
75
75
60
60
60
60
60
60
45
45
60
60
60
45
45
45
45
45
45
45
45
90
180
195
195
210
210
210
210
195
195
195
195
195
195
210
225
225
210
225
225
225
225
225
225
210
210
195
180
165
150
135
135
165
210
225
210
195
210
210
195
195
195
210
150
60
105
105
120
105
120
105
105
105
90
75
90
90
90
90
90
90
90
75
75
75
60
60
60
60
60
60
60
60
60
60
60
60
60
60
45
45
60
45
45
60
60
105
165
195
210
195
195
195
195
195
195
195
195
195
195
210
225
225
210
210
225
225
225
210
210
195
195
180
180
180
195
225
225
210
210
210
210
210
195
195
195
210
165
60
60
90
120
120
120
105
105
105
105
105
90
90
90
90
90
90
90
75
75
75
75
60
60
60
60
75
75
90
75
60
60
60
60
60
60
60
60
60
45
60
60
60
60
120
165
210
195
195
195
195
195
195
195
180
180
195
195
195
210
225
225
210
210
210
225
225
225
225
225
225
210
210
210
210
210
210
210
195
195
195
195
195
180
75
60
60
60
90
120
120
120
105
105
105
105
90
90
90
90
90
90
90
90
75
75
75
75
75
75
75
90
90
90
75
60
60
60
60
60
60
60
60
60
60
60
60
45
60
60
120
180
195
195
195
195
195
195
195
195
195
195
195
195
180
195
210
225
225
225
210
210
210
210
210
210
210
210
210
225
210
210
195
195
195
195
195
180
90
75
75
75
75
90
120
120
105
120
120
105
105
105
75
75
90
75
75
90
90
75
75
90
75
75
75
60
75
75
75
60
60
60
60
60
60
60
60
60
60
60
60
60
60
60
75
75
120
180
180
195
195
195
195
195
195
195
195
180
180
180
180
195
195
210
210
225
225
225
225
225
225
210
210
210
180
195
195
180
195
195
195
180
120
105
105
105
90
90
90
90
120
120
120
120
120
105
120
75
75
75
75
75
75
75
75
75
75
90
75
75
60
75
75
75
75
75
60
60
60
60
60
60
60
60
60
60
60
75
75
60
75
60
105
150
180
195
195
195
195
195
195
195
195
195
195
180
180
195
195
195
195
195
195
195
195
195
195
195
195
180
180
195
195
195
195
165
135
120
120
120
120
105
105
90
90
90
120
120
120
105
105
90
60
60
75
75
75
75
75
75
90
90
75
75
75
75
75
60
75
60
60
60
60
60
75
75
75
75
75
60
60
60
60
60
75
60
60
75
90
150
195
195
195
195
195
210
195
195
195
195
195
195
195
195
195
195
195
195
195
195
195
195
195
195
195
195
195
195
180
150
135
135
135
135
120
105
105
90
90
90
90
120
120
105
90
90
75
75
75
75
90
90
90
90
90
105
105
90
90
75
75
60
60
60
60
60
60
60
75
75
75
75
75
75
75
60
60
60
60
60
60
60
60
75
90
120
150
180
195
210
195
195
195
195
195
195
195
195
195
195
195
195
195
195
195
195
195
195
195
195
195
195
165
150
135
135
135
135
120
105
90
90
90
90
75
60
60
90
90
90
75
90
75
90
75
75
75
90
105
105
105
120
90
90
75
60
60
75
75
75
60
60
60
60
60
60
60
60
60
60
60
60
45
60
45
45
60
60
75
75
90
105
120
150
195
195
195
195
195
195
195
195
195
195
195
195
195
195
195
195
195
195
195
195
195
180
165
150
135
135
135
120
105
90
90
90
75
75
60
45
45
45
60
75
75
75
75
75
90
90
75
75
90
105
105
105
105
105
90
75
75
75
75
75
75
60
60
60
45
60
60
60
60
60
45
45
45
45
45
45
45
30
30
45
60
60
75
105
105
135
180
180
180
180
195
195
195
195
195
195
195
195
195
195
195
180
195
195
180
165
150
150
150
135
120
105
90
90
75
75
60
45
45
45
45
45
45
45
75
75
75
75
90
90
90
90
90
90
105
90
90
105
105
90
90
75
75
75
75
60
60
60
45
45
45
45
45
45
45
45
45
30
30
30
30
30
30
30
45
45
45
45
60
75
90
120
165
180
180
195
180
180
180
180
180
180
180
180
195
180
180
165
165
150
150
135
120
105
105
90
75
60
45
45
45
45
45
45
45
45
45
45
45
60
75
75
75
90
90
75
75
75
90
90
90
90
90
105
105
90
75
75
75
75
60
45
45
45
30
30
30
30
30
30
30
30
30
30
30
30
30
30
30
30
30
30
30
30
45
60
75
75
105
135
165
180
180
180
180
180
165
165
165
165
150
150
135
135
120
105
75
75
60
45
45
45
45
45
45
45
45
45
45
45
45
45
45
45
45
60
75
75
90
75
75
75
75
75
90
90
90
90
105
105
75
75
60
60
45
45
45
30
30
30
30
30
45
30
30
30
30
30
30
30
30
30
30
30
30
30
30
45
30
30
30
30
45
45
45
60
60
60
75
75
75
75
75
75
75
60
60
45
45
45
45
30
30
30
30
30
45
45
45
45
45
45
45
45
45
45
45
45
45
45
60
75
75
90
75
75
75
75
75
75
75
75
90
75
75
60
60
45
45
45
45
30
30
30
30
30
30
30
30
30
30
30
30
30
30
30
30
30
30
30
30
30
30
30
30
30
30
30
30
30
45
45
30
30
30
30
30
30
30
30
30
30
30
30
30
45
30
30
30
30
30
30
45
45
45
45
45
45
45
45
45
45
45
45
45
45
75
75
