P2
# Created by GIMP version 2.10.22 PNM plug-in
256 64
255
0
0
0
0
0
0
0
0
0
0
0
0
0
0
0
0
0
0
0
0
0
0
0
0
0
0
0
0
0
0
0
0
0
0
0
0
0
0
0
0
0
0
0
0
0
0
0
0
0
0
0
0
0
0
0
0
0
0
0
0
0
0
0
0
0
0
0
0
0
0
0
0
0
0
0
0
0
0
0
0
0
0
0
0
0
0
0
0
0
0
0
0
0
0
0
0
0
0
0
0
0
0
0
0
0
0
0
0
0
0
0
0
0
0
0
0
0
0
0
0
0
0
0
0
0
0
0
0
0
0
0
0
0
0
0
0
0
0
0
0
0
0
0
0
0
0
0
0
0
0
0
0
0
0
0
0
0
0
0
0
0
0
0
0
0
0
0
0
0
0
0
0
0
0
0
0
0
0
0
0
0
0
0
0
0
0
0
0
0
0
0
0
0
0
0
0
0
0
0
0
0
0
0
0
0
0
0
0
0
0
0
0
0
0
0
0
0
0
0
0
0
0
0
0
0
0
0
0
0
0
0
0
0
0
0
0
0
0
0
0
0
0
0
0
0
0
0
0
0
0
0
0
0
0
0
0
0
0
0
0
0
0
0
0
0
0
0
0
0
0
0
0
0
0
0
0
0
0
0
0
0
0
0
0
0
0
0
0
0
0
0
0
0
0
0
0
0
0
0
0
0
0
0
0
0
0
0
0
0
0
0
0
0
0
0
0
0
0
0
0
0
0
0
0
0
0
0
0
0
0
0
0
0
0
0
0
0
0
0
0
0
0
0
0
0
0
0
0
0
0
0
0
0
0
0
0
0
0
0
0
0
0
0
0
0
0
0
0
0
0
0
0
0
0
0
0
0
0
0
0
0
0
0
0
0
0
0
0
0
0
0
0
0
0
0
0
0
0
0
0
0
0
0
0
0
0
0
0
0
0
0
0
0
0
0
0
0
0
0
0
0
0
0
0
0
0
0
0
0
0
0
0
0
0
0
0
0
0
0
120
0
0
0
0
0
0
0
0
0
0
0
0
0
0
0
0
0
0
0
0
0
0
0
0
0
0
0
0
0
0
0
0
0
0
0
0
0
0
0
0
0
0
0
0
0
0
0
0
0
0
0
0
0
0
0
0
0
0
0
0
0
0
0
0
0
0
0
0
0
0
0
0
0
0
0
0
0
0
0
0
0
0
0
0
0
0
0
0
0
0
0
0
0
0
0
0
0
0
0
0
0
0
0
0
0
0
0
0
0
0
0
0
0
0
0
0
0
0
0
0
0
0
0
0
0
0
0
0
0
0
0
0
0
0
0
0
0
0
0
0
0
0
0
0
0
0
0
0
0
0
0
0
0
0
0
0
0
0
0
0
0
0
0
0
0
0
0
0
0
0
0
0
0
0
0
0
0
0
0
0
0
0
0
0
0
0
0
0
0
0
0
0
0
0
0
0
0
0
0
0
0
0
0
0
0
0
0
0
0
0
0
0
0
0
0
0
0
0
0
0
0
0
0
0
0
0
0
0
0
0
0
0
0
0
0
0
0
0
0
0
0
0
0
0
0
0
0
0
0
0
0
0
0
0
0
120
0
0
0
0
0
0
0
0
0
0
0
0
0
0
0
0
0
0
0
0
0
0
0
0
0
0
0
0
0
0
0
0
0
0
0
0
0
0
0
0
0
0
0
0
0
0
0
0
0
0
0
0
0
0
0
0
0
0
0
0
0
0
0
0
0
0
0
0
0
0
0
0
0
0
0
60
195
225
225
225
225
225
225
195
150
45
0
0
0
0
0
0
0
0
0
60
165
195
225
225
225
225
225
225
225
225
225
225
225
225
225
225
225
225
225
210
180
45
0
0
0
0
0
0
0
90
180
210
225
225
225
225
225
225
225
225
225
225
225
225
225
225
225
210
165
45
0
0
0
0
0
0
180
180
0
0
0
150
210
0
0
150
225
225
225
225
225
210
135
0
0
210
195
0
0
0
0
225
180
0
0
0
0
0
0
0
0
0
0
0
0
0
0
0
120
225
225
225
180
15
0
0
0
0
0
135
225
225
225
225
225
225
225
225
180
15
0
0
135
225
225
225
225
225
225
225
225
180
15
0
0
0
0
0
0
0
0
0
0
0
0
60
195
225
225
225
225
225
225
225
180
30
0
0
0
120
0
0
0
0
0
45
195
225
225
225
225
225
225
225
180
0
0
0
120
225
135
0
0
0
0
0
150
225
120
0
0
0
0
0
0
0
0
30
180
225
225
225
225
225
225
225
210
15
0
0
0
0
0
0
0
0
0
165
210
90
0
0
0
0
0
150
225
105
0
0
0
0
0
0
0
120
225
225
225
225
225
225
225
225
225
210
45
0
0
0
0
0
0
0
90
210
225
225
225
225
225
225
225
225
225
225
225
225
225
225
225
225
225
225
225
225
225
135
0
0
0
0
0
0
105
225
225
225
225
225
225
225
225
225
225
225
225
225
225
225
225
225
225
225
225
210
60
0
0
0
0
0
210
195
0
0
90
225
165
0
0
210
225
90
0
15
105
225
195
0
0
210
195
0
0
0
0
225
195
0
0
0
0
0
0
0
0
0
0
0
0
0
0
0
0
105
165
225
225
120
0
0
0
0
0
0
0
0
0
0
0
15
120
225
225
135
0
0
0
0
0
0
0
0
30
120
225
225
120
0
0
0
0
0
0
0
0
0
0
0
0
150
225
210
105
15
0
30
135
225
225
120
0
0
0
120
0
0
0
0
0
150
225
225
120
30
0
30
135
225
225
105
0
0
165
225
180
0
0
0
0
0
195
225
150
0
0
0
0
0
0
0
0
135
225
225
120
15
0
0
0
0
0
0
0
0
0
0
0
0
0
0
0
195
225
150
0
0
0
0
0
180
225
150
0
0
0
0
0
0
0
30
150
195
225
225
225
225
225
225
225
225
165
0
0
0
0
0
0
0
195
225
225
225
225
225
225
225
225
225
225
225
225
225
225
225
225
225
225
225
225
225
195
60
0
0
0
0
0
0
210
225
225
225
225
225
225
225
225
225
225
225
225
225
225
225
225
225
225
225
225
225
180
0
0
0
0
0
210
195
0
0
195
210
30
0
0
210
195
0
0
0
0
210
195
0
0
210
195
0
0
0
0
225
195
0
0
0
0
0
0
0
0
0
0
0
0
0
0
0
0
0
0
210
225
150
0
0
0
0
0
0
0
0
0
0
0
0
0
195
225
150
0
0
0
0
0
0
0
0
0
0
195
225
150
0
0
0
0
0
0
0
0
0
0
0
0
165
225
180
0
0
0
0
0
195
225
135
0
0
0
120
0
0
0
0
0
165
225
180
0
0
0
0
0
210
225
120
0
0
165
225
180
0
0
0
0
0
195
225
150
0
0
0
0
0
0
0
0
165
225
195
0
0
0
0
0
0
0
0
0
0
0
0
0
0
0
0
0
195
225
150
0
0
0
0
0
180
225
150
0
0
0
0
0
0
0
0
0
0
15
120
195
225
225
225
225
225
210
0
0
0
0
0
0
90
225
225
225
225
225
225
165
90
30
0
0
0
0
0
0
0
0
0
0
0
0
0
0
0
0
0
0
0
0
90
225
225
225
225
225
225
180
105
45
0
0
0
0
0
60
105
180
225
225
225
225
225
210
0
0
0
0
0
210
210
75
165
225
105
0
0
0
210
210
90
0
15
120
225
195
0
0
210
210
90
0
15
120
225
195
0
0
0
0
0
0
0
0
0
0
0
0
0
0
0
0
0
0
210
225
150
0
0
0
0
0
0
0
0
0
0
0
0
0
195
225
150
0
0
0
0
0
0
0
0
0
0
195
225
150
0
0
0
0
0
0
0
0
0
0
0
0
165
225
180
0
0
0
0
0
90
135
15
0
0
0
120
0
0
0
0
0
165
225
180
0
0
0
0
0
195
225
120
0
0
165
225
180
0
0
0
0
0
195
225
150
0
0
0
0
0
0
0
0
165
225
180
0
0
0
0
0
0
0
0
0
0
0
0
0
0
0
0
0
195
225
150
0
0
0
0
0
180
225
150
0
0
0
0
0
0
0
0
0
0
0
0
15
195
225
225
225
225
225
45
0
0
0
0
0
120
225
225
225
225
225
150
0
0
0
0
0
0
0
0
0
0
0
0
0
0
0
0
0
0
0
0
0
0
0
135
225
225
225
225
225
165
0
0
0
0
0
0
0
0
0
0
0
165
225
225
225
225
225
45
0
0
0
0
210
225
225
225
180
0
0
0
0
210
225
225
225
225
225
210
135
0
0
210
225
225
225
225
225
225
195
0
0
0
0
0
0
0
0
0
0
0
0
0
0
0
0
0
0
210
225
150
0
0
0
0
0
0
0
0
0
0
0
0
0
210
225
150
0
0
0
0
0
0
0
0
0
0
195
225
150
0
0
75
195
225
225
225
225
195
60
0
0
165
225
180
0
0
0
0
0
0
0
0
0
0
0
120
0
0
0
0
0
165
225
180
0
0
0
0
0
210
225
120
0
0
165
225
180
0
0
0
0
0
195
225
150
0
0
0
0
0
0
0
0
165
225
180
0
0
0
0
0
0
0
0
0
0
0
0
0
0
0
0
0
195
225
150
0
0
0
0
0
180
225
150
0
0
0
0
0
0
0
0
0
0
0
0
0
135
225
225
225
225
225
75
0
0
0
0
0
135
225
225
225
225
210
15
0
0
0
0
0
0
0
0
0
0
0
0
0
0
0
0
0
0
0
0
0
0
0
135
225
225
225
225
210
30
0
0
0
0
0
0
0
0
0
0
0
45
225
225
225
225
225
60
0
0
0
0
210
210
75
195
210
60
0
0
0
210
210
90
0
0
0
0
0
0
0
210
210
90
0
15
120
225
195
0
0
0
0
0
0
0
0
0
0
0
0
0
0
0
0
0
0
210
225
150
0
0
0
0
0
0
0
0
0
0
0
15
135
225
225
120
0
0
0
0
0
0
0
0
30
120
225
225
150
0
0
165
225
210
75
75
210
225
165
0
0
165
225
180
0
0
0
0
0
0
0
0
0
0
0
120
0
0
0
0
0
165
225
210
105
15
0
30
150
225
225
120
0
0
150
225
210
90
15
0
15
105
210
225
150
0
0
0
0
0
0
0
0
165
225
225
105
15
0
0
0
0
0
0
0
0
0
0
0
0
0
0
0
195
225
150
0
0
0
0
0
180
225
150
0
0
0
0
0
0
0
0
0
0
0
0
0
120
225
225
225
225
225
75
0
0
0
0
0
135
225
225
225
225
195
0
0
0
0
0
0
0
0
0
0
0
0
0
0
0
0
0
0
0
0
0
0
0
0
135
225
225
225
225
195
0
0
0
0
0
0
0
0
0
0
0
0
0
210
225
225
225
225
75
0
0
0
0
210
195
0
90
225
180
0
0
0
210
195
0
0
0
0
0
0
0
0
210
195
0
0
0
0
225
195
0
0
0
0
0
0
0
0
0
0
0
0
0
0
0
0
0
0
210
225
150
0
0
0
0
0
30
180
225
225
225
225
225
225
210
180
15
0
0
135
225
225
225
225
225
225
225
225
225
150
0
0
180
225
180
0
0
180
225
180
0
0
165
225
180
0
0
0
0
0
0
0
0
0
0
0
120
0
0
0
0
0
165
225
225
225
225
225
225
225
225
225
120
0
0
45
195
225
225
225
225
225
225
225
225
150
0
0
0
0
0
0
0
0
165
225
225
225
225
225
225
225
210
180
15
0
0
0
0
0
0
0
0
0
195
225
135
0
0
0
0
0
180
225
150
0
0
0
0
0
0
0
0
0
0
0
0
0
120
225
225
225
225
225
75
0
0
0
0
0
135
225
225
225
225
195
0
0
0
0
0
0
0
0
0
0
0
0
0
0
0
0
0
0
0
0
0
0
0
0
135
225
225
225
225
180
0
0
0
0
0
0
0
0
0
0
0
0
0
210
225
225
225
225
75
0
0
0
0
210
195
0
0
165
225
120
0
0
210
195
0
0
0
0
0
0
0
0
210
195
0
0
0
0
225
195
0
0
0
0
0
0
0
0
0
0
0
0
0
0
0
0
0
0
210
225
150
0
0
0
0
0
150
225
225
120
15
0
0
0
0
0
0
0
0
0
0
0
0
0
0
30
120
225
225
150
0
0
180
225
180
0
0
180
225
180
0
0
165
225
180
0
0
0
0
0
0
0
0
0
0
0
120
0
0
0
0
0
165
225
225
120
15
0
30
135
225
225
120
0
0
0
0
0
0
0
0
0
105
225
225
150
0
0
0
0
0
0
0
0
165
225
225
120
30
0
30
135
225
225
120
0
0
0
0
0
0
0
0
0
180
225
150
0
0
0
0
0
195
225
135
0
0
0
0
0
0
0
0
0
0
0
0
0
120
225
225
225
225
225
75
0
0
0
0
0
135
225
225
225
225
195
0
0
0
0
0
0
0
0
0
0
0
0
0
0
0
0
0
0
0
0
0
0
0
0
135
225
225
225
225
180
0
0
0
0
0
0
0
0
0
0
0
0
0
210
225
225
225
225
75
0
0
0
0
210
195
0
0
45
210
210
0
0
210
195
0
0
0
0
0
0
0
0
210
195
0
0
0
0
225
195
0
0
0
0
0
0
0
0
0
0
0
0
0
0
0
0
0
0
210
225
150
0
0
0
0
0
165
225
195
0
0
0
0
0
0
0
0
0
0
0
0
0
0
0
0
0
0
195
225
150
0
0
180
225
180
0
0
180
225
180
0
0
165
225
180
0
0
0
0
0
0
0
0
0
0
0
120
0
0
0
0
0
165
225
180
0
0
0
0
0
210
225
120
0
0
0
0
0
0
0
0
0
0
195
225
150
0
0
0
0
0
0
0
0
165
225
195
0
0
0
0
0
210
225
135
0
0
0
0
0
0
0
0
0
150
225
210
60
0
0
0
135
225
210
60
0
0
0
0
0
0
0
0
0
0
0
0
0
120
225
225
225
225
225
75
0
0
0
0
0
135
225
225
225
225
195
0
0
0
0
0
0
0
0
0
0
0
0
0
0
0
0
0
0
0
0
0
0
0
0
135
225
225
225
225
180
0
0
0
0
0
0
0
0
0
0
0
0
0
210
225
225
225
225
75
0
0
0
0
150
135
0
0
0
105
150
0
0
150
135
0
0
0
0
0
0
0
0
165
135
0
0
0
0
180
135
0
0
0
0
0
0
0
0
0
0
0
0
0
0
0
0
0
0
210
225
150
0
0
0
0
0
165
225
180
0
0
0
0
0
0
0
0
0
0
0
0
0
0
0
0
0
0
195
225
150
0
0
180
225
180
0
0
180
225
180
0
0
165
225
180
0
0
0
0
0
90
135
30
0
0
0
120
0
0
0
0
0
165
225
180
0
0
0
0
0
195
225
120
0
0
0
0
0
0
0
0
0
0
195
225
150
0
0
0
0
0
0
0
0
165
225
180
0
0
0
0
0
195
225
135
0
0
0
0
0
0
0
0
0
15
195
225
195
30
0
105
225
225
135
0
0
0
0
0
0
0
0
0
0
0
0
0
0
120
225
225
225
225
225
75
0
0
0
0
0
135
225
225
225
225
210
0
0
0
0
0
0
0
0
0
0
0
0
0
0
0
0
0
0
0
0
0
0
0
0
135
225
225
225
225
180
0
0
0
0
0
0
0
0
0
0
0
0
30
225
225
225
225
225
75
0
0
0
0
0
0
0
0
0
0
0
0
0
0
0
0
0
0
0
0
0
0
0
0
0
0
0
0
0
0
0
0
0
0
0
0
0
0
0
0
0
0
0
0
0
0
0
0
0
210
225
150
0
0
0
0
0
165
225
180
0
0
0
0
0
0
0
0
0
0
0
0
0
0
0
0
0
0
195
225
150
0
0
180
225
180
0
0
180
225
180
0
0
165
225
180
0
0
0
0
0
195
225
135
0
0
0
120
0
0
0
0
0
165
225
180
0
0
0
0
0
210
225
120
0
0
0
0
0
0
0
0
0
0
195
225
150
0
0
90
225
195
0
0
0
165
225
180
0
0
0
0
0
210
225
135
0
0
0
0
0
0
0
0
0
0
45
195
225
180
105
210
225
150
0
0
0
0
0
0
0
0
0
0
0
0
0
0
0
120
225
225
225
225
225
75
0
0
0
0
0
135
225
225
225
225
225
45
0
0
0
0
0
0
0
0
0
0
0
0
0
0
0
0
0
0
0
0
0
0
0
135
225
225
225
225
210
0
0
0
0
0
0
0
0
0
0
0
0
120
225
225
225
225
225
75
0
0
0
0
0
0
0
0
0
0
0
0
0
0
0
0
0
0
0
0
0
0
0
0
0
0
0
0
0
0
0
0
0
0
0
0
0
0
0
0
0
0
0
0
0
0
0
0
0
210
225
150
0
0
0
0
0
150
225
210
105
15
0
0
0
0
0
0
0
0
0
0
0
0
0
0
30
120
225
225
120
0
0
165
225
210
75
75
210
225
165
0
0
150
225
210
105
15
0
30
120
225
225
120
0
0
0
120
0
0
0
0
0
150
225
210
105
15
0
30
135
225
225
105
0
0
0
0
0
0
0
0
0
0
195
225
150
0
0
105
225
195
0
0
0
135
225
210
105
15
0
30
135
225
225
105
0
0
0
0
0
0
0
0
0
0
0
75
210
225
225
225
165
0
0
0
0
0
0
0
0
0
0
0
0
0
0
0
0
120
225
225
225
225
225
75
0
0
0
0
0
135
225
225
225
225
225
165
0
0
0
0
0
0
0
0
0
0
0
0
0
0
0
0
0
0
0
0
0
0
0
135
225
225
225
225
225
135
0
0
0
0
0
0
0
0
0
0
30
195
225
225
225
225
225
75
0
0
0
0
0
0
0
0
0
0
0
0
0
0
0
0
0
0
0
0
0
0
0
0
0
0
0
0
0
0
0
0
0
0
0
0
0
0
0
0
0
0
0
0
0
0
0
0
0
180
225
105
0
0
0
0
0
45
195
225
225
225
225
225
225
225
225
120
0
0
135
225
225
225
225
225
225
225
225
180
15
0
0
75
195
225
225
225
225
195
75
0
0
60
195
225
225
225
225
225
225
225
180
30
0
0
0
120
0
0
0
0
0
45
195
225
225
225
225
225
225
225
180
0
0
0
0
0
0
0
0
0
0
0
150
210
105
0
0
0
0
0
0
0
0
30
180
225
225
225
225
225
225
210
180
0
0
0
0
0
0
0
0
0
0
0
0
0
90
210
225
165
0
0
0
0
0
0
0
0
0
0
0
0
0
0
0
0
0
120
225
225
225
225
225
75
0
0
0
0
0
90
225
225
225
225
225
225
165
90
30
0
0
0
0
0
0
0
0
0
0
0
0
0
0
0
0
0
0
0
0
135
225
225
225
225
225
225
165
90
30
0
0
0
0
0
45
120
195
225
225
225
225
225
225
75
0
0
0
0
0
0
0
0
0
0
0
0
0
0
180
225
225
225
225
225
225
225
225
225
225
210
135
0
0
0
0
0
0
0
0
0
0
0
0
0
0
0
0
0
0
0
0
0
0
15
45
0
0
0
0
0
0
0
0
0
0
0
0
0
0
0
0
0
0
0
0
0
0
0
0
0
0
0
0
0
0
0
0
0
0
0
0
0
0
0
0
0
0
0
0
0
0
0
0
0
0
0
0
0
0
0
0
120
0
0
0
0
0
0
0
0
0
0
0
0
0
0
0
0
0
0
0
0
0
0
0
0
0
0
0
0
0
0
0
0
0
0
0
0
0
0
0
0
0
0
0
0
0
0
0
0
0
0
0
0
0
0
0
0
0
0
0
0
0
0
0
0
0
0
0
0
0
0
0
0
0
0
0
0
0
0
0
0
0
120
225
225
225
225
225
75
0
0
0
0
0
0
195
225
225
225
225
225
225
225
225
225
225
225
225
225
225
225
225
225
210
195
165
60
0
0
0
0
0
0
0
135
225
225
225
225
225
225
225
225
225
225
225
225
225
225
225
225
225
225
225
225
225
225
225
75
0
0
0
0
0
0
0
0
0
0
0
0
0
0
180
225
225
225
225
225
225
225
225
225
225
225
225
105
0
0
0
0
0
0
0
0
0
0
0
0
0
0
0
0
0
0
0
0
0
0
0
0
0
0
0
0
0
0
0
0
0
0
0
0
0
0
0
0
0
0
0
0
0
0
0
0
0
0
0
0
0
0
0
0
0
0
0
0
0
0
0
0
0
0
0
0
0
0
0
0
0
0
0
0
0
0
0
120
0
0
0
0
0
0
0
0
0
0
0
0
0
0
0
0
0
0
0
0
0
0
0
0
0
0
0
0
0
0
0
0
0
0
0
0
0
0
0
0
0
0
0
0
0
0
0
0
0
0
0
0
0
0
0
0
0
0
0
0
0
0
0
0
0
0
0
0
0
0
0
0
0
0
0
0
0
0
0
0
0
120
225
225
225
225
225
75
0
0
0
0
0
0
90
210
225
225
225
225
225
225
225
225
225
225
225
225
225
225
225
225
225
225
225
210
105
0
0
0
0
0
0
135
225
225
225
225
225
225
225
225
225
225
225
225
225
225
225
225
225
225
225
225
225
225
225
75
0
0
0
0
0
0
0
0
0
0
0
0
0
0
0
0
0
0
0
0
0
0
30
120
210
225
225
165
0
0
0
0
0
0
0
0
0
0
0
0
0
0
0
0
0
0
0
0
0
0
0
0
0
0
0
0
0
0
0
0
0
0
0
0
0
0
0
0
0
0
0
0
0
0
0
0
0
0
0
0
0
0
0
0
0
0
0
0
0
0
0
0
0
0
0
0
0
0
0
0
0
0
0
0
0
0
0
120
0
0
0
0
0
0
0
0
0
0
0
0
0
0
0
0
0
0
0
0
0
0
0
0
0
0
0
0
0
0
0
0
0
0
0
0
0
0
0
0
0
0
0
0
0
0
0
0
0
0
0
0
0
0
0
0
0
0
0
0
0
0
0
0
0
0
0
0
0
0
0
0
0
0
0
0
0
0
0
0
0
120
225
225
225
225
225
75
0
0
0
0
0
0
0
45
150
195
210
225
225
225
225
225
225
225
225
225
225
225
225
225
225
225
225
225
210
15
0
0
0
0
0
135
225
225
225
225
225
225
225
225
225
225
225
225
225
225
225
225
225
225
225
225
225
225
225
75
0
0
0
0
0
0
0
0
0
0
0
0
0
0
0
0
0
0
0
0
0
0
0
0
150
225
225
180
0
0
0
0
0
0
0
0
0
0
0
0
0
0
0
120
120
120
120
120
120
120
120
120
120
120
120
120
120
120
120
120
120
120
120
120
120
120
120
120
120
120
120
120
120
120
120
120
120
120
120
120
120
120
120
120
120
120
120
120
120
120
120
120
120
120
120
120
120
120
120
120
120
120
120
120
120
120
120
120
120
120
120
120
120
120
120
120
120
120
120
120
120
120
120
120
120
120
120
120
120
120
120
120
120
120
120
120
120
120
120
120
120
120
120
120
120
120
120
120
120
120
120
120
120
120
120
120
120
120
120
120
120
120
120
120
120
120
120
120
120
120
120
120
120
120
120
120
120
120
0
0
0
0
0
0
0
0
0
0
0
120
225
225
225
225
225
75
0
0
0
0
0
0
0
0
0
0
0
0
0
0
0
0
0
0
0
0
30
90
165
225
225
225
225
225
225
105
0
0
0
0
0
135
225
225
225
225
225
225
165
105
45
0
0
0
0
0
45
105
180
225
225
225
225
225
225
75
0
0
0
0
0
0
0
0
0
0
0
0
0
0
0
0
0
0
0
0
0
0
0
0
135
225
225
180
0
0
0
0
0
0
0
0
0
0
0
0
0
0
0
0
0
0
0
0
0
0
0
0
0
0
0
0
0
0
0
0
0
0
0
0
0
0
0
0
0
0
0
0
0
0
0
0
0
0
0
0
0
0
0
0
0
0
0
0
0
0
0
0
0
0
0
0
0
0
0
0
0
0
0
0
0
0
0
120
0
0
0
0
0
0
0
0
0
0
0
0
0
0
0
0
0
0
0
0
0
0
0
0
0
0
0
0
0
0
0
0
0
0
0
0
0
0
0
0
0
0
0
0
0
0
0
0
0
0
0
0
0
0
0
0
0
0
0
0
0
0
0
0
0
0
0
0
0
0
0
0
0
0
0
0
0
0
0
0
0
120
225
225
225
225
225
75
0
0
0
0
0
0
0
0
0
0
0
0
0
0
0
0
0
0
0
0
0
0
0
150
225
225
225
225
225
135
0
0
0
0
0
135
225
225
225
225
225
150
0
0
0
0
0
0
0
0
0
0
0
150
225
225
225
225
225
75
0
0
0
0
0
0
0
0
0
0
0
0
0
0
0
0
0
0
0
0
0
0
0
0
135
225
225
180
0
0
0
0
0
0
0
0
0
0
0
0
0
0
0
0
0
0
0
0
0
0
0
0
0
0
0
0
0
0
0
0
0
0
0
0
0
0
0
0
0
0
0
0
0
0
0
0
0
0
0
0
0
0
0
0
0
0
0
0
0
0
0
0
0
0
0
0
0
0
0
0
0
0
0
0
0
0
0
120
0
0
0
0
0
0
0
0
0
0
0
0
0
0
0
0
0
0
0
0
0
0
0
0
0
0
0
0
0
0
0
0
0
0
0
0
0
0
0
0
0
0
0
0
0
0
0
0
0
0
0
0
0
0
0
0
0
0
0
0
0
0
0
0
0
0
0
0
0
0
0
0
0
0
0
0
0
0
0
0
0
120
225
225
225
225
225
75
0
0
0
0
0
0
0
0
0
0
0
0
0
0
0
0
0
0
0
0
0
0
0
30
225
225
225
225
225
135
0
0
0
0
0
135
225
225
225
225
210
15
0
0
0
0
0
0
0
0
0
0
0
30
225
225
225
225
225
75
0
0
0
0
0
0
0
0
0
0
0
0
0
0
0
0
0
0
0
0
0
0
0
0
165
225
225
180
0
0
0
0
0
0
0
0
0
0
0
0
0
0
0
0
0
0
0
0
0
0
0
0
0
0
0
0
0
0
0
0
0
0
0
0
0
0
0
0
0
0
0
0
0
0
0
0
0
0
0
0
0
0
0
0
0
0
0
0
0
0
0
0
0
0
0
0
0
0
0
0
0
0
0
0
0
0
0
120
0
0
0
0
0
0
0
0
0
0
0
0
0
0
0
0
0
0
0
0
0
0
0
0
0
0
0
0
0
0
0
0
0
0
0
0
0
0
0
0
0
0
0
0
0
0
0
0
0
0
0
0
0
0
0
0
0
0
0
0
0
0
0
0
0
0
0
0
0
0
0
0
0
0
0
0
0
0
0
0
0
120
225
225
225
225
225
75
0
0
0
0
0
0
0
0
0
0
0
0
0
0
0
0
0
0
0
0
0
0
0
0
195
225
225
225
225
135
0
0
0
0
0
135
225
225
225
225
180
0
0
0
0
0
0
0
0
0
0
0
0
0
210
225
225
225
225
75
0
0
0
0
0
0
0
0
0
0
0
0
0
0
0
0
0
0
0
0
0
0
30
120
225
225
225
165
0
0
0
0
0
0
0
0
0
0
0
0
0
0
0
0
0
0
0
0
0
0
0
0
0
0
0
0
0
0
0
0
0
0
0
0
0
0
0
0
0
0
0
0
0
0
0
0
0
0
0
0
0
0
0
0
0
0
0
0
0
0
0
0
0
0
0
0
0
0
0
0
0
0
0
0
0
0
0
120
0
0
0
0
0
0
0
0
0
0
0
0
0
0
0
0
0
0
0
0
0
0
0
0
0
0
0
0
0
0
0
0
0
0
0
0
0
0
0
0
0
0
0
0
0
0
0
0
0
0
0
0
0
0
0
0
0
0
0
0
0
0
0
0
0
0
0
0
0
0
0
0
0
0
0
0
0
0
0
0
0
120
225
225
225
225
225
75
0
0
0
0
0
0
0
0
0
0
0
0
0
0
0
0
0
0
0
0
0
0
0
0
195
225
225
225
225
135
0
0
0
0
0
135
225
225
225
225
180
0
0
0
0
0
0
0
0
0
0
0
0
0
210
225
225
225
225
75
0
0
0
0
0
0
0
0
0
0
0
0
0
0
45
165
210
225
225
225
225
225
225
225
225
225
225
105
0
0
0
0
0
0
0
0
0
0
0
0
0
0
0
0
0
0
0
0
0
0
0
0
0
0
0
0
135
225
225
225
225
225
225
225
225
180
15
0
0
0
0
120
225
225
225
180
15
0
0
0
0
0
0
0
0
0
0
0
0
0
0
60
195
225
225
225
225
225
225
225
180
30
0
0
0
0
0
120
0
0
0
120
225
135
0
0
0
0
0
150
225
120
0
0
30
180
225
225
225
225
225
225
225
225
120
0
0
0
0
0
0
0
0
30
180
225
225
225
225
225
225
225
225
120
0
0
0
0
0
0
0
0
0
60
195
225
225
225
225
225
225
210
165
0
0
0
0
0
0
0
0
0
0
0
0
0
0
0
0
120
225
225
225
225
225
75
0
0
0
0
0
0
0
0
0
0
0
0
0
0
0
0
0
0
0
0
0
0
0
0
195
225
225
225
225
135
0
0
0
0
0
135
225
225
225
225
180
0
0
0
0
0
0
0
0
0
0
0
0
0
210
225
225
225
225
75
0
0
0
0
0
0
0
0
0
0
0
0
0
0
180
225
225
225
225
225
225
225
225
225
225
210
135
0
0
0
0
0
0
0
0
0
0
0
0
0
0
0
0
0
0
0
0
0
0
0
0
0
0
0
0
0
0
0
0
0
0
0
15
120
225
225
135
0
0
0
0
0
105
165
225
225
120
0
0
0
0
0
0
0
0
0
0
0
0
0
0
150
225
210
105
15
0
30
135
225
225
120
0
0
0
0
0
120
0
0
0
165
225
180
0
0
0
0
0
195
225
150
0
0
135
225
225
105
15
0
0
0
0
0
0
0
0
0
0
0
0
0
0
135
225
225
105
15
0
0
0
0
0
0
0
0
0
0
0
0
0
0
0
150
225
225
105
15
0
30
120
225
225
105
0
0
0
0
0
0
0
0
0
0
0
0
0
0
0
120
225
225
225
225
225
75
0
0
0
0
0
0
0
0
0
0
0
0
0
0
0
0
0
0
0
0
0
0
0
0
195
225
225
225
225
135
0
0
0
0
0
135
225
225
225
225
180
0
0
0
0
0
0
0
0
0
0
0
0
0
210
225
225
225
225
75
0
0
0
0
0
0
0
0
0
0
0
0
0
0
210
225
225
195
90
15
0
0
0
0
0
0
0
0
0
0
0
0
0
0
0
0
0
0
0
0
0
0
0
0
0
0
0
0
0
0
0
0
0
0
0
0
0
0
0
0
0
0
0
0
195
225
150
0
0
0
0
0
0
0
210
225
150
0
0
0
0
0
0
0
0
0
0
0
0
0
0
165
225
180
0
0
0
0
0
195
225
135
0
0
0
0
0
120
0
0
0
165
225
180
0
0
0
0
0
195
225
150
0
0
165
225
195
0
0
0
0
0
0
0
0
0
0
0
0
0
0
0
0
165
225
195
0
0
0
0
0
0
0
0
0
0
0
0
0
0
0
0
0
165
225
180
0
0
0
0
0
210
225
135
0
0
0
0
0
0
0
0
0
0
0
0
0
0
0
120
225
225
225
225
225
75
0
0
0
0
0
0
0
0
0
0
0
0
0
0
0
0
0
0
0
0
0
0
0
0
195
225
225
225
225
135
0
0
0
0
0
135
225
225
225
225
180
0
0
0
0
0
0
0
0
0
0
0
0
0
210
225
225
225
225
75
0
0
0
0
0
0
0
0
0
0
0
0
0
0
210
225
225
90
0
0
0
0
0
0
0
0
0
0
0
0
0
0
0
0
0
0
0
0
0
0
0
0
0
0
0
0
0
0
0
0
0
0
0
0
0
0
0
0
0
0
0
0
0
0
195
225
150
0
0
0
0
0
0
0
210
225
150
0
0
0
0
0
0
0
0
0
0
0
0
0
0
165
225
180
0
0
0
0
0
90
135
15
0
0
0
0
0
120
0
0
0
165
225
180
0
0
0
0
0
195
225
150
0
0
165
225
180
0
0
0
0
0
0
0
0
0
0
0
0
0
0
0
0
165
225
180
0
0
0
0
0
0
0
0
0
0
0
0
0
0
0
0
0
165
225
180
0
0
0
0
0
195
225
135
0
0
0
0
0
0
0
0
0
0
0
0
0
0
0
120
225
225
225
225
225
75
0
0
0
0
0
0
0
0
0
0
0
0
0
0
0
0
0
0
0
0
0
0
0
0
210
225
225
225
225
135
0
0
0
0
0
135
225
225
225
225
195
0
0
0
0
0
0
0
0
0
0
0
0
90
225
225
225
225
225
75
0
0
0
0
0
0
0
0
0
0
0
0
0
0
210
225
225
15
0
0
0
0
0
0
0
0
0
0
0
0
0
0
0
0
0
0
0
0
0
0
0
0
0
0
0
0
0
0
0
0
0
0
0
0
0
0
0
0
0
0
0
0
0
0
210
225
150
0
0
0
0
0
0
0
210
225
150
0
0
0
0
0
0
0
0
0
0
0
0
0
0
165
225
180
0
0
0
0
0
0
0
0
0
0
0
0
0
120
0
0
0
165
225
180
0
0
0
0
0
195
225
150
0
0
165
225
195
0
0
0
0
0
0
0
0
0
0
0
0
0
0
0
0
165
225
195
0
0
0
0
0
0
0
0
0
0
0
0
0
0
0
0
0
165
225
180
0
0
0
0
0
210
225
135
0
0
0
0
0
0
0
0
0
0
0
0
0
0
0
120
225
225
225
225
225
75
0
0
0
0
0
0
0
0
0
0
0
0
0
0
0
0
0
0
0
0
0
0
0
135
225
225
225
225
225
135
0
0
0
0
0
135
225
225
225
225
225
90
0
0
0
0
0
0
0
0
0
0
0
180
225
225
225
225
225
45
0
0
0
0
90
195
225
210
165
0
0
0
0
0
210
225
225
0
0
0
0
0
0
0
0
0
0
0
0
0
0
0
0
0
0
0
0
0
0
0
0
0
0
0
0
0
0
0
0
0
0
0
0
0
0
0
0
0
0
0
0
0
15
135
225
225
120
0
0
0
0
0
0
0
210
225
150
0
0
0
0
0
0
0
0
0
0
0
0
0
0
165
225
180
0
0
0
0
0
0
0
0
0
0
0
0
0
120
0
0
0
150
225
210
90
15
0
15
105
210
225
150
0
0
135
225
225
120
15
0
0
0
0
0
0
0
0
0
0
0
0
0
0
135
225
225
120
15
0
0
0
0
0
0
0
0
0
0
0
0
0
0
0
165
225
210
105
15
0
30
150
225
225
135
0
0
0
0
0
0
0
0
0
0
0
0
0
0
0
120
225
225
225
225
225
75
0
0
0
0
0
0
0
0
0
0
0
0
0
0
0
0
0
0
0
0
30
90
150
225
225
225
225
225
225
105
0
0
0
0
0
105
225
225
225
225
225
210
150
90
30
0
0
0
0
0
45
105
180
225
225
225
225
225
210
0
0
0
0
0
195
225
225
225
225
120
0
0
0
0
210
225
225
60
0
0
0
0
0
0
0
0
0
0
0
0
0
0
0
0
0
0
0
0
0
0
0
0
0
0
0
0
0
0
0
0
0
0
0
0
0
0
30
180
225
225
225
225
225
225
210
180
15
0
0
0
0
0
0
0
210
225
150
0
0
0
0
0
0
0
0
0
0
0
0
0
0
165
225
180
0
0
0
0
0
0
0
0
0
0
0
0
0
120
0
0
0
45
195
225
225
225
225
225
225
225
225
150
0
0
30
180
225
225
225
225
225
225
210
180
30
0
0
0
0
0
0
0
0
30
180
225
225
225
225
225
225
210
180
30
0
0
0
0
0
0
0
0
0
165
225
225
225
225
225
225
225
225
225
135
0
0
0
0
0
0
0
0
0
0
0
0
0
0
0
90
225
225
225
225
225
45
0
0
0
0
0
60
180
210
225
225
225
225
225
225
225
225
225
225
225
225
225
225
225
225
225
225
225
225
210
30
0
0
0
0
0
15
210
225
225
225
225
225
225
225
225
225
225
225
225
225
225
225
225
225
225
225
225
225
180
0
0
0
0
0
225
225
225
225
225
165
0
0
0
0
210
225
225
180
75
0
0
0
0
0
0
0
0
0
0
0
0
0
0
0
0
0
0
0
0
0
0
0
0
0
0
0
0
0
0
0
0
0
0
0
0
0
150
225
225
120
15
0
0
0
0
0
0
0
0
0
0
0
0
0
210
225
150
0
0
0
0
0
90
210
225
225
225
210
135
0
0
165
225
180
0
0
0
0
0
0
0
0
0
0
0
0
0
120
0
0
0
0
0
0
0
0
0
0
105
225
225
150
0
0
0
0
0
0
0
0
30
120
225
225
135
0
0
0
0
0
0
0
0
0
0
0
0
0
0
30
120
225
225
135
0
0
0
0
0
0
0
0
0
165
225
210
105
15
0
30
120
225
225
135
0
0
0
0
0
0
0
0
0
0
0
0
0
0
0
45
225
225
225
225
210
0
0
0
0
0
0
120
225
225
225
225
225
225
225
225
225
225
225
225
225
225
225
225
225
225
225
225
225
225
120
0
0
0
0
0
0
0
120
225
225
225
225
225
225
225
225
225
225
225
225
225
225
225
225
225
225
225
225
210
75
0
0
0
0
0
210
225
225
225
225
135
0
0
0
0
180
225
225
225
225
225
225
225
225
225
225
225
225
135
0
0
0
0
0
0
0
0
0
0
0
0
0
0
0
0
0
0
0
0
0
0
0
0
0
0
0
0
165
225
195
0
0
0
0
0
0
0
0
0
0
0
0
0
0
0
210
225
150
0
0
0
0
0
180
225
195
45
150
225
210
0
0
165
225
180
0
0
0
0
0
0
0
0
0
0
0
0
0
120
0
0
0
0
0
0
0
0
0
0
0
195
225
150
0
0
0
0
0
0
0
0
0
0
195
225
150
0
0
0
0
0
0
0
0
0
0
0
0
0
0
0
0
195
225
150
0
0
0
0
0
0
0
0
0
165
225
180
0
0
0
0
0
210
225
135
0
0
0
0
0
0
0
0
0
0
0
0
0
0
0
0
165
225
225
225
150
0
0
0
0
0
0
30
180
210
225
225
225
225
225
225
225
225
225
225
225
225
225
225
225
225
225
210
165
75
0
0
0
0
0
0
0
0
0
90
180
210
225
225
225
225
225
225
225
225
225
225
225
225
225
225
225
210
165
60
0
0
0
0
0
0
105
195
225
210
180
15
0
0
0
0
60
180
210
225
225
225
225
225
225
225
225
225
225
135
0
0
0
0
0
0
0
0
0
0
0
0
0
0
0
0
0
0
0
0
0
0
0
0
0
0
0
0
165
225
180
0
0
0
0
0
0
0
0
0
0
0
0
0
0
0
210
225
150
0
0
0
0
0
195
225
150
0
45
225
225
30
0
165
225
180
0
0
0
0
0
90
135
30
0
0
0
0
0
120
0
0
0
0
0
0
0
0
0
0
0
195
225
150
0
0
0
0
0
0
0
0
0
0
195
225
150
0
0
0
0
0
0
0
0
0
0
0
0
0
0
0
0
195
225
150
0
0
0
0
0
0
0
0
0
165
225
180
0
0
0
0
0
195
225
135
0
0
0
0
0
0
0
0
0
0
0
0
0
0
0
0
0
120
150
105
0
0
0
0
0
0
0
0
0
0
0
0
0
0
0
0
0
0
0
0
0
0
0
0
0
0
0
0
0
0
0
0
0
0
0
0
0
0
0
0
0
0
0
0
0
0
0
0
0
0
0
0
0
0
0
0
0
0
0
0
0
0
0
0
0
0
0
0
0
0
0
0
0
0
0
0
0
0
0
0
0
0
0
0
0
0
0
0
0
0
0
0
0
0
0
0
0
0
0
0
0
0
0
0
0
0
0
0
0
0
0
0
0
0
0
0
0
0
165
225
180
0
0
0
0
0
0
0
0
0
0
0
0
0
0
0
210
225
150
0
0
0
0
0
195
225
150
0
45
225
225
30
0
165
225
180
0
0
0
0
0
195
225
135
0
0
0
0
0
120
0
0
0
0
0
0
0
0
0
0
0
195
225
150
0
0
0
0
0
0
0
0
0
0
195
225
150
0
0
90
225
195
0
0
0
0
0
0
0
0
0
0
0
195
225
150
0
0
0
0
0
0
0
0
0
165
225
180
0
0
0
0
0
195
225
135
0
0
0
0
0
0
0
0
0
0
0
0
0
0
0
0
0
0
0
0
0
0
0
0
0
0
0
0
0
0
0
0
0
0
0
0
0
0
0
0
0
0
0
0
0
0
0
0
0
0
0
0
0
0
0
0
0
0
0
0
0
0
0
0
0
0
0
0
0
0
0
0
0
0
0
0
0
0
0
0
0
0
0
0
0
0
0
0
0
0
0
0
0
0
0
0
0
0
0
0
0
0
0
0
0
0
0
0
0
0
0
0
0
0
0
0
0
0
0
0
0
0
0
0
0
0
0
0
0
0
0
0
0
0
0
0
0
0
150
225
210
105
15
0
0
0
0
0
0
0
0
0
0
0
0
0
210
225
150
0
0
0
0
0
180
225
195
30
135
225
225
0
0
150
225
210
105
15
0
30
120
225
225
120
0
0
0
0
0
120
0
0
0
0
0
0
0
0
0
0
0
195
225
150
0
0
0
0
0
0
0
0
15
120
225
225
135
0
0
105
225
195
0
0
0
0
0
0
0
0
0
15
120
225
225
135
0
0
0
0
0
0
0
0
0
165
225
165
0
0
0
0
0
195
225
135
0
0
0
0
0
0
0
0
0
0
0
0
0
0
0
0
0
0
0
0
0
0
0
0
0
0
0
0
0
0
0
0
0
0
0
0
0
0
0
0
0
0
0
0
0
0
0
0
0
0
0
0
0
0
0
0
0
0
0
0
0
0
0
0
0
0
0
0
0
0
0
0
0
0
0
0
0
0
0
0
0
0
0
0
0
0
0
0
0
0
0
0
0
0
0
0
0
0
0
0
0
0
0
0
0
0
0
0
0
0
0
0
0
0
0
0
0
0
0
0
0
0
0
0
0
0
0
0
0
0
0
0
0
0
0
0
0
0
45
195
225
225
225
225
225
225
225
225
120
0
0
0
0
0
0
0
180
225
105
0
0
0
0
0
90
210
225
225
225
210
150
0
0
60
195
225
225
225
225
225
225
225
180
30
0
0
0
0
0
120
0
0
0
0
0
0
0
0
0
0
0
150
210
105
0
0
120
225
225
225
225
225
225
225
225
180
30
0
0
0
0
0
0
0
0
120
225
225
225
225
225
225
225
225
180
30
0
0
0
0
0
0
0
0
0
135
225
135
0
0
0
0
0
165
210
90
0
0
0
0
0
0
0
0
0
0
0
0
0
0
0
0
0
0
0
0
0
0
0
0
0
0
0
0
0
0
0
0
0
0
0
0
0
0
0
0
0
0
0
0
0
0
0
0
0
0
0
0
0
0
0
0
0
0
0
0
0
0
0
0
0
0
0
0
0
0
0
0
0
0
0
0
0
0
0
0
0
0
0
0
0
0
0
0
0
0
0
0
0
0
0
0
0
0
0
0
0
0
0
0
0
0
0
0
0
0
0
0
0
0
0
0
0
0
0
0
0
0
0
0
0
0
0
0
0
0
0
0
0
0
0
0
0
0
0
0
0
0
0
0
0
0
0
0
0
0
0
0
0
0
0
0
15
45
0
0
0
0
0
0
0
0
0
0
0
0
0
0
0
0
0
0
0
0
0
0
0
0
0
0
0
0
0
0
0
120
0
0
0
0
0
0
0
0
0
0
0
0
0
0
0
0
0
0
0
0
0
0
0
0
0
0
0
0
0
0
0
0
0
0
0
0
0
0
0
0
0
0
0
0
0
0
0
0
0
0
0
0
0
0
0
0
0
0
0
0
0
0
0
0
0
0
0
0
0
0
0
0
0
0
0
0
0
0
0
0
0
0
0
0
0
0
0
0
0
0
0
0
0
0
0
0
0
0
0
0
0
0
0
0
0
0
0
0
0
0
0
0
0
0
0
0
0
0
0
0
0
0
0
0
0
0
0
0
0
0
0
0
0
0
0
0
0
0
0
0
0
0
0
0
0
0
0
0
0
0
0
0
0
0
0
0
0
0
0
0
0
0
0
0
0
0
0
0
0
0
0
0
0
0
0
0
0
0
0
0
0
0
0
0
0
0
0
0
0
0
0
0
0
0
0
0
0
0
0
0
0
0
0
0
0
0
0
0
0
0
0
0
0
0
0
0
0
0
0
0
0
0
0
0
0
0
0
0
0
0
0
0
0
0
0
0
0
0
0
0
0
0
0
0
0
0
0
0
0
0
0
0
0
0
0
120
0
0
0
0
0
0
0
0
0
0
0
0
0
0
0
0
0
0
0
0
0
0
0
0
0
0
0
0
0
0
0
0
0
0
0
0
0
0
0
0
0
0
0
0
0
0
0
0
0
0
0
0
0
0
0
0
0
0
0
0
0
0
0
0
0
0
0
0
0
0
0
0
0
0
0
0
0
0
0
0
0
0
0
0
0
0
0
0
0
0
0
0
0
0
0
0
0
0
0
0
0
0
0
0
0
0
0
0
0
0
0
0
0
0
0
0
0
0
0
0
0
0
0
0
0
0
0
0
0
0
0
0
0
0
0
0
0
0
0
0
0
0
0
0
0
0
0
0
0
0
0
0
0
0
0
0
0
0
0
0
0
0
0
0
0
0
0
0
0
0
0
0
0
0
0
0
0
0
0
0
0
0
0
0
0
0
0
0
0
0
0
0
0
0
0
0
0
0
0
0
0
0
0
0
0
0
0
0
0
0
0
0
0
0
0
0
0
0
0
0
0
0
0
0
0
0
0
0
0
0
0
0
0
0
0
0
0
0
0
0
0
0
0
0
0
0
0
0
0
0
0
0
0
0
0
120
0
0
0
0
0
0
0
0
0
0
0
0
0
0
0
0
0
0
0
0
0
0
0
0
0
0
0
0
0
0
0
0
0
0
0
0
0
0
0
0
0
0
0
0
0
0
0
0
0
0
0
0
0
0
0
0
0
0
0
0
0
0
0
0
0
0
0
0
0
0
0
0
0
0
0
0
0
0
0
0
0
0
0
0
0
0
0
0
0
0
0
0
0
0
0
0
0
0
0
0
0
0
0
0
0
0
0
0
0
0
0
0
0
0
0
0
0
0
0
0
0
0
0
0
0
0
0
0
0
0
0
0
0
0
0
0
0
0
0
0
0
0
0
0
0
0
0
0
0
0
0
0
0
0
0
0
0
0
0
0
0
0
0
0
0
0
0
0
0
0
0
0
0
0
0
0
0
0
0
0
0
0
0
0
0
0
0
0
0
0
0
120
120
120
120
120
120
120
120
120
120
120
120
120
120
120
120
120
120
120
120
120
120
120
120
120
120
120
120
120
120
120
120
120
120
120
120
120
120
120
120
120
120
120
120
120
120
120
120
120
120
120
120
120
120
120
120
120
120
120
120
120
120
120
120
120
120
120
120
120
120
120
120
120
120
120
120
120
120
120
120
120
120
120
120
120
120
120
120
120
120
120
120
120
120
120
120
120
120
120
120
120
120
120
120
120
120
120
120
120
120
120
120
120
120
120
120
120
120
120
120
120
120
120
120
120
120
120
120
120
120
120
120
120
120
120
0
0
0
0
0
0
0
0
0
0
0
0
0
0
0
0
0
0
0
0
0
0
0
0
0
0
0
0
0
0
0
0
0
0
0
0
0
0
0
0
0
0
0
0
0
0
0
0
0
0
0
0
0
0
0
0
0
0
0
0
0
0
0
0
0
0
0
0
0
0
0
0
0
0
0
0
0
0
0
0
0
0
0
0
0
0
0
0
0
0
0
0
0
0
0
0
0
0
0
0
0
0
0
0
0
0
0
0
0
0
0
0
0
0
0
0
0
0
0
0
0
0
0
0
0
0
0
0
0
0
0
0
0
0
0
0
0
0
0
0
0
0
0
0
0
0
0
0
0
0
0
0
0
0
0
0
0
0
0
0
0
0
0
0
0
0
0
0
0
0
0
0
0
0
0
0
0
0
0
0
0
0
0
0
0
0
0
0
0
0
0
0
0
0
0
0
0
0
0
0
0
0
0
0
0
0
0
0
0
0
0
0
0
0
0
0
0
0
0
0
0
0
0
0
0
0
0
0
0
0
0
0
0
0
0
0
0
0
0
0
0
0
0
0
0
0
0
0
0
0
0
0
0
0
0
0
0
0
0
0
0
0
0
0
0
0
0
0
0
0
0
0
0
0
0
0
0
0
0
0
0
0
0
0
0
0
0
0
0
0
0
0
0
0
0
0
0
0
0
0
0
0
0
0
0
0
0
0
0
0
0
0
0
0
0
0
0
0
0
0
0
0
0
0
0
0
0
0
0
0
0
0
0
0
0
0
0
0
0
0
0
0
0
0
0
0
0
0
0
0
0
0
0
0
0
0
0
0
0
0
0
0
0
0
0
0
0
0
0
0
0
0
0
0
0
0
0
0
0
0
0
0
0
0
0
0
0
0
0
0
0
0
0
0
0
0
0
0
0
0
0
0
0
0
0
0
0
0
0
0
0
0
0
0
0
0
0
0
0
0
0
0
0
0
0
0
0
0
0
0
0
0
0
0
0
0
0
0
0
0
0
0
0
0
0
0
0
0
0
0
0
0
0
0
0
0
0
0
0
0
0
0
0
0
0
0
0
0
0
0
0
0
0
0
0
0
0
0
0
0
0
0
0
0
0
0
0
0
0
0
0
0
0
0
0
0
0
0
0
0
0
0
0
0
0
0
0
0
0
0
0
0
0
0
0
0
0
0
0
0
0
0
0
0
0
0
0
0
0
0
0
0
0
0
0
0
0
0
0
0
0
0
0
0
0
0
0
0
0
0
0
0
0
0
0
0
0
0
0
0
0
0
0
0
0
0
0
0
0
0
0
0
0
0
0
0
0
0
0
0
0
0
0
0
0
0
0
0
0
0
0
0
0
0
0
0
0
0
0
0
0
0
0
0
0
0
0
0
0
0
0
0
0
0
0
0
0
0
0
0
0
0
0
0
0
0
0
0
0
0
0
0
0
0
0
0
0
0
0
0
0
0
0
0
0
0
0
0
0
0
0
0
0
0
0
0
0
0
0
0
0
0
0
0
0
0
0
0
0
0
0
0
0
0
0
0
0
0
0
0
0
0
0
0
0
0
0
0
0
0
0
0
0
0
0
0
0
0
0
0
0
0
0
0
0
0
0
0
0
0
0
0
0
0
0
0
0
0
0
0
0
0
0
0
0
0
0
0
0
0
0
0
0
0
0
0
0
0
0
0
0
0
0
0
0
0
0
0
0
0
0
0
0
0
0
0
0
0
0
0
0
0
0
0
0
0
0
0
0
0
0
0
0
180
225
135
0
0
0
0
0
0
0
165
225
165
0
0
0
0
90
195
210
225
225
225
225
225
225
225
225
225
165
0
0
0
0
90
195
225
225
225
225
225
225
225
225
210
180
60
0
0
0
0
0
0
0
0
0
0
0
0
0
0
0
0
0
0
0
0
0
0
0
0
0
0
0
0
0
0
0
0
0
0
0
0
0
0
0
0
0
0
0
0
0
0
0
0
0
0
0
0
0
0
0
0
0
0
0
0
0
0
0
0
0
0
0
0
0
0
0
0
0
0
0
0
0
0
0
0
0
0
0
0
0
0
0
0
0
0
0
0
0
0
0
0
0
0
0
0
0
0
0
0
0
0
0
0
0
0
0
0
0
0
0
0
0
0
0
0
0
0
0
0
0
0
0
0
0
0
0
0
0
0
0
0
0
0
0
0
0
0
0
0
0
0
0
0
0
0
0
0
0
0
0
0
0
0
0
0
0
0
0
0
0
0
0
0
0
0
0
0
0
0
0
0
0
0
0
0
0
0
0
0
0
0
0
0
0
0
0
0
0
0
0
0
0
0
0
0
0
0
0
0
0
0
0
0
15
225
225
180
0
0
0
0
0
0
0
210
225
210
0
0
0
0
195
225
225
225
225
225
225
225
225
225
225
225
180
0
0
0
0
210
225
225
225
225
225
225
225
225
225
225
225
180
0
0
0
0
0
0
0
0
0
0
0
0
0
0
0
0
0
0
0
0
0
0
0
0
0
0
0
0
0
0
0
0
0
0
0
0
0
0
0
0
0
0
0
0
0
0
0
0
0
0
0
0
0
0
0
0
0
0
0
0
0
0
0
0
0
0
0
0
0
0
0
0
0
0
0
0
0
0
0
0
0
0
0
0
0
0
0
0
120
210
225
225
225
225
225
225
225
225
195
105
0
0
0
150
225
225
225
225
225
225
225
225
225
225
195
105
0
0
0
0
120
210
225
225
225
225
225
225
225
225
195
90
0
0
0
0
195
210
90
0
0
0
0
0
0
105
210
195
0
0
0
45
210
225
225
225
225
225
225
225
225
225
195
105
0
0
0
60
210
225
225
225
225
225
225
225
225
225
195
90
0
0
0
0
0
0
0
0
0
0
0
105
195
225
225
225
225
225
225
225
225
225
150
0
0
0
0
0
30
225
225
195
0
0
0
0
0
0
0
210
225
210
0
0
0
15
225
225
225
165
60
0
0
0
0
0
0
0
0
0
0
0
15
225
225
225
165
75
0
0
0
75
180
225
225
210
0
0
0
0
0
0
0
0
0
0
0
0
0
0
0
0
0
0
0
0
0
0
0
0
0
0
0
0
0
0
0
0
0
0
0
0
0
0
0
0
0
0
0
0
0
0
0
0
0
0
0
0
0
0
0
0
0
0
0
0
0
0
0
0
0
0
0
0
0
0
0
0
0
0
0
0
0
0
0
0
0
0
0
0
0
0
0
60
225
225
225
150
45
0
0
45
150
225
225
210
0
0
0
0
0
0
0
0
0
0
0
0
135
225
225
195
0
0
0
0
210
225
225
135
45
0
0
60
135
225
225
195
0
0
0
75
225
225
150
0
0
0
0
0
0
165
225
225
60
0
0
0
0
0
0
0
0
0
0
45
120
225
225
210
0
0
0
0
0
0
0
0
0
0
0
60
135
225
225
195
0
0
0
0
0
0
0
0
0
0
0
210
225
225
135
45
0
0
0
0
0
0
0
0
0
0
0
0
30
225
225
195
0
0
0
0
0
0
0
210
225
210
0
0
0
30
225
225
210
0
0
0
0
0
0
0
0
0
0
0
0
0
30
225
225
210
15
0
0
0
0
0
105
225
225
210
0
0
0
0
0
0
0
0
0
0
0
0
0
0
0
0
0
0
0
0
0
0
0
0
0
0
0
0
0
0
0
0
0
0
0
0
0
0
0
0
0
0
0
0
0
0
0
0
0
0
0
0
0
0
0
0
0
0
0
0
0
0
0
0
0
0
0
0
0
0
0
0
0
0
0
0
0
0
0
0
0
0
0
0
0
0
0
120
225
225
195
0
0
0
0
0
0
210
225
225
60
0
0
0
0
0
0
0
0
0
0
0
75
225
225
195
0
0
0
75
225
225
180
0
0
0
0
0
0
195
225
210
0
0
0
75
225
225
150
0
0
0
0
0
0
165
225
225
75
0
0
0
0
0
0
0
0
0
0
0
0
180
225
225
45
0
0
0
0
0
0
0
0
0
0
0
0
180
225
225
15
0
0
0
0
0
0
0
0
0
60
225
225
180
0
0
0
0
0
0
0
0
0
0
0
0
0
0
30
225
225
195
0
0
0
0
0
0
0
210
225
210
0
0
0
30
225
225
195
0
0
0
0
0
0
0
0
0
0
0
0
0
30
225
225
195
0
0
0
0
0
45
195
225
225
210
0
0
0
0
0
0
0
0
0
0
0
0
0
0
0
0
0
0
0
0
0
0
0
0
0
0
0
0
0
0
0
0
0
0
0
0
0
0
0
0
0
0
0
0
0
0
0
0
0
0
0
0
0
0
0
0
0
0
0
0
0
0
0
0
0
0
0
0
0
0
0
0
0
0
0
0
0
0
0
0
0
0
0
0
0
0
0
120
225
225
165
0
0
0
0
0
0
195
225
225
75
0
0
0
0
0
0
0
0
0
0
0
135
225
225
180
0
0
0
75
225
225
150
0
0
0
0
0
0
180
225
210
0
0
0
75
225
225
150
0
0
0
0
0
0
165
225
225
75
0
0
0
0
0
0
0
0
0
0
0
0
165
225
225
60
0
0
0
0
0
0
0
0
0
0
0
0
165
225
225
30
0
0
0
0
0
0
0
0
0
75
225
225
165
0
0
0
0
0
0
0
0
0
0
0
0
0
0
30
225
225
195
0
0
0
0
0
0
0
210
225
210
0
0
0
30
225
225
195
0
0
0
0
0
0
0
0
0
0
0
0
0
30
225
225
195
0
0
0
0
0
180
225
225
225
210
0
0
0
0
0
0
0
0
0
0
0
0
0
0
0
0
0
0
0
0
0
0
0
0
0
0
0
0
0
0
0
0
0
0
0
0
0
0
0
0
0
0
0
0
0
0
0
0
0
0
0
0
0
0
0
0
0
0
0
0
0
0
0
0
0
0
0
0
0
0
0
0
0
0
0
0
0
0
0
0
0
0
0
0
0
0
0
120
225
225
165
0
0
0
0
0
0
195
225
225
75
0
0
0
0
0
0
0
0
0
0
45
210
225
225
90
0
0
0
75
225
225
150
0
0
0
0
0
0
180
225
210
0
0
0
75
225
225
150
0
0
0
0
0
0
165
225
225
75
0
0
0
0
0
0
0
0
0
0
0
0
180
225
225
60
0
0
0
0
0
0
0
0
0
0
0
0
165
225
225
30
0
0
0
0
0
0
0
0
0
75
225
225
150
0
0
0
0
0
0
0
0
0
0
0
0
0
0
15
225
225
195
0
0
0
0
0
0
15
225
225
210
0
0
0
15
225
225
210
15
0
0
0
0
0
0
0
0
0
0
0
0
30
225
225
195
0
0
0
0
150
210
90
210
225
210
0
0
0
0
0
0
0
0
0
0
0
0
195
225
225
150
0
0
0
120
210
225
225
225
225
225
210
90
0
0
0
0
0
0
0
120
210
225
225
225
225
225
195
75
0
0
120
210
225
225
225
225
225
210
75
0
0
135
225
210
135
0
0
75
210
225
180
0
0
0
0
0
0
0
0
0
0
0
0
0
0
0
0
0
0
0
0
120
225
225
165
0
0
0
0
0
0
195
225
225
75
0
0
0
0
0
0
0
0
0
30
195
225
225
150
0
0
0
0
75
225
225
165
0
0
0
0
0
0
210
225
210
0
0
0
75
225
225
150
0
0
0
0
0
0
165
225
225
75
0
0
0
0
0
0
0
0
0
0
0
0
195
225
225
45
0
0
0
0
0
0
0
0
0
0
0
0
180
225
225
30
0
0
0
0
0
0
0
0
0
75
225
225
165
0
0
0
0
0
0
0
0
0
0
0
0
0
0
0
210
225
225
150
45
0
0
0
60
165
225
225
210
0
0
0
0
195
225
225
165
60
0
0
0
0
0
0
0
0
0
0
0
30
225
225
195
0
0
0
120
210
90
0
210
225
210
0
0
0
0
0
0
0
0
0
0
0
0
0
120
225
210
0
0
0
195
225
150
30
0
45
180
225
165
0
0
0
0
0
0
0
195
225
150
30
0
30
165
225
165
0
0
195
225
150
30
0
60
180
225
150
0
0
195
225
120
225
90
0
195
165
195
225
45
0
0
0
0
0
0
0
0
0
0
0
0
0
0
0
0
0
0
0
120
225
225
195
0
0
0
0
0
30
210
225
225
75
0
0
0
0
0
0
0
0
15
180
225
225
165
0
0
0
0
0
75
225
225
225
120
30
0
0
60
165
225
225
210
0
0
0
75
225
225
165
0
0
0
0
0
0
180
225
225
75
0
0
0
0
0
0
0
0
0
0
45
135
225
225
210
0
0
0
0
0
0
0
0
0
0
0
45
135
225
225
225
30
0
0
0
0
0
0
0
0
0
75
225
225
210
120
30
0
0
0
0
0
0
0
0
0
0
0
0
0
90
195
210
225
225
225
225
225
225
225
225
225
210
0
0
0
0
75
180
210
225
225
225
225
225
225
225
210
180
45
0
0
0
30
225
225
195
0
0
75
210
135
0
0
210
225
210
0
0
0
0
0
0
0
0
0
0
0
0
0
0
210
225
0
0
0
195
225
45
0
0
30
195
225
165
0
0
0
0
0
0
0
195
225
60
0
0
0
120
225
165
0
0
195
225
45
0
0
0
135
225
165
0
0
195
225
0
180
195
150
210
45
180
225
75
0
0
0
0
0
0
0
0
0
0
0
0
0
0
0
0
0
0
0
60
225
225
225
135
45
0
0
60
165
225
225
225
75
0
0
0
0
0
0
0
0
180
225
225
180
0
0
0
0
0
0
75
225
225
225
225
225
225
225
225
225
225
225
210
0
0
0
0
210
225
210
105
30
0
0
30
120
210
225
225
75
0
0
0
105
195
225
225
225
225
225
225
225
225
195
105
0
0
0
60
210
225
225
225
225
225
225
225
225
225
225
225
30
0
0
0
0
0
0
0
0
0
75
225
225
225
225
225
225
225
225
225
210
195
90
0
0
0
0
0
0
0
0
0
0
0
0
0
0
45
165
225
225
210
0
0
0
0
0
0
0
0
0
0
0
0
90
195
225
225
180
0
0
0
30
225
225
195
0
30
195
180
0
0
0
210
225
210
0
0
0
0
75
210
105
0
135
195
0
0
0
0
210
225
0
0
0
195
225
0
0
0
165
210
225
165
0
0
0
0
0
0
0
195
225
60
0
0
0
165
225
150
0
0
195
225
30
0
0
0
135
225
165
0
0
195
225
0
90
225
225
165
0
180
225
75
0
0
0
0
0
0
0
0
0
0
0
0
0
0
0
0
0
0
0
0
120
210
225
225
225
225
225
225
225
225
225
225
75
0
0
0
0
0
0
0
150
225
225
195
30
0
0
0
0
0
0
75
225
225
225
135
45
0
0
60
150
225
225
210
0
0
0
0
105
195
225
225
225
225
225
225
225
225
225
225
60
0
0
0
210
225
225
150
45
0
0
0
0
0
0
0
0
0
0
0
0
0
0
0
0
0
0
45
135
225
225
225
30
0
0
0
0
0
0
0
0
0
75
225
225
225
150
45
0
0
60
150
225
225
195
0
0
0
0
0
0
0
0
0
0
0
0
0
0
0
30
225
225
210
0
0
0
0
0
0
0
0
0
0
0
0
0
90
225
225
195
0
0
0
30
225
225
195
0
180
210
45
0
0
0
210
225
210
0
0
0
0
30
210
195
45
210
180
0
0
0
0
210
225
0
0
0
195
225
0
0
135
165
120
225
165
0
0
0
0
0
0
0
195
225
150
30
60
165
225
195
45
0
0
195
225
150
30
0
60
195
225
150
0
0
195
225
0
0
210
225
105
0
180
225
75
0
0
0
0
0
0
0
0
0
0
0
0
0
0
0
0
0
0
0
0
0
0
0
0
0
0
0
45
135
225
225
225
75
0
0
0
0
0
0
30
210
225
210
45
0
0
0
0
0
0
0
75
225
225
180
0
0
0
0
0
0
195
225
210
0
0
0
0
0
0
0
0
0
0
0
15
105
210
225
225
60
0
0
60
225
225
195
0
0
0
0
0
0
0
0
0
0
0
0
0
0
0
0
0
0
0
0
0
0
180
225
225
30
0
0
0
0
0
0
0
0
0
75
225
225
195
0
0
0
0
0
0
195
225
225
0
0
0
0
0
0
0
0
0
0
0
0
0
0
0
0
210
225
210
0
0
0
0
0
0
0
0
0
0
0
0
0
0
225
225
210
0
0
0
30
225
225
195
180
225
90
0
0
0
0
210
225
210
0
0
0
0
0
135
225
195
225
90
0
0
0
0
210
225
0
0
0
195
225
0
105
195
30
120
225
165
0
0
0
0
0
0
0
195
225
225
225
225
225
225
90
0
0
0
195
225
225
225
225
225
225
195
75
0
0
195
225
0
0
195
225
45
0
180
225
75
0
0
0
0
0
0
0
0
0
0
0
0
0
0
0
0
0
0
0
0
0
0
0
0
0
0
0
0
0
195
225
225
75
0
0
0
0
0
0
105
225
225
180
0
0
0
0
0
0
0
0
75
225
225
150
0
0
0
0
0
0
180
225
210
0
0
0
0
0
0
0
0
0
0
0
0
0
180
225
225
60
0
0
75
225
225
165
0
0
0
0
0
0
0
0
0
0
0
0
0
0
0
0
0
0
0
0
0
0
165
225
225
30
0
0
0
0
0
0
0
0
0
75
225
225
165
0
0
0
0
0
0
180
225
225
0
0
0
0
0
0
0
0
0
0
0
0
0
0
0
0
225
225
210
0
0
0
0
0
0
0
0
0
0
0
0
0
0
210
225
210
0
0
0
30
225
225
225
225
135
0
0
0
0
0
210
225
210
0
0
0
0
0
0
195
225
165
0
0
0
0
0
210
225
0
0
0
195
225
75
195
75
0
120
225
165
0
0
0
0
0
0
0
195
225
150
30
60
165
225
195
30
0
0
195
225
135
15
0
0
0
0
0
0
0
195
225
0
0
135
180
0
0
180
225
75
0
0
0
0
0
0
0
0
0
0
0
0
0
0
0
0
0
0
0
0
0
0
0
0
0
0
0
0
0
195
225
225
75
0
0
0
0
0
0
120
225
225
165
0
0
0
0
0
0
0
0
75
225
225
150
0
0
0
0
0
0
180
225
210
0
0
0
0
0
0
0
0
0
0
0
0
0
165
225
225
60
0
0
75
225
225
165
0
0
0
0
0
0
0
0
0
0
0
0
0
0
0
0
0
0
0
0
0
0
165
225
225
30
0
0
0
0
0
0
0
0
0
75
225
225
150
0
0
0
0
0
0
180
225
225
0
0
0
0
0
0
0
0
0
0
0
0
0
0
0
0
225
225
210
0
0
0
0
0
0
0
0
0
0
0
0
0
0
210
225
210
0
0
0
30
225
225
225
180
0
0
0
0
0
0
210
225
210
0
0
0
0
0
0
180
225
150
0
0
0
0
0
210
225
0
0
0
195
225
210
120
0
0
120
225
165
0
0
0
0
0
0
0
195
225
45
0
0
0
165
225
150
0
0
195
225
0
0
0
0
0
0
0
0
0
195
225
0
0
0
0
0
0
180
225
75
0
0
0
0
0
0
0
0
0
0
0
0
0
0
0
0
0
0
0
0
0
0
0
0
0
0
0
0
0
195
225
225
75
0
0
0
0
0
0
120
225
225
165
0
0
0
0
0
0
0
0
75
225
225
150
0
0
0
0
0
0
180
225
210
0
0
0
0
0
0
0
0
0
0
0
0
0
165
225
225
60
0
0
75
225
225
165
0
0
0
0
0
0
0
0
0
0
0
0
0
0
0
0
0
0
0
0
0
0
165
225
225
30
0
0
0
165
225
165
0
0
0
75
225
225
150
0
0
0
0
0
0
180
225
225
0
0
0
0
0
0
0
0
0
0
0
0
0
0
0
0
225
225
210
0
0
0
0
0
0
0
0
0
0
0
0
0
60
225
225
210
0
0
0
15
225
225
210
30
0
0
0
0
0
75
225
225
195
0
0
0
0
0
105
225
210
210
60
0
0
0
0
210
225
0
0
0
195
225
165
0
0
0
120
225
165
0
0
0
0
0
0
0
195
225
45
0
0
0
120
225
165
0
0
195
225
0
0
0
0
0
0
0
0
0
195
225
0
0
0
0
0
0
180
225
75
0
0
0
0
0
0
0
0
0
0
0
0
0
0
0
0
0
0
0
0
0
0
0
0
0
0
0
0
0
210
225
225
60
0
0
0
0
0
0
120
225
225
165
0
0
0
0
0
0
0
0
75
225
225
165
0
0
0
0
0
0
210
225
210
0
0
0
0
0
0
0
0
0
0
0
0
0
180
225
225
60
0
0
75
225
225
180
0
0
0
0
0
0
0
0
0
0
0
0
0
0
0
0
0
0
0
0
0
0
180
225
225
15
0
0
0
210
225
210
0
0
0
60
225
225
165
0
0
0
0
0
0
210
225
210
0
0
0
0
0
0
0
0
0
0
0
0
0
0
0
0
210
225
195
0
0
0
0
0
0
0
0
0
0
0
0
75
180
225
225
180
0
0
0
0
195
225
210
90
30
0
0
15
90
195
225
225
165
0
0
0
0
0
195
210
75
225
180
0
0
0
0
210
225
0
0
0
195
225
90
0
0
60
195
225
165
0
0
0
0
0
0
0
195
225
30
0
0
0
120
225
165
0
0
195
225
0
0
0
0
0
0
0
0
0
195
225
0
0
0
0
0
0
180
225
75
0
0
0
0
0
0
0
0
0
0
0
0
0
0
0
0
0
0
0
0
0
0
0
0
0
0
0
60
165
225
225
210
0
0
0
0
0
0
0
120
225
225
150
0
0
0
0
0
0
0
0
0
210
225
210
120
30
0
0
60
165
225
225
195
0
0
0
0
0
0
0
0
0
0
0
0
0
165
225
225
60
0
0
15
210
225
225
120
30
0
0
0
0
0
0
0
0
0
0
0
0
0
0
0
0
0
0
45
135
225
225
210
0
0
0
0
180
225
180
0
0
0
0
210
225
225
120
30
0
0
60
165
225
225
195
0
0
0
0
0
0
0
0
0
0
0
0
0
0
0
0
120
180
120
0
0
0
0
195
225
225
225
225
225
225
225
225
225
210
180
60
0
0
0
0
90
195
225
225
225
225
225
225
225
225
210
180
45
0
0
0
0
90
225
120
0
150
210
0
0
0
0
180
195
0
0
0
120
210
225
225
225
225
225
210
75
0
0
0
0
0
0
0
150
195
0
0
0
0
75
195
120
0
0
180
210
0
0
0
0
0
0
0
0
0
180
195
0
0
0
0
0
0
165
210
30
0
0
0
0
0
0
0
0
0
0
0
0
0
0
0
0
0
0
0
90
210
225
225
225
225
225
225
225
225
225
195
105
0
0
0
0
0
0
0
45
195
195
75
0
0
0
0
0
0
0
0
0
120
210
225
225
225
225
225
225
225
225
195
90
0
0
0
0
0
0
0
0
0
0
0
0
0
135
225
210
0
0
0
0
120
195
225
225
225
225
225
225
225
225
225
195
15
0
0
60
210
225
225
225
225
225
225
225
225
225
195
105
0
0
0
0
0
0
0
0
0
0
0
105
195
225
225
225
225
225
225
225
225
195
90
0
0
0
0
0
0
0
0
0
0
0
0
0
0
0
0
0
0
0
0
0
0
0
0
0
0
0
0
0
0
0
0
0
0
0
0
0
0
0
0
0
0
0
0
0
0
0
0
0
0
0
0
0
0
0
0
0
0
45
0
0
0
45
0
0
0
0
0
0
0
0
0
0
0
0
0
0
0
0
0
0
0
0
0
0
0
0
0
0
0
0
0
0
0
0
0
0
0
0
0
15
0
0
0
0
0
0
0
0
0
0
0
0
0
0
0
0
0
0
0
0
0
0
0
0
0
0
0
0
0
0
0
0
0
0
0
0
0
0
0
0
0
0
0
0
0
0
0
0
0
0
0
0
0
0
0
0
0
0
0
0
0
0
0
0
0
0
0
0
0
0
0
0
0
0
0
0
0
0
0
0
0
0
0
0
0
0
0
0
0
0
0
0
0
0
0
0
0
0
120
75
0
0
0
0
0
0
0
0
0
0
0
0
0
0
0
0
0
0
0
0
0
0
0
0
0
0
0
0
0
0
0
0
0
0
0
0
0
0
0
0
0
0
0
0
0
0
0
0
0
0
0
0
0
0
0
0
0
0
0
0
0
0
0
0
0
0
0
0
0
0
0
0
0
0
0
0
0
0
0
0
0
0
0
0
0
0
0
0
0
0
0
0
0
0
0
0
0
0
0
0
0
0
0
0
0
0
0
0
0
0
0
0
0
0
0
0
0
0
0
0
0
0
0
0
0
0
0
0
0
0
0
0
0
0
0
0
0
0
0
0
0
0
0
0
0
0
0
0
0
0
0
0
0
0
0
0
0
0
0
0
0
0
0
0
0
0
0
0
0
0
0
0
0
0
0
0
0
0
0
0
0
0
0
0
0
0
0
0
0
0
0
0
0
0
0
0
0
0
0
0
0
0
0
0
0
0
0
0
0
0
0
0
0
0
0
0
0
0
0
0
0
0
0
0
0
0
0
0
0
0
0
0
0
0
0
0
0
0
0
0
0
0
0
0
0
0
0
0
0
0
0
0
0
0
0
0
0
0
0
0
0
0
0
0
0
0
0
0
0
0
0
0
0
0
0
0
0
0
0
0
0
0
0
0
0
0
0
0
0
0
0
0
0
0
0
0
0
0
0
0
0
0
0
0
0
0
0
0
0
0
0
0
0
0
0
0
0
0
0
0
0
0
0
0
0
0
0
0
0
0
0
0
0
0
0
0
0
0
0
0
0
0
0
0
0
0
0
0
0
0
0
0
0
0
0
0
0
0
0
0
0
0
0
0
0
0
0
0
0
0
0
0
0
0
0
0
0
0
0
0
0
0
0
0
0
0
0
0
0
0
0
0
0
0
0
0
0
0
0
0
0
0
0
0
0
0
0
0
0
0
0
0
0
0
0
0
0
0
0
0
0
0
0
0
0
0
0
0
0
0
0
0
0
0
0
0
0
0
0
0
0
0
0
0
0
0
0
0
0
0
0
0
0
0
0
0
0
0
0
0
0
0
0
0
0
0
0
0
0
0
0
0
0
0
0
0
0
0
0
0
0
0
0
0
0
0
0
0
0
0
0
0
0
0
0
0
0
0
0
0
0
0
0
0
0
0
0
0
0
0
0
0
0
0
0
0
0
0
0
0
0
0
0
0
0
0
0
0
0
0
0
0
0
0
0
0
0
0
0
0
0
0
0
0
0
0
0
0
0
0
0
0
0
0
0
0
0
0
0
0
0
0
0
0
0
0
0
0
0
0
