P2
# Created by GIMP version 2.10.22 PNM plug-in
256 64
255
0
0
0
0
0
0
0
0
0
0
0
0
0
0
0
0
0
0
0
0
0
0
0
0
0
0
0
0
0
0
0
0
0
0
0
0
0
0
0
0
0
0
0
0
0
0
0
0
0
0
0
0
0
0
0
0
0
0
0
0
0
0
0
0
0
0
0
0
0
0
0
0
0
0
0
0
0
0
0
0
0
0
0
0
0
0
0
0
0
0
0
0
0
0
0
0
0
0
0
0
0
0
0
0
0
0
0
0
0
0
0
0
0
0
0
0
0
0
0
0
0
0
0
0
0
0
0
0
0
0
0
0
0
0
0
0
0
0
0
0
0
0
0
0
0
0
0
0
0
0
0
0
0
0
0
0
0
0
0
0
0
0
0
0
0
0
0
0
0
0
0
0
0
0
0
0
0
0
0
0
0
0
0
0
0
0
0
0
0
0
0
0
0
0
0
0
0
0
0
0
0
0
0
0
0
0
0
0
0
0
0
0
0
0
0
0
0
0
0
0
0
0
0
0
0
0
0
0
0
0
0
0
0
0
0
0
0
0
0
0
0
0
0
0
0
0
0
0
0
0
0
0
0
0
0
0
0
0
225
225
225
225
0
0
0
0
0
0
225
225
225
225
0
0
0
0
0
0
0
0
0
0
0
0
0
0
0
0
0
0
0
0
0
0
0
0
0
0
0
0
0
0
0
0
0
0
0
0
0
0
0
0
0
0
0
0
0
0
0
0
0
0
0
0
0
0
0
0
0
0
0
0
0
0
0
0
0
0
0
0
0
0
0
0
0
0
0
0
0
0
0
0
0
0
0
0
0
0
0
0
0
0
0
0
0
0
0
0
0
0
0
0
0
0
0
0
0
0
0
0
0
0
0
0
0
0
0
0
0
0
0
0
0
0
0
0
0
0
0
0
0
0
0
0
0
0
0
0
0
0
0
0
0
0
0
0
0
0
0
0
0
0
0
0
0
0
0
0
0
0
0
0
0
0
0
0
0
0
0
0
0
0
0
0
0
0
0
0
0
0
0
0
0
0
0
0
0
0
0
0
0
0
0
0
0
0
0
0
0
0
0
0
0
0
0
0
0
0
0
0
0
0
0
0
0
0
0
0
0
0
0
0
0
0
0
0
225
225
225
225
225
225
0
0
0
0
0
0
0
0
0
0
0
225
0
0
0
0
225
225
0
0
225
225
0
0
0
225
0
0
0
0
0
0
0
0
0
0
0
0
0
0
0
0
0
0
0
0
0
0
0
0
0
0
0
0
0
0
0
0
0
0
0
0
0
0
0
0
0
0
0
0
0
0
0
0
0
0
0
0
0
0
0
0
0
0
0
0
0
0
0
0
0
0
0
0
0
0
0
0
0
0
0
0
0
0
0
0
0
0
0
0
0
0
0
0
0
0
0
0
0
0
0
0
0
0
0
0
0
0
0
0
0
0
0
0
0
0
0
0
0
0
0
0
0
0
0
0
0
0
0
0
0
0
0
0
0
0
0
0
0
0
0
0
0
0
0
0
0
0
0
0
0
0
0
0
0
0
0
0
0
0
0
0
0
0
0
0
0
0
0
0
0
0
0
0
0
0
0
0
0
0
0
0
0
0
0
0
0
0
0
0
0
0
0
0
0
0
0
0
0
0
0
0
0
0
0
0
0
0
0
0
0
0
0
0
0
0
0
0
0
0
0
0
0
0
0
0
0
0
225
225
0
0
0
0
0
0
0
0
0
0
0
0
0
0
0
0
0
225
0
225
225
225
225
225
225
225
0
0
0
0
0
225
0
0
0
0
0
0
0
0
0
0
0
0
0
0
0
0
0
0
0
0
0
0
0
0
0
0
0
0
0
0
0
0
0
0
0
0
0
0
0
0
0
0
0
0
0
0
0
0
0
0
0
0
0
0
0
0
0
0
0
0
0
0
0
0
0
0
0
0
0
0
0
0
0
0
0
0
0
0
0
0
0
0
0
0
0
0
0
0
0
0
0
0
0
0
0
0
0
0
0
0
0
0
0
0
0
0
0
0
0
0
0
0
0
0
0
0
0
0
0
0
0
0
0
0
0
0
0
0
0
0
0
0
0
0
0
0
0
0
0
0
0
0
0
0
0
0
0
0
0
0
0
0
0
0
0
0
0
0
0
0
0
0
0
0
0
0
0
0
0
0
0
0
0
0
0
0
0
0
0
0
0
0
0
0
0
0
0
0
0
0
0
0
0
0
0
0
0
0
0
0
0
0
0
0
0
0
0
0
0
0
0
0
0
0
0
0
0
0
0
0
0
225
0
0
0
0
0
0
0
0
0
0
0
0
0
0
0
0
0
0
0
225
225
225
225
225
225
225
225
225
225
0
0
0
225
225
0
0
0
0
0
0
0
0
0
0
0
0
0
0
0
0
0
0
0
0
0
0
0
0
0
0
0
0
0
0
0
0
0
0
0
0
0
0
0
0
0
0
0
0
0
0
0
0
0
0
0
0
0
0
0
0
0
0
0
0
0
0
0
0
0
0
0
0
0
0
0
0
0
0
0
0
0
0
0
0
0
0
0
0
0
0
0
0
0
0
0
0
0
0
0
0
0
0
0
0
0
0
0
0
0
0
0
0
0
0
0
0
0
0
0
0
0
0
0
0
0
0
0
0
0
0
0
0
0
0
0
0
0
0
0
0
0
0
0
0
0
0
0
0
0
0
0
0
0
0
0
0
0
0
0
0
0
0
0
0
0
0
0
0
0
0
0
0
0
0
0
0
0
0
0
0
0
0
0
0
0
0
0
0
0
0
0
0
0
0
0
0
0
0
0
0
0
0
0
0
0
0
0
0
0
0
0
0
0
0
0
0
0
0
0
0
0
0
0
225
225
0
0
0
0
0
0
0
0
0
0
0
225
0
0
0
0
0
0
0
0
225
225
225
225
225
225
225
225
225
225
225
0
0
225
0
0
0
0
0
0
0
0
0
0
0
0
0
0
0
0
0
0
0
0
0
0
0
0
0
0
0
0
0
0
0
0
0
0
0
0
0
0
0
0
0
0
0
0
0
0
0
0
0
0
0
0
0
0
0
0
0
0
0
0
0
0
0
0
0
0
0
0
0
0
0
0
0
0
0
0
0
0
0
0
0
0
0
0
0
0
0
0
0
0
0
0
0
0
0
0
0
0
0
0
0
0
0
0
0
0
0
0
0
0
0
0
0
0
0
0
0
0
0
0
0
0
0
0
0
0
0
0
0
0
0
0
0
0
0
0
0
0
0
0
0
0
0
0
0
0
0
0
0
0
0
0
0
0
0
0
0
0
0
0
0
0
0
0
0
0
0
0
0
0
0
0
0
0
0
0
0
0
0
0
0
0
0
0
0
0
0
0
0
0
0
0
0
0
0
0
0
0
0
0
0
0
0
0
0
0
0
0
0
0
0
0
0
0
0
0
0
0
0
225
0
0
0
0
0
0
0
0
0
0
0
0
0
225
0
0
0
0
0
0
0
225
225
225
225
225
225
225
225
225
225
225
225
225
225
225
225
225
225
225
225
225
225
0
0
0
0
0
0
0
0
0
0
0
0
0
0
0
0
0
0
0
0
0
0
0
0
0
0
0
0
0
0
0
0
0
0
0
0
0
0
0
0
0
0
0
0
0
0
0
0
0
0
0
0
0
0
0
0
0
0
0
0
0
0
0
0
0
0
0
0
0
0
0
0
0
0
0
0
0
0
0
0
0
0
0
0
0
0
0
0
0
0
0
0
0
0
0
0
0
0
0
0
0
0
0
0
0
0
0
0
0
0
0
0
0
0
0
0
0
0
0
0
0
0
0
0
0
0
0
0
0
0
0
0
0
0
0
0
0
0
0
0
0
0
0
0
0
0
0
0
0
0
0
0
0
0
0
0
0
0
0
0
0
0
0
0
0
0
0
0
0
0
0
0
0
0
0
0
0
0
0
0
0
0
0
0
0
0
0
0
0
0
0
0
0
0
0
0
0
0
0
0
0
0
0
0
0
0
0
0
0
0
0
225
0
0
0
0
0
0
0
0
0
0
225
0
0
0
0
225
0
0
0
0
0
0
225
225
225
225
225
225
225
225
225
225
225
225
225
0
0
0
0
0
0
0
225
225
0
0
0
0
0
0
0
0
0
0
0
0
0
0
0
0
0
0
0
0
0
0
0
0
0
0
0
0
0
0
0
0
0
0
0
0
0
0
0
0
0
0
0
0
0
0
0
0
0
0
0
0
0
0
0
0
0
0
0
0
0
0
0
0
0
0
0
0
0
0
0
0
0
0
0
0
0
0
0
0
0
0
0
0
0
0
0
0
0
0
0
0
0
0
0
0
0
0
0
0
0
0
0
0
0
0
0
0
0
0
0
0
0
0
0
0
0
0
0
0
0
0
0
0
0
0
0
0
0
0
0
0
0
0
0
0
0
0
0
0
0
0
0
0
0
0
0
0
0
0
0
0
0
0
0
0
0
0
0
0
0
0
0
0
0
0
0
0
0
0
0
0
0
0
0
0
0
0
0
0
0
0
0
0
0
0
0
0
0
0
0
0
0
0
0
0
0
0
0
0
0
0
0
0
0
0
0
0
0
0
225
0
0
0
0
0
0
0
0
0
0
0
225
0
0
0
0
225
0
0
0
0
0
0
225
225
225
225
225
225
225
225
225
225
225
225
225
0
0
0
0
0
0
225
225
0
0
0
0
0
0
0
0
0
0
0
0
0
0
0
0
0
0
0
0
0
0
0
0
0
0
0
0
0
0
0
0
0
0
0
0
0
0
0
0
0
0
0
0
0
0
0
0
0
0
0
0
0
0
0
0
0
0
0
0
0
0
0
0
0
0
0
0
0
0
0
0
0
0
0
0
0
0
0
0
0
0
0
0
0
0
0
0
0
0
0
0
0
0
0
0
0
0
0
0
0
0
0
0
0
0
0
0
0
0
0
0
0
0
0
0
0
0
0
0
0
0
0
0
0
0
0
0
0
30
195
210
90
0
0
0
0
0
0
0
0
0
0
0
0
0
0
0
0
0
0
0
0
0
0
0
0
0
0
0
0
0
0
0
0
0
0
0
0
0
0
0
0
0
0
0
0
0
0
0
0
0
0
0
0
0
0
0
0
0
0
0
0
0
0
0
0
0
0
0
0
0
0
0
0
0
0
0
0
0
0
225
0
0
0
0
0
0
0
0
0
0
0
0
225
0
0
0
0
225
0
0
0
0
0
225
225
225
225
225
225
225
225
225
225
225
225
225
0
0
0
0
225
225
0
0
0
0
0
0
0
0
0
0
0
0
0
0
0
0
0
0
0
0
0
0
0
0
0
0
0
0
0
0
0
0
0
0
0
0
0
0
0
0
0
0
0
0
0
0
0
0
0
0
0
0
0
0
0
0
0
0
0
0
0
0
0
0
0
0
90
30
0
0
0
0
0
0
0
0
0
0
0
0
0
0
0
0
0
0
0
0
0
0
0
0
0
0
0
0
0
0
0
0
0
0
0
0
0
0
0
0
0
0
0
0
0
0
0
0
0
0
0
0
0
0
0
0
0
0
0
0
0
0
0
90
225
225
150
0
0
0
0
0
0
0
0
0
0
0
0
0
0
0
0
0
0
0
0
0
0
0
0
0
0
0
0
0
0
0
0
0
0
0
0
0
0
0
0
0
0
0
0
0
0
0
0
0
0
0
0
0
0
0
0
0
0
0
0
0
0
0
0
0
0
0
0
0
0
0
0
0
0
0
0
0
0
225
0
0
0
0
0
0
0
0
0
0
0
0
225
0
0
0
0
225
0
0
0
0
0
225
225
225
225
225
225
225
225
225
225
225
225
225
0
0
225
225
225
0
0
0
0
0
0
0
0
0
0
0
0
0
0
0
0
0
0
0
0
0
0
0
0
0
0
0
0
0
0
0
0
0
0
0
0
0
0
0
0
0
0
0
0
0
0
0
0
0
0
0
0
0
0
0
0
0
0
0
0
0
0
0
0
0
0
180
225
210
45
0
0
0
0
0
0
0
0
0
0
0
0
0
0
0
0
0
0
0
0
0
0
0
0
0
0
0
0
0
0
0
0
0
0
0
0
0
0
0
0
0
0
0
0
0
0
0
0
0
0
0
0
0
0
0
0
0
0
0
0
0
0
90
225
225
150
0
0
0
0
0
0
0
0
0
0
0
0
0
0
0
0
0
0
0
0
0
0
0
0
0
0
0
0
0
0
0
0
0
0
0
0
0
0
0
0
0
0
0
0
0
0
0
0
0
0
0
0
0
0
0
0
0
0
0
0
0
0
0
0
0
0
0
0
0
0
0
0
0
0
0
0
0
0
225
0
0
0
0
0
0
0
0
0
0
0
0
225
0
0
0
0
0
225
0
0
0
0
225
225
225
225
225
225
225
225
225
225
225
225
225
225
225
0
0
0
0
0
0
0
0
0
0
0
0
0
0
0
0
0
0
0
0
0
0
0
0
0
0
0
0
0
0
0
0
0
0
0
0
0
0
0
0
0
0
0
0
0
0
0
0
0
0
0
0
0
0
0
0
0
0
0
0
0
0
0
0
0
0
0
0
90
225
225
225
150
0
0
0
0
0
0
0
0
0
0
0
0
0
0
0
0
0
0
0
0
0
0
0
0
0
0
0
0
0
0
0
0
0
0
0
0
0
0
0
0
0
0
0
0
0
0
0
0
0
0
0
0
0
0
0
0
0
0
0
0
0
0
90
225
225
150
0
0
0
0
0
0
0
0
0
0
0
0
0
0
0
0
0
0
0
0
0
0
0
0
0
0
0
0
0
0
0
0
0
0
0
0
0
0
0
0
0
0
0
0
0
0
0
0
0
0
0
0
0
0
0
0
0
30
150
120
0
0
0
0
0
0
0
0
0
0
0
0
0
0
0
0
0
225
0
0
0
0
0
0
0
0
0
0
0
0
0
0
225
0
0
0
0
225
0
0
0
0
0
225
225
225
225
225
225
225
225
225
225
225
225
225
0
0
0
0
0
0
0
0
0
0
0
0
0
0
0
0
0
0
0
0
0
0
0
0
0
0
0
0
0
0
0
0
0
0
0
0
0
0
0
0
0
0
0
0
0
0
0
0
0
0
0
0
0
0
0
0
0
0
0
0
0
0
0
0
0
0
0
0
0
165
225
225
225
210
0
0
0
0
0
0
0
0
0
0
0
0
0
0
0
0
0
0
0
0
0
0
0
0
0
0
0
0
0
0
0
0
0
0
0
0
0
0
0
0
0
0
0
0
0
0
0
0
0
0
0
0
0
0
0
0
0
0
0
0
0
0
90
225
225
150
0
0
0
0
0
0
0
0
0
0
0
0
0
0
0
0
0
0
0
0
0
0
0
0
0
0
0
0
0
0
0
0
0
0
0
0
0
0
0
0
0
0
0
0
0
0
0
0
0
0
0
0
0
0
0
0
0
135
225
225
60
0
0
0
0
0
0
0
0
0
0
0
0
0
0
0
0
225
0
0
0
0
0
0
0
225
0
0
0
0
0
0
0
225
0
0
0
0
225
225
225
225
0
0
225
225
225
225
225
225
225
225
225
0
0
0
225
225
0
0
0
0
0
0
0
0
0
0
0
0
0
0
0
0
0
0
0
0
0
0
0
0
0
0
0
0
0
0
0
0
0
0
0
0
0
0
0
0
0
0
0
0
0
0
0
0
0
0
0
0
0
0
0
0
0
0
0
0
0
0
0
0
0
0
45
210
225
225
225
225
105
0
0
0
0
0
0
0
0
0
0
0
0
0
0
0
0
0
0
0
0
0
0
0
0
0
0
0
0
0
0
0
0
0
0
0
0
0
0
0
0
0
0
0
0
0
0
0
0
0
0
0
0
0
0
0
0
0
0
0
0
0
90
225
225
150
0
0
0
0
0
0
0
0
0
0
0
0
0
0
0
0
0
0
0
0
0
0
0
0
0
0
0
0
0
0
0
0
0
0
0
0
0
0
0
0
0
0
0
0
0
0
0
0
0
0
0
0
0
0
0
0
0
150
225
225
75
0
0
0
0
0
0
0
0
0
0
0
0
0
0
0
0
225
0
0
0
0
0
0
0
0
225
0
0
0
0
0
0
225
225
0
225
225
225
0
0
0
0
0
0
0
225
225
225
225
225
0
225
0
0
0
0
225
225
0
0
0
0
0
0
0
0
0
0
0
0
0
0
0
0
0
0
0
0
0
0
0
0
0
0
0
0
0
0
0
0
0
0
0
0
0
0
0
0
0
0
0
0
0
0
0
0
0
0
0
0
0
0
0
0
0
0
0
0
0
0
0
0
0
150
225
225
150
225
225
180
0
0
0
0
0
0
0
0
0
0
0
0
0
0
0
0
0
0
0
0
0
0
0
0
0
0
0
0
0
0
0
0
0
0
0
0
0
0
0
0
0
0
0
0
0
0
0
0
0
0
0
0
0
0
0
0
0
0
0
0
0
90
225
225
150
0
0
0
0
0
0
0
0
0
0
0
0
0
0
0
0
0
0
0
0
0
0
0
0
0
0
0
0
0
0
0
0
0
0
0
0
0
0
0
0
0
0
0
0
0
0
0
0
0
0
0
0
0
0
0
0
0
150
225
225
75
0
0
0
0
0
0
0
0
0
0
0
0
0
0
0
0
225
0
0
0
0
0
0
0
0
225
0
0
0
0
0
0
225
225
225
0
0
225
0
0
0
0
0
0
225
225
225
0
0
225
225
0
225
0
0
0
0
225
0
0
0
0
0
0
0
0
0
0
0
0
0
0
0
0
0
0
0
0
0
0
0
0
0
0
0
0
0
0
0
0
0
0
0
0
0
0
0
0
0
0
0
0
0
0
0
0
0
0
0
0
0
0
0
0
0
0
0
0
0
0
0
0
0
210
225
210
15
195
225
225
75
0
0
0
0
0
0
0
0
0
0
0
0
0
0
0
0
0
0
0
0
0
0
0
0
0
0
0
0
0
0
0
0
0
0
0
0
0
0
0
0
0
0
0
0
0
0
0
0
0
0
0
0
0
0
0
0
0
0
0
0
90
225
225
150
0
0
0
0
0
0
0
0
0
0
0
0
0
0
0
0
0
0
0
0
0
0
0
0
0
0
0
0
0
0
0
0
0
0
0
0
0
0
0
0
0
0
0
0
0
0
0
0
0
0
0
0
0
0
0
0
0
150
225
225
75
0
0
0
0
0
0
0
0
0
0
0
0
0
0
0
0
225
0
0
0
0
0
0
0
0
0
225
0
0
0
0
0
0
225
0
0
0
0
225
0
0
0
225
225
225
225
225
0
0
225
225
0
0
225
0
0
225
0
0
0
0
0
0
0
0
0
0
0
0
0
0
0
0
0
0
0
0
0
0
0
0
0
0
0
0
0
0
0
0
0
0
0
0
0
0
0
0
0
0
0
0
0
0
0
0
0
0
0
0
0
0
0
0
0
0
0
0
0
0
0
0
0
105
225
225
165
0
120
225
225
165
0
0
0
0
0
0
0
0
0
0
0
0
105
120
15
0
0
0
75
120
135
135
135
120
90
0
0
0
0
0
0
0
0
0
0
0
0
0
0
0
75
120
135
135
135
135
135
120
45
0
0
0
0
0
0
0
0
0
0
0
90
225
225
150
0
0
0
0
0
0
0
0
30
135
105
0
0
0
0
0
0
0
0
0
0
0
0
0
105
135
15
0
0
0
0
0
0
0
0
15
105
135
150
150
150
150
150
150
150
120
90
0
0
0
0
0
0
0
90
135
135
180
225
225
150
135
135
135
135
120
0
0
0
0
0
0
0
0
0
0
0
0
225
0
0
0
0
0
0
0
0
0
225
0
0
0
0
0
225
0
0
0
0
225
0
0
225
225
225
0
225
225
0
0
225
225
0
0
0
225
225
225
0
0
0
0
0
0
0
0
0
0
0
0
0
0
0
0
0
0
0
0
0
0
0
0
0
0
0
0
0
0
0
0
0
0
0
0
0
0
0
0
0
0
0
0
0
0
0
0
0
0
0
0
0
0
0
0
0
0
0
0
0
0
0
0
0
180
225
225
60
0
0
210
225
210
15
0
0
0
0
0
0
0
0
0
0
60
225
225
135
0
135
210
225
225
225
225
225
225
225
210
165
30
0
0
0
0
0
0
0
0
0
45
165
210
225
225
225
225
225
225
225
225
225
195
105
0
0
0
0
0
0
0
0
0
90
225
225
150
0
0
0
0
0
0
0
0
150
225
225
0
0
0
0
0
0
0
0
0
0
0
0
60
225
225
135
0
0
0
0
0
0
0
120
210
225
225
225
225
225
225
225
225
225
225
225
195
90
0
0
0
0
0
210
225
225
225
225
225
225
225
225
225
225
225
90
0
0
0
0
0
0
0
0
0
0
0
0
225
0
0
0
0
0
0
0
0
225
0
0
0
0
0
225
0
0
0
0
225
0
0
0
225
0
225
0
225
0
0
225
225
0
0
0
0
0
0
0
0
0
0
0
0
0
0
0
0
0
0
0
0
0
0
0
0
0
0
0
0
0
0
0
0
0
0
0
0
0
0
0
0
0
0
0
0
0
0
0
0
0
0
0
0
0
0
0
0
0
0
0
0
0
0
0
0
0
0
0
0
0
0
60
225
225
180
0
0
0
150
225
225
135
0
0
0
0
0
0
0
0
0
0
90
225
225
150
195
225
225
225
225
225
225
225
225
225
225
225
195
45
0
0
0
0
0
0
0
60
210
225
225
225
225
225
225
225
225
225
225
225
225
225
135
0
0
0
0
0
0
0
0
90
225
225
150
0
0
0
0
0
0
0
0
165
225
225
30
0
0
0
0
0
0
0
0
0
0
0
90
225
225
150
0
0
0
0
0
0
105
225
225
225
225
225
225
225
225
225
225
225
225
225
225
210
60
0
0
0
0
195
225
225
225
225
225
225
225
225
225
225
225
75
0
0
0
0
0
0
0
0
0
0
0
0
225
0
0
0
0
0
0
0
0
0
225
0
0
0
0
225
0
0
0
0
225
0
0
0
225
225
225
0
225
0
225
225
0
225
0
0
0
0
0
0
0
0
0
0
0
0
0
0
0
0
0
0
0
0
0
0
0
0
0
0
0
0
0
0
0
0
0
0
0
0
0
0
0
0
0
0
0
0
0
0
0
0
0
0
0
0
0
0
0
0
0
0
0
0
0
0
0
0
0
0
0
0
0
165
225
225
105
0
0
0
60
225
225
195
0
0
0
0
0
0
0
0
0
0
90
225
225
225
225
225
180
150
120
105
90
105
120
150
210
225
225
180
0
0
0
0
0
0
0
180
225
225
210
150
120
105
90
90
90
105
135
180
225
225
225
90
0
0
0
0
0
0
0
90
225
225
150
0
0
0
0
0
0
0
0
165
225
225
30
0
0
0
0
0
0
0
0
0
0
0
90
225
225
150
0
0
0
0
0
0
180
225
225
165
105
90
90
90
90
90
90
90
120
180
225
225
150
0
0
0
0
30
90
90
165
225
225
120
90
90
90
90
60
0
0
0
0
0
0
0
0
0
0
0
0
0
0
225
0
0
0
0
0
0
0
0
225
0
0
0
0
225
0
0
0
0
225
0
0
0
225
225
0
0
225
0
225
0
0
225
0
0
0
0
0
0
0
0
0
0
0
0
0
0
0
0
0
0
0
0
0
0
0
0
0
0
0
0
0
0
0
0
0
0
0
0
0
0
0
0
0
0
0
0
0
0
0
0
0
0
0
0
0
0
0
0
0
0
0
0
0
0
0
0
0
0
0
0
15
210
225
210
0
0
0
0
0
180
225
225
90
0
0
0
0
0
0
0
0
0
90
225
225
225
180
45
0
0
0
0
0
0
0
0
45
195
225
225
60
0
0
0
0
0
30
225
225
210
45
0
0
0
0
0
0
0
0
0
135
225
225
180
0
0
0
0
0
0
0
90
225
225
150
0
0
0
0
0
0
0
0
165
225
225
30
0
0
0
0
0
0
0
0
0
0
0
90
225
225
150
0
0
0
0
0
0
210
225
195
0
0
0
0
0
0
0
0
0
0
0
210
225
195
0
0
0
0
0
0
0
150
225
225
75
0
0
0
0
0
0
0
0
0
0
0
0
0
0
0
0
0
0
0
0
225
0
0
0
0
0
0
0
225
0
0
0
0
0
225
0
0
0
225
0
0
0
0
0
0
0
0
225
225
0
0
225
0
0
0
0
0
0
0
0
0
0
0
0
0
0
0
0
0
0
0
0
0
0
0
0
0
0
0
0
0
0
0
0
0
0
0
0
0
0
0
0
0
0
0
0
0
0
0
0
0
0
0
0
0
0
0
0
0
0
0
0
0
0
0
0
0
0
0
0
135
225
225
150
0
0
0
0
0
90
225
225
180
0
0
0
0
0
0
0
0
0
90
225
225
195
15
0
0
0
0
0
0
0
0
0
0
135
225
225
135
0
0
0
0
0
60
225
225
135
0
0
0
0
0
0
0
0
0
0
0
195
225
210
0
0
0
0
0
0
0
90
225
225
150
0
0
0
0
0
0
0
0
165
225
225
30
0
0
0
0
0
0
0
0
0
0
0
90
225
225
150
0
0
0
0
0
30
225
225
165
0
0
0
0
0
0
0
0
0
0
0
135
210
165
0
0
0
0
0
0
0
150
225
225
75
0
0
0
0
0
0
0
0
0
0
0
0
0
0
0
0
0
0
0
0
225
225
0
0
0
0
0
0
0
225
0
0
0
0
225
0
0
0
225
225
225
0
0
0
0
0
0
0
0
0
0
225
0
0
0
0
0
0
0
225
225
225
0
0
0
0
0
0
0
0
0
0
0
0
0
0
0
0
0
0
0
0
0
0
0
0
0
0
0
0
0
0
0
0
0
0
0
0
0
0
0
0
0
0
0
0
0
0
0
0
0
0
0
0
0
0
0
0
0
0
195
225
225
45
0
0
0
0
0
0
195
225
225
45
0
0
0
0
0
0
0
0
90
225
225
165
0
0
0
0
0
0
0
0
0
0
0
45
225
225
165
0
0
0
0
0
0
90
105
0
0
0
0
0
0
0
0
0
0
0
0
165
225
225
30
0
0
0
0
0
0
90
225
225
150
0
0
0
0
0
0
0
0
165
225
225
30
0
0
0
0
0
0
0
0
0
0
0
90
225
225
150
0
0
0
0
0
30
225
225
165
0
0
0
0
0
0
0
0
0
0
0
0
0
0
0
0
0
0
0
0
0
150
225
225
75
0
0
0
0
0
0
0
0
0
0
0
0
0
0
0
0
0
0
0
0
0
0
225
0
0
0
0
0
0
225
0
0
0
0
225
0
225
225
225
0
0
0
0
0
0
0
0
0
0
0
0
225
0
0
0
0
0
0
225
225
0
225
0
0
0
0
0
0
0
0
0
0
0
0
0
0
0
0
0
0
0
0
0
0
0
0
0
0
0
0
0
0
0
0
0
0
0
0
0
0
0
0
0
0
0
0
0
0
0
0
0
0
0
0
0
0
0
0
0
90
225
225
180
0
0
0
0
0
0
0
135
225
225
150
0
0
0
0
0
0
0
0
90
225
225
150
0
0
0
0
0
0
0
0
0
0
0
0
225
225
180
0
0
0
0
0
0
0
0
15
105
150
150
165
165
165
165
165
165
165
165
195
225
225
75
0
0
0
0
0
0
90
225
225
150
0
0
0
0
0
0
0
0
165
225
225
30
0
0
0
0
0
0
0
0
0
0
0
90
225
225
150
0
0
0
0
0
0
210
225
195
0
0
0
0
0
0
0
0
0
0
0
0
0
0
0
0
0
0
0
0
0
150
225
225
75
0
0
0
0
0
0
0
0
0
0
0
0
0
0
0
0
0
0
0
0
0
0
0
225
0
0
0
0
0
225
0
0
0
225
225
225
0
0
225
0
0
0
0
0
0
0
0
0
0
0
0
225
0
0
0
0
0
225
225
225
225
0
0
0
0
0
0
0
0
0
0
0
0
0
0
30
105
135
135
135
135
135
135
120
60
0
0
0
0
0
0
0
0
60
135
45
0
0
0
0
0
0
0
0
0
0
0
0
0
120
105
0
0
0
0
0
0
0
0
165
225
225
90
0
0
0
0
0
0
0
30
210
225
210
0
0
0
0
0
0
0
0
90
225
225
150
0
0
0
0
0
0
0
0
0
0
0
0
210
225
180
0
0
0
0
0
0
0
135
210
225
225
225
225
225
225
225
225
225
225
225
225
225
225
90
0
0
0
0
0
0
90
225
225
150
0
0
0
0
0
0
0
0
165
225
225
30
0
0
0
0
0
0
0
0
0
0
0
90
225
225
150
0
0
0
0
0
0
180
225
225
165
120
105
105
105
105
105
105
105
90
45
0
0
0
0
0
0
0
0
0
0
150
225
225
75
0
0
0
0
0
0
0
0
0
0
0
0
0
0
0
0
0
0
0
0
0
0
0
225
0
0
0
0
0
225
0
0
0
225
225
0
0
0
225
0
0
0
0
0
0
0
0
0
0
0
0
225
0
0
0
0
225
225
225
0
225
0
0
0
0
0
0
0
0
0
0
0
0
75
180
225
225
225
225
225
225
225
225
225
225
195
135
0
0
0
0
0
0
210
225
180
0
0
0
0
0
0
0
0
0
0
0
0
120
225
225
90
0
0
0
0
0
0
45
210
225
195
0
0
0
0
0
0
0
0
0
165
225
225
120
0
0
0
0
0
0
0
90
225
225
150
0
0
0
0
0
0
0
0
0
0
0
0
210
225
180
0
0
0
0
0
0
135
225
225
225
225
225
225
225
225
225
225
225
225
225
225
225
225
90
0
0
0
0
0
0
90
225
225
150
0
0
0
0
0
0
0
0
165
225
225
30
0
0
0
0
0
0
0
0
0
0
0
90
225
225
150
0
0
0
0
0
0
105
225
225
225
225
225
225
225
225
225
225
225
225
225
195
105
0
0
0
0
0
0
0
0
150
225
225
75
0
0
0
0
0
0
0
0
0
0
0
0
0
0
0
0
0
0
0
0
0
0
0
225
0
0
0
0
0
0
225
0
0
0
225
0
0
0
225
0
0
0
0
0
0
0
0
0
0
0
0
225
0
0
0
225
225
225
225
225
0
0
0
0
0
0
0
0
0
0
0
0
90
210
225
225
225
225
225
225
225
225
225
225
225
225
225
165
0
0
0
0
0
195
225
225
60
0
0
0
0
0
0
0
0
0
0
0
195
225
225
75
0
0
0
0
0
0
150
225
225
165
120
120
120
120
120
120
120
120
120
135
225
225
195
0
0
0
0
0
0
0
90
225
225
150
0
0
0
0
0
0
0
0
0
0
0
0
210
225
180
0
0
0
0
0
30
210
225
225
150
90
60
60
60
60
60
60
60
60
60
150
225
225
90
0
0
0
0
0
0
90
225
225
150
0
0
0
0
0
0
0
0
165
225
225
30
0
0
0
0
0
0
0
0
0
0
0
90
225
225
150
0
0
0
0
0
0
0
120
210
225
225
225
225
225
225
225
225
225
225
225
225
225
120
0
0
0
0
0
0
0
150
225
225
75
0
0
0
0
0
0
0
0
0
0
0
0
0
0
0
0
0
0
0
0
0
0
0
0
225
0
0
0
0
0
225
0
0
0
225
0
0
0
225
0
0
0
0
0
0
0
0
0
0
0
0
225
0
0
225
225
225
225
0
225
0
0
0
0
0
0
0
0
0
0
0
0
210
225
225
195
150
105
105
90
90
90
105
120
165
225
225
225
135
0
0
0
0
135
225
225
150
0
0
0
0
0
0
0
0
0
0
105
225
225
180
0
0
0
0
0
0
0
210
225
225
225
225
225
225
225
225
225
225
225
225
225
225
225
225
75
0
0
0
0
0
0
90
225
225
150
0
0
0
0
0
0
0
0
0
0
0
0
210
225
180
0
0
0
0
0
120
225
225
150
0
0
0
0
0
0
0
0
0
0
0
150
225
225
90
0
0
0
0
0
0
90
225
225
150
0
0
0
0
0
0
0
0
165
225
225
30
0
0
0
0
0
0
0
0
0
0
0
90
225
225
150
0
0
0
0
0
0
0
0
0
90
135
135
135
135
135
135
135
135
150
180
225
225
210
0
0
0
0
0
0
0
150
225
225
75
0
0
0
0
0
0
0
0
0
0
0
0
0
0
0
0
0
0
0
0
0
0
0
0
225
0
0
0
0
0
225
0
0
0
225
0
0
0
225
0
0
0
0
0
0
0
0
0
0
0
0
225
0
0
225
225
225
225
225
225
0
0
0
0
0
0
0
0
0
0
0
120
225
225
180
0
0
0
0
0
0
0
0
0
0
90
225
225
195
0
0
0
0
15
210
225
210
15
0
0
0
0
0
0
0
0
0
180
225
225
90
0
0
0
0
0
0
105
225
225
225
225
225
225
225
225
225
225
225
225
225
225
225
225
225
165
0
0
0
0
0
0
90
225
225
150
0
0
0
0
0
0
0
0
0
0
0
0
210
225
180
0
0
0
0
0
150
225
225
75
0
0
0
0
0
0
0
0
0
0
0
150
225
225
90
0
0
0
0
0
0
90
225
225
150
0
0
0
0
0
0
0
0
165
225
225
30
0
0
0
0
0
0
0
0
0
0
0
90
225
225
150
0
0
0
0
0
0
0
0
0
0
0
0
0
0
0
0
0
0
0
0
165
225
225
90
0
0
0
0
0
0
150
225
225
75
0
0
0
0
0
0
0
0
0
0
0
0
0
0
0
0
0
0
0
0
0
0
0
0
225
0
0
0
0
0
0
225
0
0
225
0
0
0
225
0
0
0
0
0
0
0
0
0
0
0
0
225
0
225
0
225
225
225
225
0
0
0
0
0
0
0
0
0
0
0
0
165
225
225
75
0
0
0
0
0
0
0
0
0
0
0
180
225
225
45
0
0
0
0
150
225
225
135
0
0
0
0
0
0
0
0
90
225
225
195
0
0
0
0
0
0
0
180
225
225
135
120
120
120
120
120
120
120
120
120
120
120
120
210
225
210
30
0
0
0
0
0
90
225
225
150
0
0
0
0
0
0
0
0
0
0
0
0
210
225
180
0
0
0
0
0
165
225
225
30
0
0
0
0
0
0
0
0
0
0
0
165
225
225
90
0
0
0
0
0
0
90
225
225
150
0
0
0
0
0
0
0
0
165
225
225
45
0
0
0
0
0
0
0
0
0
0
0
105
225
225
150
0
0
0
0
0
0
0
0
0
0
0
0
0
0
0
0
0
0
0
0
120
225
225
135
0
0
0
0
0
0
150
225
225
90
0
0
0
0
0
0
0
0
0
0
0
0
0
0
0
0
0
0
0
0
0
0
0
0
0
225
0
0
0
0
0
225
0
0
225
0
0
0
225
0
0
0
0
0
0
0
0
0
0
0
0
225
0
225
225
225
225
0
225
0
0
0
0
0
0
0
0
0
0
0
0
195
225
210
0
0
0
0
0
0
0
0
0
0
0
0
135
225
225
105
0
0
0
0
60
225
225
195
0
0
0
0
0
0
0
0
180
225
225
105
0
0
0
0
0
0
60
225
225
195
0
0
0
0
0
0
0
0
0
0
0
0
0
150
225
225
135
0
0
0
0
0
90
225
225
150
0
0
0
0
0
0
0
0
0
0
0
0
210
225
180
0
0
0
0
0
165
225
225
45
0
0
0
0
0
0
0
0
0
0
0
195
225
225
90
0
0
0
0
0
0
75
225
225
150
0
0
0
0
0
0
0
0
150
225
225
105
0
0
0
0
0
0
0
0
0
0
0
150
225
225
150
0
0
0
0
0
30
165
150
0
0
0
0
0
0
0
0
0
0
0
0
105
225
225
135
0
0
0
0
0
0
135
225
225
120
0
0
0
0
0
0
0
0
0
0
0
0
0
0
0
0
0
0
0
0
0
0
0
0
0
225
0
0
0
0
0
225
0
0
225
0
0
0
225
0
0
0
0
0
0
0
0
0
0
0
0
225
225
0
225
0
225
225
0
0
0
0
0
0
0
0
0
0
0
0
0
195
225
195
0
0
0
0
0
0
0
0
0
0
0
0
120
225
225
120
0
0
0
0
0
180
225
225
105
0
0
0
0
0
0
75
225
225
195
0
0
0
0
0
0
0
165
225
225
120
0
0
0
0
0
0
0
0
0
0
0
0
0
45
225
225
195
0
0
0
0
0
90
225
225
150
0
0
0
0
0
0
0
0
0
0
0
0
210
225
180
0
0
0
0
0
150
225
225
105
0
0
0
0
0
0
0
0
0
0
135
225
225
225
90
0
0
0
0
0
0
60
225
225
165
0
0
0
0
0
0
0
0
105
225
225
165
0
0
0
0
0
0
0
0
0
0
75
210
225
225
150
0
0
0
0
0
120
225
225
105
0
0
0
0
0
0
0
0
0
0
0
120
225
225
120
0
0
0
0
0
0
75
225
225
165
0
0
0
0
0
0
0
0
0
0
0
0
0
0
0
0
0
0
0
0
0
0
0
0
0
225
0
0
0
0
0
225
0
0
225
0
0
0
225
0
0
0
0
0
0
0
0
0
0
0
0
225
225
225
225
225
0
225
0
0
0
0
0
0
0
0
0
0
0
0
0
210
225
195
105
105
105
105
105
105
105
105
105
105
105
105
150
225
225
135
0
0
0
0
0
90
225
225
180
0
0
0
0
0
0
165
225
225
120
0
0
0
0
0
0
15
210
225
210
15
0
0
0
0
0
0
0
0
0
0
0
0
0
0
180
225
225
105
0
0
0
0
90
225
225
150
0
0
0
0
0
0
0
0
0
0
0
0
210
225
180
0
0
0
0
0
90
225
225
180
30
0
0
0
0
0
0
0
60
165
225
225
225
225
90
0
0
0
0
0
0
0
210
225
210
45
0
0
0
0
0
0
0
15
210
225
225
105
0
0
0
0
0
0
0
15
120
210
225
225
225
150
0
0
0
0
0
90
225
225
180
0
0
0
0
0
0
0
0
0
0
0
180
225
225
75
0
0
0
0
0
0
0
195
225
225
120
0
0
0
0
0
0
0
0
0
0
0
0
0
0
0
0
0
0
0
0
0
0
0
0
0
225
0
0
0
0
225
0
225
225
225
225
225
225
225
225
0
0
0
0
0
0
0
0
0
0
225
225
225
225
0
225
0
0
0
0
0
0
0
0
0
0
0
0
0
0
210
225
225
225
225
225
225
225
225
225
225
225
225
225
225
225
225
225
135
0
0
0
0
0
0
195
225
225
75
0
0
0
0
60
225
225
210
0
0
0
0
0
0
0
135
225
225
150
0
0
0
0
0
0
0
0
0
0
0
0
0
0
0
90
225
225
180
0
0
0
0
90
225
225
150
0
0
0
0
0
0
0
0
0
0
0
0
210
225
180
0
0
0
0
0
0
195
225
225
210
180
165
165
165
165
180
195
225
225
225
180
225
225
90
0
0
0
0
0
0
0
165
225
225
210
180
165
105
0
0
0
0
0
135
225
225
225
195
180
165
165
165
180
195
210
225
225
195
225
225
150
0
0
0
0
0
0
195
225
225
210
180
165
165
165
165
165
165
165
180
210
225
225
195
0
0
0
0
0
0
0
0
120
225
225
225
210
180
165
135
0
0
0
0
0
0
0
0
0
0
0
0
0
0
0
0
0
0
0
0
0
225
0
0
0
0
225
0
0
0
225
0
0
225
0
0
0
0
0
0
0
0
0
0
0
0
225
225
225
225
225
0
0
0
0
0
0
0
0
0
0
0
0
0
0
0
210
225
225
225
225
225
225
225
225
225
225
225
225
225
225
225
225
225
105
0
0
0
0
0
0
120
225
225
165
0
0
0
0
150
225
225
135
0
0
0
0
0
0
0
180
225
225
60
0
0
0
0
0
0
0
0
0
0
0
0
0
0
0
0
195
225
225
15
0
0
0
90
225
225
150
0
0
0
0
0
0
0
0
0
0
0
0
210
225
180
0
0
0
0
0
0
75
210
225
225
225
225
225
225
225
225
225
225
210
120
150
225
225
90
0
0
0
0
0
0
0
45
195
225
225
225
225
210
0
0
0
0
0
0
150
225
225
225
225
225
225
225
225
225
225
225
180
105
225
225
150
0
0
0
0
0
0
90
210
225
225
225
225
225
225
225
225
225
225
225
225
225
210
90
0
0
0
0
0
0
0
0
0
150
225
225
225
225
225
225
75
0
0
0
0
0
0
0
0
0
0
0
0
0
0
0
0
0
0
0
0
225
0
0
0
0
0
225
0
0
225
0
0
225
0
0
0
0
0
0
0
0
0
0
0
0
225
225
225
225
0
0
0
0
0
0
0
0
0
0
0
0
0
0
0
0
210
225
210
135
135
135
135
135
135
135
135
135
135
135
135
135
135
105
0
0
0
0
0
0
0
0
210
225
210
30
0
0
30
210
225
210
30
0
0
0
0
0
0
0
150
225
165
0
0
0
0
0
0
0
0
0
0
0
0
0
0
0
0
0
120
225
195
0
0
0
0
30
210
210
105
0
0
0
0
0
0
0
0
0
0
0
0
180
225
135
0
0
0
0
0
0
0
45
150
195
210
225
225
225
225
210
195
150
60
0
105
210
210
30
0
0
0
0
0
0
0
0
30
150
195
225
225
180
0
0
0
0
0
0
0
90
165
210
225
225
225
225
225
210
180
120
0
90
225
225
150
0
0
0
0
0
0
0
75
165
210
225
225
225
225
225
225
225
225
225
210
165
75
0
0
0
0
0
0
0
0
0
0
0
75
165
195
210
225
210
45
0
0
0
0
0
0
0
0
0
0
0
0
0
0
0
0
0
0
0
0
225
0
0
0
0
0
225
0
0
225
0
0
225
0
0
0
0
0
0
0
0
0
0
0
0
225
225
225
225
0
0
0
0
0
0
0
0
0
0
0
0
0
0
0
0
210
225
195
0
0
0
0
0
0
0
0
0
0
0
0
0
0
0
0
0
0
0
0
0
0
0
150
225
225
135
0
0
150
225
225
150
0
0
0
0
0
0
0
0
0
0
0
0
0
0
0
0
0
0
0
0
0
0
0
0
0
0
0
0
0
0
0
0
0
0
0
0
0
0
0
0
0
0
0
0
0
0
0
0
0
0
0
0
0
0
0
0
0
0
0
0
0
0
0
0
0
0
0
0
0
0
0
0
0
0
0
0
0
0
0
0
0
0
0
0
0
0
0
0
0
0
0
0
0
0
0
0
0
0
0
0
0
0
0
15
30
15
0
0
0
0
0
90
225
225
150
0
0
0
0
0
0
0
0
0
0
0
0
0
0
0
0
0
0
0
0
0
0
0
0
0
0
0
0
0
0
0
0
0
0
0
0
0
0
0
0
0
0
0
0
0
0
0
0
0
0
0
0
0
0
0
0
0
0
0
0
0
225
0
0
0
0
225
0
0
225
0
0
0
225
0
0
0
0
0
0
0
0
0
0
0
225
225
225
0
0
0
0
0
0
0
0
0
0
0
0
0
0
0
0
0
195
225
195
0
0
0
0
0
0
0
0
0
0
0
0
0
75
90
0
0
0
0
0
0
0
0
45
210
225
195
0
15
210
225
210
45
0
0
0
0
0
0
0
0
0
0
0
0
0
0
0
0
0
0
0
0
0
0
0
0
0
0
0
0
0
0
0
0
0
0
0
0
0
0
0
0
0
0
0
0
0
0
0
0
0
0
0
0
0
0
0
0
0
0
0
0
0
0
0
0
0
0
0
0
0
0
0
0
0
0
0
0
0
0
0
0
0
0
0
0
0
0
0
0
0
0
0
0
0
0
0
0
75
180
150
0
0
0
0
0
0
0
0
0
0
0
0
90
225
225
150
0
0
0
0
0
0
0
0
0
0
0
0
0
0
0
0
0
0
0
0
0
0
0
0
0
0
0
0
0
0
0
0
0
0
0
0
0
0
0
0
0
0
0
0
0
0
0
0
0
0
0
0
0
0
0
0
0
0
0
0
0
225
0
0
0
0
225
0
0
225
0
0
0
225
0
0
0
0
0
0
0
0
0
0
0
225
0
0
0
0
0
0
0
0
0
0
0
0
0
0
0
0
0
0
0
180
225
210
0
0
0
0
0
0
0
0
0
0
0
0
90
225
225
90
0
0
0
0
0
0
0
0
165
225
225
120
135
225
225
165
0
0
0
0
0
0
0
0
0
0
0
0
0
0
0
0
0
0
0
0
0
0
0
0
0
0
0
0
0
0
0
0
0
0
0
0
0
0
0
0
0
0
0
0
0
0
0
0
0
0
0
0
0
0
0
0
0
0
0
0
0
0
0
0
0
0
0
0
0
0
0
0
0
0
0
0
0
0
0
0
0
0
0
0
0
0
0
0
0
0
0
0
0
0
0
0
0
165
225
225
15
0
0
0
0
0
0
0
0
0
0
0
90
225
225
150
0
0
0
0
0
0
0
0
0
0
0
0
0
0
0
0
0
0
0
0
0
0
0
0
0
0
0
0
0
0
0
0
0
0
0
0
0
0
0
0
0
0
0
0
0
0
0
0
0
0
0
0
0
0
0
0
0
0
0
0
0
225
0
0
0
0
225
225
0
225
0
0
0
225
0
0
0
0
0
0
0
0
0
0
225
225
0
0
0
0
0
0
0
0
0
0
0
0
0
0
0
0
0
0
0
150
225
225
105
0
0
0
0
0
0
0
0
0
0
0
165
225
225
90
0
0
0
0
0
0
0
0
75
225
225
180
195
225
225
60
0
0
0
0
0
0
0
0
0
0
0
0
0
0
0
0
0
0
0
0
0
0
0
0
0
0
0
0
0
0
0
0
0
0
0
0
0
0
0
0
0
0
0
0
0
0
0
0
0
0
0
0
0
0
0
0
0
0
0
0
0
0
0
0
0
0
0
0
0
0
0
0
0
0
0
0
0
0
0
0
0
0
0
0
0
0
0
0
0
0
0
0
0
0
0
0
0
150
225
225
60
0
0
0
0
0
0
0
0
0
0
0
105
225
225
135
0
0
0
0
0
0
0
0
0
0
0
0
0
0
0
0
0
0
0
0
0
0
0
0
0
0
0
0
0
0
0
0
0
0
0
0
0
0
0
0
0
0
0
0
0
0
0
0
0
0
0
0
0
0
0
0
0
0
0
0
0
225
0
0
0
0
0
225
0
225
225
0
0
225
0
0
0
0
0
0
0
0
0
0
225
0
0
0
0
0
0
0
0
0
0
0
0
0
0
0
0
0
0
0
0
75
225
225
210
90
0
0
0
0
0
0
0
0
0
120
225
225
210
0
0
0
0
0
0
0
0
0
0
180
225
225
225
225
180
0
0
0
0
0
0
0
0
0
0
0
0
0
0
0
0
0
0
0
0
0
0
0
0
0
0
0
0
0
0
0
0
0
0
0
0
0
0
0
0
0
0
0
0
0
0
0
0
0
0
0
0
0
0
0
0
0
0
0
0
0
0
0
0
0
0
0
0
0
0
0
0
0
0
0
0
0
0
0
0
0
0
0
0
0
0
0
0
0
0
0
0
0
0
0
0
0
0
135
225
225
150
0
0
0
0
0
0
0
0
0
0
0
165
225
225
90
0
0
0
0
0
0
0
0
0
0
0
0
0
0
0
0
0
0
0
0
0
0
0
0
0
0
0
0
0
0
0
0
0
0
0
0
0
0
0
0
0
0
0
0
0
0
0
0
0
0
0
0
0
0
0
0
0
0
0
0
0
225
0
0
0
0
0
225
0
0
225
0
0
225
0
0
0
0
0
0
0
0
0
0
225
0
0
0
0
0
0
0
0
0
0
0
0
0
0
0
0
0
0
0
0
0
165
225
225
225
195
180
165
165
165
165
165
180
195
225
225
225
135
0
0
0
0
0
0
0
0
0
0
120
225
225
225
225
75
0
0
0
0
0
0
0
0
0
0
0
0
0
0
0
0
0
0
0
0
0
0
0
0
0
0
0
0
0
0
0
0
0
0
0
0
0
0
0
0
0
0
0
0
0
0
0
0
0
0
0
0
0
0
0
0
0
0
0
0
0
0
0
0
0
0
0
0
0
0
0
0
0
0
0
0
0
0
0
0
0
0
0
0
0
0
0
0
0
0
0
0
0
0
0
0
0
0
45
210
225
225
195
165
165
165
165
165
165
165
165
165
195
225
225
210
0
0
0
0
0
0
0
0
0
0
0
0
0
0
0
0
0
0
0
0
0
0
0
0
0
0
0
0
0
0
0
0
0
0
0
0
0
0
0
0
0
0
0
0
0
0
0
0
0
0
0
0
0
0
0
0
0
0
0
0
0
0
225
0
0
0
0
0
225
0
0
225
0
0
225
0
0
0
0
0
0
0
0
0
0
225
0
0
0
0
0
0
0
0
0
0
0
0
0
0
0
0
0
0
0
0
0
30
180
225
225
225
225
225
225
225
225
225
225
225
225
225
165
0
0
0
0
0
0
0
0
0
0
0
0
195
225
225
180
0
0
0
0
0
0
0
0
0
0
0
0
0
0
0
0
0
0
0
0
0
0
0
0
0
0
0
0
0
0
0
0
0
0
0
0
0
0
0
0
0
0
0
0
0
0
0
0
0
0
0
0
0
0
0
0
0
0
0
0
0
0
0
0
0
0
0
0
0
0
0
0
0
0
0
0
0
0
0
0
0
0
0
0
0
0
0
0
0
0
0
0
0
0
0
0
0
0
0
0
135
225
225
225
225
225
225
225
225
225
225
225
225
225
225
225
120
0
0
0
0
0
0
0
0
0
0
0
0
0
0
0
0
0
0
0
0
0
0
0
0
0
0
0
0
0
0
0
0
0
0
0
0
0
0
0
0
0
0
0
0
0
0
0
0
0
0
0
0
0
0
0
0
0
0
0
0
0
0
225
0
0
0
0
0
225
0
0
225
0
0
225
0
0
0
0
0
0
0
0
0
0
225
0
0
0
0
0
0
0
0
0
0
0
0
0
0
0
0
0
0
0
0
0
0
0
105
180
210
225
225
225
225
225
225
210
195
165
90
0
0
0
0
0
0
0
0
0
0
0
0
0
105
210
210
90
0
0
0
0
0
0
0
0
0
0
0
0
0
0
0
0
0
0
0
0
0
0
0
0
0
0
0
0
0
0
0
0
0
0
0
0
0
0
0
0
0
0
0
0
0
0
0
0
0
0
0
0
0
0
0
0
0
0
0
0
0
0
0
0
0
0
0
0
0
0
0
0
0
0
0
0
0
0
0
0
0
0
0
0
0
0
0
0
0
0
0
0
0
0
0
0
0
0
0
0
0
105
180
210
225
225
225
225
225
225
225
225
225
210
180
90
0
0
0
0
0
0
0
0
0
0
0
0
0
0
0
0
0
0
0
0
0
0
0
0
0
0
0
0
0
0
0
0
0
0
0
0
0
0
0
0
0
0
0
0
0
0
0
0
0
0
0
0
0
0
0
0
0
0
0
0
0
0
0
225
0
0
0
0
0
225
0
0
225
0
0
225
0
0
0
0
0
0
0
0
0
0
225
0
0
0
0
0
0
0
0
0
0
0
0
0
0
0
0
0
0
0
0
0
0
0
0
0
0
0
0
0
0
0
0
0
0
0
0
0
0
0
0
0
0
0
0
0
0
0
0
0
0
0
0
0
0
0
0
0
0
0
0
0
0
0
0
0
0
0
0
0
0
0
0
0
0
0
0
0
0
0
0
0
0
0
0
0
0
0
0
0
0
0
0
0
0
0
0
0
0
0
0
0
0
0
0
0
0
0
0
0
0
0
0
0
0
0
0
0
0
0
0
0
0
0
0
0
0
0
0
0
0
0
0
0
0
0
0
0
0
0
0
0
0
0
0
0
0
0
0
0
0
0
0
0
0
0
0
0
0
0
0
0
0
0
0
0
0
0
0
0
0
0
0
0
0
0
0
0
0
0
0
0
0
0
0
0
0
0
0
0
0
0
0
0
0
0
0
0
0
0
0
0
0
0
0
0
0
0
0
0
0
0
0
0
0
0
0
0
0
0
0
0
0
0
0
0
0
0
0
0
0
0
0
225
0
0
0
0
0
225
0
0
225
0
0
225
0
0
0
0
0
0
0
0
0
0
225
0
0
0
0
0
0
0
0
0
0
0
0
0
0
0
0
0
0
0
0
0
0
0
0
0
0
0
0
0
0
0
0
0
0
0
0
0
0
0
0
0
0
0
0
0
0
0
0
0
0
0
0
0
0
0
0
0
0
0
0
0
0
0
0
0
0
0
0
0
0
0
0
0
0
0
0
0
0
0
0
0
0
0
0
0
0
0
0
0
0
0
0
0
0
0
0
0
0
0
0
0
0
0
0
0
0
0
0
0
0
0
0
0
0
0
0
0
0
0
0
0
0
0
0
0
0
0
0
0
0
0
0
0
0
0
0
0
0
0
0
0
0
0
0
0
0
0
0
0
0
0
0
0
0
0
0
0
0
0
0
0
0
0
0
0
0
0
0
0
0
0
0
0
0
0
0
0
0
0
0
0
0
0
0
0
0
0
0
0
0
0
0
0
0
0
0
0
0
0
0
0
0
0
0
0
0
0
0
0
0
0
0
0
0
0
0
0
0
0
0
0
0
0
0
0
0
0
0
0
0
0
225
0
0
0
0
0
0
225
225
0
225
0
0
225
0
0
0
0
0
0
0
0
0
225
0
0
0
0
0
0
0
0
0
0
0
0
0
0
0
0
0
0
0
0
0
0
0
0
0
0
0
0
0
0
0
0
0
0
0
0
0
0
0
0
0
0
0
0
0
0
0
0
0
0
0
0
0
0
0
0
0
0
0
0
0
0
0
0
0
0
0
0
0
0
0
0
0
0
0
0
0
0
0
0
0
0
0
0
0
0
0
0
0
0
0
0
0
0
0
0
0
0
0
0
0
0
0
0
0
0
0
0
0
0
0
0
0
0
0
0
0
0
0
0
0
0
0
0
0
0
0
0
0
0
0
0
0
0
0
0
0
0
0
0
0
0
0
0
0
0
0
0
0
0
0
0
0
0
0
0
0
0
0
0
0
0
0
0
0
0
0
0
0
0
0
0
0
0
0
0
0
0
0
0
0
0
0
0
0
0
0
0
0
0
0
0
0
0
0
0
0
0
0
0
0
0
0
0
0
0
0
0
0
0
0
0
0
0
0
0
0
0
0
0
0
0
0
0
0
0
0
0
0
0
0
225
0
0
0
0
0
0
0
0
225
0
225
0
225
225
0
0
0
0
0
0
0
0
0
225
0
0
0
0
0
0
0
0
0
0
0
0
0
0
0
0
0
0
0
0
0
0
0
0
0
0
0
0
0
0
0
0
0
0
0
0
0
0
0
0
0
0
0
0
0
0
0
0
0
0
0
0
0
0
0
0
0
0
0
0
0
0
0
0
0
0
0
0
0
0
0
0
0
0
0
0
0
0
0
0
0
0
0
0
0
0
0
0
0
0
0
0
0
0
0
0
0
0
0
0
0
0
0
0
0
0
0
0
0
0
0
0
0
0
0
0
0
0
0
0
0
0
0
0
0
0
0
0
0
0
0
0
0
0
0
0
0
0
0
0
0
0
0
0
0
0
0
0
0
0
0
0
0
0
0
0
0
0
0
0
0
0
0
0
0
0
0
0
0
0
0
0
0
0
0
0
0
0
0
0
0
0
0
0
0
0
0
0
0
0
0
0
0
0
0
0
0
0
0
0
0
0
0
0
0
0
0
0
0
0
0
0
0
0
0
0
0
0
0
0
0
0
0
0
0
0
0
0
0
0
225
225
0
0
0
0
0
0
0
225
225
0
225
0
225
0
0
0
0
0
0
0
0
0
0
225
0
0
0
0
0
0
0
0
0
0
0
0
0
0
0
0
0
0
0
0
0
0
0
0
0
0
0
0
0
0
0
0
0
0
0
0
0
0
0
0
0
0
0
0
0
0
0
0
0
0
0
0
0
0
0
0
0
0
0
0
0
0
0
0
0
0
0
0
0
0
0
0
0
0
0
0
0
0
0
0
0
0
0
0
0
0
0
0
0
0
0
0
0
0
0
0
0
0
0
0
0
0
0
0
0
0
0
0
0
0
0
0
0
0
0
0
0
0
0
0
0
0
0
0
0
0
0
0
0
0
0
0
0
0
0
0
0
0
0
0
0
0
0
0
0
0
0
0
0
0
0
0
0
0
0
0
0
0
0
0
0
0
0
0
0
0
0
0
0
0
0
0
0
0
0
0
0
0
0
0
0
0
0
0
0
0
0
0
0
0
0
0
0
0
0
0
0
0
0
0
0
0
0
0
0
0
0
0
0
0
0
0
0
0
0
0
0
0
0
0
0
0
0
0
0
0
0
0
0
0
225
0
0
0
0
0
0
0
0
0
225
225
225
225
225
225
225
0
0
0
0
0
0
0
0
225
0
0
0
0
0
0
0
0
0
0
0
0
0
0
0
0
0
0
0
0
0
0
0
0
0
0
0
0
0
0
0
0
0
0
0
0
0
0
0
0
0
0
0
0
0
0
0
0
0
0
0
0
0
0
0
0
0
0
0
0
0
0
0
0
0
0
0
0
0
0
0
0
0
0
0
0
0
0
0
0
0
0
0
0
0
0
0
0
0
0
0
0
0
0
0
0
0
0
0
0
0
0
0
0
0
0
0
0
0
0
0
0
0
0
0
0
0
0
0
0
0
0
0
0
0
0
0
0
0
0
0
0
0
0
0
0
0
0
0
0
0
0
0
0
0
0
0
0
0
0
0
0
0
0
0
0
0
0
0
0
0
0
0
0
0
0
0
0
0
0
0
0
0
0
0
0
0
0
0
0
0
0
0
0
0
0
0
0
0
0
0
0
0
0
0
0
0
0
0
0
0
0
0
0
0
0
0
0
0
0
0
0
0
0
0
0
0
0
0
0
0
0
0
0
0
0
0
0
0
225
0
0
0
0
0
0
0
0
0
0
225
0
225
0
225
0
0
0
0
0
0
0
0
0
0
225
0
0
0
0
0
0
0
0
0
0
0
0
0
0
0
0
0
0
0
0
0
0
0
0
0
0
0
0
0
0
0
0
0
0
0
0
0
0
0
0
0
0
0
0
0
0
0
0
0
0
0
0
0
0
0
0
0
0
0
0
0
0
0
0
0
0
0
0
0
0
0
0
0
0
0
0
0
0
0
0
0
0
0
0
0
0
0
0
0
0
0
0
0
0
0
0
0
0
0
0
0
0
0
0
0
0
0
0
0
0
0
0
0
0
0
0
0
0
0
0
0
0
0
0
0
0
0
0
0
0
0
0
0
0
0
0
0
0
0
0
0
0
0
0
0
0
0
0
0
0
0
0
0
0
0
0
0
0
0
0
0
0
0
0
0
0
0
0
0
0
0
0
0
0
0
0
0
0
0
0
0
0
0
0
0
0
0
0
0
0
0
0
0
0
0
0
0
0
0
0
0
0
0
0
0
0
0
0
0
0
0
0
0
0
0
0
0
0
0
0
0
0
0
0
0
0
0
0
0
225
0
0
0
0
0
0
0
0
0
0
225
0
0
0
225
0
0
0
0
0
0
0
0
0
0
225
0
0
0
0
0
0
0
0
0
0
0
0
0
0
0
0
0
0
0
0
0
0
0
0
0
0
0
0
0
0
0
0
0
0
0
0
0
0
0
0
0
0
0
0
0
0
0
0
0
0
0
0
0
0
0
0
0
0
0
0
0
0
0
0
0
0
0
0
0
0
0
0
0
0
0
0
0
0
0
0
0
0
0
0
0
0
0
0
0
0
0
0
0
0
0
0
0
0
0
0
0
0
0
0
0
0
0
0
0
0
0
0
0
0
0
0
0
0
0
0
0
0
0
0
0
0
0
0
0
0
0
0
0
0
0
0
0
0
0
0
0
0
0
0
0
0
0
0
0
0
0
0
0
0
0
0
0
0
0
0
0
0
0
0
0
0
0
0
0
0
0
0
0
0
0
0
0
0
0
0
0
0
0
0
0
0
0
0
0
0
0
0
0
0
0
0
0
0
0
0
0
0
0
0
0
0
0
0
0
0
0
0
0
0
0
0
0
0
0
0
0
0
0
0
0
0
0
0
0
225
0
0
0
0
0
0
0
0
0
0
225
0
0
0
225
0
0
0
0
0
0
0
0
0
0
225
0
0
0
0
0
0
0
0
0
0
0
0
0
0
0
0
0
0
0
0
0
0
0
0
0
0
0
0
0
0
0
0
0
0
0
0
0
0
0
0
0
0
0
0
0
0
0
0
0
0
0
0
0
0
0
0
0
0
0
0
0
0
0
0
0
0
0
0
0
0
0
0
0
0
0
0
0
0
0
0
0
0
0
0
0
0
0
0
0
0
0
0
0
0
0
0
0
0
0
0
0
0
0
0
0
0
0
0
0
0
0
0
0
0
0
0
0
0
0
0
0
0
0
0
0
0
0
0
0
0
0
0
0
0
0
0
0
0
0
0
0
0
0
0
0
0
0
0
0
0
0
0
0
0
0
0
0
0
0
0
0
0
0
0
0
0
0
0
0
0
0
0
0
0
0
0
0
0
0
0
0
0
0
0
0
0
0
0
0
0
0
0
0
0
0
0
0
0
0
0
0
0
0
0
0
0
0
0
0
0
0
0
0
0
0
0
0
0
0
0
0
0
0
0
0
0
0
0
0
225
0
0
0
0
0
0
0
0
0
0
225
0
0
0
225
0
0
0
0
0
0
0
0
0
225
0
0
0
0
0
0
0
0
0
0
0
0
0
0
0
0
0
0
0
0
0
0
0
0
0
0
0
0
0
0
0
0
0
0
0
0
0
0
0
0
0
0
0
0
0
0
0
0
0
0
0
0
0
0
0
0
0
0
0
0
0
0
0
0
0
0
0
0
0
0
0
0
0
0
0
0
0
0
0
0
0
0
0
0
0
0
0
0
0
0
0
0
0
0
0
0
0
0
0
0
0
0
0
0
0
0
0
0
0
0
0
0
0
0
0
0
0
0
0
0
0
0
0
0
0
0
0
0
0
0
0
0
0
0
0
0
0
0
0
0
0
0
0
0
0
0
0
0
0
0
0
0
0
0
0
0
0
0
0
0
0
0
0
0
0
0
0
0
0
0
0
0
0
0
0
0
0
0
0
0
0
0
0
0
0
0
0
0
0
0
0
0
0
0
0
0
0
0
0
0
0
0
0
0
0
0
0
0
0
0
0
0
0
0
0
0
0
0
0
0
0
0
0
0
0
0
0
0
0
0
225
0
0
0
0
0
0
0
0
0
0
0
0
0
0
225
0
0
0
0
0
0
0
0
0
225
0
0
0
0
0
0
0
0
0
0
0
0
0
0
0
0
0
0
0
0
0
0
0
0
0
0
0
0
0
0
0
0
0
0
0
0
0
0
0
0
0
0
0
0
0
0
0
0
0
0
0
0
0
0
0
0
0
0
0
0
0
0
0
0
0
0
0
0
0
0
0
0
0
0
0
0
0
0
0
0
0
0
0
0
0
0
0
0
0
0
0
0
0
0
0
0
0
0
0
0
0
0
0
0
0
0
0
0
0
0
0
0
0
0
0
0
0
0
0
0
0
0
0
0
0
0
0
0
0
0
0
0
0
0
0
0
0
0
0
0
0
0
0
0
0
0
0
0
0
0
0
0
0
0
0
0
0
0
0
0
0
0
0
0
0
0
0
0
0
0
0
0
0
0
0
0
0
0
0
0
0
0
0
0
0
0
0
0
0
0
0
0
0
0
0
0
0
0
0
0
0
0
0
0
0
0
0
0
0
0
0
0
0
0
0
0
0
0
0
0
0
0
0
0
0
0
0
0
0
0
225
0
0
0
0
0
0
0
0
0
0
0
0
0
225
0
0
0
0
0
0
0
0
0
0
225
0
0
0
0
0
0
0
0
0
0
0
0
0
0
0
0
0
0
0
0
0
0
0
0
0
0
0
0
0
0
0
0
0
0
0
0
0
0
0
0
0
0
0
0
0
0
0
0
0
0
0
0
0
0
0
0
0
0
0
0
0
0
0
0
0
0
0
0
0
0
0
0
0
0
0
0
0
0
0
0
0
0
0
0
0
0
0
0
0
0
0
0
0
0
0
0
0
0
0
0
0
0
0
0
0
0
0
0
0
0
0
0
0
0
0
0
0
0
0
0
0
0
0
0
0
0
0
0
0
0
0
0
0
0
0
0
0
0
0
0
0
0
0
0
0
0
0
0
0
0
0
0
0
0
0
0
0
0
0
0
0
0
0
0
0
0
0
0
0
0
0
0
0
0
0
0
0
0
0
0
0
0
0
0
0
0
0
0
0
0
0
0
0
0
0
0
0
0
0
0
0
0
0
0
0
0
0
0
0
0
0
0
0
0
0
0
0
0
0
0
0
0
0
0
0
0
0
0
0
0
225
0
0
0
0
0
0
0
0
0
0
0
0
0
0
0
0
0
0
0
0
0
0
0
0
225
0
0
0
0
0
0
0
0
0
0
0
0
0
0
0
0
0
0
0
0
0
0
0
0
0
0
0
0
0
0
0
0
0
0
0
0
0
0
0
0
0
0
0
0
0
0
0
0
0
0
0
0
0
0
0
0
0
0
0
0
0
0
0
0
0
0
0
0
0
0
0
0
0
0
0
0
0
0
0
0
0
0
0
0
0
0
0
0
0
0
0
0
0
0
0
0
0
0
0
0
0
0
0
0
0
0
0
0
0
0
0
0
0
0
0
0
0
0
0
0
0
0
0
0
0
0
0
0
0
0
0
0
0
0
0
0
0
0
0
0
0
0
0
0
0
0
0
0
0
0
0
0
0
0
0
0
0
0
0
0
0
0
0
0
0
0
0
0
0
0
0
0
0
0
0
0
0
0
0
0
0
0
0
0
0
0
0
0
0
0
0
0
0
0
0
0
0
0
0
0
0
0
0
0
0
0
225
225
225
225
225
225
225
225
0
0
0
0
0
0
0
0
0
0
0
0
0
0
0
0
0
225
0
0
0
0
0
0
0
0
0
0
0
0
0
0
0
0
0
0
0
0
0
0
0
225
0
0
0
0
0
0
0
0
0
0
0
0
0
0
0
0
0
0
0
0
0
0
0
0
0
0
0
0
0
0
0
0
0
0
0
0
0
0
0
0
0
0
0
0
0
0
0
0
0
0
0
0
0
0
0
0
0
0
0
0
0
0
0
0
0
0
0
0
0
0
0
0
0
0
0
0
0
0
0
0
0
0
0
0
0
0
0
0
0
0
0
0
0
0
0
0
0
0
0
0
0
0
0
0
0
0
0
0
0
0
0
0
0
0
0
0
0
0
0
0
0
0
0
0
0
0
0
0
0
0
0
0
0
0
0
0
0
0
0
0
0
0
0
0
0
0
0
0
0
0
0
0
0
0
0
0
0
0
0
0
0
0
0
0
0
0
0
0
0
0
0
0
0
0
0
0
0
0
0
0
0
0
0
0
0
0
0
0
0
0
0
0
0
0
0
225
225
225
225
225
225
225
225
225
225
225
0
0
0
0
0
0
0
225
225
225
0
0
0
0
0
0
0
0
0
0
0
0
0
0
0
0
225
0
0
0
0
0
0
0
0
0
0
0
0
0
0
0
0
0
0
0
0
0
0
225
0
0
0
0
0
0
0
0
0
0
0
0
0
0
0
0
0
0
0
0
0
0
0
0
0
0
0
0
0
0
0
0
0
0
0
0
0
0
0
0
0
0
0
0
0
0
0
0
0
0
0
0
0
0
0
0
0
0
0
0
0
0
0
0
0
0
0
0
0
0
0
0
0
0
0
0
0
0
0
0
225
225
225
225
225
225
225
225
225
225
225
225
225
225
0
0
0
0
0
0
0
0
0
0
0
0
0
0
0
0
0
0
0
0
0
0
0
0
0
0
0
0
0
225
225
225
225
225
225
225
225
225
225
225
225
0
0
0
0
0
0
0
0
0
0
0
0
0
0
0
0
0
0
0
0
0
0
225
225
225
225
225
225
225
225
225
225
225
225
225
225
0
0
0
0
0
0
0
0
0
0
0
0
0
0
0
0
0
0
225
225
225
225
225
225
0
0
0
0
0
0
0
0
0
0
0
0
0
0
0
0
0
0
0
0
0
225
225
225
0
0
0
0
0
0
0
0
0
0
0
0
0
225
0
0
0
0
0
0
0
0
0
0
0
0
0
0
0
0
0
0
0
0
0
0
225
0
0
0
0
0
0
0
0
0
0
0
0
0
0
0
0
0
0
0
0
0
0
0
0
0
0
0
0
0
0
0
0
0
0
0
0
225
225
225
225
225
225
225
225
225
225
225
0
0
0
0
0
0
0
0
0
0
0
0
0
0
0
0
0
0
0
0
0
0
0
225
225
225
225
225
225
225
225
225
225
0
0
0
0
0
0
0
0
0
0
0
0
0
0
225
225
0
0
0
0
0
0
0
0
0
0
0
0
0
0
0
0
0
0
0
0
0
0
225
225
225
225
225
225
0
0
0
0
0
0
0
0
0
0
0
225
225
0
0
0
0
0
0
0
0
0
0
0
0
0
0
0
0
0
225
225
225
0
0
0
0
0
0
0
0
0
0
0
0
0
225
225
0
0
0
0
0
0
0
0
0
0
0
0
0
0
225
225
225
0
0
0
0
0
0
0
0
0
0
0
0
0
0
0
0
0
0
0
0
0
0
0
0
0
0
0
0
0
0
225
225
0
0
0
0
0
0
0
0
0
0
0
0
225
0
0
0
0
0
0
0
0
0
0
0
0
0
0
0
0
0
0
0
0
0
225
0
0
0
0
0
0
0
0
0
0
0
0
0
0
0
0
0
0
0
0
0
0
0
0
0
0
0
0
0
0
225
225
225
225
225
225
0
0
0
0
0
0
0
0
0
0
0
225
225
225
0
0
0
0
0
0
0
0
0
0
0
0
0
225
225
225
225
225
225
225
0
0
0
0
0
0
0
0
0
0
0
0
0
0
0
0
0
0
0
0
0
0
0
0
0
0
225
225
0
0
0
0
0
0
0
0
0
0
0
0
0
0
0
225
225
225
225
225
0
0
0
0
0
0
0
0
0
0
0
0
0
0
0
0
0
0
0
225
225
0
0
0
0
0
0
0
0
0
0
0
0
225
225
225
0
0
0
0
0
0
0
0
0
0
0
0
0
0
0
0
0
0
225
225
225
0
0
0
0
0
0
0
0
225
225
225
0
0
0
0
0
0
0
0
0
0
0
0
0
0
0
0
0
0
0
0
0
0
0
0
0
0
0
0
0
0
0
0
0
0
0
225
225
0
0
0
0
0
0
0
0
0
0
0
225
0
0
0
0
0
0
0
0
0
0
0
0
0
0
0
0
0
0
0
0
225
0
0
0
0
0
0
0
0
0
0
0
0
0
0
0
0
0
0
0
0
0
0
0
0
0
0
0
0
225
225
0
0
0
0
0
0
0
0
0
0
0
0
0
0
0
0
0
0
0
0
225
225
0
0
0
0
0
0
0
0
0
0
225
225
0
0
0
0
0
0
0
0
0
0
0
0
0
0
0
0
0
0
0
0
0
0
0
0
0
0
0
0
0
0
0
0
0
0
225
0
0
0
0
0
0
0
0
0
0
0
225
225
225
0
0
0
0
0
0
0
0
0
0
0
0
0
0
0
0
0
0
0
0
0
0
0
0
0
0
225
225
225
0
0
0
0
0
0
225
225
225
0
0
0
0
0
0
0
0
0
0
0
0
0
0
0
0
0
0
0
0
0
0
0
0
225
225
225
225
225
225
225
225
225
0
0
0
0
0
0
0
0
0
0
0
0
0
0
0
0
0
0
0
0
0
0
0
0
0
0
0
0
0
0
0
0
0
0
0
0
0
0
0
225
225
0
0
0
0
0
0
0
0
0
0
0
0
0
0
0
0
0
0
0
0
0
0
0
0
0
0
0
0
0
0
225
0
0
0
0
0
0
0
0
0
0
0
0
0
0
0
0
0
0
0
0
0
0
0
0
0
0
225
225
0
0
0
0
0
0
0
0
0
0
0
0
0
0
0
0
0
0
0
0
0
0
0
0
225
225
225
225
225
225
225
225
225
225
0
0
0
0
0
0
0
0
0
0
0
0
0
0
0
0
0
0
0
0
0
0
0
0
0
0
0
0
0
0
0
0
0
0
0
0
0
225
225
0
0
0
0
0
0
225
225
225
0
0
0
0
0
0
0
0
0
0
0
0
0
0
0
0
0
0
0
0
0
0
0
0
0
0
0
0
0
0
0
225
225
225
225
225
225
225
0
0
0
0
0
0
0
0
0
0
0
0
0
0
0
0
0
0
0
0
0
0
0
0
0
0
0
0
0
0
0
0
0
0
0
0
0
0
0
0
0
0
0
0
0
0
0
0
0
0
0
0
0
0
0
0
0
0
0
0
0
0
0
0
0
0
0
0
0
0
0
0
0
0
0
0
225
225
225
0
0
0
0
0
0
0
0
0
0
0
0
0
0
0
0
0
0
0
0
0
0
0
0
0
0
0
0
0
0
0
0
0
0
0
0
0
0
0
0
0
0
0
0
0
0
0
0
0
0
0
0
0
0
225
0
0
0
0
0
0
0
0
0
0
0
0
0
0
0
0
0
0
0
0
0
0
0
0
0
0
0
0
0
0
0
0
0
0
0
0
0
0
0
0
0
0
0
0
0
0
0
0
0
0
0
0
0
0
0
0
0
0
0
0
0
0
0
0
0
0
0
0
0
0
0
0
0
0
0
225
225
225
225
225
225
0
0
0
0
0
0
0
0
0
0
0
0
0
0
0
0
0
0
0
0
0
0
0
0
0
0
0
0
0
0
0
0
0
0
0
0
0
0
0
0
0
0
0
0
0
0
0
0
0
0
0
0
0
0
0
0
0
0
0
0
0
0
0
0
0
0
0
0
0
0
0
0
0
0
0
0
0
0
0
0
0
0
0
0
0
0
0
0
0
0
0
0
0
0
0
0
0
0
0
0
0
0
0
0
0
0
0
0
0
0
0
0
0
0
0
0
0
0
0
0
225
225
225
225
225
225
225
225
225
225
225
0
0
0
0
0
0
0
0
0
0
