P2
# Created by GIMP version 2.10.22 PNM plug-in
256 64
255
0
0
0
0
0
0
0
0
0
0
0
0
0
0
0
0
0
0
0
0
0
0
0
0
0
0
0
0
0
0
0
0
0
0
0
0
0
0
0
0
0
0
0
0
0
0
0
0
0
0
0
0
0
0
0
0
0
0
0
0
0
0
0
0
0
0
0
0
0
0
0
0
0
0
0
0
0
0
0
0
0
0
0
0
0
0
0
0
0
0
0
0
0
0
0
0
0
0
0
0
0
0
0
0
0
0
0
0
0
0
0
0
0
0
0
0
0
0
0
0
0
0
0
0
0
0
0
0
0
0
0
0
0
0
0
0
0
0
0
0
0
0
0
0
0
0
0
0
0
0
0
0
0
0
0
0
0
0
0
0
0
0
0
0
0
0
0
0
0
0
0
0
0
0
0
0
0
0
0
0
0
0
0
0
0
0
0
0
0
0
0
0
0
0
0
0
0
0
0
0
0
0
0
0
0
0
0
0
0
0
0
0
0
0
0
0
0
0
0
0
0
0
0
0
0
0
0
0
0
0
0
0
0
0
0
0
0
0
0
0
0
77
255
255
255
255
255
255
255
255
255
255
255
255
255
255
0
0
0
0
0
0
0
0
0
0
0
0
0
0
0
0
0
0
0
0
0
0
0
0
0
0
0
0
0
0
0
0
0
0
0
0
0
0
0
0
0
0
0
0
0
0
0
0
0
0
0
0
0
0
0
0
0
0
0
0
0
0
0
0
0
0
0
0
0
0
0
0
0
0
0
0
0
0
0
0
0
0
0
0
0
0
0
0
0
0
0
0
0
0
0
0
0
0
0
0
0
0
0
0
0
0
0
112
0
0
0
0
0
0
0
0
0
0
0
0
0
0
0
0
0
0
0
0
0
0
0
0
0
0
0
0
0
0
0
0
0
0
0
0
0
0
0
0
0
0
0
0
0
0
0
0
0
0
0
0
0
0
0
0
0
0
0
0
0
0
0
0
0
0
0
0
0
0
0
0
0
0
0
0
0
0
0
0
0
0
0
0
0
0
0
0
0
0
0
0
0
0
0
0
0
0
0
0
0
0
0
0
0
0
0
0
0
0
0
0
0
0
0
0
0
0
0
0
0
0
0
0
0
0
0
0
0
0
0
0
0
0
199
255
255
255
255
255
255
255
255
255
255
255
255
255
0
0
0
171
247
255
255
255
255
253
209
28
0
0
0
0
0
0
0
79
226
255
255
255
255
255
255
255
255
255
255
255
255
255
255
255
254
215
53
0
0
0
0
169
247
255
255
254
254
254
254
253
253
253
253
252
252
252
252
251
245
155
0
0
0
0
0
0
0
0
255
244
0
0
0
0
0
246
251
0
0
242
255
255
255
255
255
255
181
0
0
0
255
244
0
0
0
0
0
248
251
0
0
0
0
0
0
112
0
0
0
0
0
0
0
0
0
0
0
0
0
0
0
0
0
0
0
0
0
0
0
0
0
0
0
0
0
0
0
0
0
0
0
0
0
0
0
0
0
0
0
0
0
0
0
0
0
0
0
0
0
0
0
0
0
0
0
0
0
0
0
0
0
0
0
0
0
0
0
0
0
0
0
0
0
0
0
0
0
0
0
0
0
0
0
0
0
0
0
0
0
242
255
254
253
253
252
251
178
0
0
0
242
255
255
255
255
255
255
181
0
0
0
0
190
252
233
98
237
246
170
0
0
0
0
0
0
0
0
0
0
0
0
0
0
0
0
0
0
0
0
0
0
0
0
0
0
0
22
246
255
255
255
255
255
255
255
138
0
0
0
0
0
0
0
184
255
255
255
255
255
255
255
255
255
255
255
255
255
255
255
255
255
255
155
0
0
0
0
244
255
255
255
255
255
255
255
255
255
255
255
255
255
255
255
255
255
244
13
0
0
0
0
0
0
0
255
244
0
0
0
0
0
247
251
0
0
255
255
254
246
246
246
253
253
192
0
0
255
244
0
0
0
0
0
248
251
0
0
0
0
0
0
112
0
0
0
0
0
0
0
0
0
0
0
0
0
0
0
0
0
0
0
0
0
0
0
0
0
0
0
0
0
0
0
0
0
0
0
0
0
0
0
0
0
0
0
0
0
0
0
0
0
0
0
0
0
0
0
0
0
0
0
0
0
0
0
0
0
0
0
0
0
0
0
0
0
0
0
0
0
0
0
0
0
0
0
0
0
0
0
0
0
0
0
0
0
255
255
254
246
246
246
253
253
192
0
0
255
255
254
246
246
246
253
253
192
0
0
179
252
255
255
250
255
255
249
171
0
0
0
0
0
0
0
0
0
0
0
202
255
255
255
255
255
255
255
255
255
255
255
255
0
0
46
255
255
255
255
255
255
255
255
158
0
0
0
0
0
0
59
242
255
255
255
255
255
255
255
255
255
255
255
255
255
255
255
255
255
255
170
0
0
0
0
255
255
255
255
255
255
255
255
255
255
255
255
255
255
255
255
255
255
255
138
0
0
0
0
0
0
0
255
245
0
0
0
46
179
255
246
0
0
255
249
69
0
0
0
85
254
250
0
0
255
244
0
0
0
0
0
248
251
0
0
0
0
0
0
112
0
0
0
0
0
0
0
0
0
0
0
0
0
0
0
0
0
0
0
0
0
0
0
0
0
0
0
0
0
0
0
0
0
0
0
0
0
0
0
0
0
0
0
0
0
0
0
0
0
0
0
0
0
0
0
0
0
0
0
0
0
0
0
0
0
0
0
0
0
0
0
0
0
0
0
0
0
0
0
0
0
0
0
0
0
0
0
0
0
0
0
0
0
255
249
69
0
0
0
85
254
250
0
0
255
249
69
0
0
0
85
254
250
0
0
255
254
112
219
255
209
122
255
251
0
0
0
0
0
0
0
0
0
0
0
105
247
255
255
255
255
255
255
255
255
255
255
255
0
0
13
243
255
255
255
255
255
255
255
158
0
0
0
0
83
191
238
255
255
255
255
255
255
255
255
255
255
255
255
255
255
255
255
255
255
255
137
0
0
0
0
243
255
255
255
255
255
255
255
255
255
255
255
255
255
255
255
255
255
255
250
200
112
0
0
0
0
0
255
253
83
0
22
188
255
235
96
0
0
255
242
0
0
0
0
0
248
250
0
0
255
245
0
0
0
0
0
248
251
0
0
0
0
0
0
112
0
0
0
0
0
0
0
0
0
0
0
0
0
0
0
0
0
0
0
0
0
0
0
0
0
0
0
0
0
0
0
0
0
0
0
0
0
0
0
0
0
0
0
0
0
0
0
0
0
0
0
0
0
0
0
0
0
0
0
0
0
0
0
0
0
0
0
0
0
0
0
0
0
0
0
0
0
0
0
0
0
0
0
0
0
0
0
0
0
0
0
0
0
255
242
0
0
0
0
0
248
250
0
0
255
242
0
0
0
0
0
248
250
0
0
255
243
0
186
255
172
0
249
251
0
0
0
0
0
0
0
0
0
0
0
0
0
0
0
0
0
0
0
0
0
0
0
0
0
0
0
149
238
255
255
255
255
255
255
158
0
0
0
0
231
255
255
255
255
255
245
232
229
229
229
229
229
229
229
229
229
229
229
229
228
188
0
0
0
0
0
134
215
224
224
224
224
224
224
224
224
224
224
224
224
226
235
254
255
255
255
255
254
96
0
0
0
0
255
255
254
250
252
255
241
126
0
0
0
255
251
66
0
0
0
81
253
250
0
0
255
254
105
0
0
0
119
255
251
0
0
0
0
0
0
112
0
0
0
0
0
0
0
0
0
0
0
0
0
0
0
0
187
251
254
213
13
0
0
0
0
0
0
0
0
0
0
34
224
255
248
173
0
0
0
0
0
0
0
169
248
255
255
255
255
255
255
255
255
255
255
255
255
255
248
173
0
0
0
0
0
0
0
169
248
255
255
255
255
255
255
255
255
255
255
250
161
0
0
0
0
0
0
0
0
0
0
0
0
255
251
66
0
0
0
79
253
250
0
0
255
251
66
0
0
0
81
253
250
0
0
255
242
0
185
255
170
0
248
251
0
0
0
0
0
0
0
0
0
0
0
0
98
247
255
255
255
255
255
255
255
255
255
255
0
0
0
0
13
138
251
255
255
255
255
158
0
0
0
0
255
255
255
255
255
163
0
0
0
0
0
0
0
0
0
0
0
0
0
0
0
0
0
0
0
0
0
0
0
0
0
0
0
0
0
0
0
0
0
0
0
0
0
93
238
255
255
255
255
163
0
0
0
0
255
255
255
255
255
255
235
120
0
0
0
255
255
251
245
244
245
253
251
180
0
0
255
255
255
255
255
255
255
255
251
0
0
0
0
0
0
112
0
0
0
0
0
0
0
0
0
0
0
0
0
0
0
0
251
255
255
255
118
0
0
0
0
0
0
0
0
0
0
138
255
255
255
242
0
0
0
0
0
0
46
245
255
255
255
255
255
255
255
255
255
255
255
255
255
255
255
242
0
0
0
0
0
0
46
245
255
255
255
255
255
255
255
255
255
255
255
255
241
0
0
0
0
0
0
0
0
0
0
0
0
255
255
251
244
244
245
253
255
189
0
0
255
255
251
245
244
245
253
251
180
0
0
255
242
0
185
255
170
0
248
251
0
0
0
0
0
0
0
0
0
0
0
0
0
196
255
255
255
255
255
255
255
255
255
255
0
0
0
0
0
0
212
255
255
255
255
158
0
0
0
0
255
255
255
255
244
13
0
0
0
0
0
0
0
0
0
0
0
0
0
0
0
0
0
0
0
0
0
0
0
0
0
0
0
0
0
0
0
0
0
0
0
0
0
0
186
255
255
255
255
164
0
0
0
0
255
252
112
0
53
205
255
220
22
0
0
255
255
255
255
255
255
255
184
0
0
0
255
255
255
250
250
250
255
255
251
0
0
0
0
0
0
112
0
0
0
0
0
0
0
0
0
0
0
0
0
0
0
0
255
255
255
255
128
0
0
0
0
0
0
0
0
0
0
148
255
255
255
246
0
0
0
0
0
34
187
255
255
255
255
255
255
255
255
255
255
255
255
255
255
255
255
245
0
0
0
0
0
34
187
255
255
255
255
255
255
255
255
255
255
255
255
255
255
170
22
0
0
0
0
0
0
0
0
0
0
255
255
255
255
255
255
255
253
173
0
0
255
255
255
255
255
255
255
184
0
0
0
255
242
0
184
255
170
0
248
251
0
0
0
0
0
0
0
0
0
0
0
0
0
0
0
0
0
0
0
0
0
0
0
0
0
0
0
0
0
0
190
255
255
255
255
158
0
0
0
0
255
255
255
255
227
0
0
0
0
0
0
0
0
0
0
0
0
0
0
0
0
0
0
0
0
0
0
0
0
0
0
0
0
0
0
0
0
0
0
0
0
0
0
0
165
255
255
255
255
164
0
0
0
0
255
243
0
0
0
93
231
255
231
0
0
255
252
112
0
0
0
0
0
0
0
0
255
251
86
0
0
0
98
255
251
0
0
0
0
0
0
112
0
0
0
0
0
0
0
0
0
0
0
0
0
0
0
0
255
255
255
255
128
0
0
0
0
0
0
0
0
0
0
148
255
255
255
246
0
0
0
0
174
249
255
255
255
255
255
255
255
255
255
255
255
255
255
255
255
255
255
205
0
0
0
0
174
249
255
255
255
255
255
255
255
255
255
255
255
255
255
255
255
255
239
155
0
0
0
0
0
0
0
0
0
255
252
112
0
0
0
119
255
249
0
0
255
252
112
0
0
0
0
0
0
0
0
255
242
0
98
182
85
0
248
251
0
0
0
0
0
0
0
0
0
0
0
0
0
0
213
255
255
255
255
255
255
255
255
255
0
0
0
0
0
0
185
255
255
255
255
158
0
0
0
0
255
255
255
255
222
0
0
0
0
0
0
0
0
0
0
0
0
0
0
0
0
0
0
0
0
0
0
0
0
0
0
0
0
0
0
0
0
0
0
0
0
0
0
0
158
255
255
255
255
164
0
0
0
0
255
242
0
0
0
0
61
254
251
0
0
255
243
0
0
0
0
0
0
0
0
0
255
243
0
0
0
0
0
248
251
0
0
0
0
0
0
112
0
0
0
0
0
0
0
0
0
0
0
0
0
0
0
0
255
255
255
255
128
0
0
0
0
0
0
0
0
0
0
148
255
255
255
246
0
0
0
0
251
255
255
255
245
174
144
136
136
136
136
136
136
136
136
136
136
136
124
13
0
0
0
0
251
255
255
255
245
175
144
136
136
136
136
136
136
145
182
248
255
255
255
238
0
0
0
0
0
0
0
0
0
255
243
0
0
0
0
0
249
250
0
0
255
243
0
0
0
0
0
0
0
0
0
255
242
0
0
0
0
0
248
251
0
0
0
0
0
0
0
0
0
0
0
0
0
0
153
255
255
255
255
255
255
255
255
255
0
0
0
0
0
0
185
255
255
255
255
158
0
0
0
0
255
255
255
255
222
0
0
0
0
0
0
0
0
0
0
0
0
0
0
0
0
0
0
0
0
0
0
0
0
0
0
0
0
0
0
0
0
0
0
0
0
0
0
0
158
255
255
255
255
164
0
0
0
0
255
242
0
0
0
0
0
248
251
0
0
255
242
0
0
0
0
0
0
0
0
0
255
242
0
0
0
0
0
248
251
0
0
0
0
0
0
112
0
0
0
0
0
0
0
0
0
0
0
0
0
0
0
0
255
255
255
255
128
0
0
0
0
0
0
0
0
0
0
148
255
255
255
246
0
0
0
0
255
255
255
255
175
0
0
0
0
0
0
0
0
0
0
0
0
0
0
0
0
0
0
0
255
255
255
255
175
0
0
0
0
0
0
0
0
0
0
185
255
255
255
246
0
0
0
0
0
0
0
0
0
255
242
0
0
0
0
0
248
250
0
0
255
242
0
0
0
0
0
0
0
0
0
255
242
0
0
0
0
0
248
251
0
0
0
0
0
0
0
0
0
0
0
0
0
0
0
0
0
0
0
0
0
0
0
0
0
0
0
0
0
0
185
255
255
255
255
158
0
0
0
0
255
255
255
255
223
0
0
0
0
0
0
0
0
0
0
0
0
0
0
0
0
0
0
0
0
0
0
0
0
0
0
0
0
0
0
0
0
0
0
0
0
0
0
0
159
255
255
255
255
164
0
0
0
0
255
242
0
0
0
0
0
248
251
0
0
255
242
0
0
0
0
0
0
0
0
0
255
242
0
0
0
0
0
248
251
0
0
0
0
0
0
112
0
0
0
0
0
0
0
0
0
0
0
0
0
0
0
0
255
255
255
255
128
0
0
0
0
0
0
0
0
0
0
148
255
255
255
246
0
0
0
0
255
255
255
255
136
0
0
0
0
0
0
0
0
0
0
0
0
0
0
0
0
0
0
0
255
255
255
255
136
0
0
0
0
0
0
0
0
0
0
155
255
255
255
246
0
0
0
0
0
0
0
0
0
255
242
0
0
0
0
0
248
250
0
0
255
242
0
0
0
0
0
0
0
0
0
255
242
0
0
0
0
0
248
251
0
0
0
0
0
0
0
0
0
0
0
0
0
0
0
195
255
255
255
255
255
255
255
255
0
0
0
0
0
0
185
255
255
255
255
158
0
0
0
0
255
255
255
255
228
0
0
0
0
0
0
0
0
0
0
0
0
0
0
0
0
0
0
0
0
0
0
0
0
0
0
0
0
0
0
0
0
0
0
0
0
0
0
0
169
255
255
255
255
164
0
0
0
0
0
0
0
0
0
0
0
0
0
0
0
0
0
0
0
0
0
0
0
0
0
0
0
0
0
0
0
0
0
0
0
0
0
0
0
0
0
112
0
0
0
0
0
0
0
0
0
0
0
0
0
0
0
0
255
255
255
255
128
0
0
0
0
0
0
0
0
0
0
148
255
255
255
246
0
0
0
0
255
255
255
255
128
0
0
0
0
0
0
0
0
0
0
0
0
0
0
0
0
0
0
0
255
255
255
255
128
0
0
0
0
0
0
0
0
0
0
148
255
255
255
246
0
0
0
0
0
0
0
0
0
0
0
0
0
0
0
0
0
0
0
0
0
0
0
0
0
0
0
0
0
0
0
0
0
0
0
0
0
0
0
0
0
0
0
0
0
0
0
0
0
0
0
0
0
0
0
134
255
255
255
255
255
255
255
255
0
0
0
0
0
0
185
255
255
255
255
158
0
0
0
0
255
255
255
255
246
22
0
0
0
0
0
0
0
0
0
0
0
0
0
0
0
0
0
0
0
0
0
0
0
0
0
0
0
0
0
0
0
0
0
0
0
0
0
0
200
255
255
255
255
164
0
0
0
0
0
0
0
0
0
0
0
0
0
0
0
0
0
0
0
0
0
0
0
0
0
0
0
0
0
0
0
0
0
0
0
0
0
0
0
0
0
112
0
0
0
0
0
0
0
0
0
0
0
0
0
0
0
0
255
255
255
255
128
0
0
0
0
0
0
0
0
0
0
148
255
255
255
246
0
0
0
0
255
255
255
255
128
0
0
0
0
0
0
0
0
0
0
0
0
0
0
0
0
0
0
0
255
255
255
255
128
0
0
0
0
0
0
0
0
0
0
148
255
255
255
246
0
0
0
0
0
0
0
0
0
0
0
0
0
0
0
0
0
0
0
0
0
0
0
0
0
0
0
0
0
0
0
0
0
0
0
0
0
0
0
0
0
0
0
0
0
0
0
0
0
0
0
0
0
0
0
0
0
0
0
0
0
0
0
0
0
0
0
0
0
0
185
255
255
255
255
158
0
0
0
0
255
255
255
255
255
198
101
34
0
0
0
0
0
0
0
0
0
0
0
0
0
0
0
0
0
0
0
0
0
0
0
0
0
0
0
0
0
0
0
0
0
0
69
150
247
255
255
255
255
163
0
0
0
0
0
0
0
0
0
0
0
0
0
0
0
0
0
0
0
0
0
0
0
0
0
0
0
0
0
0
0
0
0
0
0
0
0
0
0
0
0
112
0
0
0
0
0
0
0
0
0
0
0
0
0
0
0
0
255
255
255
255
135
0
0
0
0
0
0
0
0
0
0
155
255
255
255
246
0
0
0
0
255
255
255
255
132
0
0
0
0
0
0
0
0
0
0
0
0
0
0
0
0
0
0
0
255
255
255
255
132
0
0
0
0
0
0
0
0
0
0
153
255
255
255
246
0
0
0
0
0
0
0
0
0
0
0
0
0
0
0
0
0
0
0
0
0
0
0
0
0
0
0
0
0
0
0
0
0
0
0
0
0
0
0
0
0
0
0
0
0
0
0
0
0
0
0
0
0
0
0
0
199
255
255
255
255
255
255
255
0
0
0
0
0
0
185
255
255
255
255
158
0
0
0
0
255
255
255
255
255
255
255
255
255
255
255
255
255
255
255
255
255
249
161
0
0
0
0
0
0
0
0
0
0
0
77
227
255
255
255
255
255
255
255
255
255
255
255
255
255
255
255
255
250
102
0
0
0
0
0
0
0
0
0
0
0
0
0
0
228
255
255
255
255
255
255
255
255
255
255
250
136
0
0
0
0
0
0
0
0
0
0
0
0
0
0
112
0
0
0
0
0
0
0
0
0
0
0
0
0
0
0
0
255
255
255
255
167
0
0
0
0
0
0
0
0
0
0
189
255
255
255
246
0
0
0
0
255
255
255
255
156
0
0
0
0
0
0
0
0
0
0
0
0
0
0
0
0
0
0
0
255
255
255
255
157
0
0
0
0
0
0
0
0
0
0
178
255
255
255
246
0
0
0
0
0
0
0
0
0
0
0
0
0
0
0
0
0
0
0
0
227
255
255
253
169
0
0
0
28
233
255
255
255
255
255
255
251
147
0
0
0
0
0
0
0
0
0
0
0
0
0
0
0
0
0
0
149
255
255
255
255
255
255
255
0
0
0
0
0
0
185
255
255
255
255
158
0
0
0
0
255
255
255
255
255
255
255
255
255
255
255
255
255
255
255
255
255
255
246
22
0
0
0
0
0
0
0
0
0
0
178
255
255
255
255
255
255
255
255
255
255
255
255
255
255
255
253
194
104
0
0
0
0
0
0
0
0
0
0
0
0
0
0
0
255
255
255
255
255
255
255
255
255
255
255
255
175
0
0
0
0
0
0
0
0
0
0
0
0
0
0
112
0
0
0
0
0
0
0
0
0
0
0
0
0
0
0
0
248
255
255
255
243
177
142
136
136
136
136
136
136
144
178
247
255
255
255
246
0
0
0
0
255
255
255
255
228
120
38
0
0
0
0
0
0
0
0
0
0
0
0
0
0
0
0
0
254
255
255
255
229
120
38
0
0
0
0
0
0
46
121
236
255
255
255
245
0
0
0
0
0
0
0
0
0
0
0
0
0
0
0
0
0
0
0
0
255
255
255
255
207
0
0
22
186
255
255
255
255
255
255
255
255
233
96
0
0
0
0
0
0
0
0
0
0
0
0
0
0
0
0
0
0
0
0
0
0
0
0
0
0
0
0
0
0
0
185
255
255
255
255
158
0
0
0
0
255
255
255
255
255
255
255
255
255
255
255
255
255
255
255
255
255
255
255
145
0
0
0
0
0
0
0
0
0
0
192
255
255
255
255
255
255
255
255
255
255
255
255
255
255
255
226
0
0
0
0
0
0
0
0
0
0
0
0
0
0
0
0
0
255
255
255
235
215
214
214
214
214
214
214
209
95
0
0
0
0
0
0
0
0
0
0
0
0
0
0
112
0
0
0
0
0
0
0
0
0
0
0
0
0
0
0
0
168
243
255
255
255
255
255
255
255
255
255
255
255
255
255
255
255
255
255
246
0
0
0
0
255
255
255
255
255
255
255
255
255
255
255
255
255
255
255
250
161
0
0
0
0
0
0
0
214
255
255
255
255
255
255
255
255
255
255
255
255
255
255
255
255
255
255
202
0
0
0
0
0
0
0
0
0
0
0
0
0
0
0
0
0
0
0
0
190
251
255
255
207
0
0
230
255
255
233
213
212
212
212
217
251
255
252
140
0
0
0
0
0
0
0
0
0
0
0
0
0
0
0
0
0
222
255
255
255
255
255
255
0
0
0
0
0
0
185
255
255
255
255
158
0
0
0
0
255
255
255
255
255
255
255
255
255
255
255
255
255
255
255
255
255
255
255
251
205
118
0
0
0
0
0
0
0
0
176
255
255
255
255
255
255
255
255
255
255
255
255
255
255
255
255
204
115
0
0
0
0
0
0
0
0
0
0
0
0
0
0
0
255
255
233
13
0
0
0
0
0
0
0
0
0
0
0
0
0
0
0
0
0
0
0
0
0
0
0
112
0
0
0
0
0
0
0
0
0
0
0
0
0
0
0
0
0
38
187
255
255
255
255
255
255
255
255
255
255
255
255
255
255
255
255
246
0
0
0
0
255
255
255
255
255
255
255
255
255
255
255
255
255
255
255
255
241
0
0
0
0
0
0
0
28
149
245
255
255
255
255
255
255
255
255
255
255
255
255
255
255
235
136
0
0
0
0
0
0
0
0
0
0
0
0
0
0
0
0
0
0
0
0
0
0
140
255
255
207
0
0
255
255
231
0
0
0
0
0
0
161
255
255
176
0
0
0
0
0
0
0
0
0
0
0
0
0
0
0
0
0
187
255
255
255
255
255
255
0
0
0
0
0
0
185
255
255
255
255
158
0
0
0
0
255
255
255
255
255
255
243
231
229
229
229
229
229
229
229
236
254
255
255
255
255
255
108
0
0
0
0
0
0
0
77
211
244
244
244
244
244
244
244
244
244
245
251
255
255
255
255
255
250
104
0
0
0
0
0
0
0
0
0
0
0
0
0
0
255
255
209
0
0
0
0
0
0
0
0
0
0
0
0
0
0
0
0
0
0
0
0
0
0
0
0
112
0
0
0
0
0
0
0
0
0
0
0
0
0
0
0
0
0
0
42
251
255
255
255
255
255
255
255
255
255
255
255
255
255
255
255
246
0
0
0
0
255
255
255
255
255
255
255
255
255
255
255
255
255
255
255
255
255
170
22
0
0
0
0
0
0
28
224
255
255
255
255
255
255
255
255
255
255
255
255
255
255
217
34
0
0
0
0
0
0
0
0
0
0
0
0
0
0
0
0
0
0
0
0
0
0
71
255
255
207
0
0
255
255
208
0
0
0
0
0
0
122
255
255
176
0
0
0
0
0
0
0
0
0
0
0
0
0
0
0
0
0
0
0
0
0
0
0
0
0
0
0
0
0
0
185
255
255
255
255
158
0
0
0
0
255
255
255
255
255
152
0
0
0
0
0
0
0
0
0
0
86
235
255
255
255
255
170
0
0
0
0
0
0
0
0
0
0
0
0
0
0
0
0
0
0
0
0
131
242
255
255
255
255
163
0
0
0
0
0
0
0
0
0
0
0
0
0
0
255
255
207
0
0
0
0
0
0
0
0
0
0
0
0
0
0
0
0
0
0
0
0
0
0
0
0
112
0
0
0
0
0
0
0
0
0
0
0
0
0
0
0
0
0
0
0
179
252
255
255
255
255
255
255
255
255
255
255
255
255
255
255
246
0
0
0
0
255
255
255
255
255
255
255
255
255
255
255
255
255
255
255
255
255
255
239
154
0
0
0
0
163
246
255
255
255
255
255
255
255
255
255
255
255
255
255
255
255
255
244
152
0
0
0
0
0
0
0
0
0
0
0
0
0
0
0
0
0
0
0
0
0
59
255
255
207
0
0
255
255
207
0
0
0
0
0
0
119
255
255
176
0
0
0
0
0
0
0
0
0
0
0
0
0
0
0
0
0
73
255
255
255
255
255
255
0
0
0
0
0
0
185
255
255
255
255
158
0
0
0
0
255
255
255
255
240
0
0
0
0
0
0
0
0
0
0
0
0
182
255
255
255
255
170
0
0
0
0
0
0
0
0
0
0
0
0
0
0
0
0
0
0
0
0
0
189
255
255
255
255
164
0
0
0
0
0
0
0
0
0
0
0
0
0
0
255
255
214
0
0
0
0
0
0
0
0
0
0
0
0
0
0
0
0
0
0
0
0
0
0
0
0
112
0
0
0
0
0
0
0
0
0
0
0
0
0
0
0
0
0
0
0
0
0
0
0
0
0
0
0
0
0
53
132
236
255
255
255
246
0
0
0
0
255
255
255
255
243
173
143
136
136
136
136
136
136
144
182
247
255
255
255
238
0
0
0
0
250
255
255
255
248
189
163
158
158
158
158
158
158
164
197
251
255
255
255
239
0
0
0
0
0
0
0
0
0
243
200
0
0
0
0
206
239
0
0
0
0
59
255
255
207
0
0
255
255
207
0
0
0
0
0
0
119
255
255
176
0
0
0
0
0
0
0
0
0
0
0
0
0
0
0
0
0
0
235
255
255
255
255
255
0
0
0
0
0
0
185
255
255
255
255
158
0
0
0
0
255
255
255
255
226
0
0
0
0
0
0
0
0
0
0
0
0
162
255
255
255
255
170
0
0
0
0
0
0
0
0
0
0
0
0
0
0
0
0
0
0
0
0
0
167
255
255
255
255
164
0
0
0
0
0
0
0
0
0
0
0
0
0
0
254
255
243
106
0
0
0
0
0
0
0
0
0
0
0
0
0
0
0
0
0
0
0
0
0
0
0
112
0
0
0
0
0
0
0
0
0
0
0
0
0
0
0
0
0
0
0
0
0
0
0
0
0
0
0
0
0
0
0
173
255
255
255
246
0
0
0
0
255
255
255
255
173
0
0
0
0
0
0
0
0
0
0
182
255
255
255
246
0
0
0
0
255
255
255
255
178
0
0
0
0
0
0
0
0
0
0
188
255
255
255
246
0
0
0
0
0
0
0
0
0
255
216
0
0
0
0
220
251
0
0
0
0
59
255
255
207
0
0
255
255
207
0
0
0
0
0
0
119
255
255
176
0
0
0
0
0
0
0
0
0
0
0
0
0
0
0
0
0
0
0
0
0
0
0
0
0
0
0
0
0
0
185
255
255
255
255
158
0
0
0
0
255
255
255
255
222
0
0
0
0
0
0
0
0
0
0
0
0
158
255
255
255
255
170
0
0
0
0
0
0
0
0
0
0
0
0
0
0
0
0
0
0
0
0
0
161
255
255
255
255
164
0
0
0
0
0
0
0
0
0
0
0
0
0
0
185
250
255
255
255
255
255
255
255
251
147
0
0
0
0
0
0
0
0
0
0
0
0
0
0
0
0
112
0
0
0
0
0
0
0
0
0
0
0
0
0
0
0
0
0
0
0
0
0
0
0
0
0
0
0
0
0
0
0
151
255
255
255
246
0
0
0
0
255
255
255
255
135
0
0
0
0
0
0
0
0
0
0
154
255
255
255
246
0
0
0
0
255
255
255
255
137
0
0
0
0
0
0
0
0
0
0
155
255
255
255
246
0
0
0
0
0
0
0
0
0
255
217
0
0
0
0
222
251
0
0
0
0
59
255
255
207
0
0
255
255
207
0
0
0
0
0
0
119
255
255
176
0
0
0
0
0
0
0
0
0
0
0
0
0
0
0
0
0
0
181
255
255
255
255
255
0
0
0
0
0
0
185
255
255
255
255
158
0
0
0
0
255
255
255
255
222
0
0
0
0
0
0
0
0
0
0
0
0
158
255
255
255
255
170
0
0
0
0
0
0
0
0
0
0
0
0
0
0
0
0
0
0
0
0
0
161
255
255
255
255
164
0
0
0
0
0
0
0
0
0
0
0
0
0
0
0
122
255
255
255
255
255
255
255
255
233
96
0
0
0
0
0
0
0
0
0
0
0
0
0
0
0
112
0
0
0
0
0
0
0
0
0
0
0
0
0
0
0
0
0
0
0
0
0
0
0
0
0
0
0
0
0
0
0
148
255
255
255
246
0
0
0
0
255
255
255
255
128
0
0
0
0
0
0
0
0
0
0
148
255
255
255
246
0
0
0
0
255
255
255
255
128
0
0
0
0
0
0
0
0
0
0
148
255
255
255
246
0
0
0
0
0
0
0
0
0
253
239
69
0
0
149
248
246
0
0
0
0
59
255
255
207
0
0
255
255
207
0
0
0
0
0
0
119
255
255
176
0
0
0
0
0
0
0
0
0
0
0
0
0
0
0
0
0
0
148
255
255
255
255
255
0
0
0
0
0
0
185
255
255
255
255
158
0
0
0
0
255
255
255
255
225
0
0
0
0
0
0
0
0
0
0
0
0
163
255
255
255
255
170
0
0
0
0
0
0
0
0
0
0
0
0
0
0
0
0
0
0
0
0
0
166
255
255
255
255
164
0
0
0
0
0
0
0
0
0
0
0
0
0
0
0
0
181
212
212
212
212
212
216
250
255
252
140
0
0
0
0
0
0
0
0
0
0
0
0
0
0
112
0
0
0
0
0
0
0
0
0
0
0
0
0
0
0
0
0
0
0
0
0
0
0
0
0
0
0
0
0
0
0
148
255
255
255
246
0
0
0
0
255
255
255
255
128
0
0
0
0
0
0
0
0
0
0
148
255
255
255
246
0
0
0
0
255
255
255
255
128
0
0
0
0
0
0
0
0
0
0
148
255
255
255
246
0
0
0
0
0
0
0
0
0
151
250
247
112
121
254
242
93
0
0
0
0
59
255
255
207
0
0
255
255
207
0
0
0
0
0
0
119
255
255
176
0
0
0
0
0
0
0
0
0
0
0
0
0
0
0
0
0
0
0
0
0
0
0
0
0
0
0
0
0
0
185
255
255
255
255
158
0
0
0
0
255
255
255
255
238
0
0
0
0
0
0
0
0
0
0
0
0
185
255
255
255
255
170
0
0
0
0
0
0
0
0
0
0
0
0
0
0
0
0
0
0
0
0
0
189
255
255
255
255
164
0
0
0
0
0
0
0
0
0
0
0
0
0
0
0
0
0
0
0
0
0
0
0
158
255
255
176
0
0
0
0
0
0
0
0
0
0
0
0
0
0
112
0
0
0
0
0
0
0
0
0
0
0
0
0
0
0
0
0
0
0
0
0
0
0
0
0
0
0
0
0
0
0
148
255
255
255
246
0
0
0
0
255
255
255
255
135
0
0
0
0
0
0
0
0
0
0
155
255
255
255
246
0
0
0
0
255
255
255
255
134
0
0
0
0
0
0
0
0
0
0
155
255
255
255
246
0
0
0
0
0
0
0
0
0
0
185
254
255
255
247
138
0
0
0
0
0
59
255
255
207
0
0
255
255
207
0
0
0
0
0
0
119
255
255
176
0
0
0
0
0
0
0
0
0
0
0
0
0
0
0
0
0
0
0
252
255
255
255
255
0
0
0
0
0
0
185
255
255
255
255
158
0
0
0
0
255
255
255
255
255
153
13
0
0
0
0
0
0
0
0
0
83
237
255
255
255
255
170
0
0
0
0
0
0
0
0
0
0
0
0
0
0
0
0
0
0
0
0
86
238
255
255
255
255
164
0
0
0
0
0
0
0
0
0
0
0
0
0
0
0
0
0
0
0
0
0
0
0
121
255
255
176
0
0
0
0
0
0
0
0
0
0
0
0
0
0
112
0
0
0
0
0
0
0
0
0
0
0
0
0
0
0
0
0
0
0
0
0
0
0
0
0
0
0
0
0
0
0
148
255
255
255
246
0
0
0
0
255
255
255
255
167
0
0
0
0
0
0
0
0
0
0
189
255
255
255
246
0
0
0
0
255
255
255
255
165
0
0
0
0
0
0
0
0
0
0
187
255
255
255
246
0
0
0
0
0
0
0
0
0
0
143
249
255
255
252
177
0
0
0
0
0
59
255
255
207
0
0
255
255
207
0
0
0
0
0
0
119
255
255
176
0
0
0
0
0
0
0
0
0
0
0
0
0
0
0
0
0
0
0
236
255
255
255
255
0
0
0
0
0
0
185
255
255
255
255
158
0
0
0
0
226
255
255
255
255
255
245
231
229
229
229
229
229
229
229
236
253
255
255
255
255
255
129
0
0
0
0
142
220
229
229
229
229
229
229
229
229
229
229
229
229
229
237
254
255
255
255
255
254
121
0
0
0
0
0
215
254
255
215
0
0
0
0
0
0
0
0
0
0
0
0
0
0
120
255
255
176
0
0
0
0
0
0
0
0
0
0
0
0
0
0
112
0
0
0
0
0
0
0
0
0
0
0
0
0
0
0
0
0
0
0
0
0
0
0
0
0
0
0
0
0
0
0
148
255
255
255
246
0
0
0
0
248
255
255
255
243
177
143
136
136
136
136
136
136
144
178
248
255
255
255
242
0
0
0
0
248
255
255
255
241
173
139
132
132
132
132
132
132
140
175
246
255
255
255
242
0
0
0
0
0
0
0
0
0
99
245
252
114
125
250
249
160
0
0
0
0
59
255
255
207
0
0
255
255
209
0
0
0
0
0
0
121
255
255
176
0
0
0
0
0
0
0
0
0
0
0
0
0
0
0
0
0
0
0
0
0
0
0
0
0
0
0
0
0
0
185
255
255
255
255
158
0
0
0
0
77
180
241
255
255
255
255
255
255
255
255
255
255
255
255
255
255
255
255
252
212
142
0
0
0
0
0
240
255
255
255
255
255
255
255
255
255
255
255
255
255
255
255
255
255
255
251
211
138
0
0
0
0
0
155
255
255
255
255
155
0
0
0
0
0
0
0
0
0
0
0
0
0
159
255
255
176
0
0
0
0
0
0
0
0
0
0
0
0
0
0
112
0
0
0
0
0
0
0
0
0
0
0
0
0
0
0
0
0
0
0
0
0
0
0
0
0
0
0
0
0
0
0
148
255
255
255
246
0
0
0
0
170
243
255
255
255
255
255
255
255
255
255
255
255
255
255
255
255
255
248
164
0
0
0
0
170
243
255
255
255
255
255
255
255
255
255
255
255
255
255
255
255
255
248
164
0
0
0
0
0
0
0
0
0
250
247
146
0
0
81
244
249
0
0
0
0
59
255
255
207
0
0
255
255
229
0
0
0
0
0
0
160
255
255
176
0
0
0
0
0
0
0
0
0
0
0
0
0
0
0
0
0
0
0
203
255
255
255
255
0
0
0
0
0
0
185
255
255
255
255
158
0
0
0
0
0
0
59
238
255
255
255
255
255
255
255
255
255
255
255
255
255
255
255
158
0
0
0
0
0
0
0
255
255
255
255
255
255
255
255
255
255
255
255
255
255
255
255
255
255
255
153
0
0
0
0
0
0
0
170
255
255
255
255
170
0
0
0
0
177
212
212
212
212
212
212
212
220
248
255
253
138
0
0
0
0
0
0
0
0
0
0
0
0
0
0
112
0
0
0
0
0
0
0
0
0
0
0
0
0
0
0
0
0
0
0
0
0
0
0
0
0
0
0
0
0
0
0
148
255
255
255
246
0
0
0
0
0
38
187
255
255
255
255
255
255
255
255
255
255
255
255
255
255
175
28
0
0
0
0
0
0
38
187
255
255
255
255
255
255
255
255
255
255
255
255
255
255
175
28
0
0
0
0
0
0
0
0
0
0
255
216
0
0
0
0
223
250
0
0
0
0
59
255
255
207
0
0
233
255
255
230
210
209
209
209
218
248
255
253
137
0
0
0
0
0
0
0
0
0
0
0
0
0
0
0
0
0
0
0
187
255
255
255
255
0
0
0
0
0
0
170
255
255
255
255
138
0
0
0
0
0
0
0
196
255
255
255
255
255
255
255
255
255
255
255
255
255
255
239
22
0
0
0
0
0
0
0
249
255
255
255
255
255
255
255
255
255
255
255
255
255
255
255
255
255
238
13
0
0
0
0
0
0
0
137
255
255
255
255
137
0
0
0
0
254
255
255
255
255
255
255
255
255
255
238
85
0
0
0
0
0
0
0
0
0
0
0
0
0
0
0
112
0
0
0
0
0
0
0
0
0
0
0
0
0
0
0
0
0
0
0
0
0
0
0
0
0
0
0
0
0
0
0
139
255
255
255
241
0
0
0
0
0
0
42
251
255
255
255
255
255
255
255
255
255
255
255
255
237
13
0
0
0
0
0
0
0
0
42
251
255
255
255
255
255
255
255
255
255
255
255
255
237
13
0
0
0
0
0
0
0
0
0
0
0
255
214
0
0
0
0
222
250
0
0
0
0
59
255
255
207
0
0
28
187
255
255
255
255
255
255
255
255
238
85
0
0
0
0
0
0
0
0
0
0
0
0
0
0
0
0
0
0
0
0
0
0
0
0
0
0
0
0
0
0
0
79
221
255
253
214
13
0
0
0
0
0
0
0
90
234
255
255
255
255
255
255
255
255
255
255
255
255
244
156
0
0
0
0
0
0
0
0
175
247
255
255
255
255
255
255
255
255
255
255
255
255
255
255
255
243
153
0
0
0
0
0
0
0
0
0
188
255
249
188
0
0
0
0
0
228
255
255
255
255
255
255
255
255
251
148
0
0
0
0
0
0
0
0
0
0
0
0
0
0
0
0
112
0
0
0
0
0
0
0
0
0
0
0
0
0
0
0
0
0
0
0
0
0
0
0
0
0
0
0
0
0
0
0
42
222
255
250
173
0
0
0
0
0
0
0
179
252
255
255
255
255
255
255
255
255
255
255
246
156
0
0
0
0
0
0
0
0
0
0
179
252
255
255
255
255
255
255
255
255
255
255
246
156
0
0
0
0
0
0
0
0
0
0
0
0
245
200
0
0
0
0
208
238
0
0
0
0
13
232
254
170
0
0
0
28
233
255
255
255
255
255
255
251
148
0
0
0
0
0
0
0
0
0
0
0
0
0
0
0
0
0
0
0
0
0
153
255
255
255
255
0
0
0
0
0
0
0
0
0
0
0
0
0
0
0
0
0
0
0
0
0
0
0
0
0
0
0
0
0
0
0
0
0
0
0
0
0
0
0
0
0
0
0
0
0
0
0
0
0
0
0
0
0
0
0
0
0
0
0
0
0
0
0
0
0
0
0
0
0
0
0
0
0
0
0
0
0
0
0
0
0
0
0
0
0
0
0
0
0
0
0
0
0
0
0
0
0
0
0
0
0
0
0
0
0
0
0
112
0
0
0
0
0
0
0
0
0
0
0
0
0
0
0
0
0
0
0
0
0
0
0
0
0
0
0
0
0
0
0
0
0
0
0
0
0
0
0
0
0
0
0
0
0
0
0
0
0
0
0
0
0
0
0
0
0
0
0
0
0
0
0
0
0
0
0
0
0
0
0
0
0
0
0
0
0
0
0
0
0
0
0
0
0
0
0
0
0
0
0
0
0
0
0
0
0
0
0
0
0
0
0
0
0
0
0
0
0
0
0
0
0
0
0
0
0
0
0
0
0
0
0
0
0
0
0
0
0
0
0
0
0
0
0
0
0
0
0
0
0
0
0
135
255
255
255
255
0
0
0
0
0
0
0
0
0
0
0
0
0
0
0
0
0
0
0
0
0
0
0
0
0
0
0
0
0
0
0
0
0
0
0
0
0
0
0
0
0
0
0
0
0
0
0
0
0
0
0
0
0
0
0
0
0
0
0
0
0
0
0
0
0
0
0
0
0
0
0
0
0
0
0
0
0
0
0
0
0
0
0
0
0
0
0
0
0
0
0
0
0
0
0
0
0
0
0
0
0
0
0
0
0
0
0
112
0
0
0
0
0
0
0
0
0
0
0
0
0
0
0
0
0
0
0
0
0
0
0
0
0
0
0
0
0
0
0
0
0
0
0
0
0
0
0
0
0
0
0
0
0
0
0
0
0
0
0
0
0
0
0
0
0
0
0
0
0
0
0
0
0
0
0
0
0
0
0
0
0
0
0
0
0
0
0
0
0
0
0
0
0
0
0
0
0
0
0
0
0
0
0
0
0
0
0
0
0
0
0
0
0
0
0
0
0
0
0
0
0
0
0
0
0
0
0
0
0
0
0
0
0
0
0
0
0
0
0
0
0
0
0
0
0
0
0
0
0
0
0
0
0
0
0
0
0
0
0
0
0
0
0
0
0
0
0
0
0
0
0
0
0
0
0
0
0
0
0
0
0
0
0
0
0
0
0
0
0
0
0
0
0
0
0
0
0
0
0
0
0
0
0
0
0
0
0
0
0
0
0
0
0
0
0
0
0
0
0
0
0
0
0
0
0
0
0
0
0
0
0
0
0
0
0
0
0
0
0
0
0
0
0
0
0
0
0
0
0
0
0
0
0
0
0
0
0
0
0
0
0
0
0
0
0
0
0
0
0
0
0
0
0
0
0
0
0
0
0
0
0
0
0
0
0
0
0
0
0
0
0
0
0
0
0
0
0
0
0
0
0
0
0
0
0
0
0
0
0
0
0
0
0
0
0
0
0
0
0
0
0
0
0
0
0
0
0
0
0
0
0
0
0
0
0
0
0
0
0
0
0
0
0
0
0
0
0
0
0
0
0
0
0
0
0
0
0
0
0
0
0
0
0
0
0
0
0
0
0
0
0
0
0
0
0
0
0
0
0
0
0
0
0
0
0
0
0
0
0
0
0
0
0
0
0
0
0
0
0
0
0
0
0
0
0
0
0
0
0
0
0
0
153
153
153
153
153
153
153
153
153
153
153
153
153
153
153
153
153
153
153
153
153
153
153
153
153
153
153
153
153
153
153
153
153
153
153
153
153
153
153
153
153
153
153
153
153
153
153
153
153
153
153
153
153
153
153
153
153
153
153
153
153
153
153
153
153
153
153
153
153
153
153
153
153
153
153
153
153
153
153
153
153
153
153
153
153
153
153
153
153
153
153
153
153
153
153
153
153
153
153
153
153
153
153
153
153
153
153
153
153
153
153
153
153
153
153
153
153
153
153
153
153
153
153
153
153
153
153
153
153
153
153
153
153
153
153
153
153
153
153
153
153
153
153
153
153
153
153
153
153
153
153
153
153
153
153
153
153
153
153
153
153
153
153
153
153
153
153
153
153
153
153
153
153
153
153
153
153
153
153
153
153
153
153
153
153
153
153
153
153
153
153
153
153
153
153
153
153
153
153
153
153
153
153
153
153
153
153
153
153
153
153
153
153
153
153
153
153
153
153
153
153
153
153
153
153
153
153
153
153
153
153
153
153
153
153
153
153
153
0
0
0
0
0
0
0
0
0
0
0
0
0
0
0
0
0
0
0
0
0
0
0
0
0
0
0
0
0
0
0
0
0
0
0
0
0
0
0
0
0
0
0
0
0
0
0
0
0
0
0
0
0
0
0
0
0
0
0
0
0
0
0
0
0
0
0
0
0
0
0
0
0
0
0
0
0
0
0
0
0
0
0
0
0
0
0
0
0
0
0
0
0
0
0
0
0
0
0
0
0
0
0
0
0
0
0
0
0
0
0
0
0
0
0
0
0
0
0
0
0
0
0
0
0
0
0
0
0
0
0
0
0
0
0
0
0
0
0
0
0
0
0
0
0
0
0
0
0
0
0
0
0
0
0
0
0
0
0
0
0
0
0
0
0
0
0
0
0
0
0
0
0
0
0
0
0
0
0
0
0
0
0
0
0
0
0
0
0
0
0
0
0
0
0
0
0
0
0
0
0
0
0
0
0
0
0
0
0
0
0
0
0
0
0
0
0
0
0
0
0
0
0
0
0
0
0
0
0
0
0
0
0
0
0
0
0
0
0
0
0
0
0
0
0
0
0
0
0
0
0
0
0
0
0
0
0
0
0
0
0
0
0
0
0
0
0
0
0
0
0
0
0
0
0
0
0
0
0
0
0
0
0
0
0
0
0
0
0
0
0
0
0
0
0
0
0
0
0
0
0
0
0
0
0
0
0
0
0
0
0
0
0
0
0
0
0
0
0
0
0
0
0
0
0
0
0
0
0
0
0
0
0
0
0
0
0
0
0
0
0
0
0
0
0
0
0
0
0
0
0
0
0
0
0
0
0
0
0
0
0
0
0
0
0
0
0
0
0
0
0
0
0
0
0
0
0
0
0
0
0
0
0
0
0
0
0
0
0
0
0
0
0
0
0
0
0
0
0
0
0
0
0
0
0
0
0
0
0
0
0
112
0
0
0
0
0
0
0
0
0
0
0
0
0
0
0
0
0
0
0
0
0
0
0
0
0
0
0
0
0
0
0
0
0
0
0
0
0
0
0
0
0
0
0
0
0
0
0
0
0
0
0
0
0
0
0
0
0
0
0
0
0
0
0
0
0
0
0
0
0
0
0
0
0
0
0
0
0
0
0
0
0
0
0
0
0
0
0
0
0
0
0
0
0
0
0
0
0
0
0
0
0
0
0
0
0
0
0
0
255
255
255
255
255
0
0
0
0
0
0
0
0
0
0
0
0
0
0
0
0
0
0
0
0
0
0
0
0
0
0
0
0
0
0
0
0
0
0
0
0
0
0
0
0
0
0
0
0
0
0
0
0
0
0
0
0
0
0
0
0
0
0
0
0
0
0
0
0
0
0
0
0
0
0
0
0
0
0
0
0
0
0
0
0
0
0
0
0
0
0
0
0
0
0
0
0
0
0
0
0
0
0
0
0
0
0
0
0
0
0
0
0
0
0
0
0
0
0
0
0
0
0
0
0
0
0
0
0
0
0
0
0
0
0
0
0
0
0
0
0
0
0
0
0
0
0
112
0
0
0
0
0
0
0
0
0
0
0
0
0
0
0
0
0
0
0
0
0
0
0
0
0
0
0
0
0
0
0
0
0
0
0
0
0
0
0
0
0
0
0
0
0
0
0
0
0
0
0
0
0
0
0
0
0
0
0
0
0
0
0
0
0
0
0
0
0
0
0
0
0
0
0
0
0
0
0
0
0
0
0
0
0
0
0
0
0
0
0
0
0
0
0
0
0
0
0
0
0
0
0
0
0
0
0
0
255
255
255
255
255
0
0
0
0
0
0
0
0
0
0
0
0
0
0
0
0
0
0
0
0
0
0
0
0
0
0
0
0
0
0
0
0
0
0
0
0
0
0
0
0
0
0
0
0
0
0
0
0
0
0
0
0
0
0
0
0
0
0
0
0
0
0
0
0
0
0
0
0
0
0
0
0
0
0
0
0
0
0
0
0
0
0
0
0
0
0
0
0
0
0
0
0
0
0
0
0
0
0
0
0
0
0
0
0
0
0
0
0
0
0
0
0
0
0
0
0
0
0
0
0
0
0
0
0
0
0
0
0
0
0
0
0
0
0
0
0
0
0
0
0
0
0
112
0
0
0
0
0
0
0
0
0
0
0
125
61
0
0
0
0
0
0
0
0
0
0
0
0
0
0
0
0
0
0
0
0
0
0
0
0
0
0
0
0
0
0
0
0
0
0
0
0
0
0
0
0
0
0
0
0
0
0
0
0
0
0
0
0
0
0
0
0
0
0
0
0
0
0
0
0
0
0
0
0
0
0
0
0
0
0
0
0
0
0
0
0
0
0
0
0
0
0
0
0
0
0
0
255
255
255
255
255
255
255
255
255
255
255
255
255
0
0
0
0
0
0
0
0
0
0
0
0
0
0
0
0
0
0
0
0
0
0
0
0
0
0
0
0
0
0
0
0
0
0
0
0
0
0
0
209
255
255
255
255
255
255
255
244
105
0
0
0
0
222
255
255
255
254
254
254
254
254
253
242
104
0
0
0
0
0
0
209
255
255
255
255
255
255
255
244
105
0
0
0
0
222
255
255
255
255
255
255
255
255
255
244
106
0
0
0
0
0
0
0
0
0
0
0
0
223
255
255
255
221
0
0
222
255
200
0
0
0
0
0
0
0
121
249
248
129
0
0
0
0
0
0
0
0
112
0
0
0
0
0
0
0
0
0
0
0
197
0
0
0
0
0
0
0
0
0
0
0
0
0
209
255
255
255
255
255
255
255
255
255
248
130
0
0
222
255
255
255
254
254
254
254
254
253
242
104
0
0
0
0
0
0
0
0
0
0
0
0
222
255
255
255
255
255
255
255
255
255
244
106
0
0
0
0
0
0
0
0
0
0
222
255
200
0
0
0
0
0
0
0
121
249
248
129
0
0
0
0
0
255
0
0
0
0
0
0
0
0
0
0
0
255
0
0
0
0
0
0
0
0
0
0
0
0
0
0
0
0
0
0
0
0
0
0
0
0
0
0
0
0
0
0
0
0
0
0
0
0
0
0
140
255
255
255
255
255
255
255
255
255
208
38
0
0
0
255
255
255
255
255
255
255
255
255
255
255
208
38
0
0
0
0
140
255
255
255
255
255
255
255
255
255
208
38
0
0
0
255
255
255
255
255
255
255
255
255
255
255
209
42
0
0
0
0
0
0
0
0
0
0
28
255
255
255
255
255
0
0
255
255
237
0
0
0
0
0
0
0
170
255
255
176
0
0
0
0
0
0
0
0
112
0
0
0
0
0
0
0
0
0
0
93
223
0
0
0
0
0
0
0
0
0
0
0
0
139
255
255
255
255
255
255
255
255
255
255
255
176
0
0
255
255
255
255
255
255
255
255
255
255
255
208
38
0
0
0
0
0
0
0
0
0
0
0
255
255
255
255
255
255
255
255
255
255
255
209
42
0
0
0
0
0
0
0
0
0
255
255
238
0
0
0
0
0
0
0
170
255
255
176
0
0
0
0
0
255
0
0
0
0
0
0
0
0
0
0
0
255
0
0
0
0
0
0
0
0
0
0
0
0
0
0
0
0
0
0
0
0
0
0
0
0
0
0
0
0
0
0
0
0
0
0
0
0
0
204
254
255
255
245
240
240
240
241
249
255
255
238
114
0
0
206
240
240
240
240
240
240
240
241
250
255
255
238
114
0
0
204
254
255
255
245
240
240
240
241
249
255
255
238
114
0
0
206
240
240
240
240
240
240
240
241
250
255
255
240
115
0
0
0
0
0
0
0
0
0
0
208
255
255
255
255
0
0
255
255
237
0
0
0
0
0
0
0
170
255
255
176
0
0
0
0
0
0
0
0
112
0
0
0
0
0
0
0
0
0
0
195
205
0
0
0
0
0
0
0
0
0
0
0
203
253
255
255
245
240
240
240
240
240
240
240
234
113
0
0
206
240
240
240
240
240
240
240
241
250
255
255
238
114
0
0
0
0
0
0
0
0
0
0
206
240
240
240
240
240
240
240
241
250
255
255
240
115
0
0
0
0
0
0
0
0
255
255
238
0
0
0
0
0
0
0
170
255
255
176
0
0
0
0
0
255
0
0
250
250
250
250
250
250
250
0
0
255
0
0
0
0
0
0
0
0
0
0
0
0
0
0
0
0
0
0
0
0
0
0
0
0
0
0
0
0
0
0
0
0
0
0
0
0
0
255
255
253
115
0
0
0
0
0
42
218
255
255
176
0
0
0
0
0
0
0
0
0
0
0
42
219
255
255
176
0
0
255
255
253
115
0
0
0
0
0
42
218
255
255
176
0
0
0
0
0
0
0
0
0
0
0
46
220
255
255
176
0
0
0
0
0
0
0
0
0
0
0
136
255
255
255
0
0
255
255
237
0
0
0
0
0
0
0
170
255
255
176
0
0
0
0
0
0
0
0
112
0
0
0
0
0
0
0
0
0
64
248
182
0
0
0
0
0
0
0
0
0
0
0
255
255
253
118
0
0
0
0
0
0
0
0
0
0
0
0
0
0
0
0
0
0
0
0
0
42
219
255
255
176
0
0
0
0
0
0
0
0
0
0
0
0
0
0
0
0
0
0
0
46
220
255
255
176
0
0
0
0
0
0
0
0
255
255
238
0
0
0
0
0
0
0
170
255
255
176
0
0
0
0
0
255
0
0
240
239
240
240
239
240
239
0
0
255
0
0
0
0
0
0
0
0
0
0
0
0
0
0
0
0
0
0
0
0
0
0
0
0
0
0
0
0
0
0
0
0
0
0
0
0
0
255
255
238
0
0
0
0
0
0
0
178
255
255
176
0
0
0
0
0
0
0
0
0
0
0
0
178
255
255
176
0
0
255
255
238
0
0
0
0
0
0
0
178
255
255
176
0
0
0
0
0
0
0
0
0
0
0
0
178
255
255
176
0
0
0
0
0
0
0
0
0
0
0
0
247
255
255
0
0
255
255
237
0
0
0
0
0
0
0
170
255
255
176
0
0
0
0
0
0
0
0
112
0
0
0
0
0
0
0
0
0
175
255
154
0
0
0
0
0
0
0
0
0
0
0
255
255
239
0
0
0
0
0
0
0
0
0
0
0
0
0
0
0
0
0
0
0
0
0
0
0
178
255
255
176
0
0
0
0
0
0
0
0
0
0
0
0
0
0
0
0
0
0
0
0
178
255
255
176
0
0
0
0
0
0
0
0
255
255
238
0
0
0
0
0
0
0
170
255
255
176
0
0
0
0
0
255
0
0
229
229
229
229
229
229
229
0
0
255
0
0
0
0
0
0
0
0
0
0
0
0
0
0
0
0
0
0
0
0
0
0
0
0
0
0
0
0
0
0
0
0
0
0
0
0
0
255
255
237
0
0
0
0
0
0
0
170
255
255
176
0
0
0
0
0
0
0
0
0
0
0
0
170
255
255
176
0
0
255
255
237
0
0
0
0
0
0
0
170
255
255
176
0
0
0
0
0
0
0
0
0
0
0
0
170
255
255
176
0
0
0
0
0
0
0
0
0
0
0
0
242
255
255
0
0
255
255
237
0
0
0
0
0
0
0
170
255
255
176
0
0
0
0
0
0
0
0
112
0
0
0
0
0
0
0
0
22
239
255
117
0
0
0
0
0
0
0
0
0
0
0
255
255
237
0
0
0
0
0
0
0
0
0
0
0
0
0
0
0
0
0
0
0
0
0
0
0
170
255
255
176
0
0
0
0
0
0
0
0
0
0
0
0
0
0
0
0
0
0
0
0
170
255
255
176
0
0
0
0
0
0
0
0
255
255
238
0
0
0
0
0
0
0
170
255
255
176
0
0
0
0
0
255
0
0
219
219
219
219
219
216
217
0
0
255
0
0
0
0
0
0
0
0
0
0
0
0
0
0
0
0
0
0
0
0
0
0
0
0
0
0
0
0
0
0
0
0
0
0
0
0
0
255
255
243
0
0
0
0
0
0
0
175
255
255
176
0
0
0
0
0
0
0
0
0
0
0
0
170
255
255
176
0
0
255
255
243
0
0
0
0
0
0
0
175
255
255
176
0
0
0
0
0
0
0
0
0
0
0
0
174
255
255
176
0
0
0
0
0
0
0
0
0
0
0
0
242
255
255
0
0
255
255
243
0
0
0
0
0
0
0
175
255
255
176
0
0
0
0
0
0
0
0
112
0
0
0
0
0
0
0
0
153
255
255
59
0
0
0
0
0
0
0
0
0
0
0
255
255
241
0
0
0
0
0
0
0
0
0
0
0
0
0
0
0
0
0
0
0
0
0
0
0
170
255
255
176
0
0
0
0
0
0
0
0
0
0
0
0
0
0
0
0
0
0
0
0
174
255
255
176
0
0
0
0
0
0
0
0
255
255
238
0
0
0
0
0
0
0
170
255
255
176
0
0
0
0
0
255
0
0
209
209
206
206
206
206
206
0
0
255
0
0
0
202
255
255
255
255
216
0
0
243
255
255
255
255
255
207
0
0
0
202
255
255
255
255
216
0
0
0
0
0
0
0
0
0
0
254
255
255
142
22
0
0
0
0
90
227
255
255
176
0
0
0
0
0
0
0
0
0
0
0
0
170
255
255
176
0
0
254
255
255
142
22
0
0
0
0
90
227
255
255
176
0
0
0
0
0
0
0
0
0
0
0
22
217
255
255
176
0
0
0
0
0
0
0
0
0
0
0
0
242
255
255
0
0
254
255
255
142
22
0
0
0
0
90
227
255
255
176
0
0
0
0
0
0
0
0
112
0
0
0
0
0
0
0
0
226
255
250
188
248
247
247
240
237
73
0
0
0
0
0
255
255
254
109
0
0
0
0
0
0
0
0
0
0
0
0
0
0
0
0
0
0
0
0
0
0
170
255
255
176
0
0
0
0
0
0
0
0
0
0
0
0
0
0
0
0
0
0
0
22
217
255
255
176
0
0
0
0
0
0
0
0
255
255
238
0
0
0
0
0
0
0
170
255
255
176
0
0
0
0
0
255
0
0
195
196
196
196
196
196
196
0
0
255
0
0
194
254
229
218
218
224
255
216
0
255
255
227
218
218
226
254
196
0
194
254
229
218
218
224
255
216
0
0
0
0
0
0
0
0
0
187
251
255
255
255
255
255
255
255
255
255
255
255
176
0
0
0
0
0
0
0
0
0
0
0
0
170
255
255
176
0
0
187
251
255
255
255
255
255
255
255
255
255
255
255
176
0
0
0
0
190
238
238
238
238
238
239
251
255
255
241
112
0
0
0
0
0
0
0
0
0
0
0
0
242
255
255
0
0
190
251
255
255
255
255
255
255
255
255
255
255
255
176
0
0
0
0
0
0
0
0
112
0
0
0
0
0
0
0
122
255
255
255
255
255
255
255
255
210
0
0
0
0
0
0
255
255
255
253
240
238
238
238
238
238
226
88
0
0
0
0
0
0
0
0
0
0
0
0
0
0
170
255
255
176
0
0
0
0
0
0
0
0
0
0
0
0
190
238
238
238
238
238
239
251
255
255
241
112
0
0
0
0
0
0
0
0
255
255
238
0
0
0
0
0
0
0
170
255
255
176
0
0
0
0
0
255
0
0
185
185
185
185
185
185
186
0
0
255
0
0
237
240
0
0
0
0
224
251
0
255
228
0
0
0
0
229
251
0
237
240
0
0
0
0
224
251
0
0
0
0
0
0
0
0
0
0
108
252
255
255
255
255
255
255
255
255
255
255
176
0
0
0
0
0
0
0
0
0
0
0
0
170
255
255
176
0
0
0
108
252
255
255
255
255
255
255
255
255
255
255
176
0
0
0
117
253
255
255
255
255
255
255
255
255
215
13
0
0
0
0
0
0
0
0
0
0
0
0
0
242
255
255
0
0
0
112
252
255
255
255
255
255
255
255
255
255
255
176
0
0
0
0
0
0
0
0
112
0
0
0
0
0
0
0
210
255
255
255
255
255
255
255
255
122
0
0
0
0
0
0
255
255
255
255
255
255
255
255
255
255
255
194
0
0
0
0
0
0
0
0
0
0
0
0
0
0
170
255
255
176
0
0
0
0
0
0
0
0
0
0
0
117
253
255
255
255
255
255
255
255
255
215
13
0
0
0
0
0
0
0
0
0
255
255
238
0
0
0
0
0
0
0
170
255
255
176
0
0
0
0
0
255
0
0
175
175
175
175
176
175
175
0
0
255
0
0
237
233
0
0
0
0
216
251
0
255
216
0
0
0
0
220
251
0
237
233
0
0
0
0
216
251
0
0
0
0
0
0
0
0
0
0
0
189
240
240
240
240
240
241
248
255
255
255
176
0
0
0
0
0
0
0
0
0
0
0
0
170
255
255
176
0
0
0
0
189
240
240
240
240
240
241
248
255
255
255
176
0
0
182
246
255
255
255
255
255
255
255
255
246
108
0
0
0
0
0
0
0
0
0
0
0
0
0
0
242
255
255
0
0
0
0
190
240
240
240
240
240
241
249
255
255
255
176
0
0
0
0
0
0
0
0
112
0
0
0
0
0
0
73
237
240
247
247
247
188
250
255
226
0
0
0
0
0
0
0
255
255
255
255
255
255
255
255
255
255
255
255
224
96
0
0
0
0
0
0
0
0
0
0
0
0
170
255
255
176
0
0
0
0
0
0
0
0
0
0
182
246
255
255
255
255
255
255
255
255
246
108
0
0
0
0
0
0
0
0
0
0
255
255
238
0
0
0
0
0
0
0
170
255
255
176
0
0
0
0
0
255
0
0
165
165
165
165
165
165
165
0
0
255
0
0
237
233
0
0
0
0
216
251
0
255
216
0
0
0
0
220
251
0
237
233
0
0
0
0
216
251
0
0
0
0
0
0
0
0
0
0
0
0
0
0
0
0
0
0
42
219
255
255
176
0
0
0
0
0
0
0
0
0
0
0
0
170
255
255
176
0
0
0
0
0
0
0
0
0
0
0
42
219
255
255
176
0
0
254
255
255
148
50
0
0
0
0
0
0
0
0
0
0
0
0
0
0
0
0
0
0
0
0
0
242
255
255
0
0
0
0
0
0
0
0
0
0
0
42
219
255
255
176
0
0
0
0
0
0
0
0
112
0
0
0
0
0
0
0
0
0
0
0
0
59
255
255
153
0
0
0
0
0
0
0
255
255
255
148
50
0
0
0
0
86
227
255
255
175
0
0
0
0
0
0
0
0
0
0
0
0
170
255
255
176
0
0
0
0
0
0
0
0
0
0
254
255
255
148
50
0
0
0
0
0
0
0
0
0
0
0
0
0
0
0
0
0
255
255
238
0
0
0
0
0
0
0
170
255
255
176
0
0
0
0
0
255
0
0
155
154
155
155
155
155
155
0
0
255
0
0
237
233
0
0
0
0
216
251
0
255
216
0
0
0
0
220
251
0
237
233
0
0
0
0
216
251
0
0
0
0
0
0
0
0
0
0
0
0
0
0
0
0
0
0
0
178
255
255
176
0
0
0
0
0
0
0
0
0
0
0
0
170
255
255
176
0
0
0
0
0
0
0
0
0
0
0
0
178
255
255
176
0
0
255
255
240
0
0
0
0
0
0
0
0
0
0
0
0
0
0
0
0
0
0
0
0
0
0
0
242
255
255
0
0
0
0
0
0
0
0
0
0
0
0
178
255
255
176
0
0
0
0
0
0
0
0
112
0
0
0
0
0
0
0
0
0
0
0
0
117
255
239
22
0
0
0
0
0
0
0
255
255
240
0
0
0
0
0
0
0
180
255
255
176
0
0
0
0
0
0
0
0
0
0
0
0
170
255
255
176
0
0
0
0
0
0
0
0
0
0
255
255
240
0
0
0
0
0
0
0
0
0
0
0
0
0
0
0
0
0
0
0
255
255
248
13
0
0
0
0
0
0
177
255
255
176
0
0
0
0
0
255
0
0
144
144
144
144
145
145
144
0
0
255
0
0
237
233
0
0
0
0
216
251
0
255
216
0
0
0
0
220
251
0
237
233
0
0
0
0
216
251
0
0
0
0
0
0
0
0
0
0
0
0
0
0
0
0
0
0
0
170
255
255
176
0
0
0
0
0
0
0
0
0
0
0
0
170
255
255
176
0
0
0
0
0
0
0
0
0
0
0
0
170
255
255
176
0
0
255
255
237
0
0
0
0
0
0
0
0
0
0
0
0
0
0
0
0
0
0
0
0
0
0
0
242
255
255
0
0
0
0
0
0
0
0
0
0
0
0
170
255
255
176
0
0
0
0
0
0
0
0
112
0
0
0
0
0
0
0
0
0
0
0
0
154
255
175
0
0
0
0
0
0
0
0
255
255
237
0
0
0
0
0
0
0
170
255
255
176
0
0
0
0
0
0
0
0
0
0
0
0
170
255
255
176
0
0
0
0
0
0
0
0
0
0
255
255
237
0
0
0
0
0
0
0
0
0
0
0
0
0
0
0
0
0
0
0
253
255
255
178
42
0
0
0
0
110
234
255
255
173
0
0
0
0
0
255
0
0
134
134
134
134
134
131
131
0
0
255
0
0
237
233
0
0
0
0
216
251
0
255
216
0
0
0
0
220
251
0
237
233
0
0
0
0
216
251
0
0
0
0
0
0
0
0
0
0
0
0
0
0
0
0
0
0
0
175
255
255
176
0
0
0
0
0
0
0
0
0
0
0
0
170
255
255
176
0
0
0
0
0
0
0
0
0
0
0
0
175
255
255
176
0
0
255
255
241
0
0
0
0
0
0
0
0
0
0
0
0
0
0
0
0
0
0
0
0
0
0
0
242
255
255
0
0
0
0
0
0
0
0
0
0
0
0
170
255
255
176
0
0
0
0
0
0
0
0
112
0
0
0
0
0
0
0
0
0
0
0
0
182
248
64
0
0
0
0
0
0
0
0
255
255
241
0
0
0
0
0
0
0
174
255
255
176
0
0
0
0
0
0
0
0
0
0
0
0
170
255
255
176
0
0
0
0
0
0
0
0
0
0
255
255
241
0
0
0
0
0
0
0
0
0
0
0
0
0
0
0
0
0
0
0
176
247
255
255
228
0
0
0
161
255
255
254
216
79
0
0
0
0
0
255
0
0
123
123
121
121
121
121
121
0
0
255
0
0
237
233
0
0
0
0
216
251
0
255
216
0
0
0
0
220
251
0
237
233
0
0
0
0
216
251
0
0
0
0
0
0
0
0
0
0
0
0
0
0
0
0
0
0
28
219
255
255
176
0
0
0
0
0
0
0
0
0
0
0
0
170
255
255
176
0
0
0
0
0
0
0
0
0
0
0
28
219
255
255
176
0
0
255
255
254
112
0
0
0
0
0
0
0
0
0
0
0
0
0
0
0
0
0
0
0
0
0
0
242
255
255
0
0
0
0
0
0
0
0
0
0
0
0
170
255
255
176
0
0
0
0
0
0
0
0
112
0
0
0
0
0
0
0
0
0
0
0
0
205
195
0
0
0
0
0
0
0
0
0
255
255
254
112
0
0
0
0
0
22
218
255
255
176
0
0
0
0
0
0
0
0
0
0
0
0
170
255
255
176
0
0
0
0
0
0
0
0
0
0
255
255
254
112
0
0
0
0
0
0
0
0
0
0
0
0
0
0
0
0
0
0
0
90
251
255
255
162
28
86
238
255
255
193
0
0
0
0
0
0
0
255
0
0
110
111
111
111
111
111
111
0
0
255
0
0
237
240
0
0
0
0
223
251
0
255
223
0
0
0
0
228
251
0
237
240
0
0
0
0
223
251
0
0
0
0
0
0
0
0
0
203
238
238
238
238
238
238
238
239
251
255
255
241
112
0
0
0
0
0
0
0
0
0
0
0
0
170
255
255
176
0
0
203
238
238
238
238
238
238
238
239
251
255
255
241
112
0
0
209
255
255
254
241
238
238
238
238
238
238
238
232
114
0
0
0
0
0
0
0
0
0
0
0
0
242
255
255
0
0
0
0
0
0
0
0
0
0
0
0
170
255
255
176
0
0
0
0
0
0
0
0
112
0
0
0
0
0
0
0
0
0
0
0
0
223
93
0
0
0
0
0
0
0
0
0
209
255
255
254
241
238
238
238
239
251
255
255
241
112
0
0
0
0
0
0
0
0
0
0
0
0
170
255
255
176
0
0
0
130
248
248
130
0
0
0
209
255
255
254
241
238
238
238
238
238
238
238
232
114
0
0
0
0
0
0
0
0
0
0
186
252
255
255
251
255
255
255
234
102
0
0
0
0
0
0
0
255
0
0
100
101
100
100
100
100
100
0
0
255
0
0
199
255
227
216
216
223
255
213
0
255
255
222
216
216
224
255
213
0
199
255
227
216
216
223
255
213
0
0
0
0
0
0
0
0
0
255
255
255
255
255
255
255
255
255
255
255
215
13
0
0
0
0
0
0
0
0
0
0
0
0
0
170
255
255
176
0
0
255
255
255
255
255
255
255
255
255
255
255
215
13
0
0
0
0
138
254
255
255
255
255
255
255
255
255
255
255
176
0
0
0
0
0
0
0
0
0
0
0
0
242
255
255
0
0
0
0
0
0
0
0
0
0
0
0
170
255
255
176
0
0
0
0
0
0
0
0
112
0
0
0
0
0
0
0
0
0
0
0
0
197
0
0
0
0
0
0
0
0
0
0
0
138
254
255
255
255
255
255
255
255
255
215
13
0
0
0
0
0
0
0
0
0
0
0
0
0
170
255
255
176
0
0
0
178
255
255
176
0
0
0
0
138
254
255
255
255
255
255
255
255
255
255
255
176
0
0
0
0
0
0
0
0
0
0
0
90
248
255
255
255
255
188
0
0
0
0
0
0
0
0
0
255
0
0
90
90
90
90
90
90
90
0
0
255
0
0
0
199
255
255
255
255
220
0
0
245
255
255
255
255
255
216
0
0
0
199
255
255
255
255
220
0
0
0
0
0
0
0
0
0
0
223
255
255
255
255
255
255
255
255
255
246
108
0
0
0
0
0
0
0
0
0
0
0
0
0
0
126
248
250
130
0
0
223
255
255
255
255
255
255
255
255
255
246
108
0
0
0
0
0
0
207
255
255
255
255
255
255
255
255
255
250
130
0
0
0
0
0
0
0
0
0
0
0
0
207
255
222
0
0
0
0
0
0
0
0
0
0
0
0
126
248
250
129
0
0
0
0
0
0
0
0
112
0
0
0
0
0
0
0
0
0
0
0
61
125
0
0
0
0
0
0
0
0
0
0
0
0
207
255
255
255
255
255
255
255
246
108
0
0
0
0
0
0
0
0
0
0
0
0
0
0
126
248
250
130
0
0
0
113
234
234
113
0
0
0
0
0
207
255
255
255
255
255
255
255
255
255
250
130
0
0
0
0
0
0
0
0
0
0
0
0
191
255
255
255
241
96
0
0
0
0
0
0
0
0
0
255
0
0
0
0
0
0
0
0
0
0
0
255
0
0
0
0
0
0
0
0
0
0
0
0
0
0
0
0
0
0
0
0
0
0
0
0
0
0
0
0
0
0
0
0
0
0
0
0
0
0
0
0
0
0
0
0
0
0
0
0
0
0
0
0
0
0
0
0
0
0
0
0
0
0
0
0
0
0
0
0
0
0
0
0
0
0
0
0
0
0
0
0
0
0
0
0
0
0
0
0
0
0
0
0
0
0
0
0
0
0
0
0
0
0
0
0
0
0
0
0
0
0
0
0
0
0
0
0
0
0
0
0
0
0
0
0
0
0
0
0
0
0
0
0
0
0
0
0
0
0
112
0
0
0
0
0
0
0
0
0
0
0
0
0
0
0
0
0
0
0
0
0
0
0
0
0
0
0
0
0
0
0
0
0
0
0
0
0
0
0
0
0
0
0
0
0
0
0
0
0
0
0
0
0
0
0
0
0
0
0
0
0
0
0
0
0
0
0
0
0
0
0
0
0
0
0
0
0
0
0
0
0
0
0
0
0
0
0
0
0
0
0
0
0
0
0
0
0
0
0
0
0
0
0
0
255
0
0
0
0
0
0
0
0
0
0
0
255
0
0
0
0
0
0
0
0
0
0
0
0
0
0
0
0
0
0
0
0
0
0
0
0
0
0
0
0
0
0
0
0
0
0
0
0
0
0
0
0
0
0
0
0
0
0
0
0
0
0
0
0
0
0
0
0
0
0
0
0
0
0
0
0
0
0
0
0
0
0
0
0
0
0
0
0
0
0
0
0
0
0
0
0
0
0
0
0
0
0
0
0
0
0
0
0
0
0
0
0
0
0
0
0
0
0
0
0
0
0
0
0
0
0
0
0
0
0
0
0
0
0
0
0
0
0
0
0
0
0
0
0
0
0
0
0
0
0
112
0
0
0
0
0
0
0
0
0
0
0
0
0
0
0
0
0
0
0
0
0
0
0
0
0
0
0
0
0
0
0
0
0
0
0
0
0
0
0
0
0
0
0
0
0
0
0
0
0
0
0
0
0
0
0
0
0
0
0
0
0
0
0
0
0
0
0
0
0
0
0
0
0
0
0
0
0
0
0
0
0
0
0
0
0
0
0
0
0
0
0
0
0
0
0
0
0
0
0
0
0
0
0
0
255
255
255
255
255
255
255
255
255
255
255
255
255
0
0
0
0
0
0
0
0
0
0
0
0
0
0
0
0
0
0
0
0
0
0
0
0
0
0
0
0
0
0
0
0
0
0
0
0
0
0
0
0
0
0
0
0
0
0
0
0
0
0
0
0
0
0
0
0
0
0
0
0
0
0
0
0
0
0
0
0
0
0
0
0
0
0
0
0
0
0
0
0
0
0
0
0
0
0
0
0
0
0
0
0
0
0
0
0
0
0
0
0
0
0
0
0
0
0
0
0
0
0
0
0
0
0
0
0
0
0
0
0
0
0
0
0
0
0
0
0
0
0
0
0
0
0
0
0
0
0
0
0
0
0
0
0
0
0
0
0
0
0
0
0
0
0
0
0
0
0
0
0
0
0
0
0
0
0
0
0
0
0
0
0
0
0
0
0
0
0
0
0
0
0
0
0
0
0
0
0
0
0
0
0
0
0
0
0
0
0
0
0
0
0
0
0
0
0
0
0
0
0
0
0
0
0
0
0
0
0
0
0
0
0
0
0
0
0
0
0
0
0
0
0
0
0
0
0
0
0
0
0
0
0
0
0
0
0
0
0
0
0
0
0
0
0
0
0
0
