#define test16x16_width 16
#define test16x16_height 16
static unsigned char test16x16_bits[] = {
   0xbf, 0xff, 0x37, 0xff, 0xe7, 0xf8, 0x0f, 0xfe, 0xff, 0xff, 0xe7, 0xf1,
   0xc1, 0xe0, 0x49, 0xe6, 0x4f, 0xe0, 0x3f, 0xfb, 0x3f, 0xff, 0x3b, 0xff,
   0x03, 0xff, 0x87, 0xff, 0xff, 0xff, 0xff, 0xff };
