P2
# Created by GIMP version 2.10.22 PNM plug-in
13 15
255
0
0
15
120
150
150
150
120
15
0
0
0
0
0
75
210
225
225
225
225
225
210
75
0
0
0
0
180
225
120
30
0
30
120
225
180
0
0
0
0
210
180
0
0
0
0
0
180
210
0
0
0
0
210
165
0
0
0
0
0
165
210
0
0
0
0
195
180
0
0
0
0
0
180
195
0
0
0
0
150
225
135
90
75
75
135
225
150
0
0
0
0
30
195
225
225
225
225
225
195
0
0
0
0
0
180
210
165
135
135
135
165
225
165
0
0
0
90
225
120
0
0
0
0
0
150
225
45
0
0
135
225
60
0
0
0
0
0
105
225
105
0
0
135
225
60
0
0
0
0
0
105
225
105
0
0
105
225
135
0
0
0
0
0
150
225
60
0
0
0
195
225
180
150
150
150
180
225
180
0
0
0
0
60
180
210
225
225
225
210
165
45
0
0
0
