P2
# Created by GIMP version 2.10.22 PNM plug-in
24 28
255
0
0
0
0
0
0
0
15
105
150
165
165
165
165
165
165
165
135
90
0
0
0
0
0
0
0
0
0
0
0
135
210
225
225
225
225
225
225
225
225
225
225
225
195
90
0
0
0
0
0
0
0
0
150
225
225
225
225
225
225
225
225
225
225
225
225
225
225
225
105
0
0
0
0
0
0
90
225
225
225
180
135
90
75
75
75
75
90
105
135
195
225
225
210
0
0
0
0
0
0
165
225
225
150
0
0
0
0
0
0
0
0
0
0
15
195
225
225
120
0
0
0
0
0
210
225
210
30
0
0
0
0
0
0
0
0
0
0
0
105
225
225
165
0
0
0
0
0
225
225
195
0
0
0
0
0
0
0
0
0
0
0
0
30
225
225
180
0
0
0
0
0
225
225
180
0
0
0
0
0
0
0
0
0
0
0
0
0
225
225
195
0
0
0
0
0
225
225
195
0
0
0
0
0
0
0
0
0
0
0
0
0
225
225
180
0
0
0
0
0
210
225
195
0
0
0
0
0
0
0
0
0
0
0
0
75
225
225
165
0
0
0
0
0
180
225
225
60
0
0
0
0
0
0
0
0
0
0
0
135
225
225
120
0
0
0
0
0
105
225
225
180
30
0
0
0
0
0
0
0
0
0
75
210
225
210
30
0
0
0
0
0
0
165
225
225
210
180
150
150
150
150
150
150
165
180
225
225
225
120
0
0
0
0
0
0
0
0
180
225
225
225
225
225
225
225
225
225
225
225
225
225
120
0
0
0
0
0
0
0
0
165
225
225
225
225
225
225
225
225
225
225
225
225
225
225
210
90
0
0
0
0
0
0
165
225
225
210
165
135
120
120
120
120
120
120
120
150
195
225
225
210
60
0
0
0
0
75
225
225
195
45
0
0
0
0
0
0
0
0
0
0
0
120
225
225
180
0
0
0
0
165
225
225
105
0
0
0
0
0
0
0
0
0
0
0
0
0
195
225
225
45
0
0
0
195
225
210
0
0
0
0
0
0
0
0
0
0
0
0
0
0
150
225
225
105
0
0
0
210
225
195
0
0
0
0
0
0
0
0
0
0
0
0
0
0
135
225
225
135
0
0
0
210
225
195
0
0
0
0
0
0
0
0
0
0
0
0
0
0
120
225
225
150
0
0
0
210
225
210
0
0
0
0
0
0
0
0
0
0
0
0
0
0
135
225
225
135
0
0
0
195
225
225
30
0
0
0
0
0
0
0
0
0
0
0
0
0
165
225
225
105
0
0
0
165
225
225
135
0
0
0
0
0
0
0
0
0
0
0
0
30
210
225
225
30
0
0
0
75
225
225
210
135
15
0
0
0
0
0
0
0
0
0
75
180
225
225
180
0
0
0
0
0
165
225
225
225
210
195
180
180
180
180
180
180
195
210
225
225
225
210
75
0
0
0
0
0
15
165
225
225
225
225
225
225
225
225
225
225
225
225
225
225
210
105
0
0
0
0
0
0
0
0
90
165
195
210
225
225
225
225
225
225
225
210
195
150
30
0
0
0
