P2
# Created by GIMP version 2.10.22 PNM plug-in
24 28
255
0
0
0
0
45
165
165
165
165
165
165
165
165
165
165
165
165
165
165
165
165
165
135
0
0
0
0
0
150
225
225
225
225
225
225
225
225
225
225
225
225
225
225
225
225
225
225
90
0
0
0
0
120
225
225
225
225
225
225
225
225
225
225
225
225
225
225
225
225
225
225
90
0
0
0
0
0
45
75
75
75
75
75
75
75
75
75
75
75
75
75
75
180
225
225
75
0
0
0
0
0
0
0
0
0
0
0
0
0
0
0
0
0
0
0
0
180
225
225
45
0
0
0
0
0
0
0
0
0
0
0
0
0
0
0
0
0
0
0
0
195
225
210
0
0
0
0
0
0
0
0
0
0
0
0
0
0
0
0
0
0
0
0
30
225
225
195
0
0
0
0
0
0
0
0
0
0
0
0
0
0
0
0
0
0
0
0
135
225
225
150
0
0
0
0
0
0
0
0
0
0
0
0
0
0
0
0
0
0
0
15
210
225
225
75
0
0
0
0
0
0
0
0
0
0
0
0
0
0
0
0
0
0
0
165
225
225
180
0
0
0
0
0
0
0
0
0
0
0
0
0
0
0
0
0
0
0
135
225
225
225
90
0
0
0
0
0
0
0
0
0
0
0
0
0
0
0
0
0
15
165
225
225
225
135
0
0
0
0
0
0
0
0
0
0
0
0
0
0
0
0
0
60
195
225
225
225
150
0
0
0
0
0
0
0
0
0
0
0
0
0
0
0
0
0
75
210
225
225
225
120
0
0
0
0
0
0
0
0
0
0
0
0
0
0
0
0
0
45
210
225
225
210
90
0
0
0
0
0
0
0
0
0
0
0
0
0
0
0
0
0
0
180
225
225
195
60
0
0
0
0
0
0
0
0
0
0
0
0
0
0
0
0
0
0
90
225
225
210
60
0
0
0
0
0
0
0
0
0
0
0
0
0
0
0
0
0
0
0
180
225
225
135
0
0
0
0
0
0
0
0
0
0
0
0
0
0
0
0
0
0
0
30
210
225
210
0
0
0
0
0
0
0
0
0
0
0
0
0
0
0
0
0
0
0
0
105
225
225
165
0
0
0
0
0
0
0
0
0
0
0
0
0
0
0
0
0
0
0
0
150
225
225
120
0
0
0
0
0
0
0
0
0
0
0
0
0
0
0
0
0
0
0
0
180
225
225
75
0
0
0
0
0
0
0
0
0
0
0
0
0
0
0
0
0
0
0
0
180
225
225
0
0
0
0
0
0
0
0
0
0
0
0
0
0
0
0
0
0
0
0
0
195
225
210
0
0
0
0
0
0
0
0
0
0
0
0
0
0
0
0
0
0
0
0
0
210
225
210
0
0
0
0
0
0
0
0
0
0
0
0
0
0
0
0
0
0
0
0
0
210
225
210
0
0
0
0
0
0
0
0
0
0
0
0
0
0
0
0
0
0
0
0
0
210
225
195
0
0
0
0
0
0
0
0
0
0
0
0
0
0
0
0
0
0
0
0
0
180
225
150
0
0
0
0
0
0
0
0
0
0
0
