P2
# Created by GIMP version 2.10.22 PNM plug-in
13 15
255
0
0
0
105
135
150
135
90
0
0
0
0
0
0
90
195
225
225
225
225
225
195
75
0
0
0
0
195
210
135
60
15
60
135
210
195
0
0
0
90
225
135
0
0
0
0
0
135
225
90
0
0
135
225
60
0
0
0
0
0
75
225
135
0
0
150
225
30
0
0
0
0
0
60
225
135
0
0
150
225
30
0
0
0
0
0
60
225
135
0
0
150
225
30
0
0
0
0
0
60
225
135
0
0
150
225
30
0
0
0
0
0
60
225
135
0
0
150
225
30
0
0
0
0
0
60
225
135
0
0
150
225
45
0
0
0
0
0
60
225
135
0
0
120
225
90
0
0
0
0
0
105
225
120
0
0
60
225
165
0
0
0
0
0
165
225
60
0
0
0
165
225
180
150
150
150
195
225
165
0
0
0
0
15
150
210
225
225
225
195
150
0
0
0
0
