P2
# Created by GIMP version 2.10.22 PNM plug-in
24 28
255
0
0
0
0
0
0
0
0
0
0
0
0
0
0
0
0
0
0
120
165
120
0
0
0
0
0
0
0
0
0
0
0
0
0
0
0
0
0
0
0
0
135
225
225
225
0
0
0
0
0
0
0
0
0
0
0
0
0
0
0
0
0
0
0
90
225
225
225
225
0
0
0
0
0
0
0
0
0
0
0
0
0
0
0
0
0
0
45
210
225
225
225
225
0
0
0
0
0
0
0
0
0
0
0
0
0
0
0
0
0
0
180
225
225
225
225
225
0
0
0
0
0
0
0
0
0
0
0
0
0
0
0
0
0
135
225
225
180
195
225
225
0
0
0
0
0
0
0
0
0
0
0
0
0
0
0
0
90
225
225
210
60
195
225
225
0
0
0
0
0
0
0
0
0
0
0
0
0
0
0
45
210
225
225
105
0
195
225
225
0
0
0
0
0
0
0
0
0
0
0
0
0
0
0
180
225
225
150
0
0
195
225
225
0
0
0
0
0
0
0
0
0
0
0
0
0
0
150
225
225
180
0
0
0
195
225
225
0
0
0
0
0
0
0
0
0
0
0
0
0
105
225
225
210
45
0
0
0
195
225
225
0
0
0
0
0
0
0
0
0
0
0
0
60
210
225
225
90
0
0
0
0
195
225
225
0
0
0
0
0
0
0
0
0
0
0
0
195
225
225
135
0
0
0
0
0
195
225
225
0
0
0
0
0
0
0
0
0
0
0
150
225
225
180
0
0
0
0
0
0
195
225
210
0
0
0
0
0
0
0
0
0
0
105
225
225
210
30
0
0
0
0
0
0
195
225
210
0
0
0
0
0
0
0
0
0
60
210
225
225
90
0
0
0
0
0
0
0
195
225
210
0
0
0
0
0
0
0
0
15
195
225
225
135
0
0
0
0
0
0
0
0
195
225
210
0
0
0
0
0
0
0
0
165
225
225
165
0
0
0
0
0
0
0
0
0
195
225
210
0
0
0
0
0
0
0
120
225
225
195
30
0
0
0
0
0
0
0
0
0
195
225
210
0
0
0
0
0
0
60
210
225
225
180
165
165
165
165
165
165
165
165
165
165
225
225
225
165
165
165
0
0
0
150
225
225
225
225
225
225
225
225
225
225
225
225
225
225
225
225
225
225
225
225
0
0
0
120
225
225
225
225
225
225
225
225
225
225
225
225
225
225
225
225
225
225
225
225
0
0
0
0
45
75
75
75
75
75
75
75
75
75
75
75
75
75
210
225
225
75
75
45
0
0
0
0
0
0
0
0
0
0
0
0
0
0
0
0
0
0
195
225
210
0
0
0
0
0
0
0
0
0
0
0
0
0
0
0
0
0
0
0
0
0
195
225
210
0
0
0
0
0
0
0
0
0
0
0
0
0
0
0
0
0
0
0
0
0
195
225
210
0
0
0
0
0
0
0
0
0
0
0
0
0
0
0
0
0
0
0
0
0
195
225
210
0
0
0
0
0
0
0
0
0
0
0
0
0
0
0
0
0
0
0
0
0
165
225
165
0
0
0
