P2
# Created by GIMP version 2.10.22 PNM plug-in
24 28
255
0
0
0
0
0
0
0
0
0
45
120
150
165
165
165
150
135
105
15
0
0
0
0
0
0
0
0
0
0
0
0
120
195
225
225
225
225
225
225
225
225
225
225
165
75
0
0
0
0
0
0
0
0
0
165
225
225
225
225
225
225
225
225
225
225
225
225
225
210
120
0
0
0
0
0
0
0
150
225
225
225
195
150
120
105
105
105
120
135
180
210
225
225
210
75
0
0
0
0
0
45
210
225
225
135
0
0
0
0
0
0
0
0
0
45
180
225
225
180
0
0
0
0
0
135
225
225
165
0
0
0
0
0
0
0
0
0
0
0
45
210
225
225
45
0
0
0
0
180
225
225
90
0
0
0
0
0
0
0
0
0
0
0
0
165
225
225
120
0
0
0
0
195
225
210
0
0
0
0
0
0
0
0
0
0
0
0
0
120
225
225
150
0
0
0
0
210
225
210
0
0
0
0
0
0
0
0
0
0
0
0
0
90
225
225
165
0
0
0
0
210
225
195
0
0
0
0
0
0
0
0
0
0
0
0
0
75
225
225
180
0
0
0
0
210
225
195
0
0
0
0
0
0
0
0
0
0
0
0
0
75
225
225
180
0
0
0
0
210
225
195
0
0
0
0
0
0
0
0
0
0
0
0
0
75
225
225
180
0
0
0
0
210
225
195
0
0
0
0
0
0
0
0
0
0
0
0
0
75
225
225
180
0
0
0
0
210
225
195
0
0
0
0
0
0
0
0
0
0
0
0
0
75
225
225
180
0
0
0
0
210
225
195
0
0
0
0
0
0
0
0
0
0
0
0
0
75
225
225
180
0
0
0
0
210
225
195
0
0
0
0
0
0
0
0
0
0
0
0
0
75
225
225
180
0
0
0
0
210
225
195
0
0
0
0
0
0
0
0
0
0
0
0
0
75
225
225
180
0
0
0
0
210
225
195
0
0
0
0
0
0
0
0
0
0
0
0
0
75
225
225
180
0
0
0
0
210
225
195
0
0
0
0
0
0
0
0
0
0
0
0
0
75
225
225
180
0
0
0
0
210
225
195
0
0
0
0
0
0
0
0
0
0
0
0
0
75
225
225
165
0
0
0
0
210
225
210
0
0
0
0
0
0
0
0
0
0
0
0
0
105
225
225
165
0
0
0
0
195
225
225
30
0
0
0
0
0
0
0
0
0
0
0
0
135
225
225
150
0
0
0
0
165
225
225
120
0
0
0
0
0
0
0
0
0
0
0
0
180
225
225
90
0
0
0
0
105
225
225
210
30
0
0
0
0
0
0
0
0
0
0
105
225
225
210
15
0
0
0
0
0
195
225
225
195
105
0
0
0
0
0
0
0
30
135
210
225
225
150
0
0
0
0
0
0
90
210
225
225
225
210
195
180
180
180
195
195
225
225
225
225
195
15
0
0
0
0
0
0
0
90
210
225
225
225
225
225
225
225
225
225
225
225
225
180
30
0
0
0
0
0
0
0
0
0
0
120
180
210
225
225
225
225
225
225
195
165
90
0
0
0
0
