P2
# Created by GIMP version 2.10.22 PNM plug-in
24 28
255
0
0
0
0
0
0
0
0
90
135
165
165
165
165
165
165
165
150
105
0
0
0
0
0
0
0
0
0
0
0
105
195
225
225
225
225
225
225
225
225
225
225
225
210
120
0
0
0
0
0
0
0
0
105
225
225
225
225
225
225
225
225
225
225
225
225
225
225
225
135
0
0
0
0
0
0
30
210
225
225
195
135
105
90
75
75
75
90
105
135
180
225
225
225
60
0
0
0
0
0
135
225
225
180
0
0
0
0
0
0
0
0
0
0
0
165
225
225
165
0
0
0
0
0
180
225
225
90
0
0
0
0
0
0
0
0
0
0
0
45
225
225
195
0
0
0
0
0
195
225
210
0
0
0
0
0
0
0
0
0
0
0
0
0
210
225
210
0
0
0
0
0
120
195
135
0
0
0
0
0
0
0
0
0
0
0
0
0
195
225
210
0
0
0
0
0
0
0
0
0
0
0
0
0
0
0
0
0
0
0
0
0
195
225
210
0
0
0
0
0
0
0
0
0
0
0
0
0
0
0
0
0
0
0
0
0
210
225
195
0
0
0
0
0
0
0
0
0
0
0
0
0
0
0
0
0
0
0
0
75
225
225
165
0
0
0
0
0
0
0
0
0
0
0
0
0
0
0
0
0
0
0
15
180
225
225
90
0
0
0
0
0
0
0
0
0
0
0
0
120
150
150
150
150
150
165
210
225
225
150
0
0
0
0
0
0
0
0
0
0
0
0
60
225
225
225
225
225
225
225
225
225
165
0
0
0
0
0
0
0
0
0
0
0
0
0
45
225
225
225
225
225
225
225
225
225
225
180
0
0
0
0
0
0
0
0
0
0
0
0
0
60
105
105
105
105
120
135
180
225
225
225
150
0
0
0
0
0
0
0
0
0
0
0
0
0
0
0
0
0
0
0
0
90
210
225
210
30
0
0
0
0
0
0
0
0
0
0
0
0
0
0
0
0
0
0
0
0
165
225
225
120
0
0
0
0
0
0
0
0
0
0
0
0
0
0
0
0
0
0
0
0
105
225
225
165
0
0
0
0
0
0
0
0
0
0
0
0
0
0
0
0
0
0
0
0
60
225
225
165
0
0
0
105
195
150
0
0
0
0
0
0
0
0
0
0
0
0
0
0
60
225
225
180
0
0
0
180
225
225
45
0
0
0
0
0
0
0
0
0
0
0
0
0
75
225
225
165
0
0
0
165
225
225
105
0
0
0
0
0
0
0
0
0
0
0
0
0
120
225
225
150
0
0
0
120
225
225
180
0
0
0
0
0
0
0
0
0
0
0
0
0
180
225
225
105
0
0
0
15
210
225
225
165
45
0
0
0
0
0
0
0
0
0
60
165
225
225
210
0
0
0
0
0
120
225
225
225
225
195
195
195
195
195
195
195
195
210
225
225
225
225
120
0
0
0
0
0
0
135
225
225
225
225
225
225
225
225
225
225
225
225
225
225
225
135
0
0
0
0
0
0
0
0
75
165
195
210
225
225
225
225
225
225
225
210
195
150
60
0
0
0
