P2
# Created by GIMP version 2.10.22 PNM plug-in
85 10
255
30
30
30
30
30
30
30
30
30
30
30
30
30
30
30
30
30
30
30
30
30
30
30
30
30
30
30
30
30
30
30
30
30
30
30
30
30
30
30
30
30
30
30
30
30
30
30
30
30
30
30
30
30
30
30
30
30
30
30
30
30
30
30
30
30
30
30
30
30
30
30
30
30
30
30
30
30
30
30
30
30
30
30
30
30
30
105
105
105
0
0
120
120
120
0
0
120
120
120
0
0
135
135
135
0
0
135
135
135
0
0
150
150
150
0
0
150
150
150
0
0
165
165
165
0
0
165
165
165
0
0
180
180
180
0
0
180
180
180
0
0
195
195
195
0
0
195
195
195
0
0
210
210
210
0
0
210
210
210
0
0
225
225
225
0
0
225
225
225
30
30
105
105
105
0
0
120
120
120
0
0
120
120
120
0
0
135
135
135
0
0
135
135
135
0
0
150
150
150
0
0
150
150
150
0
0
165
165
165
0
0
165
165
165
0
0
180
180
180
0
0
180
180
180
0
0
195
195
195
0
0
195
195
195
0
0
210
210
210
0
0
210
210
210
0
0
225
225
225
0
0
225
225
225
30
30
105
105
105
0
0
120
120
120
0
0
120
120
120
0
0
135
135
135
0
0
135
135
135
0
0
150
150
150
0
0
150
150
150
0
0
165
165
165
0
0
165
165
165
0
0
180
180
180
0
0
180
180
180
0
0
195
195
195
0
0
195
195
195
0
0
210
210
210
0
0
210
210
210
0
0
225
225
225
0
0
225
225
225
30
30
105
105
105
0
0
120
120
120
0
0
120
120
120
0
0
135
135
135
0
0
135
135
135
0
0
150
150
150
0
0
150
150
150
0
0
165
165
165
0
0
165
165
165
0
0
180
180
180
0
0
180
180
180
0
0
195
195
195
0
0
195
195
195
0
0
210
210
210
0
0
210
210
210
0
0
225
225
225
0
0
225
225
225
30
30
105
105
105
0
0
120
120
120
0
0
120
120
120
0
0
135
135
135
0
0
135
135
135
0
0
150
150
150
0
0
150
150
150
0
0
165
165
165
0
0
165
165
165
0
0
180
180
180
0
0
180
180
180
0
0
195
195
195
0
0
195
195
195
0
0
210
210
210
0
0
210
210
210
0
0
225
225
225
0
0
225
225
225
30
30
105
105
105
0
0
120
120
120
0
0
120
120
120
0
0
135
135
135
0
0
135
135
135
0
0
150
150
150
0
0
150
150
150
0
0
165
165
165
0
0
165
165
165
0
0
180
180
180
0
0
180
180
180
0
0
195
195
195
0
0
195
195
195
0
0
210
210
210
0
0
210
210
210
0
0
225
225
225
0
0
225
225
225
30
30
105
105
105
0
0
120
120
120
0
0
120
120
120
0
0
135
135
135
0
0
135
135
135
0
0
150
150
150
0
0
150
150
150
0
0
165
165
165
0
0
165
165
165
0
0
180
180
180
0
0
180
180
180
0
0
195
195
195
0
0
195
195
195
0
0
210
210
210
0
0
210
210
210
0
0
225
225
225
0
0
225
225
225
30
30
105
105
105
0
0
120
120
120
0
0
120
120
120
0
0
135
135
135
0
0
135
135
135
0
0
150
150
150
0
0
150
150
150
0
0
165
165
165
0
0
165
165
165
0
0
180
180
180
0
0
180
180
180
0
0
195
195
195
0
0
195
195
195
0
0
210
210
210
0
0
210
210
210
0
0
225
225
225
0
0
225
225
225
30
30
30
30
30
30
30
30
30
30
30
30
30
30
30
30
30
30
30
30
30
30
30
30
30
30
30
30
30
30
30
30
30
30
30
30
30
30
30
30
30
30
30
30
30
30
30
30
30
30
30
30
30
30
30
30
30
30
30
30
30
30
30
30
30
30
30
30
30
30
30
30
30
30
30
30
30
30
30
30
30
30
30
30
30
30
