P2
# Created by GIMP version 2.10.22 PNM plug-in
13 15
255
30
150
150
150
150
150
150
150
150
150
135
0
0
75
225
225
225
225
225
225
225
225
225
225
0
0
0
0
0
0
0
0
0
0
0
150
225
0
0
0
0
0
0
0
0
0
0
0
180
210
0
0
0
0
0
0
0
0
0
0
45
210
180
0
0
0
0
0
0
0
0
0
0
180
225
90
0
0
0
0
0
0
0
0
45
180
225
150
0
0
0
0
0
0
0
0
45
195
225
150
0
0
0
0
0
0
0
0
0
180
225
105
0
0
0
0
0
0
0
0
0
90
225
165
0
0
0
0
0
0
0
0
0
0
150
225
45
0
0
0
0
0
0
0
0
0
0
180
195
0
0
0
0
0
0
0
0
0
0
0
195
195
0
0
0
0
0
0
0
0
0
0
0
195
180
0
0
0
0
0
0
0
0
0
0
0
195
165
0
0
0
0
0
0
0
