P2
# Created by GIMP version 2.10.22 PNM plug-in
24 28
255
0
0
0
0
0
150
165
165
165
165
165
165
165
165
165
165
165
165
165
165
165
165
165
90
0
0
0
0
105
225
225
225
225
225
225
225
225
225
225
225
225
225
225
225
225
225
225
195
0
0
0
0
120
225
225
225
225
225
225
225
225
225
225
225
225
225
225
225
225
225
225
165
0
0
0
0
120
225
225
165
75
75
75
75
75
75
75
75
75
75
75
75
75
75
75
0
0
0
0
0
120
225
225
150
0
0
0
0
0
0
0
0
0
0
0
0
0
0
0
0
0
0
0
0
120
225
225
150
0
0
0
0
0
0
0
0
0
0
0
0
0
0
0
0
0
0
0
0
120
225
225
150
0
0
0
0
0
0
0
0
0
0
0
0
0
0
0
0
0
0
0
0
120
225
225
150
0
0
0
0
0
0
0
0
0
0
0
0
0
0
0
0
0
0
0
0
120
225
225
150
0
0
0
0
0
0
0
0
0
0
0
0
0
0
0
0
0
0
0
0
120
225
225
150
0
45
105
135
150
150
150
150
150
135
105
15
0
0
0
0
0
0
0
0
120
225
225
195
195
225
225
225
225
225
225
225
225
225
225
210
165
60
0
0
0
0
0
0
120
225
225
225
225
225
225
225
225
225
225
225
225
225
225
225
225
210
90
0
0
0
0
0
105
225
225
225
225
195
165
135
120
120
120
120
120
135
165
210
225
225
195
0
0
0
0
0
15
180
210
180
90
0
0
0
0
0
0
0
0
0
0
45
195
225
225
120
0
0
0
0
0
0
0
0
0
0
0
0
0
0
0
0
0
0
0
0
105
225
225
180
0
0
0
0
0
0
0
0
0
0
0
0
0
0
0
0
0
0
0
0
0
210
225
195
0
0
0
0
0
0
0
0
0
0
0
0
0
0
0
0
0
0
0
0
0
195
225
210
0
0
0
0
0
0
0
0
0
0
0
0
0
0
0
0
0
0
0
0
0
195
225
210
0
0
0
0
0
0
0
0
0
0
0
0
0
0
0
0
0
0
0
0
0
195
225
210
0
0
0
0
0
0
0
0
0
0
0
0
0
0
0
0
0
0
0
0
0
195
225
210
0
0
0
0
135
180
105
0
0
0
0
0
0
0
0
0
0
0
0
0
0
195
225
210
0
0
0
0
210
225
195
0
0
0
0
0
0
0
0
0
0
0
0
0
0
210
225
210
0
0
0
0
195
225
210
15
0
0
0
0
0
0
0
0
0
0
0
0
30
225
225
195
0
0
0
0
165
225
225
135
0
0
0
0
0
0
0
0
0
0
0
0
150
225
225
165
0
0
0
0
105
225
225
210
120
0
0
0
0
0
0
0
0
0
15
135
225
225
225
75
0
0
0
0
0
180
225
225
225
210
195
180
180
180
180
180
180
195
210
225
225
225
165
0
0
0
0
0
0
30
180
225
225
225
225
225
225
225
225
225
225
225
225
225
225
165
15
0
0
0
0
0
0
0
0
105
180
210
225
225
225
225
225
225
225
210
195
165
90
0
0
0
