P2
# Created by GIMP version 2.10.22 PNM plug-in
24 28
255
0
0
0
0
0
0
0
0
90
135
165
165
165
165
165
165
165
150
120
45
0
0
0
0
0
0
0
0
0
0
105
195
225
225
225
225
225
225
225
225
225
225
225
225
165
30
0
0
0
0
0
0
0
120
225
225
225
225
225
225
225
225
225
225
225
225
225
225
225
195
15
0
0
0
0
0
45
210
225
225
195
135
105
90
75
75
75
75
90
120
165
210
225
225
150
0
0
0
0
0
135
225
225
180
0
0
0
0
0
0
0
0
0
0
0
90
225
225
210
0
0
0
0
0
180
225
225
75
0
0
0
0
0
0
0
0
0
0
0
0
180
225
225
75
0
0
0
0
195
225
210
0
0
0
0
0
0
0
0
0
0
0
0
0
150
225
225
120
0
0
0
0
135
195
135
0
0
0
0
0
0
0
0
0
0
0
0
0
135
225
225
135
0
0
0
0
0
0
0
0
0
0
0
0
0
0
0
0
0
0
0
0
150
225
225
120
0
0
0
0
0
0
0
0
0
0
0
0
0
0
0
0
0
0
0
0
195
225
225
90
0
0
0
0
0
0
0
0
0
0
0
0
0
0
0
0
0
0
0
120
225
225
210
0
0
0
0
0
0
0
0
0
0
0
0
0
0
0
0
0
0
0
135
225
225
225
135
0
0
0
0
0
0
0
0
0
0
0
0
0
0
0
0
0
60
180
225
225
225
165
0
0
0
0
0
0
0
0
0
0
0
0
0
0
0
0
0
135
210
225
225
225
150
0
0
0
0
0
0
0
0
0
0
0
0
0
0
0
0
105
195
225
225
225
210
120
0
0
0
0
0
0
0
0
0
0
0
0
0
0
0
60
180
225
225
225
225
165
45
0
0
0
0
0
0
0
0
0
0
0
0
0
0
0
135
210
225
225
225
195
90
0
0
0
0
0
0
0
0
0
0
0
0
0
0
0
60
180
225
225
225
210
135
0
0
0
0
0
0
0
0
0
0
0
0
0
0
0
0
75
210
225
225
225
165
45
0
0
0
0
0
0
0
0
0
0
0
0
0
0
0
0
60
210
225
225
210
105
0
0
0
0
0
0
0
0
0
0
0
0
0
0
0
0
0
0
195
225
225
195
60
0
0
0
0
0
0
0
0
0
0
0
0
0
0
0
0
0
0
120
225
225
210
45
0
0
0
0
0
0
0
0
0
0
0
0
0
0
0
0
0
0
0
195
225
225
120
0
0
0
0
0
0
0
0
0
0
0
0
0
0
0
0
0
0
0
45
225
225
195
0
0
0
0
0
0
0
0
0
0
0
0
0
0
0
0
0
0
0
0
120
225
225
165
0
0
0
0
0
0
0
0
0
0
0
0
0
0
0
0
0
0
0
0
135
225
225
195
180
180
180
180
180
180
180
180
180
180
180
180
180
180
165
45
0
0
0
0
150
225
225
225
225
225
225
225
225
225
225
225
225
225
225
225
225
225
225
135
0
0
0
0
105
210
225
225
225
225
225
225
225
225
225
225
225
225
225
225
225
225
210
90
