P2
# Created by GIMP version 2.10.22 PNM plug-in
24 28
255
0
0
0
0
0
0
0
90
165
195
210
225
225
225
225
225
225
210
195
165
105
0
0
0
0
0
0
0
0
15
165
225
225
225
225
225
225
225
225
225
225
225
225
225
225
180
30
0
0
0
0
0
0
165
225
225
225
225
195
195
195
195
195
195
195
195
210
225
225
225
180
0
0
0
0
0
75
225
225
225
135
30
0
0
0
0
0
0
0
0
15
135
210
225
225
90
0
0
0
0
165
225
225
150
0
0
0
0
0
0
0
0
0
0
0
0
135
225
225
165
0
0
0
0
195
225
225
45
0
0
0
0
0
0
0
0
0
0
0
0
15
210
225
195
0
0
0
0
210
225
210
0
0
0
0
0
0
0
0
0
0
0
0
0
0
195
225
210
0
0
0
0
210
225
195
0
0
0
0
0
0
0
0
0
0
0
0
0
0
195
225
225
0
0
0
0
210
225
195
0
0
0
0
0
0
0
0
0
0
0
0
0
0
195
225
225
0
0
0
0
210
225
195
0
0
0
0
0
0
0
0
0
0
0
0
0
0
195
225
225
0
0
0
0
210
225
195
0
0
0
0
0
0
0
0
0
0
0
0
0
0
195
225
225
0
0
0
0
210
225
210
0
0
0
0
0
0
0
0
0
0
0
0
0
0
195
225
225
0
0
0
0
195
225
225
0
0
0
0
0
0
0
0
0
0
0
0
0
0
210
225
225
0
0
0
0
165
225
225
105
0
0
0
0
0
0
0
0
0
0
0
0
90
225
225
225
0
0
0
0
120
225
225
195
60
0
0
0
0
0
0
0
0
0
0
45
195
225
225
225
0
0
0
0
0
195
225
225
210
180
150
135
135
135
135
135
135
150
180
210
225
225
225
225
0
0
0
0
0
75
210
225
225
225
225
225
225
225
225
225
225
225
225
225
210
195
225
225
0
0
0
0
0
0
45
165
210
225
225
225
225
225
225
225
225
225
225
180
60
195
225
225
0
0
0
0
0
0
0
0
0
75
120
135
135
135
135
135
135
105
45
0
0
195
225
225
0
0
0
0
0
0
0
0
0
0
0
0
0
0
0
0
0
0
0
0
0
195
225
225
0
0
0
0
135
195
120
0
0
0
0
0
0
0
0
0
0
0
0
0
0
195
225
225
0
0
0
0
210
225
210
0
0
0
0
0
0
0
0
0
0
0
0
0
0
195
225
210
0
0
0
0
195
225
225
45
0
0
0
0
0
0
0
0
0
0
0
0
30
225
225
195
0
0
0
0
150
225
225
165
0
0
0
0
0
0
0
0
0
0
0
0
150
225
225
165
0
0
0
0
60
210
225
225
180
135
90
75
75
75
75
75
75
90
135
180
225
225
225
75
0
0
0
0
0
135
225
225
225
225
225
225
225
225
225
225
225
225
225
225
225
225
150
0
0
0
0
0
0
0
120
210
225
225
225
225
225
225
225
225
225
225
225
225
210
120
0
0
0
0
0
0
0
0
0
0
105
150
165
165
165
165
165
165
165
165
150
105
0
0
0
0
