P2
# Created by GIMP version 2.10.22 PNM plug-in
13 15
255
0
0
0
0
0
0
0
0
105
120
0
0
0
0
0
0
0
0
0
0
90
225
210
0
0
0
0
0
0
0
0
0
30
210
225
225
0
0
0
0
0
0
0
0
0
180
210
165
210
0
0
0
0
0
0
0
0
135
225
120
165
210
0
0
0
0
0
0
0
90
225
165
0
165
210
0
0
0
0
0
0
45
210
195
15
0
165
210
0
0
0
0
0
0
180
210
60
0
0
165
210
0
0
0
0
0
150
225
105
0
0
0
165
210
0
0
0
0
105
225
150
0
0
0
0
165
210
0
0
0
45
210
225
165
165
165
165
165
225
225
165
0
0
75
210
210
210
210
210
210
210
225
225
210
0
0
0
0
0
0
0
0
0
0
165
210
0
0
0
0
0
0
0
0
0
0
0
165
210
0
0
0
0
0
0
0
0
0
0
0
150
195
0
0
0
