P2
# Created by GIMP version 2.10.22 PNM plug-in
13 15
255
0
135
150
150
150
150
150
150
150
150
120
0
0
30
225
225
225
225
225
225
225
225
225
195
0
0
45
225
150
0
0
0
0
0
0
0
0
0
0
45
225
150
0
0
0
0
0
0
0
0
0
0
45
225
150
0
0
0
0
0
0
0
0
0
0
45
225
165
150
180
180
180
180
150
75
0
0
0
30
225
225
225
210
195
195
210
225
225
105
0
0
0
150
150
30
0
0
0
0
75
210
195
0
0
0
0
0
0
0
0
0
0
0
165
210
0
0
0
0
0
0
0
0
0
0
0
150
225
0
0
0
0
0
0
0
0
0
0
0
150
225
0
0
120
210
30
0
0
0
0
0
0
165
225
0
0
105
225
135
0
0
0
0
0
0
195
210
0
0
15
195
225
165
150
150
150
165
195
225
150
0
0
0
60
180
210
225
225
225
225
210
150
0
0
0
