P2
# Created by GIMP version 2.10.22 PNM plug-in
13 15
255
0
0
60
135
150
150
150
135
90
0
0
0
0
0
135
225
225
225
225
225
225
225
165
0
0
0
30
225
195
75
0
0
0
60
180
225
105
0
0
105
225
90
0
0
0
0
0
30
225
150
0
0
45
135
0
0
0
0
0
0
0
210
165
0
0
0
0
0
0
0
0
0
0
45
225
150
0
0
0
0
0
0
30
75
75
90
180
210
60
0
0
0
0
0
0
195
225
225
225
225
150
0
0
0
0
0
0
0
90
135
135
150
195
225
120
0
0
0
0
0
0
0
0
0
0
0
210
180
0
0
15
0
0
0
0
0
0
0
0
180
210
0
0
180
180
0
0
0
0
0
0
0
180
210
0
0
180
210
45
0
0
0
0
0
15
210
180
0
0
105
225
210
165
150
150
150
165
195
225
120
0
0
0
120
195
210
225
225
225
225
195
120
0
0
0
