P2
# Created by GIMP version 2.10.22 PNM plug-in
13 15
255
0
0
0
0
0
0
0
0
90
120
0
0
0
0
0
0
0
0
0
0
120
225
210
0
0
0
0
0
0
0
0
0
120
225
225
210
0
0
0
0
0
0
0
0
105
225
180
165
210
0
0
0
0
0
0
0
0
120
165
15
165
210
0
0
0
0
0
0
0
0
0
0
0
165
210
0
0
0
0
0
0
0
0
0
0
0
165
210
0
0
0
0
0
0
0
0
0
0
0
165
210
0
0
0
0
0
0
0
0
0
0
0
165
210
0
0
0
0
0
0
0
0
0
0
0
165
210
0
0
0
0
0
0
0
0
0
0
0
165
210
0
0
0
0
0
0
0
0
0
0
0
165
210
0
0
0
0
0
0
0
0
0
0
0
165
210
0
0
0
0
0
0
0
0
0
0
0
165
210
0
0
0
0
0
0
0
0
0
0
0
150
195
0
0
0
