P2
# Created by GIMP version 2.10.22 PNM plug-in
13 15
255
0
0
105
150
150
150
150
135
60
0
0
0
0
45
195
225
225
225
225
225
225
210
120
0
0
0
165
225
120
30
0
0
15
90
210
210
0
0
0
195
180
0
0
0
0
0
0
135
225
75
0
0
120
75
0
0
0
0
0
0
120
225
90
0
0
0
0
0
0
0
0
0
0
165
225
45
0
0
0
0
0
0
0
0
15
150
225
165
0
0
0
0
0
0
0
0
105
195
225
165
15
0
0
0
0
0
0
60
180
225
210
105
0
0
0
0
0
0
0
120
210
225
150
30
0
0
0
0
0
0
0
135
225
195
75
0
0
0
0
0
0
0
0
60
225
195
15
0
0
0
0
0
0
0
0
0
150
225
75
0
0
0
0
0
0
0
0
0
0
180
210
150
150
150
150
150
150
150
135
15
0
0
165
225
225
225
225
225
225
225
225
225
75
0
0
